ISO-10303-21;
HEADER;
/* Generated by software containing ST-Developer
 * from STEP Tools, Inc. (www.steptools.com) 
 */
/* OPTION: using custom schema-name function */

FILE_DESCRIPTION(
/* description */ (''),
/* implementation_level */ '2;1');

FILE_NAME(
/* name */ '001 - HOLES_POCKET.stp',
/* time_stamp */ '2026-07-27T17:51:01+08:00',
/* author */ (''),
/* organization */ (''),
/* preprocessor_version */ 'ST-DEVELOPER v20.1',
/* originating_system */ 'SIEMENS PLM Software NX2512.5000',
/* authorisation */ '');

FILE_SCHEMA (('AUTOMOTIVE_DESIGN { 1 0 10303 214 3 1 1 1 }'));
ENDSEC;

DATA;
#10=PROPERTY_DEFINITION_REPRESENTATION(#14,#12);
#11=PROPERTY_DEFINITION_REPRESENTATION(#15,#13);
#12=REPRESENTATION('',(#16),#2177);
#13=REPRESENTATION('',(#17),#2177);
#14=PROPERTY_DEFINITION('pmi validation property','',#21);
#15=PROPERTY_DEFINITION('pmi validation property','',#21);
#16=VALUE_REPRESENTATION_ITEM('number of annotations',COUNT_MEASURE(0.));
#17=VALUE_REPRESENTATION_ITEM('number of views',COUNT_MEASURE(0.));
#18=SHAPE_REPRESENTATION_RELATIONSHIP('None',
'relationship between 001 - HOLES_POCKET_objects-None and 001 - HOLES_
POCKET_objects-None',#30,#19);
#19=ADVANCED_BREP_SHAPE_REPRESENTATION(
'001 - HOLES_POCKET_objects-None',(#40),#2177);
#20=SHAPE_DEFINITION_REPRESENTATION(#21,#30);
#21=PRODUCT_DEFINITION_SHAPE('','',#22);
#22=PRODUCT_DEFINITION(' ','',#24,#23);
#23=PRODUCT_DEFINITION_CONTEXT('part definition',#29,'design');
#24=PRODUCT_DEFINITION_FORMATION_WITH_SPECIFIED_SOURCE(' ',' ',#26,
 .NOT_KNOWN.);
#25=PRODUCT_RELATED_PRODUCT_CATEGORY('part','',(#26));
#26=PRODUCT('001 - HOLES_POCKET_objects','001 - HOLES_POCKET_objects',
' ',(#27));
#27=PRODUCT_CONTEXT(' ',#29,'mechanical');
#28=APPLICATION_PROTOCOL_DEFINITION('international standard',
'automotive_design',2010,#29);
#29=APPLICATION_CONTEXT(
'core data for automotive mechanical design processes');
#30=SHAPE_REPRESENTATION('001 - HOLES_POCKET_objects-None',(#1300),#2177);
#31=PRESENTATION_LAYER_ASSIGNMENT('1','Layer 1',(#40));
#32=STYLED_ITEM('',(#33),#40);
#33=PRESENTATION_STYLE_ASSIGNMENT((#34));
#34=SURFACE_STYLE_USAGE(.BOTH.,#35);
#35=SURFACE_SIDE_STYLE('',(#36));
#36=SURFACE_STYLE_FILL_AREA(#37);
#37=FILL_AREA_STYLE('',(#38));
#38=FILL_AREA_STYLE_COLOUR('',#39);
#39=COLOUR_RGB('medium steel',0.611764705882353,0.658823529411765,0.670588235294118);
#40=MANIFOLD_SOLID_BREP('',#41);
#41=CLOSED_SHELL('',(#121,#122,#123,#124,#125,#126,#127,#128,#129,#130,
#131,#132,#133,#134,#135,#136,#137,#138,#139,#140,#141,#142,#143,#144,#145,
#146,#147,#148,#149,#150,#151,#152,#153,#154,#155,#156,#157,#158,#159,#160,
#161,#162,#163,#164,#165,#166,#167,#168,#169,#170,#171,#172,#173,#174,#175,
#176,#177,#178,#179,#180,#181,#182,#183,#184,#185));
#42=FACE_OUTER_BOUND('',#544,.T.);
#43=FACE_OUTER_BOUND('',#545,.T.);
#44=FACE_OUTER_BOUND('',#546,.T.);
#45=FACE_OUTER_BOUND('',#598,.T.);
#46=FACE_OUTER_BOUND('',#599,.T.);
#47=FACE_OUTER_BOUND('',#600,.T.);
#48=FACE_OUTER_BOUND('',#601,.T.);
#49=FACE_OUTER_BOUND('',#653,.T.);
#50=FACE_OUTER_BOUND('',#656,.T.);
#51=FACE_OUTER_BOUND('',#657,.T.);
#52=FACE_OUTER_BOUND('',#658,.T.);
#53=FACE_OUTER_BOUND('',#659,.T.);
#54=PLANE('',#1452);
#55=PLANE('',#1453);
#56=PLANE('',#1454);
#57=PLANE('',#1455);
#58=PLANE('',#1457);
#59=PLANE('',#1458);
#60=PLANE('',#1459);
#61=PLANE('',#1460);
#62=PLANE('',#1461);
#63=PLANE('',#1467);
#64=PLANE('',#1468);
#65=LINE('',#2096,#93);
#66=LINE('',#2099,#94);
#67=LINE('',#2101,#95);
#68=LINE('',#2103,#96);
#69=LINE('',#2104,#97);
#70=LINE('',#2109,#98);
#71=LINE('',#2113,#99);
#72=LINE('',#2117,#100);
#73=LINE('',#2121,#101);
#74=LINE('',#2123,#102);
#75=LINE('',#2125,#103);
#76=LINE('',#2127,#104);
#77=LINE('',#2129,#105);
#78=LINE('',#2131,#106);
#79=LINE('',#2133,#107);
#80=LINE('',#2137,#108);
#81=LINE('',#2140,#109);
#82=LINE('',#2142,#110);
#83=LINE('',#2144,#111);
#84=LINE('',#2146,#112);
#85=LINE('',#2148,#113);
#86=LINE('',#2150,#114);
#87=LINE('',#2152,#115);
#88=LINE('',#2155,#116);
#89=LINE('',#2156,#117);
#90=LINE('',#2162,#118);
#91=LINE('',#2168,#119);
#92=LINE('',#2169,#120);
#93=VECTOR('',#1770,1.);
#94=VECTOR('',#1771,1.);
#95=VECTOR('',#1772,1.);
#96=VECTOR('',#1773,1.);
#97=VECTOR('',#1774,1.);
#98=VECTOR('',#1777,1.);
#99=VECTOR('',#1780,1.);
#100=VECTOR('',#1783,1.);
#101=VECTOR('',#1788,1.);
#102=VECTOR('',#1789,1.);
#103=VECTOR('',#1790,1.);
#104=VECTOR('',#1793,1.);
#105=VECTOR('',#1794,1.);
#106=VECTOR('',#1797,1.);
#107=VECTOR('',#1798,1.);
#108=VECTOR('',#1803,1.);
#109=VECTOR('',#1808,1.);
#110=VECTOR('',#1809,1.);
#111=VECTOR('',#1810,1.);
#112=VECTOR('',#1813,1.);
#113=VECTOR('',#1814,1.);
#114=VECTOR('',#1815,1.);
#115=VECTOR('',#1818,1.);
#116=VECTOR('',#1819,1.);
#117=VECTOR('',#1820,1.);
#118=VECTOR('',#1827,1.);
#119=VECTOR('',#1836,1.);
#120=VECTOR('',#1837,1.);
#121=ADVANCED_FACE('',(#240,#241),#186,.F.);
#122=ADVANCED_FACE('',(#242,#243),#187,.F.);
#123=ADVANCED_FACE('',(#244,#245),#188,.F.);
#124=ADVANCED_FACE('',(#246,#247),#189,.F.);
#125=ADVANCED_FACE('',(#248,#249),#190,.F.);
#126=ADVANCED_FACE('',(#250,#251),#191,.F.);
#127=ADVANCED_FACE('',(#252,#253),#192,.F.);
#128=ADVANCED_FACE('',(#254,#255),#193,.F.);
#129=ADVANCED_FACE('',(#256,#257),#194,.F.);
#130=ADVANCED_FACE('',(#258,#259),#195,.F.);
#131=ADVANCED_FACE('',(#260,#261),#196,.F.);
#132=ADVANCED_FACE('',(#262,#263),#197,.F.);
#133=ADVANCED_FACE('',(#264,#265),#198,.F.);
#134=ADVANCED_FACE('',(#266,#267),#199,.F.);
#135=ADVANCED_FACE('',(#268,#269),#200,.F.);
#136=ADVANCED_FACE('',(#270,#271),#201,.F.);
#137=ADVANCED_FACE('',(#272,#273),#202,.F.);
#138=ADVANCED_FACE('',(#274,#275),#203,.F.);
#139=ADVANCED_FACE('',(#276,#277),#204,.F.);
#140=ADVANCED_FACE('',(#278,#279),#205,.F.);
#141=ADVANCED_FACE('',(#280,#281),#206,.F.);
#142=ADVANCED_FACE('',(#282,#283),#207,.F.);
#143=ADVANCED_FACE('',(#284,#285),#208,.F.);
#144=ADVANCED_FACE('',(#286,#287),#209,.F.);
#145=ADVANCED_FACE('',(#288,#289),#210,.F.);
#146=ADVANCED_FACE('',(#290,#291),#211,.F.);
#147=ADVANCED_FACE('',(#292,#293),#212,.F.);
#148=ADVANCED_FACE('',(#294,#295),#213,.F.);
#149=ADVANCED_FACE('',(#296,#297),#214,.F.);
#150=ADVANCED_FACE('',(#298,#299),#215,.F.);
#151=ADVANCED_FACE('',(#300,#301),#216,.F.);
#152=ADVANCED_FACE('',(#302,#303),#217,.F.);
#153=ADVANCED_FACE('',(#304,#305),#218,.F.);
#154=ADVANCED_FACE('',(#306,#307),#219,.F.);
#155=ADVANCED_FACE('',(#308,#309),#220,.F.);
#156=ADVANCED_FACE('',(#310,#311),#221,.F.);
#157=ADVANCED_FACE('',(#312,#313),#222,.F.);
#158=ADVANCED_FACE('',(#314,#315),#223,.F.);
#159=ADVANCED_FACE('',(#316,#317),#224,.F.);
#160=ADVANCED_FACE('',(#318,#319),#225,.F.);
#161=ADVANCED_FACE('',(#320,#321),#226,.F.);
#162=ADVANCED_FACE('',(#322,#323),#227,.F.);
#163=ADVANCED_FACE('',(#324,#325),#228,.F.);
#164=ADVANCED_FACE('',(#326,#327),#229,.F.);
#165=ADVANCED_FACE('',(#328,#329),#230,.F.);
#166=ADVANCED_FACE('',(#330,#331),#231,.F.);
#167=ADVANCED_FACE('',(#332,#333),#232,.F.);
#168=ADVANCED_FACE('',(#334,#335),#233,.F.);
#169=ADVANCED_FACE('',(#336,#337),#234,.F.);
#170=ADVANCED_FACE('',(#338,#339),#54,.T.);
#171=ADVANCED_FACE('',(#42),#55,.T.);
#172=ADVANCED_FACE('',(#43),#56,.T.);
#173=ADVANCED_FACE('',(#44),#57,.T.);
#174=ADVANCED_FACE('',(#340,#341,#342,#343,#344,#345,#346,#347,#348,#349,
#350,#351,#352,#353,#354,#355,#356,#357,#358,#359,#360,#361,#362,#363,#364,
#365,#366,#367,#368,#369,#370,#371,#372,#373,#374,#375,#376,#377,#378,#379,
#380,#381,#382,#383,#384,#385,#386,#387,#388,#389,#390),#58,.T.);
#175=ADVANCED_FACE('',(#45),#59,.T.);
#176=ADVANCED_FACE('',(#46),#60,.F.);
#177=ADVANCED_FACE('',(#47),#61,.F.);
#178=ADVANCED_FACE('',(#48),#62,.F.);
#179=ADVANCED_FACE('',(#391,#392,#393,#394,#395,#396,#397,#398,#399,#400,
#401,#402,#403,#404,#405,#406,#407,#408,#409,#410,#411,#412,#413,#414,#415,
#416,#417,#418,#419,#420,#421,#422,#423,#424,#425,#426,#427,#428,#429,#430,
#431,#432,#433,#434,#435,#436,#437,#438,#439,#440,#441),#63,.F.);
#180=ADVANCED_FACE('',(#49),#64,.F.);
#181=ADVANCED_FACE('',(#442,#443),#235,.F.);
#182=ADVANCED_FACE('',(#50),#236,.F.);
#183=ADVANCED_FACE('',(#51),#237,.F.);
#184=ADVANCED_FACE('',(#52),#238,.F.);
#185=ADVANCED_FACE('',(#53),#239,.F.);
#186=CYLINDRICAL_SURFACE('',#1303,6.5615);
#187=CYLINDRICAL_SURFACE('',#1306,6.5615);
#188=CYLINDRICAL_SURFACE('',#1309,6.5615);
#189=CYLINDRICAL_SURFACE('',#1312,6.5615);
#190=CYLINDRICAL_SURFACE('',#1315,6.5615);
#191=CYLINDRICAL_SURFACE('',#1318,6.5615);
#192=CYLINDRICAL_SURFACE('',#1321,6.5615);
#193=CYLINDRICAL_SURFACE('',#1324,6.5615);
#194=CYLINDRICAL_SURFACE('',#1327,6.5615);
#195=CYLINDRICAL_SURFACE('',#1330,6.5615);
#196=CYLINDRICAL_SURFACE('',#1333,6.5615);
#197=CYLINDRICAL_SURFACE('',#1336,6.5615);
#198=CYLINDRICAL_SURFACE('',#1339,6.5615);
#199=CYLINDRICAL_SURFACE('',#1342,6.5615);
#200=CYLINDRICAL_SURFACE('',#1345,6.5615);
#201=CYLINDRICAL_SURFACE('',#1348,6.5615);
#202=CYLINDRICAL_SURFACE('',#1351,6.5615);
#203=CYLINDRICAL_SURFACE('',#1354,6.5615);
#204=CYLINDRICAL_SURFACE('',#1357,6.5615);
#205=CYLINDRICAL_SURFACE('',#1360,6.5615);
#206=CYLINDRICAL_SURFACE('',#1363,6.5615);
#207=CYLINDRICAL_SURFACE('',#1366,6.5615);
#208=CYLINDRICAL_SURFACE('',#1369,6.5615);
#209=CYLINDRICAL_SURFACE('',#1372,6.5615);
#210=CYLINDRICAL_SURFACE('',#1375,6.5615);
#211=CYLINDRICAL_SURFACE('',#1378,6.5615);
#212=CYLINDRICAL_SURFACE('',#1381,6.5615);
#213=CYLINDRICAL_SURFACE('',#1384,6.5615);
#214=CYLINDRICAL_SURFACE('',#1387,6.5615);
#215=CYLINDRICAL_SURFACE('',#1390,6.5615);
#216=CYLINDRICAL_SURFACE('',#1393,6.5615);
#217=CYLINDRICAL_SURFACE('',#1396,6.5615);
#218=CYLINDRICAL_SURFACE('',#1399,6.5615);
#219=CYLINDRICAL_SURFACE('',#1402,6.5615);
#220=CYLINDRICAL_SURFACE('',#1405,6.5615);
#221=CYLINDRICAL_SURFACE('',#1408,6.5615);
#222=CYLINDRICAL_SURFACE('',#1411,6.5615);
#223=CYLINDRICAL_SURFACE('',#1414,6.5615);
#224=CYLINDRICAL_SURFACE('',#1417,6.5615);
#225=CYLINDRICAL_SURFACE('',#1420,6.5615);
#226=CYLINDRICAL_SURFACE('',#1423,6.5615);
#227=CYLINDRICAL_SURFACE('',#1426,6.5615);
#228=CYLINDRICAL_SURFACE('',#1429,6.5615);
#229=CYLINDRICAL_SURFACE('',#1432,6.5615);
#230=CYLINDRICAL_SURFACE('',#1435,6.5615);
#231=CYLINDRICAL_SURFACE('',#1438,6.5615);
#232=CYLINDRICAL_SURFACE('',#1441,6.5615);
#233=CYLINDRICAL_SURFACE('',#1444,6.5615);
#234=CYLINDRICAL_SURFACE('',#1447,6.5615);
#235=CYLINDRICAL_SURFACE('',#1469,6.5615);
#236=CYLINDRICAL_SURFACE('',#1470,10.);
#237=CYLINDRICAL_SURFACE('',#1471,10.);
#238=CYLINDRICAL_SURFACE('',#1472,10.);
#239=CYLINDRICAL_SURFACE('',#1473,10.);
#240=FACE_BOUND('',#444,.T.);
#241=FACE_BOUND('',#445,.T.);
#242=FACE_BOUND('',#446,.T.);
#243=FACE_BOUND('',#447,.T.);
#244=FACE_BOUND('',#448,.T.);
#245=FACE_BOUND('',#449,.T.);
#246=FACE_BOUND('',#450,.T.);
#247=FACE_BOUND('',#451,.T.);
#248=FACE_BOUND('',#452,.T.);
#249=FACE_BOUND('',#453,.T.);
#250=FACE_BOUND('',#454,.T.);
#251=FACE_BOUND('',#455,.T.);
#252=FACE_BOUND('',#456,.T.);
#253=FACE_BOUND('',#457,.T.);
#254=FACE_BOUND('',#458,.T.);
#255=FACE_BOUND('',#459,.T.);
#256=FACE_BOUND('',#460,.T.);
#257=FACE_BOUND('',#461,.T.);
#258=FACE_BOUND('',#462,.T.);
#259=FACE_BOUND('',#463,.T.);
#260=FACE_BOUND('',#464,.T.);
#261=FACE_BOUND('',#465,.T.);
#262=FACE_BOUND('',#466,.T.);
#263=FACE_BOUND('',#467,.T.);
#264=FACE_BOUND('',#468,.T.);
#265=FACE_BOUND('',#469,.T.);
#266=FACE_BOUND('',#470,.T.);
#267=FACE_BOUND('',#471,.T.);
#268=FACE_BOUND('',#472,.T.);
#269=FACE_BOUND('',#473,.T.);
#270=FACE_BOUND('',#474,.T.);
#271=FACE_BOUND('',#475,.T.);
#272=FACE_BOUND('',#476,.T.);
#273=FACE_BOUND('',#477,.T.);
#274=FACE_BOUND('',#478,.T.);
#275=FACE_BOUND('',#479,.T.);
#276=FACE_BOUND('',#480,.T.);
#277=FACE_BOUND('',#481,.T.);
#278=FACE_BOUND('',#482,.T.);
#279=FACE_BOUND('',#483,.T.);
#280=FACE_BOUND('',#484,.T.);
#281=FACE_BOUND('',#485,.T.);
#282=FACE_BOUND('',#486,.T.);
#283=FACE_BOUND('',#487,.T.);
#284=FACE_BOUND('',#488,.T.);
#285=FACE_BOUND('',#489,.T.);
#286=FACE_BOUND('',#490,.T.);
#287=FACE_BOUND('',#491,.T.);
#288=FACE_BOUND('',#492,.T.);
#289=FACE_BOUND('',#493,.T.);
#290=FACE_BOUND('',#494,.T.);
#291=FACE_BOUND('',#495,.T.);
#292=FACE_BOUND('',#496,.T.);
#293=FACE_BOUND('',#497,.T.);
#294=FACE_BOUND('',#498,.T.);
#295=FACE_BOUND('',#499,.T.);
#296=FACE_BOUND('',#500,.T.);
#297=FACE_BOUND('',#501,.T.);
#298=FACE_BOUND('',#502,.T.);
#299=FACE_BOUND('',#503,.T.);
#300=FACE_BOUND('',#504,.T.);
#301=FACE_BOUND('',#505,.T.);
#302=FACE_BOUND('',#506,.T.);
#303=FACE_BOUND('',#507,.T.);
#304=FACE_BOUND('',#508,.T.);
#305=FACE_BOUND('',#509,.T.);
#306=FACE_BOUND('',#510,.T.);
#307=FACE_BOUND('',#511,.T.);
#308=FACE_BOUND('',#512,.T.);
#309=FACE_BOUND('',#513,.T.);
#310=FACE_BOUND('',#514,.T.);
#311=FACE_BOUND('',#515,.T.);
#312=FACE_BOUND('',#516,.T.);
#313=FACE_BOUND('',#517,.T.);
#314=FACE_BOUND('',#518,.T.);
#315=FACE_BOUND('',#519,.T.);
#316=FACE_BOUND('',#520,.T.);
#317=FACE_BOUND('',#521,.T.);
#318=FACE_BOUND('',#522,.T.);
#319=FACE_BOUND('',#523,.T.);
#320=FACE_BOUND('',#524,.T.);
#321=FACE_BOUND('',#525,.T.);
#322=FACE_BOUND('',#526,.T.);
#323=FACE_BOUND('',#527,.T.);
#324=FACE_BOUND('',#528,.T.);
#325=FACE_BOUND('',#529,.T.);
#326=FACE_BOUND('',#530,.T.);
#327=FACE_BOUND('',#531,.T.);
#328=FACE_BOUND('',#532,.T.);
#329=FACE_BOUND('',#533,.T.);
#330=FACE_BOUND('',#534,.T.);
#331=FACE_BOUND('',#535,.T.);
#332=FACE_BOUND('',#536,.T.);
#333=FACE_BOUND('',#537,.T.);
#334=FACE_BOUND('',#538,.T.);
#335=FACE_BOUND('',#539,.T.);
#336=FACE_BOUND('',#540,.T.);
#337=FACE_BOUND('',#541,.T.);
#338=FACE_BOUND('',#542,.T.);
#339=FACE_BOUND('',#543,.T.);
#340=FACE_BOUND('',#547,.T.);
#341=FACE_BOUND('',#548,.T.);
#342=FACE_BOUND('',#549,.T.);
#343=FACE_BOUND('',#550,.T.);
#344=FACE_BOUND('',#551,.T.);
#345=FACE_BOUND('',#552,.T.);
#346=FACE_BOUND('',#553,.T.);
#347=FACE_BOUND('',#554,.T.);
#348=FACE_BOUND('',#555,.T.);
#349=FACE_BOUND('',#556,.T.);
#350=FACE_BOUND('',#557,.T.);
#351=FACE_BOUND('',#558,.T.);
#352=FACE_BOUND('',#559,.T.);
#353=FACE_BOUND('',#560,.T.);
#354=FACE_BOUND('',#561,.T.);
#355=FACE_BOUND('',#562,.T.);
#356=FACE_BOUND('',#563,.T.);
#357=FACE_BOUND('',#564,.T.);
#358=FACE_BOUND('',#565,.T.);
#359=FACE_BOUND('',#566,.T.);
#360=FACE_BOUND('',#567,.T.);
#361=FACE_BOUND('',#568,.T.);
#362=FACE_BOUND('',#569,.T.);
#363=FACE_BOUND('',#570,.T.);
#364=FACE_BOUND('',#571,.T.);
#365=FACE_BOUND('',#572,.T.);
#366=FACE_BOUND('',#573,.T.);
#367=FACE_BOUND('',#574,.T.);
#368=FACE_BOUND('',#575,.T.);
#369=FACE_BOUND('',#576,.T.);
#370=FACE_BOUND('',#577,.T.);
#371=FACE_BOUND('',#578,.T.);
#372=FACE_BOUND('',#579,.T.);
#373=FACE_BOUND('',#580,.T.);
#374=FACE_BOUND('',#581,.T.);
#375=FACE_BOUND('',#582,.T.);
#376=FACE_BOUND('',#583,.T.);
#377=FACE_BOUND('',#584,.T.);
#378=FACE_BOUND('',#585,.T.);
#379=FACE_BOUND('',#586,.T.);
#380=FACE_BOUND('',#587,.T.);
#381=FACE_BOUND('',#588,.T.);
#382=FACE_BOUND('',#589,.T.);
#383=FACE_BOUND('',#590,.T.);
#384=FACE_BOUND('',#591,.T.);
#385=FACE_BOUND('',#592,.T.);
#386=FACE_BOUND('',#593,.T.);
#387=FACE_BOUND('',#594,.T.);
#388=FACE_BOUND('',#595,.T.);
#389=FACE_BOUND('',#596,.T.);
#390=FACE_BOUND('',#597,.T.);
#391=FACE_BOUND('',#602,.T.);
#392=FACE_BOUND('',#603,.T.);
#393=FACE_BOUND('',#604,.T.);
#394=FACE_BOUND('',#605,.T.);
#395=FACE_BOUND('',#606,.T.);
#396=FACE_BOUND('',#607,.T.);
#397=FACE_BOUND('',#608,.T.);
#398=FACE_BOUND('',#609,.T.);
#399=FACE_BOUND('',#610,.T.);
#400=FACE_BOUND('',#611,.T.);
#401=FACE_BOUND('',#612,.T.);
#402=FACE_BOUND('',#613,.T.);
#403=FACE_BOUND('',#614,.T.);
#404=FACE_BOUND('',#615,.T.);
#405=FACE_BOUND('',#616,.T.);
#406=FACE_BOUND('',#617,.T.);
#407=FACE_BOUND('',#618,.T.);
#408=FACE_BOUND('',#619,.T.);
#409=FACE_BOUND('',#620,.T.);
#410=FACE_BOUND('',#621,.T.);
#411=FACE_BOUND('',#622,.T.);
#412=FACE_BOUND('',#623,.T.);
#413=FACE_BOUND('',#624,.T.);
#414=FACE_BOUND('',#625,.T.);
#415=FACE_BOUND('',#626,.T.);
#416=FACE_BOUND('',#627,.T.);
#417=FACE_BOUND('',#628,.T.);
#418=FACE_BOUND('',#629,.T.);
#419=FACE_BOUND('',#630,.T.);
#420=FACE_BOUND('',#631,.T.);
#421=FACE_BOUND('',#632,.T.);
#422=FACE_BOUND('',#633,.T.);
#423=FACE_BOUND('',#634,.T.);
#424=FACE_BOUND('',#635,.T.);
#425=FACE_BOUND('',#636,.T.);
#426=FACE_BOUND('',#637,.T.);
#427=FACE_BOUND('',#638,.T.);
#428=FACE_BOUND('',#639,.T.);
#429=FACE_BOUND('',#640,.T.);
#430=FACE_BOUND('',#641,.T.);
#431=FACE_BOUND('',#642,.T.);
#432=FACE_BOUND('',#643,.T.);
#433=FACE_BOUND('',#644,.T.);
#434=FACE_BOUND('',#645,.T.);
#435=FACE_BOUND('',#646,.T.);
#436=FACE_BOUND('',#647,.T.);
#437=FACE_BOUND('',#648,.T.);
#438=FACE_BOUND('',#649,.T.);
#439=FACE_BOUND('',#650,.T.);
#440=FACE_BOUND('',#651,.T.);
#441=FACE_BOUND('',#652,.T.);
#442=FACE_BOUND('',#654,.T.);
#443=FACE_BOUND('',#655,.T.);
#444=EDGE_LOOP('',(#660));
#445=EDGE_LOOP('',(#661));
#446=EDGE_LOOP('',(#662));
#447=EDGE_LOOP('',(#663));
#448=EDGE_LOOP('',(#664));
#449=EDGE_LOOP('',(#665));
#450=EDGE_LOOP('',(#666));
#451=EDGE_LOOP('',(#667));
#452=EDGE_LOOP('',(#668));
#453=EDGE_LOOP('',(#669));
#454=EDGE_LOOP('',(#670));
#455=EDGE_LOOP('',(#671));
#456=EDGE_LOOP('',(#672));
#457=EDGE_LOOP('',(#673));
#458=EDGE_LOOP('',(#674));
#459=EDGE_LOOP('',(#675));
#460=EDGE_LOOP('',(#676));
#461=EDGE_LOOP('',(#677));
#462=EDGE_LOOP('',(#678));
#463=EDGE_LOOP('',(#679));
#464=EDGE_LOOP('',(#680));
#465=EDGE_LOOP('',(#681));
#466=EDGE_LOOP('',(#682));
#467=EDGE_LOOP('',(#683));
#468=EDGE_LOOP('',(#684));
#469=EDGE_LOOP('',(#685));
#470=EDGE_LOOP('',(#686));
#471=EDGE_LOOP('',(#687));
#472=EDGE_LOOP('',(#688));
#473=EDGE_LOOP('',(#689));
#474=EDGE_LOOP('',(#690));
#475=EDGE_LOOP('',(#691));
#476=EDGE_LOOP('',(#692));
#477=EDGE_LOOP('',(#693));
#478=EDGE_LOOP('',(#694));
#479=EDGE_LOOP('',(#695));
#480=EDGE_LOOP('',(#696));
#481=EDGE_LOOP('',(#697));
#482=EDGE_LOOP('',(#698));
#483=EDGE_LOOP('',(#699));
#484=EDGE_LOOP('',(#700));
#485=EDGE_LOOP('',(#701));
#486=EDGE_LOOP('',(#702));
#487=EDGE_LOOP('',(#703));
#488=EDGE_LOOP('',(#704));
#489=EDGE_LOOP('',(#705));
#490=EDGE_LOOP('',(#706));
#491=EDGE_LOOP('',(#707));
#492=EDGE_LOOP('',(#708));
#493=EDGE_LOOP('',(#709));
#494=EDGE_LOOP('',(#710));
#495=EDGE_LOOP('',(#711));
#496=EDGE_LOOP('',(#712));
#497=EDGE_LOOP('',(#713));
#498=EDGE_LOOP('',(#714));
#499=EDGE_LOOP('',(#715));
#500=EDGE_LOOP('',(#716));
#501=EDGE_LOOP('',(#717));
#502=EDGE_LOOP('',(#718));
#503=EDGE_LOOP('',(#719));
#504=EDGE_LOOP('',(#720));
#505=EDGE_LOOP('',(#721));
#506=EDGE_LOOP('',(#722));
#507=EDGE_LOOP('',(#723));
#508=EDGE_LOOP('',(#724));
#509=EDGE_LOOP('',(#725));
#510=EDGE_LOOP('',(#726));
#511=EDGE_LOOP('',(#727));
#512=EDGE_LOOP('',(#728));
#513=EDGE_LOOP('',(#729));
#514=EDGE_LOOP('',(#730));
#515=EDGE_LOOP('',(#731));
#516=EDGE_LOOP('',(#732));
#517=EDGE_LOOP('',(#733));
#518=EDGE_LOOP('',(#734));
#519=EDGE_LOOP('',(#735));
#520=EDGE_LOOP('',(#736));
#521=EDGE_LOOP('',(#737));
#522=EDGE_LOOP('',(#738));
#523=EDGE_LOOP('',(#739));
#524=EDGE_LOOP('',(#740));
#525=EDGE_LOOP('',(#741));
#526=EDGE_LOOP('',(#742));
#527=EDGE_LOOP('',(#743));
#528=EDGE_LOOP('',(#744));
#529=EDGE_LOOP('',(#745));
#530=EDGE_LOOP('',(#746));
#531=EDGE_LOOP('',(#747));
#532=EDGE_LOOP('',(#748));
#533=EDGE_LOOP('',(#749));
#534=EDGE_LOOP('',(#750));
#535=EDGE_LOOP('',(#751));
#536=EDGE_LOOP('',(#752));
#537=EDGE_LOOP('',(#753));
#538=EDGE_LOOP('',(#754));
#539=EDGE_LOOP('',(#755));
#540=EDGE_LOOP('',(#756));
#541=EDGE_LOOP('',(#757));
#542=EDGE_LOOP('',(#758,#759,#760,#761));
#543=EDGE_LOOP('',(#762,#763,#764,#765,#766,#767,#768,#769));
#544=EDGE_LOOP('',(#770,#771,#772,#773));
#545=EDGE_LOOP('',(#774,#775,#776,#777));
#546=EDGE_LOOP('',(#778,#779,#780,#781));
#547=EDGE_LOOP('',(#782));
#548=EDGE_LOOP('',(#783));
#549=EDGE_LOOP('',(#784));
#550=EDGE_LOOP('',(#785));
#551=EDGE_LOOP('',(#786));
#552=EDGE_LOOP('',(#787));
#553=EDGE_LOOP('',(#788));
#554=EDGE_LOOP('',(#789));
#555=EDGE_LOOP('',(#790));
#556=EDGE_LOOP('',(#791));
#557=EDGE_LOOP('',(#792));
#558=EDGE_LOOP('',(#793));
#559=EDGE_LOOP('',(#794));
#560=EDGE_LOOP('',(#795));
#561=EDGE_LOOP('',(#796));
#562=EDGE_LOOP('',(#797));
#563=EDGE_LOOP('',(#798));
#564=EDGE_LOOP('',(#799));
#565=EDGE_LOOP('',(#800));
#566=EDGE_LOOP('',(#801));
#567=EDGE_LOOP('',(#802));
#568=EDGE_LOOP('',(#803));
#569=EDGE_LOOP('',(#804));
#570=EDGE_LOOP('',(#805));
#571=EDGE_LOOP('',(#806));
#572=EDGE_LOOP('',(#807));
#573=EDGE_LOOP('',(#808));
#574=EDGE_LOOP('',(#809));
#575=EDGE_LOOP('',(#810));
#576=EDGE_LOOP('',(#811));
#577=EDGE_LOOP('',(#812));
#578=EDGE_LOOP('',(#813));
#579=EDGE_LOOP('',(#814));
#580=EDGE_LOOP('',(#815));
#581=EDGE_LOOP('',(#816));
#582=EDGE_LOOP('',(#817));
#583=EDGE_LOOP('',(#818));
#584=EDGE_LOOP('',(#819));
#585=EDGE_LOOP('',(#820));
#586=EDGE_LOOP('',(#821));
#587=EDGE_LOOP('',(#822));
#588=EDGE_LOOP('',(#823));
#589=EDGE_LOOP('',(#824));
#590=EDGE_LOOP('',(#825));
#591=EDGE_LOOP('',(#826));
#592=EDGE_LOOP('',(#827));
#593=EDGE_LOOP('',(#828));
#594=EDGE_LOOP('',(#829));
#595=EDGE_LOOP('',(#830));
#596=EDGE_LOOP('',(#831));
#597=EDGE_LOOP('',(#832,#833,#834,#835));
#598=EDGE_LOOP('',(#836,#837,#838,#839));
#599=EDGE_LOOP('',(#840,#841,#842,#843));
#600=EDGE_LOOP('',(#844,#845,#846,#847));
#601=EDGE_LOOP('',(#848,#849,#850,#851));
#602=EDGE_LOOP('',(#852));
#603=EDGE_LOOP('',(#853));
#604=EDGE_LOOP('',(#854));
#605=EDGE_LOOP('',(#855));
#606=EDGE_LOOP('',(#856));
#607=EDGE_LOOP('',(#857));
#608=EDGE_LOOP('',(#858));
#609=EDGE_LOOP('',(#859));
#610=EDGE_LOOP('',(#860));
#611=EDGE_LOOP('',(#861));
#612=EDGE_LOOP('',(#862));
#613=EDGE_LOOP('',(#863));
#614=EDGE_LOOP('',(#864));
#615=EDGE_LOOP('',(#865));
#616=EDGE_LOOP('',(#866));
#617=EDGE_LOOP('',(#867));
#618=EDGE_LOOP('',(#868));
#619=EDGE_LOOP('',(#869));
#620=EDGE_LOOP('',(#870));
#621=EDGE_LOOP('',(#871));
#622=EDGE_LOOP('',(#872));
#623=EDGE_LOOP('',(#873));
#624=EDGE_LOOP('',(#874));
#625=EDGE_LOOP('',(#875));
#626=EDGE_LOOP('',(#876));
#627=EDGE_LOOP('',(#877));
#628=EDGE_LOOP('',(#878));
#629=EDGE_LOOP('',(#879));
#630=EDGE_LOOP('',(#880));
#631=EDGE_LOOP('',(#881));
#632=EDGE_LOOP('',(#882));
#633=EDGE_LOOP('',(#883));
#634=EDGE_LOOP('',(#884));
#635=EDGE_LOOP('',(#885));
#636=EDGE_LOOP('',(#886));
#637=EDGE_LOOP('',(#887));
#638=EDGE_LOOP('',(#888));
#639=EDGE_LOOP('',(#889));
#640=EDGE_LOOP('',(#890));
#641=EDGE_LOOP('',(#891));
#642=EDGE_LOOP('',(#892));
#643=EDGE_LOOP('',(#893));
#644=EDGE_LOOP('',(#894));
#645=EDGE_LOOP('',(#895));
#646=EDGE_LOOP('',(#896));
#647=EDGE_LOOP('',(#897));
#648=EDGE_LOOP('',(#898));
#649=EDGE_LOOP('',(#899));
#650=EDGE_LOOP('',(#900));
#651=EDGE_LOOP('',(#901));
#652=EDGE_LOOP('',(#902,#903,#904,#905,#906,#907,#908,#909));
#653=EDGE_LOOP('',(#910,#911,#912,#913));
#654=EDGE_LOOP('',(#914));
#655=EDGE_LOOP('',(#915));
#656=EDGE_LOOP('',(#916,#917,#918,#919));
#657=EDGE_LOOP('',(#920,#921,#922,#923));
#658=EDGE_LOOP('',(#924,#925,#926,#927));
#659=EDGE_LOOP('',(#928,#929,#930,#931));
#660=ORIENTED_EDGE('',*,*,#1056,.T.);
#661=ORIENTED_EDGE('',*,*,#1057,.F.);
#662=ORIENTED_EDGE('',*,*,#1058,.T.);
#663=ORIENTED_EDGE('',*,*,#1059,.F.);
#664=ORIENTED_EDGE('',*,*,#1060,.T.);
#665=ORIENTED_EDGE('',*,*,#1061,.F.);
#666=ORIENTED_EDGE('',*,*,#1062,.T.);
#667=ORIENTED_EDGE('',*,*,#1063,.F.);
#668=ORIENTED_EDGE('',*,*,#1064,.T.);
#669=ORIENTED_EDGE('',*,*,#1065,.F.);
#670=ORIENTED_EDGE('',*,*,#1066,.T.);
#671=ORIENTED_EDGE('',*,*,#1067,.F.);
#672=ORIENTED_EDGE('',*,*,#1068,.T.);
#673=ORIENTED_EDGE('',*,*,#1069,.F.);
#674=ORIENTED_EDGE('',*,*,#1070,.T.);
#675=ORIENTED_EDGE('',*,*,#1071,.F.);
#676=ORIENTED_EDGE('',*,*,#1072,.T.);
#677=ORIENTED_EDGE('',*,*,#1073,.F.);
#678=ORIENTED_EDGE('',*,*,#1074,.T.);
#679=ORIENTED_EDGE('',*,*,#1075,.F.);
#680=ORIENTED_EDGE('',*,*,#1076,.T.);
#681=ORIENTED_EDGE('',*,*,#1077,.F.);
#682=ORIENTED_EDGE('',*,*,#1078,.T.);
#683=ORIENTED_EDGE('',*,*,#1079,.F.);
#684=ORIENTED_EDGE('',*,*,#1080,.T.);
#685=ORIENTED_EDGE('',*,*,#1081,.F.);
#686=ORIENTED_EDGE('',*,*,#1082,.T.);
#687=ORIENTED_EDGE('',*,*,#1083,.F.);
#688=ORIENTED_EDGE('',*,*,#1084,.T.);
#689=ORIENTED_EDGE('',*,*,#1085,.F.);
#690=ORIENTED_EDGE('',*,*,#1086,.T.);
#691=ORIENTED_EDGE('',*,*,#1087,.F.);
#692=ORIENTED_EDGE('',*,*,#1088,.T.);
#693=ORIENTED_EDGE('',*,*,#1089,.F.);
#694=ORIENTED_EDGE('',*,*,#1090,.T.);
#695=ORIENTED_EDGE('',*,*,#1091,.F.);
#696=ORIENTED_EDGE('',*,*,#1092,.T.);
#697=ORIENTED_EDGE('',*,*,#1093,.F.);
#698=ORIENTED_EDGE('',*,*,#1094,.T.);
#699=ORIENTED_EDGE('',*,*,#1095,.F.);
#700=ORIENTED_EDGE('',*,*,#1096,.T.);
#701=ORIENTED_EDGE('',*,*,#1097,.F.);
#702=ORIENTED_EDGE('',*,*,#1098,.T.);
#703=ORIENTED_EDGE('',*,*,#1099,.F.);
#704=ORIENTED_EDGE('',*,*,#1100,.T.);
#705=ORIENTED_EDGE('',*,*,#1101,.F.);
#706=ORIENTED_EDGE('',*,*,#1102,.T.);
#707=ORIENTED_EDGE('',*,*,#1103,.F.);
#708=ORIENTED_EDGE('',*,*,#1104,.T.);
#709=ORIENTED_EDGE('',*,*,#1105,.F.);
#710=ORIENTED_EDGE('',*,*,#1106,.T.);
#711=ORIENTED_EDGE('',*,*,#1107,.F.);
#712=ORIENTED_EDGE('',*,*,#1108,.T.);
#713=ORIENTED_EDGE('',*,*,#1109,.F.);
#714=ORIENTED_EDGE('',*,*,#1110,.T.);
#715=ORIENTED_EDGE('',*,*,#1111,.F.);
#716=ORIENTED_EDGE('',*,*,#1112,.T.);
#717=ORIENTED_EDGE('',*,*,#1113,.F.);
#718=ORIENTED_EDGE('',*,*,#1114,.T.);
#719=ORIENTED_EDGE('',*,*,#1115,.F.);
#720=ORIENTED_EDGE('',*,*,#1116,.T.);
#721=ORIENTED_EDGE('',*,*,#1117,.F.);
#722=ORIENTED_EDGE('',*,*,#1118,.T.);
#723=ORIENTED_EDGE('',*,*,#1119,.F.);
#724=ORIENTED_EDGE('',*,*,#1120,.T.);
#725=ORIENTED_EDGE('',*,*,#1121,.F.);
#726=ORIENTED_EDGE('',*,*,#1122,.T.);
#727=ORIENTED_EDGE('',*,*,#1123,.F.);
#728=ORIENTED_EDGE('',*,*,#1124,.T.);
#729=ORIENTED_EDGE('',*,*,#1125,.F.);
#730=ORIENTED_EDGE('',*,*,#1126,.T.);
#731=ORIENTED_EDGE('',*,*,#1127,.F.);
#732=ORIENTED_EDGE('',*,*,#1128,.T.);
#733=ORIENTED_EDGE('',*,*,#1129,.F.);
#734=ORIENTED_EDGE('',*,*,#1130,.T.);
#735=ORIENTED_EDGE('',*,*,#1131,.F.);
#736=ORIENTED_EDGE('',*,*,#1132,.T.);
#737=ORIENTED_EDGE('',*,*,#1133,.F.);
#738=ORIENTED_EDGE('',*,*,#1134,.T.);
#739=ORIENTED_EDGE('',*,*,#1135,.F.);
#740=ORIENTED_EDGE('',*,*,#1136,.T.);
#741=ORIENTED_EDGE('',*,*,#1137,.F.);
#742=ORIENTED_EDGE('',*,*,#1138,.T.);
#743=ORIENTED_EDGE('',*,*,#1139,.F.);
#744=ORIENTED_EDGE('',*,*,#1140,.T.);
#745=ORIENTED_EDGE('',*,*,#1141,.F.);
#746=ORIENTED_EDGE('',*,*,#1142,.T.);
#747=ORIENTED_EDGE('',*,*,#1143,.F.);
#748=ORIENTED_EDGE('',*,*,#1144,.T.);
#749=ORIENTED_EDGE('',*,*,#1145,.F.);
#750=ORIENTED_EDGE('',*,*,#1146,.T.);
#751=ORIENTED_EDGE('',*,*,#1147,.F.);
#752=ORIENTED_EDGE('',*,*,#1148,.T.);
#753=ORIENTED_EDGE('',*,*,#1149,.F.);
#754=ORIENTED_EDGE('',*,*,#1150,.T.);
#755=ORIENTED_EDGE('',*,*,#1151,.F.);
#756=ORIENTED_EDGE('',*,*,#1152,.T.);
#757=ORIENTED_EDGE('',*,*,#1153,.F.);
#758=ORIENTED_EDGE('',*,*,#1154,.F.);
#759=ORIENTED_EDGE('',*,*,#1155,.F.);
#760=ORIENTED_EDGE('',*,*,#1156,.F.);
#761=ORIENTED_EDGE('',*,*,#1157,.F.);
#762=ORIENTED_EDGE('',*,*,#1158,.T.);
#763=ORIENTED_EDGE('',*,*,#1159,.T.);
#764=ORIENTED_EDGE('',*,*,#1160,.T.);
#765=ORIENTED_EDGE('',*,*,#1161,.T.);
#766=ORIENTED_EDGE('',*,*,#1162,.T.);
#767=ORIENTED_EDGE('',*,*,#1163,.T.);
#768=ORIENTED_EDGE('',*,*,#1164,.T.);
#769=ORIENTED_EDGE('',*,*,#1165,.T.);
#770=ORIENTED_EDGE('',*,*,#1166,.T.);
#771=ORIENTED_EDGE('',*,*,#1154,.T.);
#772=ORIENTED_EDGE('',*,*,#1167,.F.);
#773=ORIENTED_EDGE('',*,*,#1168,.T.);
#774=ORIENTED_EDGE('',*,*,#1167,.T.);
#775=ORIENTED_EDGE('',*,*,#1157,.T.);
#776=ORIENTED_EDGE('',*,*,#1169,.F.);
#777=ORIENTED_EDGE('',*,*,#1170,.T.);
#778=ORIENTED_EDGE('',*,*,#1169,.T.);
#779=ORIENTED_EDGE('',*,*,#1156,.T.);
#780=ORIENTED_EDGE('',*,*,#1171,.F.);
#781=ORIENTED_EDGE('',*,*,#1172,.T.);
#782=ORIENTED_EDGE('',*,*,#1056,.F.);
#783=ORIENTED_EDGE('',*,*,#1058,.F.);
#784=ORIENTED_EDGE('',*,*,#1060,.F.);
#785=ORIENTED_EDGE('',*,*,#1062,.F.);
#786=ORIENTED_EDGE('',*,*,#1064,.F.);
#787=ORIENTED_EDGE('',*,*,#1066,.F.);
#788=ORIENTED_EDGE('',*,*,#1068,.F.);
#789=ORIENTED_EDGE('',*,*,#1070,.F.);
#790=ORIENTED_EDGE('',*,*,#1072,.F.);
#791=ORIENTED_EDGE('',*,*,#1074,.F.);
#792=ORIENTED_EDGE('',*,*,#1076,.F.);
#793=ORIENTED_EDGE('',*,*,#1078,.F.);
#794=ORIENTED_EDGE('',*,*,#1080,.F.);
#795=ORIENTED_EDGE('',*,*,#1082,.F.);
#796=ORIENTED_EDGE('',*,*,#1084,.F.);
#797=ORIENTED_EDGE('',*,*,#1086,.F.);
#798=ORIENTED_EDGE('',*,*,#1088,.F.);
#799=ORIENTED_EDGE('',*,*,#1090,.F.);
#800=ORIENTED_EDGE('',*,*,#1092,.F.);
#801=ORIENTED_EDGE('',*,*,#1094,.F.);
#802=ORIENTED_EDGE('',*,*,#1096,.F.);
#803=ORIENTED_EDGE('',*,*,#1098,.F.);
#804=ORIENTED_EDGE('',*,*,#1100,.F.);
#805=ORIENTED_EDGE('',*,*,#1102,.F.);
#806=ORIENTED_EDGE('',*,*,#1104,.F.);
#807=ORIENTED_EDGE('',*,*,#1106,.F.);
#808=ORIENTED_EDGE('',*,*,#1108,.F.);
#809=ORIENTED_EDGE('',*,*,#1110,.F.);
#810=ORIENTED_EDGE('',*,*,#1112,.F.);
#811=ORIENTED_EDGE('',*,*,#1114,.F.);
#812=ORIENTED_EDGE('',*,*,#1116,.F.);
#813=ORIENTED_EDGE('',*,*,#1118,.F.);
#814=ORIENTED_EDGE('',*,*,#1120,.F.);
#815=ORIENTED_EDGE('',*,*,#1122,.F.);
#816=ORIENTED_EDGE('',*,*,#1124,.F.);
#817=ORIENTED_EDGE('',*,*,#1126,.F.);
#818=ORIENTED_EDGE('',*,*,#1128,.F.);
#819=ORIENTED_EDGE('',*,*,#1130,.F.);
#820=ORIENTED_EDGE('',*,*,#1132,.F.);
#821=ORIENTED_EDGE('',*,*,#1134,.F.);
#822=ORIENTED_EDGE('',*,*,#1136,.F.);
#823=ORIENTED_EDGE('',*,*,#1138,.F.);
#824=ORIENTED_EDGE('',*,*,#1140,.F.);
#825=ORIENTED_EDGE('',*,*,#1142,.F.);
#826=ORIENTED_EDGE('',*,*,#1144,.F.);
#827=ORIENTED_EDGE('',*,*,#1146,.F.);
#828=ORIENTED_EDGE('',*,*,#1148,.F.);
#829=ORIENTED_EDGE('',*,*,#1150,.F.);
#830=ORIENTED_EDGE('',*,*,#1152,.F.);
#831=ORIENTED_EDGE('',*,*,#1173,.F.);
#832=ORIENTED_EDGE('',*,*,#1174,.F.);
#833=ORIENTED_EDGE('',*,*,#1168,.F.);
#834=ORIENTED_EDGE('',*,*,#1170,.F.);
#835=ORIENTED_EDGE('',*,*,#1172,.F.);
#836=ORIENTED_EDGE('',*,*,#1174,.T.);
#837=ORIENTED_EDGE('',*,*,#1171,.T.);
#838=ORIENTED_EDGE('',*,*,#1155,.T.);
#839=ORIENTED_EDGE('',*,*,#1166,.F.);
#840=ORIENTED_EDGE('',*,*,#1162,.F.);
#841=ORIENTED_EDGE('',*,*,#1175,.T.);
#842=ORIENTED_EDGE('',*,*,#1176,.F.);
#843=ORIENTED_EDGE('',*,*,#1177,.T.);
#844=ORIENTED_EDGE('',*,*,#1164,.F.);
#845=ORIENTED_EDGE('',*,*,#1178,.T.);
#846=ORIENTED_EDGE('',*,*,#1179,.F.);
#847=ORIENTED_EDGE('',*,*,#1180,.T.);
#848=ORIENTED_EDGE('',*,*,#1181,.F.);
#849=ORIENTED_EDGE('',*,*,#1182,.T.);
#850=ORIENTED_EDGE('',*,*,#1158,.F.);
#851=ORIENTED_EDGE('',*,*,#1183,.T.);
#852=ORIENTED_EDGE('',*,*,#1057,.T.);
#853=ORIENTED_EDGE('',*,*,#1059,.T.);
#854=ORIENTED_EDGE('',*,*,#1061,.T.);
#855=ORIENTED_EDGE('',*,*,#1063,.T.);
#856=ORIENTED_EDGE('',*,*,#1065,.T.);
#857=ORIENTED_EDGE('',*,*,#1067,.T.);
#858=ORIENTED_EDGE('',*,*,#1069,.T.);
#859=ORIENTED_EDGE('',*,*,#1071,.T.);
#860=ORIENTED_EDGE('',*,*,#1073,.T.);
#861=ORIENTED_EDGE('',*,*,#1075,.T.);
#862=ORIENTED_EDGE('',*,*,#1077,.T.);
#863=ORIENTED_EDGE('',*,*,#1079,.T.);
#864=ORIENTED_EDGE('',*,*,#1081,.T.);
#865=ORIENTED_EDGE('',*,*,#1083,.T.);
#866=ORIENTED_EDGE('',*,*,#1085,.T.);
#867=ORIENTED_EDGE('',*,*,#1087,.T.);
#868=ORIENTED_EDGE('',*,*,#1089,.T.);
#869=ORIENTED_EDGE('',*,*,#1091,.T.);
#870=ORIENTED_EDGE('',*,*,#1093,.T.);
#871=ORIENTED_EDGE('',*,*,#1095,.T.);
#872=ORIENTED_EDGE('',*,*,#1097,.T.);
#873=ORIENTED_EDGE('',*,*,#1099,.T.);
#874=ORIENTED_EDGE('',*,*,#1101,.T.);
#875=ORIENTED_EDGE('',*,*,#1103,.T.);
#876=ORIENTED_EDGE('',*,*,#1105,.T.);
#877=ORIENTED_EDGE('',*,*,#1107,.T.);
#878=ORIENTED_EDGE('',*,*,#1109,.T.);
#879=ORIENTED_EDGE('',*,*,#1111,.T.);
#880=ORIENTED_EDGE('',*,*,#1113,.T.);
#881=ORIENTED_EDGE('',*,*,#1115,.T.);
#882=ORIENTED_EDGE('',*,*,#1117,.T.);
#883=ORIENTED_EDGE('',*,*,#1119,.T.);
#884=ORIENTED_EDGE('',*,*,#1121,.T.);
#885=ORIENTED_EDGE('',*,*,#1123,.T.);
#886=ORIENTED_EDGE('',*,*,#1125,.T.);
#887=ORIENTED_EDGE('',*,*,#1127,.T.);
#888=ORIENTED_EDGE('',*,*,#1129,.T.);
#889=ORIENTED_EDGE('',*,*,#1131,.T.);
#890=ORIENTED_EDGE('',*,*,#1133,.T.);
#891=ORIENTED_EDGE('',*,*,#1135,.T.);
#892=ORIENTED_EDGE('',*,*,#1137,.T.);
#893=ORIENTED_EDGE('',*,*,#1139,.T.);
#894=ORIENTED_EDGE('',*,*,#1141,.T.);
#895=ORIENTED_EDGE('',*,*,#1143,.T.);
#896=ORIENTED_EDGE('',*,*,#1145,.T.);
#897=ORIENTED_EDGE('',*,*,#1147,.T.);
#898=ORIENTED_EDGE('',*,*,#1149,.T.);
#899=ORIENTED_EDGE('',*,*,#1151,.T.);
#900=ORIENTED_EDGE('',*,*,#1153,.T.);
#901=ORIENTED_EDGE('',*,*,#1184,.T.);
#902=ORIENTED_EDGE('',*,*,#1176,.T.);
#903=ORIENTED_EDGE('',*,*,#1185,.T.);
#904=ORIENTED_EDGE('',*,*,#1186,.T.);
#905=ORIENTED_EDGE('',*,*,#1187,.T.);
#906=ORIENTED_EDGE('',*,*,#1181,.T.);
#907=ORIENTED_EDGE('',*,*,#1188,.T.);
#908=ORIENTED_EDGE('',*,*,#1179,.T.);
#909=ORIENTED_EDGE('',*,*,#1189,.T.);
#910=ORIENTED_EDGE('',*,*,#1186,.F.);
#911=ORIENTED_EDGE('',*,*,#1190,.T.);
#912=ORIENTED_EDGE('',*,*,#1160,.F.);
#913=ORIENTED_EDGE('',*,*,#1191,.T.);
#914=ORIENTED_EDGE('',*,*,#1173,.T.);
#915=ORIENTED_EDGE('',*,*,#1184,.F.);
#916=ORIENTED_EDGE('',*,*,#1185,.F.);
#917=ORIENTED_EDGE('',*,*,#1175,.F.);
#918=ORIENTED_EDGE('',*,*,#1161,.F.);
#919=ORIENTED_EDGE('',*,*,#1190,.F.);
#920=ORIENTED_EDGE('',*,*,#1187,.F.);
#921=ORIENTED_EDGE('',*,*,#1191,.F.);
#922=ORIENTED_EDGE('',*,*,#1159,.F.);
#923=ORIENTED_EDGE('',*,*,#1182,.F.);
#924=ORIENTED_EDGE('',*,*,#1189,.F.);
#925=ORIENTED_EDGE('',*,*,#1178,.F.);
#926=ORIENTED_EDGE('',*,*,#1163,.F.);
#927=ORIENTED_EDGE('',*,*,#1177,.F.);
#928=ORIENTED_EDGE('',*,*,#1188,.F.);
#929=ORIENTED_EDGE('',*,*,#1183,.F.);
#930=ORIENTED_EDGE('',*,*,#1165,.F.);
#931=ORIENTED_EDGE('',*,*,#1180,.F.);
#932=VERTEX_POINT('',#1852);
#933=VERTEX_POINT('',#1854);
#934=VERTEX_POINT('',#1857);
#935=VERTEX_POINT('',#1859);
#936=VERTEX_POINT('',#1862);
#937=VERTEX_POINT('',#1864);
#938=VERTEX_POINT('',#1867);
#939=VERTEX_POINT('',#1869);
#940=VERTEX_POINT('',#1872);
#941=VERTEX_POINT('',#1874);
#942=VERTEX_POINT('',#1877);
#943=VERTEX_POINT('',#1879);
#944=VERTEX_POINT('',#1882);
#945=VERTEX_POINT('',#1884);
#946=VERTEX_POINT('',#1887);
#947=VERTEX_POINT('',#1889);
#948=VERTEX_POINT('',#1892);
#949=VERTEX_POINT('',#1894);
#950=VERTEX_POINT('',#1897);
#951=VERTEX_POINT('',#1899);
#952=VERTEX_POINT('',#1902);
#953=VERTEX_POINT('',#1904);
#954=VERTEX_POINT('',#1907);
#955=VERTEX_POINT('',#1909);
#956=VERTEX_POINT('',#1912);
#957=VERTEX_POINT('',#1914);
#958=VERTEX_POINT('',#1917);
#959=VERTEX_POINT('',#1919);
#960=VERTEX_POINT('',#1922);
#961=VERTEX_POINT('',#1924);
#962=VERTEX_POINT('',#1927);
#963=VERTEX_POINT('',#1929);
#964=VERTEX_POINT('',#1932);
#965=VERTEX_POINT('',#1934);
#966=VERTEX_POINT('',#1937);
#967=VERTEX_POINT('',#1939);
#968=VERTEX_POINT('',#1942);
#969=VERTEX_POINT('',#1944);
#970=VERTEX_POINT('',#1947);
#971=VERTEX_POINT('',#1949);
#972=VERTEX_POINT('',#1952);
#973=VERTEX_POINT('',#1954);
#974=VERTEX_POINT('',#1957);
#975=VERTEX_POINT('',#1959);
#976=VERTEX_POINT('',#1962);
#977=VERTEX_POINT('',#1964);
#978=VERTEX_POINT('',#1967);
#979=VERTEX_POINT('',#1969);
#980=VERTEX_POINT('',#1972);
#981=VERTEX_POINT('',#1974);
#982=VERTEX_POINT('',#1977);
#983=VERTEX_POINT('',#1979);
#984=VERTEX_POINT('',#1982);
#985=VERTEX_POINT('',#1984);
#986=VERTEX_POINT('',#1987);
#987=VERTEX_POINT('',#1989);
#988=VERTEX_POINT('',#1992);
#989=VERTEX_POINT('',#1994);
#990=VERTEX_POINT('',#1997);
#991=VERTEX_POINT('',#1999);
#992=VERTEX_POINT('',#2002);
#993=VERTEX_POINT('',#2004);
#994=VERTEX_POINT('',#2007);
#995=VERTEX_POINT('',#2009);
#996=VERTEX_POINT('',#2012);
#997=VERTEX_POINT('',#2014);
#998=VERTEX_POINT('',#2017);
#999=VERTEX_POINT('',#2019);
#1000=VERTEX_POINT('',#2022);
#1001=VERTEX_POINT('',#2024);
#1002=VERTEX_POINT('',#2027);
#1003=VERTEX_POINT('',#2029);
#1004=VERTEX_POINT('',#2032);
#1005=VERTEX_POINT('',#2034);
#1006=VERTEX_POINT('',#2037);
#1007=VERTEX_POINT('',#2039);
#1008=VERTEX_POINT('',#2042);
#1009=VERTEX_POINT('',#2044);
#1010=VERTEX_POINT('',#2047);
#1011=VERTEX_POINT('',#2049);
#1012=VERTEX_POINT('',#2052);
#1013=VERTEX_POINT('',#2054);
#1014=VERTEX_POINT('',#2057);
#1015=VERTEX_POINT('',#2059);
#1016=VERTEX_POINT('',#2062);
#1017=VERTEX_POINT('',#2064);
#1018=VERTEX_POINT('',#2067);
#1019=VERTEX_POINT('',#2069);
#1020=VERTEX_POINT('',#2072);
#1021=VERTEX_POINT('',#2074);
#1022=VERTEX_POINT('',#2077);
#1023=VERTEX_POINT('',#2079);
#1024=VERTEX_POINT('',#2082);
#1025=VERTEX_POINT('',#2084);
#1026=VERTEX_POINT('',#2087);
#1027=VERTEX_POINT('',#2089);
#1028=VERTEX_POINT('',#2092);
#1029=VERTEX_POINT('',#2094);
#1030=VERTEX_POINT('',#2097);
#1031=VERTEX_POINT('',#2098);
#1032=VERTEX_POINT('',#2100);
#1033=VERTEX_POINT('',#2102);
#1034=VERTEX_POINT('',#2105);
#1035=VERTEX_POINT('',#2106);
#1036=VERTEX_POINT('',#2108);
#1037=VERTEX_POINT('',#2110);
#1038=VERTEX_POINT('',#2112);
#1039=VERTEX_POINT('',#2114);
#1040=VERTEX_POINT('',#2116);
#1041=VERTEX_POINT('',#2118);
#1042=VERTEX_POINT('',#2122);
#1043=VERTEX_POINT('',#2124);
#1044=VERTEX_POINT('',#2128);
#1045=VERTEX_POINT('',#2132);
#1046=VERTEX_POINT('',#2136);
#1047=VERTEX_POINT('',#2141);
#1048=VERTEX_POINT('',#2143);
#1049=VERTEX_POINT('',#2147);
#1050=VERTEX_POINT('',#2149);
#1051=VERTEX_POINT('',#2153);
#1052=VERTEX_POINT('',#2154);
#1053=VERTEX_POINT('',#2159);
#1054=VERTEX_POINT('',#2161);
#1055=VERTEX_POINT('',#2163);
#1056=EDGE_CURVE('',#932,#932,#1192,.T.);
#1057=EDGE_CURVE('',#933,#933,#1193,.T.);
#1058=EDGE_CURVE('',#934,#934,#1194,.T.);
#1059=EDGE_CURVE('',#935,#935,#1195,.T.);
#1060=EDGE_CURVE('',#936,#936,#1196,.T.);
#1061=EDGE_CURVE('',#937,#937,#1197,.T.);
#1062=EDGE_CURVE('',#938,#938,#1198,.T.);
#1063=EDGE_CURVE('',#939,#939,#1199,.T.);
#1064=EDGE_CURVE('',#940,#940,#1200,.T.);
#1065=EDGE_CURVE('',#941,#941,#1201,.T.);
#1066=EDGE_CURVE('',#942,#942,#1202,.T.);
#1067=EDGE_CURVE('',#943,#943,#1203,.T.);
#1068=EDGE_CURVE('',#944,#944,#1204,.T.);
#1069=EDGE_CURVE('',#945,#945,#1205,.T.);
#1070=EDGE_CURVE('',#946,#946,#1206,.T.);
#1071=EDGE_CURVE('',#947,#947,#1207,.T.);
#1072=EDGE_CURVE('',#948,#948,#1208,.T.);
#1073=EDGE_CURVE('',#949,#949,#1209,.T.);
#1074=EDGE_CURVE('',#950,#950,#1210,.T.);
#1075=EDGE_CURVE('',#951,#951,#1211,.T.);
#1076=EDGE_CURVE('',#952,#952,#1212,.T.);
#1077=EDGE_CURVE('',#953,#953,#1213,.T.);
#1078=EDGE_CURVE('',#954,#954,#1214,.T.);
#1079=EDGE_CURVE('',#955,#955,#1215,.T.);
#1080=EDGE_CURVE('',#956,#956,#1216,.T.);
#1081=EDGE_CURVE('',#957,#957,#1217,.T.);
#1082=EDGE_CURVE('',#958,#958,#1218,.T.);
#1083=EDGE_CURVE('',#959,#959,#1219,.T.);
#1084=EDGE_CURVE('',#960,#960,#1220,.T.);
#1085=EDGE_CURVE('',#961,#961,#1221,.T.);
#1086=EDGE_CURVE('',#962,#962,#1222,.T.);
#1087=EDGE_CURVE('',#963,#963,#1223,.T.);
#1088=EDGE_CURVE('',#964,#964,#1224,.T.);
#1089=EDGE_CURVE('',#965,#965,#1225,.T.);
#1090=EDGE_CURVE('',#966,#966,#1226,.T.);
#1091=EDGE_CURVE('',#967,#967,#1227,.T.);
#1092=EDGE_CURVE('',#968,#968,#1228,.T.);
#1093=EDGE_CURVE('',#969,#969,#1229,.T.);
#1094=EDGE_CURVE('',#970,#970,#1230,.T.);
#1095=EDGE_CURVE('',#971,#971,#1231,.T.);
#1096=EDGE_CURVE('',#972,#972,#1232,.T.);
#1097=EDGE_CURVE('',#973,#973,#1233,.T.);
#1098=EDGE_CURVE('',#974,#974,#1234,.T.);
#1099=EDGE_CURVE('',#975,#975,#1235,.T.);
#1100=EDGE_CURVE('',#976,#976,#1236,.T.);
#1101=EDGE_CURVE('',#977,#977,#1237,.T.);
#1102=EDGE_CURVE('',#978,#978,#1238,.T.);
#1103=EDGE_CURVE('',#979,#979,#1239,.T.);
#1104=EDGE_CURVE('',#980,#980,#1240,.T.);
#1105=EDGE_CURVE('',#981,#981,#1241,.T.);
#1106=EDGE_CURVE('',#982,#982,#1242,.T.);
#1107=EDGE_CURVE('',#983,#983,#1243,.T.);
#1108=EDGE_CURVE('',#984,#984,#1244,.T.);
#1109=EDGE_CURVE('',#985,#985,#1245,.T.);
#1110=EDGE_CURVE('',#986,#986,#1246,.T.);
#1111=EDGE_CURVE('',#987,#987,#1247,.T.);
#1112=EDGE_CURVE('',#988,#988,#1248,.T.);
#1113=EDGE_CURVE('',#989,#989,#1249,.T.);
#1114=EDGE_CURVE('',#990,#990,#1250,.T.);
#1115=EDGE_CURVE('',#991,#991,#1251,.T.);
#1116=EDGE_CURVE('',#992,#992,#1252,.T.);
#1117=EDGE_CURVE('',#993,#993,#1253,.T.);
#1118=EDGE_CURVE('',#994,#994,#1254,.T.);
#1119=EDGE_CURVE('',#995,#995,#1255,.T.);
#1120=EDGE_CURVE('',#996,#996,#1256,.T.);
#1121=EDGE_CURVE('',#997,#997,#1257,.T.);
#1122=EDGE_CURVE('',#998,#998,#1258,.T.);
#1123=EDGE_CURVE('',#999,#999,#1259,.T.);
#1124=EDGE_CURVE('',#1000,#1000,#1260,.T.);
#1125=EDGE_CURVE('',#1001,#1001,#1261,.T.);
#1126=EDGE_CURVE('',#1002,#1002,#1262,.T.);
#1127=EDGE_CURVE('',#1003,#1003,#1263,.T.);
#1128=EDGE_CURVE('',#1004,#1004,#1264,.T.);
#1129=EDGE_CURVE('',#1005,#1005,#1265,.T.);
#1130=EDGE_CURVE('',#1006,#1006,#1266,.T.);
#1131=EDGE_CURVE('',#1007,#1007,#1267,.T.);
#1132=EDGE_CURVE('',#1008,#1008,#1268,.T.);
#1133=EDGE_CURVE('',#1009,#1009,#1269,.T.);
#1134=EDGE_CURVE('',#1010,#1010,#1270,.T.);
#1135=EDGE_CURVE('',#1011,#1011,#1271,.T.);
#1136=EDGE_CURVE('',#1012,#1012,#1272,.T.);
#1137=EDGE_CURVE('',#1013,#1013,#1273,.T.);
#1138=EDGE_CURVE('',#1014,#1014,#1274,.T.);
#1139=EDGE_CURVE('',#1015,#1015,#1275,.T.);
#1140=EDGE_CURVE('',#1016,#1016,#1276,.T.);
#1141=EDGE_CURVE('',#1017,#1017,#1277,.T.);
#1142=EDGE_CURVE('',#1018,#1018,#1278,.T.);
#1143=EDGE_CURVE('',#1019,#1019,#1279,.T.);
#1144=EDGE_CURVE('',#1020,#1020,#1280,.T.);
#1145=EDGE_CURVE('',#1021,#1021,#1281,.T.);
#1146=EDGE_CURVE('',#1022,#1022,#1282,.T.);
#1147=EDGE_CURVE('',#1023,#1023,#1283,.T.);
#1148=EDGE_CURVE('',#1024,#1024,#1284,.T.);
#1149=EDGE_CURVE('',#1025,#1025,#1285,.T.);
#1150=EDGE_CURVE('',#1026,#1026,#1286,.T.);
#1151=EDGE_CURVE('',#1027,#1027,#1287,.T.);
#1152=EDGE_CURVE('',#1028,#1028,#1288,.T.);
#1153=EDGE_CURVE('',#1029,#1029,#1289,.T.);
#1154=EDGE_CURVE('',#1030,#1031,#65,.T.);
#1155=EDGE_CURVE('',#1032,#1030,#66,.T.);
#1156=EDGE_CURVE('',#1033,#1032,#67,.T.);
#1157=EDGE_CURVE('',#1031,#1033,#68,.T.);
#1158=EDGE_CURVE('',#1034,#1035,#69,.T.);
#1159=EDGE_CURVE('',#1035,#1036,#1290,.T.);
#1160=EDGE_CURVE('',#1036,#1037,#70,.T.);
#1161=EDGE_CURVE('',#1037,#1038,#1291,.T.);
#1162=EDGE_CURVE('',#1038,#1039,#71,.T.);
#1163=EDGE_CURVE('',#1039,#1040,#1292,.T.);
#1164=EDGE_CURVE('',#1040,#1041,#72,.T.);
#1165=EDGE_CURVE('',#1041,#1034,#1293,.T.);
#1166=EDGE_CURVE('',#1042,#1030,#73,.T.);
#1167=EDGE_CURVE('',#1043,#1031,#74,.T.);
#1168=EDGE_CURVE('',#1043,#1042,#75,.T.);
#1169=EDGE_CURVE('',#1044,#1033,#76,.T.);
#1170=EDGE_CURVE('',#1044,#1043,#77,.T.);
#1171=EDGE_CURVE('',#1045,#1032,#78,.T.);
#1172=EDGE_CURVE('',#1045,#1044,#79,.T.);
#1173=EDGE_CURVE('',#1046,#1046,#1294,.T.);
#1174=EDGE_CURVE('',#1042,#1045,#80,.T.);
#1175=EDGE_CURVE('',#1038,#1047,#81,.T.);
#1176=EDGE_CURVE('',#1048,#1047,#82,.T.);
#1177=EDGE_CURVE('',#1048,#1039,#83,.T.);
#1178=EDGE_CURVE('',#1040,#1049,#84,.T.);
#1179=EDGE_CURVE('',#1050,#1049,#85,.T.);
#1180=EDGE_CURVE('',#1050,#1041,#86,.T.);
#1181=EDGE_CURVE('',#1051,#1052,#87,.T.);
#1182=EDGE_CURVE('',#1051,#1035,#88,.T.);
#1183=EDGE_CURVE('',#1034,#1052,#89,.T.);
#1184=EDGE_CURVE('',#1053,#1053,#1295,.T.);
#1185=EDGE_CURVE('',#1047,#1054,#1296,.T.);
#1186=EDGE_CURVE('',#1054,#1055,#90,.T.);
#1187=EDGE_CURVE('',#1055,#1051,#1297,.T.);
#1188=EDGE_CURVE('',#1052,#1050,#1298,.T.);
#1189=EDGE_CURVE('',#1049,#1048,#1299,.T.);
#1190=EDGE_CURVE('',#1054,#1037,#91,.T.);
#1191=EDGE_CURVE('',#1036,#1055,#92,.T.);
#1192=CIRCLE('',#1301,6.5615);
#1193=CIRCLE('',#1302,6.5615);
#1194=CIRCLE('',#1304,6.5615);
#1195=CIRCLE('',#1305,6.5615);
#1196=CIRCLE('',#1307,6.5615);
#1197=CIRCLE('',#1308,6.5615);
#1198=CIRCLE('',#1310,6.5615);
#1199=CIRCLE('',#1311,6.5615);
#1200=CIRCLE('',#1313,6.5615);
#1201=CIRCLE('',#1314,6.5615);
#1202=CIRCLE('',#1316,6.5615);
#1203=CIRCLE('',#1317,6.5615);
#1204=CIRCLE('',#1319,6.5615);
#1205=CIRCLE('',#1320,6.5615);
#1206=CIRCLE('',#1322,6.5615);
#1207=CIRCLE('',#1323,6.5615);
#1208=CIRCLE('',#1325,6.5615);
#1209=CIRCLE('',#1326,6.5615);
#1210=CIRCLE('',#1328,6.5615);
#1211=CIRCLE('',#1329,6.5615);
#1212=CIRCLE('',#1331,6.5615);
#1213=CIRCLE('',#1332,6.5615);
#1214=CIRCLE('',#1334,6.5615);
#1215=CIRCLE('',#1335,6.5615);
#1216=CIRCLE('',#1337,6.5615);
#1217=CIRCLE('',#1338,6.5615);
#1218=CIRCLE('',#1340,6.5615);
#1219=CIRCLE('',#1341,6.5615);
#1220=CIRCLE('',#1343,6.5615);
#1221=CIRCLE('',#1344,6.5615);
#1222=CIRCLE('',#1346,6.5615);
#1223=CIRCLE('',#1347,6.5615);
#1224=CIRCLE('',#1349,6.5615);
#1225=CIRCLE('',#1350,6.5615);
#1226=CIRCLE('',#1352,6.5615);
#1227=CIRCLE('',#1353,6.5615);
#1228=CIRCLE('',#1355,6.5615);
#1229=CIRCLE('',#1356,6.5615);
#1230=CIRCLE('',#1358,6.5615);
#1231=CIRCLE('',#1359,6.5615);
#1232=CIRCLE('',#1361,6.5615);
#1233=CIRCLE('',#1362,6.5615);
#1234=CIRCLE('',#1364,6.5615);
#1235=CIRCLE('',#1365,6.5615);
#1236=CIRCLE('',#1367,6.5615);
#1237=CIRCLE('',#1368,6.5615);
#1238=CIRCLE('',#1370,6.5615);
#1239=CIRCLE('',#1371,6.5615);
#1240=CIRCLE('',#1373,6.5615);
#1241=CIRCLE('',#1374,6.5615);
#1242=CIRCLE('',#1376,6.5615);
#1243=CIRCLE('',#1377,6.5615);
#1244=CIRCLE('',#1379,6.5615);
#1245=CIRCLE('',#1380,6.5615);
#1246=CIRCLE('',#1382,6.5615);
#1247=CIRCLE('',#1383,6.5615);
#1248=CIRCLE('',#1385,6.5615);
#1249=CIRCLE('',#1386,6.5615);
#1250=CIRCLE('',#1388,6.5615);
#1251=CIRCLE('',#1389,6.5615);
#1252=CIRCLE('',#1391,6.5615);
#1253=CIRCLE('',#1392,6.5615);
#1254=CIRCLE('',#1394,6.5615);
#1255=CIRCLE('',#1395,6.5615);
#1256=CIRCLE('',#1397,6.5615);
#1257=CIRCLE('',#1398,6.5615);
#1258=CIRCLE('',#1400,6.5615);
#1259=CIRCLE('',#1401,6.5615);
#1260=CIRCLE('',#1403,6.5615);
#1261=CIRCLE('',#1404,6.5615);
#1262=CIRCLE('',#1406,6.5615);
#1263=CIRCLE('',#1407,6.5615);
#1264=CIRCLE('',#1409,6.5615);
#1265=CIRCLE('',#1410,6.5615);
#1266=CIRCLE('',#1412,6.5615);
#1267=CIRCLE('',#1413,6.5615);
#1268=CIRCLE('',#1415,6.5615);
#1269=CIRCLE('',#1416,6.5615);
#1270=CIRCLE('',#1418,6.5615);
#1271=CIRCLE('',#1419,6.5615);
#1272=CIRCLE('',#1421,6.5615);
#1273=CIRCLE('',#1422,6.5615);
#1274=CIRCLE('',#1424,6.5615);
#1275=CIRCLE('',#1425,6.5615);
#1276=CIRCLE('',#1427,6.5615);
#1277=CIRCLE('',#1428,6.5615);
#1278=CIRCLE('',#1430,6.5615);
#1279=CIRCLE('',#1431,6.5615);
#1280=CIRCLE('',#1433,6.5615);
#1281=CIRCLE('',#1434,6.5615);
#1282=CIRCLE('',#1436,6.5615);
#1283=CIRCLE('',#1437,6.5615);
#1284=CIRCLE('',#1439,6.5615);
#1285=CIRCLE('',#1440,6.5615);
#1286=CIRCLE('',#1442,6.5615);
#1287=CIRCLE('',#1443,6.5615);
#1288=CIRCLE('',#1445,6.5615);
#1289=CIRCLE('',#1446,6.5615);
#1290=CIRCLE('',#1448,10.);
#1291=CIRCLE('',#1449,10.);
#1292=CIRCLE('',#1450,10.);
#1293=CIRCLE('',#1451,10.);
#1294=CIRCLE('',#1456,6.5615);
#1295=CIRCLE('',#1462,6.5615);
#1296=CIRCLE('',#1463,10.);
#1297=CIRCLE('',#1464,10.);
#1298=CIRCLE('',#1465,10.);
#1299=CIRCLE('',#1466,10.);
#1300=AXIS2_PLACEMENT_3D('',#1850,#1474,#1475);
#1301=AXIS2_PLACEMENT_3D('',#1851,#1476,#1477);
#1302=AXIS2_PLACEMENT_3D('',#1853,#1478,#1479);
#1303=AXIS2_PLACEMENT_3D('',#1855,#1480,#1481);
#1304=AXIS2_PLACEMENT_3D('',#1856,#1482,#1483);
#1305=AXIS2_PLACEMENT_3D('',#1858,#1484,#1485);
#1306=AXIS2_PLACEMENT_3D('',#1860,#1486,#1487);
#1307=AXIS2_PLACEMENT_3D('',#1861,#1488,#1489);
#1308=AXIS2_PLACEMENT_3D('',#1863,#1490,#1491);
#1309=AXIS2_PLACEMENT_3D('',#1865,#1492,#1493);
#1310=AXIS2_PLACEMENT_3D('',#1866,#1494,#1495);
#1311=AXIS2_PLACEMENT_3D('',#1868,#1496,#1497);
#1312=AXIS2_PLACEMENT_3D('',#1870,#1498,#1499);
#1313=AXIS2_PLACEMENT_3D('',#1871,#1500,#1501);
#1314=AXIS2_PLACEMENT_3D('',#1873,#1502,#1503);
#1315=AXIS2_PLACEMENT_3D('',#1875,#1504,#1505);
#1316=AXIS2_PLACEMENT_3D('',#1876,#1506,#1507);
#1317=AXIS2_PLACEMENT_3D('',#1878,#1508,#1509);
#1318=AXIS2_PLACEMENT_3D('',#1880,#1510,#1511);
#1319=AXIS2_PLACEMENT_3D('',#1881,#1512,#1513);
#1320=AXIS2_PLACEMENT_3D('',#1883,#1514,#1515);
#1321=AXIS2_PLACEMENT_3D('',#1885,#1516,#1517);
#1322=AXIS2_PLACEMENT_3D('',#1886,#1518,#1519);
#1323=AXIS2_PLACEMENT_3D('',#1888,#1520,#1521);
#1324=AXIS2_PLACEMENT_3D('',#1890,#1522,#1523);
#1325=AXIS2_PLACEMENT_3D('',#1891,#1524,#1525);
#1326=AXIS2_PLACEMENT_3D('',#1893,#1526,#1527);
#1327=AXIS2_PLACEMENT_3D('',#1895,#1528,#1529);
#1328=AXIS2_PLACEMENT_3D('',#1896,#1530,#1531);
#1329=AXIS2_PLACEMENT_3D('',#1898,#1532,#1533);
#1330=AXIS2_PLACEMENT_3D('',#1900,#1534,#1535);
#1331=AXIS2_PLACEMENT_3D('',#1901,#1536,#1537);
#1332=AXIS2_PLACEMENT_3D('',#1903,#1538,#1539);
#1333=AXIS2_PLACEMENT_3D('',#1905,#1540,#1541);
#1334=AXIS2_PLACEMENT_3D('',#1906,#1542,#1543);
#1335=AXIS2_PLACEMENT_3D('',#1908,#1544,#1545);
#1336=AXIS2_PLACEMENT_3D('',#1910,#1546,#1547);
#1337=AXIS2_PLACEMENT_3D('',#1911,#1548,#1549);
#1338=AXIS2_PLACEMENT_3D('',#1913,#1550,#1551);
#1339=AXIS2_PLACEMENT_3D('',#1915,#1552,#1553);
#1340=AXIS2_PLACEMENT_3D('',#1916,#1554,#1555);
#1341=AXIS2_PLACEMENT_3D('',#1918,#1556,#1557);
#1342=AXIS2_PLACEMENT_3D('',#1920,#1558,#1559);
#1343=AXIS2_PLACEMENT_3D('',#1921,#1560,#1561);
#1344=AXIS2_PLACEMENT_3D('',#1923,#1562,#1563);
#1345=AXIS2_PLACEMENT_3D('',#1925,#1564,#1565);
#1346=AXIS2_PLACEMENT_3D('',#1926,#1566,#1567);
#1347=AXIS2_PLACEMENT_3D('',#1928,#1568,#1569);
#1348=AXIS2_PLACEMENT_3D('',#1930,#1570,#1571);
#1349=AXIS2_PLACEMENT_3D('',#1931,#1572,#1573);
#1350=AXIS2_PLACEMENT_3D('',#1933,#1574,#1575);
#1351=AXIS2_PLACEMENT_3D('',#1935,#1576,#1577);
#1352=AXIS2_PLACEMENT_3D('',#1936,#1578,#1579);
#1353=AXIS2_PLACEMENT_3D('',#1938,#1580,#1581);
#1354=AXIS2_PLACEMENT_3D('',#1940,#1582,#1583);
#1355=AXIS2_PLACEMENT_3D('',#1941,#1584,#1585);
#1356=AXIS2_PLACEMENT_3D('',#1943,#1586,#1587);
#1357=AXIS2_PLACEMENT_3D('',#1945,#1588,#1589);
#1358=AXIS2_PLACEMENT_3D('',#1946,#1590,#1591);
#1359=AXIS2_PLACEMENT_3D('',#1948,#1592,#1593);
#1360=AXIS2_PLACEMENT_3D('',#1950,#1594,#1595);
#1361=AXIS2_PLACEMENT_3D('',#1951,#1596,#1597);
#1362=AXIS2_PLACEMENT_3D('',#1953,#1598,#1599);
#1363=AXIS2_PLACEMENT_3D('',#1955,#1600,#1601);
#1364=AXIS2_PLACEMENT_3D('',#1956,#1602,#1603);
#1365=AXIS2_PLACEMENT_3D('',#1958,#1604,#1605);
#1366=AXIS2_PLACEMENT_3D('',#1960,#1606,#1607);
#1367=AXIS2_PLACEMENT_3D('',#1961,#1608,#1609);
#1368=AXIS2_PLACEMENT_3D('',#1963,#1610,#1611);
#1369=AXIS2_PLACEMENT_3D('',#1965,#1612,#1613);
#1370=AXIS2_PLACEMENT_3D('',#1966,#1614,#1615);
#1371=AXIS2_PLACEMENT_3D('',#1968,#1616,#1617);
#1372=AXIS2_PLACEMENT_3D('',#1970,#1618,#1619);
#1373=AXIS2_PLACEMENT_3D('',#1971,#1620,#1621);
#1374=AXIS2_PLACEMENT_3D('',#1973,#1622,#1623);
#1375=AXIS2_PLACEMENT_3D('',#1975,#1624,#1625);
#1376=AXIS2_PLACEMENT_3D('',#1976,#1626,#1627);
#1377=AXIS2_PLACEMENT_3D('',#1978,#1628,#1629);
#1378=AXIS2_PLACEMENT_3D('',#1980,#1630,#1631);
#1379=AXIS2_PLACEMENT_3D('',#1981,#1632,#1633);
#1380=AXIS2_PLACEMENT_3D('',#1983,#1634,#1635);
#1381=AXIS2_PLACEMENT_3D('',#1985,#1636,#1637);
#1382=AXIS2_PLACEMENT_3D('',#1986,#1638,#1639);
#1383=AXIS2_PLACEMENT_3D('',#1988,#1640,#1641);
#1384=AXIS2_PLACEMENT_3D('',#1990,#1642,#1643);
#1385=AXIS2_PLACEMENT_3D('',#1991,#1644,#1645);
#1386=AXIS2_PLACEMENT_3D('',#1993,#1646,#1647);
#1387=AXIS2_PLACEMENT_3D('',#1995,#1648,#1649);
#1388=AXIS2_PLACEMENT_3D('',#1996,#1650,#1651);
#1389=AXIS2_PLACEMENT_3D('',#1998,#1652,#1653);
#1390=AXIS2_PLACEMENT_3D('',#2000,#1654,#1655);
#1391=AXIS2_PLACEMENT_3D('',#2001,#1656,#1657);
#1392=AXIS2_PLACEMENT_3D('',#2003,#1658,#1659);
#1393=AXIS2_PLACEMENT_3D('',#2005,#1660,#1661);
#1394=AXIS2_PLACEMENT_3D('',#2006,#1662,#1663);
#1395=AXIS2_PLACEMENT_3D('',#2008,#1664,#1665);
#1396=AXIS2_PLACEMENT_3D('',#2010,#1666,#1667);
#1397=AXIS2_PLACEMENT_3D('',#2011,#1668,#1669);
#1398=AXIS2_PLACEMENT_3D('',#2013,#1670,#1671);
#1399=AXIS2_PLACEMENT_3D('',#2015,#1672,#1673);
#1400=AXIS2_PLACEMENT_3D('',#2016,#1674,#1675);
#1401=AXIS2_PLACEMENT_3D('',#2018,#1676,#1677);
#1402=AXIS2_PLACEMENT_3D('',#2020,#1678,#1679);
#1403=AXIS2_PLACEMENT_3D('',#2021,#1680,#1681);
#1404=AXIS2_PLACEMENT_3D('',#2023,#1682,#1683);
#1405=AXIS2_PLACEMENT_3D('',#2025,#1684,#1685);
#1406=AXIS2_PLACEMENT_3D('',#2026,#1686,#1687);
#1407=AXIS2_PLACEMENT_3D('',#2028,#1688,#1689);
#1408=AXIS2_PLACEMENT_3D('',#2030,#1690,#1691);
#1409=AXIS2_PLACEMENT_3D('',#2031,#1692,#1693);
#1410=AXIS2_PLACEMENT_3D('',#2033,#1694,#1695);
#1411=AXIS2_PLACEMENT_3D('',#2035,#1696,#1697);
#1412=AXIS2_PLACEMENT_3D('',#2036,#1698,#1699);
#1413=AXIS2_PLACEMENT_3D('',#2038,#1700,#1701);
#1414=AXIS2_PLACEMENT_3D('',#2040,#1702,#1703);
#1415=AXIS2_PLACEMENT_3D('',#2041,#1704,#1705);
#1416=AXIS2_PLACEMENT_3D('',#2043,#1706,#1707);
#1417=AXIS2_PLACEMENT_3D('',#2045,#1708,#1709);
#1418=AXIS2_PLACEMENT_3D('',#2046,#1710,#1711);
#1419=AXIS2_PLACEMENT_3D('',#2048,#1712,#1713);
#1420=AXIS2_PLACEMENT_3D('',#2050,#1714,#1715);
#1421=AXIS2_PLACEMENT_3D('',#2051,#1716,#1717);
#1422=AXIS2_PLACEMENT_3D('',#2053,#1718,#1719);
#1423=AXIS2_PLACEMENT_3D('',#2055,#1720,#1721);
#1424=AXIS2_PLACEMENT_3D('',#2056,#1722,#1723);
#1425=AXIS2_PLACEMENT_3D('',#2058,#1724,#1725);
#1426=AXIS2_PLACEMENT_3D('',#2060,#1726,#1727);
#1427=AXIS2_PLACEMENT_3D('',#2061,#1728,#1729);
#1428=AXIS2_PLACEMENT_3D('',#2063,#1730,#1731);
#1429=AXIS2_PLACEMENT_3D('',#2065,#1732,#1733);
#1430=AXIS2_PLACEMENT_3D('',#2066,#1734,#1735);
#1431=AXIS2_PLACEMENT_3D('',#2068,#1736,#1737);
#1432=AXIS2_PLACEMENT_3D('',#2070,#1738,#1739);
#1433=AXIS2_PLACEMENT_3D('',#2071,#1740,#1741);
#1434=AXIS2_PLACEMENT_3D('',#2073,#1742,#1743);
#1435=AXIS2_PLACEMENT_3D('',#2075,#1744,#1745);
#1436=AXIS2_PLACEMENT_3D('',#2076,#1746,#1747);
#1437=AXIS2_PLACEMENT_3D('',#2078,#1748,#1749);
#1438=AXIS2_PLACEMENT_3D('',#2080,#1750,#1751);
#1439=AXIS2_PLACEMENT_3D('',#2081,#1752,#1753);
#1440=AXIS2_PLACEMENT_3D('',#2083,#1754,#1755);
#1441=AXIS2_PLACEMENT_3D('',#2085,#1756,#1757);
#1442=AXIS2_PLACEMENT_3D('',#2086,#1758,#1759);
#1443=AXIS2_PLACEMENT_3D('',#2088,#1760,#1761);
#1444=AXIS2_PLACEMENT_3D('',#2090,#1762,#1763);
#1445=AXIS2_PLACEMENT_3D('',#2091,#1764,#1765);
#1446=AXIS2_PLACEMENT_3D('',#2093,#1766,#1767);
#1447=AXIS2_PLACEMENT_3D('',#2095,#1768,#1769);
#1448=AXIS2_PLACEMENT_3D('',#2107,#1775,#1776);
#1449=AXIS2_PLACEMENT_3D('',#2111,#1778,#1779);
#1450=AXIS2_PLACEMENT_3D('',#2115,#1781,#1782);
#1451=AXIS2_PLACEMENT_3D('',#2119,#1784,#1785);
#1452=AXIS2_PLACEMENT_3D('',#2120,#1786,#1787);
#1453=AXIS2_PLACEMENT_3D('',#2126,#1791,#1792);
#1454=AXIS2_PLACEMENT_3D('',#2130,#1795,#1796);
#1455=AXIS2_PLACEMENT_3D('',#2134,#1799,#1800);
#1456=AXIS2_PLACEMENT_3D('',#2135,#1801,#1802);
#1457=AXIS2_PLACEMENT_3D('',#2138,#1804,#1805);
#1458=AXIS2_PLACEMENT_3D('',#2139,#1806,#1807);
#1459=AXIS2_PLACEMENT_3D('',#2145,#1811,#1812);
#1460=AXIS2_PLACEMENT_3D('',#2151,#1816,#1817);
#1461=AXIS2_PLACEMENT_3D('',#2157,#1821,#1822);
#1462=AXIS2_PLACEMENT_3D('',#2158,#1823,#1824);
#1463=AXIS2_PLACEMENT_3D('',#2160,#1825,#1826);
#1464=AXIS2_PLACEMENT_3D('',#2164,#1828,#1829);
#1465=AXIS2_PLACEMENT_3D('',#2165,#1830,#1831);
#1466=AXIS2_PLACEMENT_3D('',#2166,#1832,#1833);
#1467=AXIS2_PLACEMENT_3D('',#2167,#1834,#1835);
#1468=AXIS2_PLACEMENT_3D('',#2170,#1838,#1839);
#1469=AXIS2_PLACEMENT_3D('',#2171,#1840,#1841);
#1470=AXIS2_PLACEMENT_3D('',#2172,#1842,#1843);
#1471=AXIS2_PLACEMENT_3D('',#2173,#1844,#1845);
#1472=AXIS2_PLACEMENT_3D('',#2174,#1846,#1847);
#1473=AXIS2_PLACEMENT_3D('',#2175,#1848,#1849);
#1474=DIRECTION('',(0.,0.,1.));
#1475=DIRECTION('',(1.,0.,0.));
#1476=DIRECTION('',(0.,0.,-1.));
#1477=DIRECTION('',(-1.,0.,0.));
#1478=DIRECTION('',(0.,0.,-1.));
#1479=DIRECTION('',(-1.,0.,0.));
#1480=DIRECTION('',(0.,0.,-1.));
#1481=DIRECTION('',(-1.,0.,0.));
#1482=DIRECTION('',(0.,0.,-1.));
#1483=DIRECTION('',(-1.,0.,0.));
#1484=DIRECTION('',(0.,0.,-1.));
#1485=DIRECTION('',(-1.,0.,0.));
#1486=DIRECTION('',(0.,0.,-1.));
#1487=DIRECTION('',(-1.,0.,0.));
#1488=DIRECTION('',(0.,0.,-1.));
#1489=DIRECTION('',(-1.,0.,0.));
#1490=DIRECTION('',(0.,0.,-1.));
#1491=DIRECTION('',(-1.,0.,0.));
#1492=DIRECTION('',(0.,0.,-1.));
#1493=DIRECTION('',(-1.,0.,0.));
#1494=DIRECTION('',(0.,0.,-1.));
#1495=DIRECTION('',(-1.,0.,0.));
#1496=DIRECTION('',(0.,0.,-1.));
#1497=DIRECTION('',(-1.,0.,0.));
#1498=DIRECTION('',(0.,0.,-1.));
#1499=DIRECTION('',(-1.,0.,0.));
#1500=DIRECTION('',(0.,0.,-1.));
#1501=DIRECTION('',(-1.,0.,0.));
#1502=DIRECTION('',(0.,0.,-1.));
#1503=DIRECTION('',(-1.,0.,0.));
#1504=DIRECTION('',(0.,0.,-1.));
#1505=DIRECTION('',(-1.,0.,0.));
#1506=DIRECTION('',(0.,0.,-1.));
#1507=DIRECTION('',(-1.,0.,0.));
#1508=DIRECTION('',(0.,0.,-1.));
#1509=DIRECTION('',(-1.,0.,0.));
#1510=DIRECTION('',(0.,0.,-1.));
#1511=DIRECTION('',(-1.,0.,0.));
#1512=DIRECTION('',(0.,0.,-1.));
#1513=DIRECTION('',(-1.,0.,0.));
#1514=DIRECTION('',(0.,0.,-1.));
#1515=DIRECTION('',(-1.,0.,0.));
#1516=DIRECTION('',(0.,0.,-1.));
#1517=DIRECTION('',(-1.,0.,0.));
#1518=DIRECTION('',(0.,0.,-1.));
#1519=DIRECTION('',(-1.,0.,0.));
#1520=DIRECTION('',(0.,0.,-1.));
#1521=DIRECTION('',(-1.,0.,0.));
#1522=DIRECTION('',(0.,0.,-1.));
#1523=DIRECTION('',(-1.,0.,0.));
#1524=DIRECTION('',(0.,0.,-1.));
#1525=DIRECTION('',(-1.,0.,0.));
#1526=DIRECTION('',(0.,0.,-1.));
#1527=DIRECTION('',(-1.,0.,0.));
#1528=DIRECTION('',(0.,0.,-1.));
#1529=DIRECTION('',(-1.,0.,0.));
#1530=DIRECTION('',(0.,0.,-1.));
#1531=DIRECTION('',(-1.,0.,0.));
#1532=DIRECTION('',(0.,0.,-1.));
#1533=DIRECTION('',(-1.,0.,0.));
#1534=DIRECTION('',(0.,0.,-1.));
#1535=DIRECTION('',(-1.,0.,0.));
#1536=DIRECTION('',(0.,0.,-1.));
#1537=DIRECTION('',(-1.,0.,0.));
#1538=DIRECTION('',(0.,0.,-1.));
#1539=DIRECTION('',(-1.,0.,0.));
#1540=DIRECTION('',(0.,0.,-1.));
#1541=DIRECTION('',(-1.,0.,0.));
#1542=DIRECTION('',(0.,0.,-1.));
#1543=DIRECTION('',(-1.,0.,0.));
#1544=DIRECTION('',(0.,0.,-1.));
#1545=DIRECTION('',(-1.,0.,0.));
#1546=DIRECTION('',(0.,0.,-1.));
#1547=DIRECTION('',(-1.,0.,0.));
#1548=DIRECTION('',(0.,0.,-1.));
#1549=DIRECTION('',(-1.,0.,0.));
#1550=DIRECTION('',(0.,0.,-1.));
#1551=DIRECTION('',(-1.,0.,0.));
#1552=DIRECTION('',(0.,0.,-1.));
#1553=DIRECTION('',(-1.,0.,0.));
#1554=DIRECTION('',(0.,0.,-1.));
#1555=DIRECTION('',(-1.,0.,0.));
#1556=DIRECTION('',(0.,0.,-1.));
#1557=DIRECTION('',(-1.,0.,0.));
#1558=DIRECTION('',(0.,0.,-1.));
#1559=DIRECTION('',(-1.,0.,0.));
#1560=DIRECTION('',(0.,0.,-1.));
#1561=DIRECTION('',(-1.,0.,0.));
#1562=DIRECTION('',(0.,0.,-1.));
#1563=DIRECTION('',(-1.,0.,0.));
#1564=DIRECTION('',(0.,0.,-1.));
#1565=DIRECTION('',(-1.,0.,0.));
#1566=DIRECTION('',(0.,0.,-1.));
#1567=DIRECTION('',(-1.,0.,0.));
#1568=DIRECTION('',(0.,0.,-1.));
#1569=DIRECTION('',(-1.,0.,0.));
#1570=DIRECTION('',(0.,0.,-1.));
#1571=DIRECTION('',(-1.,0.,0.));
#1572=DIRECTION('',(0.,0.,-1.));
#1573=DIRECTION('',(-1.,0.,0.));
#1574=DIRECTION('',(0.,0.,-1.));
#1575=DIRECTION('',(-1.,0.,0.));
#1576=DIRECTION('',(0.,0.,-1.));
#1577=DIRECTION('',(-1.,0.,0.));
#1578=DIRECTION('',(0.,0.,-1.));
#1579=DIRECTION('',(-1.,0.,0.));
#1580=DIRECTION('',(0.,0.,-1.));
#1581=DIRECTION('',(-1.,0.,0.));
#1582=DIRECTION('',(0.,0.,-1.));
#1583=DIRECTION('',(-1.,0.,0.));
#1584=DIRECTION('',(0.,0.,-1.));
#1585=DIRECTION('',(-1.,0.,0.));
#1586=DIRECTION('',(0.,0.,-1.));
#1587=DIRECTION('',(-1.,0.,0.));
#1588=DIRECTION('',(0.,0.,-1.));
#1589=DIRECTION('',(-1.,0.,0.));
#1590=DIRECTION('',(0.,0.,-1.));
#1591=DIRECTION('',(-1.,0.,0.));
#1592=DIRECTION('',(0.,0.,-1.));
#1593=DIRECTION('',(-1.,0.,0.));
#1594=DIRECTION('',(0.,0.,-1.));
#1595=DIRECTION('',(-1.,0.,0.));
#1596=DIRECTION('',(0.,0.,-1.));
#1597=DIRECTION('',(-1.,0.,0.));
#1598=DIRECTION('',(0.,0.,-1.));
#1599=DIRECTION('',(-1.,0.,0.));
#1600=DIRECTION('',(0.,0.,-1.));
#1601=DIRECTION('',(-1.,0.,0.));
#1602=DIRECTION('',(0.,0.,-1.));
#1603=DIRECTION('',(-1.,0.,0.));
#1604=DIRECTION('',(0.,0.,-1.));
#1605=DIRECTION('',(-1.,0.,0.));
#1606=DIRECTION('',(0.,0.,-1.));
#1607=DIRECTION('',(-1.,0.,0.));
#1608=DIRECTION('',(0.,0.,-1.));
#1609=DIRECTION('',(-1.,0.,0.));
#1610=DIRECTION('',(0.,0.,-1.));
#1611=DIRECTION('',(-1.,0.,0.));
#1612=DIRECTION('',(0.,0.,-1.));
#1613=DIRECTION('',(-1.,0.,0.));
#1614=DIRECTION('',(0.,0.,-1.));
#1615=DIRECTION('',(-1.,0.,0.));
#1616=DIRECTION('',(0.,0.,-1.));
#1617=DIRECTION('',(-1.,0.,0.));
#1618=DIRECTION('',(0.,0.,-1.));
#1619=DIRECTION('',(-1.,0.,0.));
#1620=DIRECTION('',(0.,0.,-1.));
#1621=DIRECTION('',(-1.,0.,0.));
#1622=DIRECTION('',(0.,0.,-1.));
#1623=DIRECTION('',(-1.,0.,0.));
#1624=DIRECTION('',(0.,0.,-1.));
#1625=DIRECTION('',(-1.,0.,0.));
#1626=DIRECTION('',(0.,0.,-1.));
#1627=DIRECTION('',(-1.,0.,0.));
#1628=DIRECTION('',(0.,0.,-1.));
#1629=DIRECTION('',(-1.,0.,0.));
#1630=DIRECTION('',(0.,0.,-1.));
#1631=DIRECTION('',(-1.,0.,0.));
#1632=DIRECTION('',(0.,0.,-1.));
#1633=DIRECTION('',(-1.,0.,0.));
#1634=DIRECTION('',(0.,0.,-1.));
#1635=DIRECTION('',(-1.,0.,0.));
#1636=DIRECTION('',(0.,0.,-1.));
#1637=DIRECTION('',(-1.,0.,0.));
#1638=DIRECTION('',(0.,0.,-1.));
#1639=DIRECTION('',(-1.,0.,0.));
#1640=DIRECTION('',(0.,0.,-1.));
#1641=DIRECTION('',(-1.,0.,0.));
#1642=DIRECTION('',(0.,0.,-1.));
#1643=DIRECTION('',(-1.,0.,0.));
#1644=DIRECTION('',(0.,0.,-1.));
#1645=DIRECTION('',(-1.,0.,0.));
#1646=DIRECTION('',(0.,0.,-1.));
#1647=DIRECTION('',(-1.,0.,0.));
#1648=DIRECTION('',(0.,0.,-1.));
#1649=DIRECTION('',(-1.,0.,0.));
#1650=DIRECTION('',(0.,0.,-1.));
#1651=DIRECTION('',(-1.,0.,0.));
#1652=DIRECTION('',(0.,0.,-1.));
#1653=DIRECTION('',(-1.,0.,0.));
#1654=DIRECTION('',(0.,0.,-1.));
#1655=DIRECTION('',(-1.,0.,0.));
#1656=DIRECTION('',(0.,0.,-1.));
#1657=DIRECTION('',(-1.,0.,0.));
#1658=DIRECTION('',(0.,0.,-1.));
#1659=DIRECTION('',(-1.,0.,0.));
#1660=DIRECTION('',(0.,0.,-1.));
#1661=DIRECTION('',(-1.,0.,0.));
#1662=DIRECTION('',(0.,0.,-1.));
#1663=DIRECTION('',(-1.,0.,0.));
#1664=DIRECTION('',(0.,0.,-1.));
#1665=DIRECTION('',(-1.,0.,0.));
#1666=DIRECTION('',(0.,0.,-1.));
#1667=DIRECTION('',(-1.,0.,0.));
#1668=DIRECTION('',(0.,0.,-1.));
#1669=DIRECTION('',(-1.,0.,0.));
#1670=DIRECTION('',(0.,0.,-1.));
#1671=DIRECTION('',(-1.,0.,0.));
#1672=DIRECTION('',(0.,0.,-1.));
#1673=DIRECTION('',(-1.,0.,0.));
#1674=DIRECTION('',(0.,0.,-1.));
#1675=DIRECTION('',(-1.,0.,0.));
#1676=DIRECTION('',(0.,0.,-1.));
#1677=DIRECTION('',(-1.,0.,0.));
#1678=DIRECTION('',(0.,0.,-1.));
#1679=DIRECTION('',(-1.,0.,0.));
#1680=DIRECTION('',(0.,0.,-1.));
#1681=DIRECTION('',(-1.,0.,0.));
#1682=DIRECTION('',(0.,0.,-1.));
#1683=DIRECTION('',(-1.,0.,0.));
#1684=DIRECTION('',(0.,0.,-1.));
#1685=DIRECTION('',(-1.,0.,0.));
#1686=DIRECTION('',(0.,0.,-1.));
#1687=DIRECTION('',(-1.,0.,0.));
#1688=DIRECTION('',(0.,0.,-1.));
#1689=DIRECTION('',(-1.,0.,0.));
#1690=DIRECTION('',(0.,0.,-1.));
#1691=DIRECTION('',(-1.,0.,0.));
#1692=DIRECTION('',(0.,0.,-1.));
#1693=DIRECTION('',(-1.,0.,0.));
#1694=DIRECTION('',(0.,0.,-1.));
#1695=DIRECTION('',(-1.,0.,0.));
#1696=DIRECTION('',(0.,0.,-1.));
#1697=DIRECTION('',(-1.,0.,0.));
#1698=DIRECTION('',(0.,0.,-1.));
#1699=DIRECTION('',(-1.,0.,0.));
#1700=DIRECTION('',(0.,0.,-1.));
#1701=DIRECTION('',(-1.,0.,0.));
#1702=DIRECTION('',(0.,0.,-1.));
#1703=DIRECTION('',(-1.,0.,0.));
#1704=DIRECTION('',(0.,0.,-1.));
#1705=DIRECTION('',(-1.,0.,0.));
#1706=DIRECTION('',(0.,0.,-1.));
#1707=DIRECTION('',(-1.,0.,0.));
#1708=DIRECTION('',(0.,0.,-1.));
#1709=DIRECTION('',(-1.,0.,0.));
#1710=DIRECTION('',(0.,0.,-1.));
#1711=DIRECTION('',(-1.,0.,0.));
#1712=DIRECTION('',(0.,0.,-1.));
#1713=DIRECTION('',(-1.,0.,0.));
#1714=DIRECTION('',(0.,0.,-1.));
#1715=DIRECTION('',(-1.,0.,0.));
#1716=DIRECTION('',(0.,0.,-1.));
#1717=DIRECTION('',(-1.,0.,0.));
#1718=DIRECTION('',(0.,0.,-1.));
#1719=DIRECTION('',(-1.,0.,0.));
#1720=DIRECTION('',(0.,0.,-1.));
#1721=DIRECTION('',(-1.,0.,0.));
#1722=DIRECTION('',(0.,0.,-1.));
#1723=DIRECTION('',(-1.,0.,0.));
#1724=DIRECTION('',(0.,0.,-1.));
#1725=DIRECTION('',(-1.,0.,0.));
#1726=DIRECTION('',(0.,0.,-1.));
#1727=DIRECTION('',(-1.,0.,0.));
#1728=DIRECTION('',(0.,0.,-1.));
#1729=DIRECTION('',(-1.,0.,0.));
#1730=DIRECTION('',(0.,0.,-1.));
#1731=DIRECTION('',(-1.,0.,0.));
#1732=DIRECTION('',(0.,0.,-1.));
#1733=DIRECTION('',(-1.,0.,0.));
#1734=DIRECTION('',(0.,0.,-1.));
#1735=DIRECTION('',(-1.,0.,0.));
#1736=DIRECTION('',(0.,0.,-1.));
#1737=DIRECTION('',(-1.,0.,0.));
#1738=DIRECTION('',(0.,0.,-1.));
#1739=DIRECTION('',(-1.,0.,0.));
#1740=DIRECTION('',(0.,0.,-1.));
#1741=DIRECTION('',(-1.,0.,0.));
#1742=DIRECTION('',(0.,0.,-1.));
#1743=DIRECTION('',(-1.,0.,0.));
#1744=DIRECTION('',(0.,0.,-1.));
#1745=DIRECTION('',(-1.,0.,0.));
#1746=DIRECTION('',(0.,0.,-1.));
#1747=DIRECTION('',(-1.,0.,0.));
#1748=DIRECTION('',(0.,0.,-1.));
#1749=DIRECTION('',(-1.,0.,0.));
#1750=DIRECTION('',(0.,0.,-1.));
#1751=DIRECTION('',(-1.,0.,0.));
#1752=DIRECTION('',(0.,0.,-1.));
#1753=DIRECTION('',(-1.,0.,0.));
#1754=DIRECTION('',(0.,0.,-1.));
#1755=DIRECTION('',(-1.,0.,0.));
#1756=DIRECTION('',(0.,0.,-1.));
#1757=DIRECTION('',(-1.,0.,0.));
#1758=DIRECTION('',(0.,0.,-1.));
#1759=DIRECTION('',(-1.,0.,0.));
#1760=DIRECTION('',(0.,0.,-1.));
#1761=DIRECTION('',(-1.,0.,0.));
#1762=DIRECTION('',(0.,0.,-1.));
#1763=DIRECTION('',(-1.,0.,0.));
#1764=DIRECTION('',(0.,0.,-1.));
#1765=DIRECTION('',(-1.,0.,0.));
#1766=DIRECTION('',(0.,0.,-1.));
#1767=DIRECTION('',(-1.,0.,0.));
#1768=DIRECTION('',(0.,0.,-1.));
#1769=DIRECTION('',(-1.,0.,0.));
#1770=DIRECTION('',(-1.,0.,0.));
#1771=DIRECTION('',(0.,-1.,0.));
#1772=DIRECTION('',(1.,0.,0.));
#1773=DIRECTION('',(0.,1.,0.));
#1774=DIRECTION('',(1.,0.,0.));
#1775=DIRECTION('',(0.,0.,-1.));
#1776=DIRECTION('',(1.,0.,0.));
#1777=DIRECTION('',(0.,-1.,0.));
#1778=DIRECTION('',(0.,0.,-1.));
#1779=DIRECTION('',(1.,0.,0.));
#1780=DIRECTION('',(-1.,0.,0.));
#1781=DIRECTION('',(0.,0.,-1.));
#1782=DIRECTION('',(1.,0.,0.));
#1783=DIRECTION('',(0.,1.,0.));
#1784=DIRECTION('',(0.,0.,-1.));
#1785=DIRECTION('',(1.,0.,0.));
#1786=DIRECTION('',(0.,0.,1.));
#1787=DIRECTION('',(1.,0.,0.));
#1788=DIRECTION('',(0.,0.,1.));
#1789=DIRECTION('',(0.,0.,1.));
#1790=DIRECTION('',(1.,0.,0.));
#1791=DIRECTION('',(0.,-1.,0.));
#1792=DIRECTION('',(0.,0.,-1.));
#1793=DIRECTION('',(0.,0.,1.));
#1794=DIRECTION('',(0.,-1.,0.));
#1795=DIRECTION('',(-1.,0.,0.));
#1796=DIRECTION('',(0.,0.,1.));
#1797=DIRECTION('',(0.,0.,1.));
#1798=DIRECTION('',(-1.,0.,0.));
#1799=DIRECTION('',(0.,1.,0.));
#1800=DIRECTION('',(0.,0.,1.));
#1801=DIRECTION('',(0.,0.,-1.));
#1802=DIRECTION('',(-1.,0.,0.));
#1803=DIRECTION('',(0.,1.,0.));
#1804=DIRECTION('',(0.,0.,-1.));
#1805=DIRECTION('',(-1.,0.,0.));
#1806=DIRECTION('',(1.,0.,0.));
#1807=DIRECTION('',(0.,0.,-1.));
#1808=DIRECTION('',(0.,0.,-1.));
#1809=DIRECTION('',(1.,0.,0.));
#1810=DIRECTION('',(0.,0.,1.));
#1811=DIRECTION('',(0.,-1.,0.));
#1812=DIRECTION('',(0.,0.,-1.));
#1813=DIRECTION('',(0.,0.,-1.));
#1814=DIRECTION('',(0.,-1.,0.));
#1815=DIRECTION('',(0.,0.,1.));
#1816=DIRECTION('',(-1.,0.,0.));
#1817=DIRECTION('',(0.,0.,1.));
#1818=DIRECTION('',(-1.,0.,0.));
#1819=DIRECTION('',(0.,0.,1.));
#1820=DIRECTION('',(0.,0.,-1.));
#1821=DIRECTION('',(0.,1.,0.));
#1822=DIRECTION('',(0.,0.,1.));
#1823=DIRECTION('',(0.,0.,-1.));
#1824=DIRECTION('',(-1.,0.,0.));
#1825=DIRECTION('',(0.,0.,1.));
#1826=DIRECTION('',(-1.,0.,0.));
#1827=DIRECTION('',(0.,1.,0.));
#1828=DIRECTION('',(0.,0.,1.));
#1829=DIRECTION('',(-1.,0.,0.));
#1830=DIRECTION('',(0.,0.,1.));
#1831=DIRECTION('',(-1.,0.,0.));
#1832=DIRECTION('',(0.,0.,1.));
#1833=DIRECTION('',(-1.,0.,0.));
#1834=DIRECTION('',(0.,0.,-1.));
#1835=DIRECTION('',(-1.,0.,0.));
#1836=DIRECTION('',(0.,0.,1.));
#1837=DIRECTION('',(0.,0.,-1.));
#1838=DIRECTION('',(1.,0.,0.));
#1839=DIRECTION('',(0.,0.,-1.));
#1840=DIRECTION('',(0.,0.,-1.));
#1841=DIRECTION('',(-1.,0.,0.));
#1842=DIRECTION('',(0.,0.,-1.));
#1843=DIRECTION('',(-1.,0.,0.));
#1844=DIRECTION('',(0.,0.,-1.));
#1845=DIRECTION('',(-1.,0.,0.));
#1846=DIRECTION('',(0.,0.,-1.));
#1847=DIRECTION('',(-1.,0.,0.));
#1848=DIRECTION('',(0.,0.,-1.));
#1849=DIRECTION('',(-1.,0.,0.));
#1850=CARTESIAN_POINT('',(0.,0.,0.));
#1851=CARTESIAN_POINT('',(215.,125.,0.));
#1852=CARTESIAN_POINT('',(208.4385,125.,0.));
#1853=CARTESIAN_POINT('',(215.,125.,10.));
#1854=CARTESIAN_POINT('',(208.4385,125.,10.));
#1855=CARTESIAN_POINT('',(215.,125.,30.));
#1856=CARTESIAN_POINT('',(215.,100.,0.));
#1857=CARTESIAN_POINT('',(208.4385,100.,0.));
#1858=CARTESIAN_POINT('',(215.,100.,10.));
#1859=CARTESIAN_POINT('',(208.4385,100.,10.));
#1860=CARTESIAN_POINT('',(215.,100.,30.));
#1861=CARTESIAN_POINT('',(215.,75.,0.));
#1862=CARTESIAN_POINT('',(208.4385,75.,0.));
#1863=CARTESIAN_POINT('',(215.,75.,10.));
#1864=CARTESIAN_POINT('',(208.4385,75.,10.));
#1865=CARTESIAN_POINT('',(215.,75.,30.));
#1866=CARTESIAN_POINT('',(195.,125.,0.));
#1867=CARTESIAN_POINT('',(188.4385,125.,0.));
#1868=CARTESIAN_POINT('',(195.,125.,10.));
#1869=CARTESIAN_POINT('',(188.4385,125.,10.));
#1870=CARTESIAN_POINT('',(195.,125.,30.));
#1871=CARTESIAN_POINT('',(195.,100.,0.));
#1872=CARTESIAN_POINT('',(188.4385,100.,0.));
#1873=CARTESIAN_POINT('',(195.,100.,10.));
#1874=CARTESIAN_POINT('',(188.4385,100.,10.));
#1875=CARTESIAN_POINT('',(195.,100.,30.));
#1876=CARTESIAN_POINT('',(195.,75.,0.));
#1877=CARTESIAN_POINT('',(188.4385,75.,0.));
#1878=CARTESIAN_POINT('',(195.,75.,10.));
#1879=CARTESIAN_POINT('',(188.4385,75.,10.));
#1880=CARTESIAN_POINT('',(195.,75.,30.));
#1881=CARTESIAN_POINT('',(175.,125.,0.));
#1882=CARTESIAN_POINT('',(168.4385,125.,0.));
#1883=CARTESIAN_POINT('',(175.,125.,10.));
#1884=CARTESIAN_POINT('',(168.4385,125.,10.));
#1885=CARTESIAN_POINT('',(175.,125.,30.));
#1886=CARTESIAN_POINT('',(175.,100.,0.));
#1887=CARTESIAN_POINT('',(168.4385,100.,0.));
#1888=CARTESIAN_POINT('',(175.,100.,10.));
#1889=CARTESIAN_POINT('',(168.4385,100.,10.));
#1890=CARTESIAN_POINT('',(175.,100.,30.));
#1891=CARTESIAN_POINT('',(175.,75.,0.));
#1892=CARTESIAN_POINT('',(168.4385,75.,0.));
#1893=CARTESIAN_POINT('',(175.,75.,10.));
#1894=CARTESIAN_POINT('',(168.4385,75.,10.));
#1895=CARTESIAN_POINT('',(175.,75.,30.));
#1896=CARTESIAN_POINT('',(155.,125.,0.));
#1897=CARTESIAN_POINT('',(148.4385,125.,0.));
#1898=CARTESIAN_POINT('',(155.,125.,10.));
#1899=CARTESIAN_POINT('',(148.4385,125.,10.));
#1900=CARTESIAN_POINT('',(155.,125.,30.));
#1901=CARTESIAN_POINT('',(155.,100.,0.));
#1902=CARTESIAN_POINT('',(148.4385,100.,0.));
#1903=CARTESIAN_POINT('',(155.,100.,10.));
#1904=CARTESIAN_POINT('',(148.4385,100.,10.));
#1905=CARTESIAN_POINT('',(155.,100.,30.));
#1906=CARTESIAN_POINT('',(155.,75.,0.));
#1907=CARTESIAN_POINT('',(148.4385,75.,0.));
#1908=CARTESIAN_POINT('',(155.,75.,10.));
#1909=CARTESIAN_POINT('',(148.4385,75.,10.));
#1910=CARTESIAN_POINT('',(155.,75.,30.));
#1911=CARTESIAN_POINT('',(135.,125.,0.));
#1912=CARTESIAN_POINT('',(128.4385,125.,0.));
#1913=CARTESIAN_POINT('',(135.,125.,10.));
#1914=CARTESIAN_POINT('',(128.4385,125.,10.));
#1915=CARTESIAN_POINT('',(135.,125.,30.));
#1916=CARTESIAN_POINT('',(135.,100.,0.));
#1917=CARTESIAN_POINT('',(128.4385,100.,0.));
#1918=CARTESIAN_POINT('',(135.,100.,10.));
#1919=CARTESIAN_POINT('',(128.4385,100.,10.));
#1920=CARTESIAN_POINT('',(135.,100.,30.));
#1921=CARTESIAN_POINT('',(135.,75.,0.));
#1922=CARTESIAN_POINT('',(128.4385,75.,0.));
#1923=CARTESIAN_POINT('',(135.,75.,10.));
#1924=CARTESIAN_POINT('',(128.4385,75.,10.));
#1925=CARTESIAN_POINT('',(135.,75.,30.));
#1926=CARTESIAN_POINT('',(115.,125.,0.));
#1927=CARTESIAN_POINT('',(108.4385,125.,0.));
#1928=CARTESIAN_POINT('',(115.,125.,10.));
#1929=CARTESIAN_POINT('',(108.4385,125.,10.));
#1930=CARTESIAN_POINT('',(115.,125.,30.));
#1931=CARTESIAN_POINT('',(115.,100.,0.));
#1932=CARTESIAN_POINT('',(108.4385,100.,0.));
#1933=CARTESIAN_POINT('',(115.,100.,10.));
#1934=CARTESIAN_POINT('',(108.4385,100.,10.));
#1935=CARTESIAN_POINT('',(115.,100.,30.));
#1936=CARTESIAN_POINT('',(115.,75.,0.));
#1937=CARTESIAN_POINT('',(108.4385,75.,0.));
#1938=CARTESIAN_POINT('',(115.,75.,10.));
#1939=CARTESIAN_POINT('',(108.4385,75.,10.));
#1940=CARTESIAN_POINT('',(115.,75.,30.));
#1941=CARTESIAN_POINT('',(95.,125.,0.));
#1942=CARTESIAN_POINT('',(88.4385,125.,0.));
#1943=CARTESIAN_POINT('',(95.,125.,10.));
#1944=CARTESIAN_POINT('',(88.4385,125.,10.));
#1945=CARTESIAN_POINT('',(95.,125.,30.));
#1946=CARTESIAN_POINT('',(95.,100.,0.));
#1947=CARTESIAN_POINT('',(88.4385,100.,0.));
#1948=CARTESIAN_POINT('',(95.,100.,10.));
#1949=CARTESIAN_POINT('',(88.4385,100.,10.));
#1950=CARTESIAN_POINT('',(95.,100.,30.));
#1951=CARTESIAN_POINT('',(95.,75.,0.));
#1952=CARTESIAN_POINT('',(88.4385,75.,0.));
#1953=CARTESIAN_POINT('',(95.,75.,10.));
#1954=CARTESIAN_POINT('',(88.4385,75.,10.));
#1955=CARTESIAN_POINT('',(95.,75.,30.));
#1956=CARTESIAN_POINT('',(75.,125.,0.));
#1957=CARTESIAN_POINT('',(68.4385,125.,0.));
#1958=CARTESIAN_POINT('',(75.,125.,10.));
#1959=CARTESIAN_POINT('',(68.4385,125.,10.));
#1960=CARTESIAN_POINT('',(75.,125.,30.));
#1961=CARTESIAN_POINT('',(75.,100.,0.));
#1962=CARTESIAN_POINT('',(68.4385,100.,0.));
#1963=CARTESIAN_POINT('',(75.,100.,10.));
#1964=CARTESIAN_POINT('',(68.4385,100.,10.));
#1965=CARTESIAN_POINT('',(75.,100.,30.));
#1966=CARTESIAN_POINT('',(75.,75.,0.));
#1967=CARTESIAN_POINT('',(68.4385,75.,0.));
#1968=CARTESIAN_POINT('',(75.,75.,10.));
#1969=CARTESIAN_POINT('',(68.4385,75.,10.));
#1970=CARTESIAN_POINT('',(75.,75.,30.));
#1971=CARTESIAN_POINT('',(55.,125.,0.));
#1972=CARTESIAN_POINT('',(48.4385,125.,0.));
#1973=CARTESIAN_POINT('',(55.,125.,10.));
#1974=CARTESIAN_POINT('',(48.4385,125.,10.));
#1975=CARTESIAN_POINT('',(55.,125.,30.));
#1976=CARTESIAN_POINT('',(55.,100.,0.));
#1977=CARTESIAN_POINT('',(48.4385,100.,0.));
#1978=CARTESIAN_POINT('',(55.,100.,10.));
#1979=CARTESIAN_POINT('',(48.4385,100.,10.));
#1980=CARTESIAN_POINT('',(55.,100.,30.));
#1981=CARTESIAN_POINT('',(55.,75.,0.));
#1982=CARTESIAN_POINT('',(48.4385,75.,0.));
#1983=CARTESIAN_POINT('',(55.,75.,10.));
#1984=CARTESIAN_POINT('',(48.4385,75.,10.));
#1985=CARTESIAN_POINT('',(55.,75.,30.));
#1986=CARTESIAN_POINT('',(35.,125.,0.));
#1987=CARTESIAN_POINT('',(28.4385,125.,0.));
#1988=CARTESIAN_POINT('',(35.,125.,10.));
#1989=CARTESIAN_POINT('',(28.4385,125.,10.));
#1990=CARTESIAN_POINT('',(35.,125.,30.));
#1991=CARTESIAN_POINT('',(35.,100.,0.));
#1992=CARTESIAN_POINT('',(28.4385,100.,0.));
#1993=CARTESIAN_POINT('',(35.,100.,10.));
#1994=CARTESIAN_POINT('',(28.4385,100.,10.));
#1995=CARTESIAN_POINT('',(35.,100.,30.));
#1996=CARTESIAN_POINT('',(35.,75.,0.));
#1997=CARTESIAN_POINT('',(28.4385,75.,0.));
#1998=CARTESIAN_POINT('',(35.,75.,10.));
#1999=CARTESIAN_POINT('',(28.4385,75.,10.));
#2000=CARTESIAN_POINT('',(35.,75.,30.));
#2001=CARTESIAN_POINT('',(215.,50.,0.));
#2002=CARTESIAN_POINT('',(208.4385,50.,0.));
#2003=CARTESIAN_POINT('',(215.,50.,10.));
#2004=CARTESIAN_POINT('',(208.4385,50.,10.));
#2005=CARTESIAN_POINT('',(215.,50.,30.));
#2006=CARTESIAN_POINT('',(195.,50.,0.));
#2007=CARTESIAN_POINT('',(188.4385,50.,0.));
#2008=CARTESIAN_POINT('',(195.,50.,10.));
#2009=CARTESIAN_POINT('',(188.4385,50.,10.));
#2010=CARTESIAN_POINT('',(195.,50.,30.));
#2011=CARTESIAN_POINT('',(175.,50.,0.));
#2012=CARTESIAN_POINT('',(168.4385,50.,0.));
#2013=CARTESIAN_POINT('',(175.,50.,10.));
#2014=CARTESIAN_POINT('',(168.4385,50.,10.));
#2015=CARTESIAN_POINT('',(175.,50.,30.));
#2016=CARTESIAN_POINT('',(155.,50.,0.));
#2017=CARTESIAN_POINT('',(148.4385,50.,0.));
#2018=CARTESIAN_POINT('',(155.,50.,10.));
#2019=CARTESIAN_POINT('',(148.4385,50.,10.));
#2020=CARTESIAN_POINT('',(155.,50.,30.));
#2021=CARTESIAN_POINT('',(135.,50.,0.));
#2022=CARTESIAN_POINT('',(128.4385,50.,0.));
#2023=CARTESIAN_POINT('',(135.,50.,10.));
#2024=CARTESIAN_POINT('',(128.4385,50.,10.));
#2025=CARTESIAN_POINT('',(135.,50.,30.));
#2026=CARTESIAN_POINT('',(115.,50.,0.));
#2027=CARTESIAN_POINT('',(108.4385,50.,0.));
#2028=CARTESIAN_POINT('',(115.,50.,10.));
#2029=CARTESIAN_POINT('',(108.4385,50.,10.));
#2030=CARTESIAN_POINT('',(115.,50.,30.));
#2031=CARTESIAN_POINT('',(95.,50.,0.));
#2032=CARTESIAN_POINT('',(88.4385,50.,0.));
#2033=CARTESIAN_POINT('',(95.,50.,10.));
#2034=CARTESIAN_POINT('',(88.4385,50.,10.));
#2035=CARTESIAN_POINT('',(95.,50.,30.));
#2036=CARTESIAN_POINT('',(75.,50.,0.));
#2037=CARTESIAN_POINT('',(68.4385,50.,0.));
#2038=CARTESIAN_POINT('',(75.,50.,10.));
#2039=CARTESIAN_POINT('',(68.4385,50.,10.));
#2040=CARTESIAN_POINT('',(75.,50.,30.));
#2041=CARTESIAN_POINT('',(55.,50.,0.));
#2042=CARTESIAN_POINT('',(48.4385,50.,0.));
#2043=CARTESIAN_POINT('',(55.,50.,10.));
#2044=CARTESIAN_POINT('',(48.4385,50.,10.));
#2045=CARTESIAN_POINT('',(55.,50.,30.));
#2046=CARTESIAN_POINT('',(35.,50.,0.));
#2047=CARTESIAN_POINT('',(28.4385,50.,0.));
#2048=CARTESIAN_POINT('',(35.,50.,10.));
#2049=CARTESIAN_POINT('',(28.4385,50.,10.));
#2050=CARTESIAN_POINT('',(35.,50.,30.));
#2051=CARTESIAN_POINT('',(215.,25.,0.));
#2052=CARTESIAN_POINT('',(208.4385,25.,0.));
#2053=CARTESIAN_POINT('',(215.,25.,10.));
#2054=CARTESIAN_POINT('',(208.4385,25.,10.));
#2055=CARTESIAN_POINT('',(215.,25.,30.));
#2056=CARTESIAN_POINT('',(195.,25.,0.));
#2057=CARTESIAN_POINT('',(188.4385,25.,0.));
#2058=CARTESIAN_POINT('',(195.,25.,10.));
#2059=CARTESIAN_POINT('',(188.4385,25.,10.));
#2060=CARTESIAN_POINT('',(195.,25.,30.));
#2061=CARTESIAN_POINT('',(175.,25.,0.));
#2062=CARTESIAN_POINT('',(168.4385,25.,0.));
#2063=CARTESIAN_POINT('',(175.,25.,10.));
#2064=CARTESIAN_POINT('',(168.4385,25.,10.));
#2065=CARTESIAN_POINT('',(175.,25.,30.));
#2066=CARTESIAN_POINT('',(155.,25.,0.));
#2067=CARTESIAN_POINT('',(148.4385,25.,0.));
#2068=CARTESIAN_POINT('',(155.,25.,10.));
#2069=CARTESIAN_POINT('',(148.4385,25.,10.));
#2070=CARTESIAN_POINT('',(155.,25.,30.));
#2071=CARTESIAN_POINT('',(135.,25.,0.));
#2072=CARTESIAN_POINT('',(128.4385,25.,0.));
#2073=CARTESIAN_POINT('',(135.,25.,10.));
#2074=CARTESIAN_POINT('',(128.4385,25.,10.));
#2075=CARTESIAN_POINT('',(135.,25.,30.));
#2076=CARTESIAN_POINT('',(115.,25.,0.));
#2077=CARTESIAN_POINT('',(108.4385,25.,0.));
#2078=CARTESIAN_POINT('',(115.,25.,10.));
#2079=CARTESIAN_POINT('',(108.4385,25.,10.));
#2080=CARTESIAN_POINT('',(115.,25.,30.));
#2081=CARTESIAN_POINT('',(95.,25.,0.));
#2082=CARTESIAN_POINT('',(88.4385,25.,0.));
#2083=CARTESIAN_POINT('',(95.,25.,10.));
#2084=CARTESIAN_POINT('',(88.4385,25.,10.));
#2085=CARTESIAN_POINT('',(95.,25.,30.));
#2086=CARTESIAN_POINT('',(75.,25.,0.));
#2087=CARTESIAN_POINT('',(68.4385,25.,0.));
#2088=CARTESIAN_POINT('',(75.,25.,10.));
#2089=CARTESIAN_POINT('',(68.4385,25.,10.));
#2090=CARTESIAN_POINT('',(75.,25.,30.));
#2091=CARTESIAN_POINT('',(55.,25.,0.));
#2092=CARTESIAN_POINT('',(48.4385,25.,0.));
#2093=CARTESIAN_POINT('',(55.,25.,10.));
#2094=CARTESIAN_POINT('',(48.4385,25.,10.));
#2095=CARTESIAN_POINT('',(55.,25.,30.));
#2096=CARTESIAN_POINT('',(125.,0.,30.));
#2097=CARTESIAN_POINT('',(250.,0.,30.));
#2098=CARTESIAN_POINT('',(0.,0.,30.));
#2099=CARTESIAN_POINT('',(250.,75.,30.));
#2100=CARTESIAN_POINT('',(250.,150.,30.));
#2101=CARTESIAN_POINT('',(125.,150.,30.));
#2102=CARTESIAN_POINT('',(0.,150.,30.));
#2103=CARTESIAN_POINT('',(0.,75.,30.));
#2104=CARTESIAN_POINT('',(125.,140.,30.));
#2105=CARTESIAN_POINT('',(20.,140.,30.));
#2106=CARTESIAN_POINT('',(230.,140.,30.));
#2107=CARTESIAN_POINT('',(230.,130.,30.));
#2108=CARTESIAN_POINT('',(240.,130.,30.));
#2109=CARTESIAN_POINT('',(240.,75.,30.));
#2110=CARTESIAN_POINT('',(240.,20.,30.));
#2111=CARTESIAN_POINT('',(230.,20.,30.));
#2112=CARTESIAN_POINT('',(230.,10.,30.));
#2113=CARTESIAN_POINT('',(125.,10.,30.));
#2114=CARTESIAN_POINT('',(20.,10.,30.));
#2115=CARTESIAN_POINT('',(20.,20.,30.));
#2116=CARTESIAN_POINT('',(10.,20.,30.));
#2117=CARTESIAN_POINT('',(10.,75.,30.));
#2118=CARTESIAN_POINT('',(10.,130.,30.));
#2119=CARTESIAN_POINT('',(20.,130.,30.));
#2120=CARTESIAN_POINT('',(125.,75.,30.));
#2121=CARTESIAN_POINT('',(250.,0.,0.));
#2122=CARTESIAN_POINT('',(250.,0.,0.));
#2123=CARTESIAN_POINT('',(0.,0.,0.));
#2124=CARTESIAN_POINT('',(0.,0.,0.));
#2125=CARTESIAN_POINT('',(125.,0.,0.));
#2126=CARTESIAN_POINT('',(125.,0.,0.));
#2127=CARTESIAN_POINT('',(0.,150.,0.));
#2128=CARTESIAN_POINT('',(0.,150.,0.));
#2129=CARTESIAN_POINT('',(0.,75.,0.));
#2130=CARTESIAN_POINT('',(0.,75.,0.));
#2131=CARTESIAN_POINT('',(250.,150.,0.));
#2132=CARTESIAN_POINT('',(250.,150.,0.));
#2133=CARTESIAN_POINT('',(125.,150.,0.));
#2134=CARTESIAN_POINT('',(125.,150.,0.));
#2135=CARTESIAN_POINT('',(35.,25.,0.));
#2136=CARTESIAN_POINT('',(28.4385,25.,0.));
#2137=CARTESIAN_POINT('',(250.,75.,0.));
#2138=CARTESIAN_POINT('',(125.,75.,0.));
#2139=CARTESIAN_POINT('',(250.,75.,0.));
#2140=CARTESIAN_POINT('',(230.,10.,10.));
#2141=CARTESIAN_POINT('',(230.,10.,10.));
#2142=CARTESIAN_POINT('',(125.,10.,10.));
#2143=CARTESIAN_POINT('',(20.,10.,10.));
#2144=CARTESIAN_POINT('',(20.,10.,30.));
#2145=CARTESIAN_POINT('',(125.,10.,0.));
#2146=CARTESIAN_POINT('',(10.,20.,10.));
#2147=CARTESIAN_POINT('',(10.,20.,10.));
#2148=CARTESIAN_POINT('',(10.,75.,10.));
#2149=CARTESIAN_POINT('',(10.,130.,10.));
#2150=CARTESIAN_POINT('',(10.,130.,30.));
#2151=CARTESIAN_POINT('',(10.,75.,0.));
#2152=CARTESIAN_POINT('',(125.,140.,10.));
#2153=CARTESIAN_POINT('',(230.,140.,10.));
#2154=CARTESIAN_POINT('',(20.,140.,10.));
#2155=CARTESIAN_POINT('',(230.,140.,30.));
#2156=CARTESIAN_POINT('',(20.,140.,10.));
#2157=CARTESIAN_POINT('',(125.,140.,0.));
#2158=CARTESIAN_POINT('',(35.,25.,10.));
#2159=CARTESIAN_POINT('',(28.4385,25.,10.));
#2160=CARTESIAN_POINT('',(230.,20.,10.));
#2161=CARTESIAN_POINT('',(240.,20.,10.));
#2162=CARTESIAN_POINT('',(240.,75.,10.));
#2163=CARTESIAN_POINT('',(240.,130.,10.));
#2164=CARTESIAN_POINT('',(230.,130.,10.));
#2165=CARTESIAN_POINT('',(20.,130.,10.));
#2166=CARTESIAN_POINT('',(20.,20.,10.));
#2167=CARTESIAN_POINT('',(125.,75.,10.));
#2168=CARTESIAN_POINT('',(240.,20.,30.));
#2169=CARTESIAN_POINT('',(240.,130.,10.));
#2170=CARTESIAN_POINT('',(240.,75.,0.));
#2171=CARTESIAN_POINT('',(35.,25.,30.));
#2172=CARTESIAN_POINT('',(230.,20.,0.));
#2173=CARTESIAN_POINT('',(230.,130.,0.));
#2174=CARTESIAN_POINT('',(20.,20.,0.));
#2175=CARTESIAN_POINT('',(20.,130.,0.));
#2176=MECHANICAL_DESIGN_GEOMETRIC_PRESENTATION_REPRESENTATION('',(#32),
#2177);
#2177=(
GEOMETRIC_REPRESENTATION_CONTEXT(3)
GLOBAL_UNCERTAINTY_ASSIGNED_CONTEXT((#2178))
GLOBAL_UNIT_ASSIGNED_CONTEXT((#2184,#2180,#2179))
REPRESENTATION_CONTEXT('001 - HOLES_POCKET','TOP_LEVEL_ASSEMBLY_PART')
);
#2178=UNCERTAINTY_MEASURE_WITH_UNIT(LENGTH_MEASURE(2.E-5),#2184,
'DISTANCE_ACCURACY_VALUE','Maximum Tolerance applied to model');
#2179=(
NAMED_UNIT(*)
SI_UNIT($,.STERADIAN.)
SOLID_ANGLE_UNIT()
);
#2180=(
CONVERSION_BASED_UNIT('DEGREE',#2182)
NAMED_UNIT(#2181)
PLANE_ANGLE_UNIT()
);
#2181=DIMENSIONAL_EXPONENTS(0.,0.,0.,0.,0.,0.,0.);
#2182=PLANE_ANGLE_MEASURE_WITH_UNIT(PLANE_ANGLE_MEASURE(0.0174532925),#2183);
#2183=(
NAMED_UNIT(*)
PLANE_ANGLE_UNIT()
SI_UNIT($,.RADIAN.)
);
#2184=(
LENGTH_UNIT()
NAMED_UNIT(*)
SI_UNIT(.MILLI.,.METRE.)
);
ENDSEC;
END-ISO-10303-21;
