ISO-10303-21;
HEADER;
/* Generated by software containing ST-Developer
 * from STEP Tools, Inc. (www.steptools.com) 
 */
/* OPTION: using custom schema-name function */

FILE_DESCRIPTION(
/* description */ (''),
/* implementation_level */ '2;1');

FILE_NAME(
/* name */ '002 - HOLES_POCKET.stp',
/* time_stamp */ '2026-08-06T14:22:53+08:00',
/* author */ (''),
/* organization */ (''),
/* preprocessor_version */ 'ST-DEVELOPER v20.1',
/* originating_system */ 'SIEMENS PLM Software NX2512.5000',
/* authorisation */ '');

FILE_SCHEMA (('AUTOMOTIVE_DESIGN { 1 0 10303 214 3 1 1 1 }'));
ENDSEC;

DATA;
#10=PROPERTY_DEFINITION_REPRESENTATION(#14,#12);
#11=PROPERTY_DEFINITION_REPRESENTATION(#15,#13);
#12=REPRESENTATION('',(#16),#1565);
#13=REPRESENTATION('',(#17),#1565);
#14=PROPERTY_DEFINITION('pmi validation property','',#21);
#15=PROPERTY_DEFINITION('pmi validation property','',#21);
#16=VALUE_REPRESENTATION_ITEM('number of annotations',COUNT_MEASURE(0.));
#17=VALUE_REPRESENTATION_ITEM('number of views',COUNT_MEASURE(0.));
#18=SHAPE_REPRESENTATION_RELATIONSHIP('None',
'relationship between 002 - HOLES_POCKET_objects-None and 002 - HOLES_
POCKET_objects-None',#30,#19);
#19=ADVANCED_BREP_SHAPE_REPRESENTATION(
'002 - HOLES_POCKET_objects-None',(#40),#1565);
#20=SHAPE_DEFINITION_REPRESENTATION(#21,#30);
#21=PRODUCT_DEFINITION_SHAPE('','',#22);
#22=PRODUCT_DEFINITION(' ','',#24,#23);
#23=PRODUCT_DEFINITION_CONTEXT('part definition',#29,'design');
#24=PRODUCT_DEFINITION_FORMATION_WITH_SPECIFIED_SOURCE(' ',' ',#26,
 .NOT_KNOWN.);
#25=PRODUCT_RELATED_PRODUCT_CATEGORY('part','',(#26));
#26=PRODUCT('002 - HOLES_POCKET_objects','002 - HOLES_POCKET_objects',
' ',(#27));
#27=PRODUCT_CONTEXT(' ',#29,'mechanical');
#28=APPLICATION_PROTOCOL_DEFINITION('international standard',
'automotive_design',2010,#29);
#29=APPLICATION_CONTEXT(
'core data for automotive mechanical design processes');
#30=SHAPE_REPRESENTATION('002 - HOLES_POCKET_objects-None',(#940),#1565);
#31=PRESENTATION_LAYER_ASSIGNMENT('90','Layer 90',(#40));
#32=STYLED_ITEM('',(#33),#40);
#33=PRESENTATION_STYLE_ASSIGNMENT((#34));
#34=SURFACE_STYLE_USAGE(.BOTH.,#35);
#35=SURFACE_SIDE_STYLE('',(#36));
#36=SURFACE_STYLE_FILL_AREA(#37);
#37=FILL_AREA_STYLE('',(#38));
#38=FILL_AREA_STYLE_COLOUR('',#39);
#39=COLOUR_RGB('medium steel',0.611764705882353,0.658823529411765,0.670588235294118);
#40=MANIFOLD_SOLID_BREP('',#41);
#41=CLOSED_SHELL('',(#121,#122,#123,#124,#125,#126,#127,#128,#129,#130,
#131,#132,#133,#134,#135,#136,#137,#138,#139,#140,#141,#142,#143,#144,#145,
#146,#147,#148,#149,#150,#151,#152,#153,#154,#155,#156,#157,#158,#159,#160,
#161,#162,#163,#164,#165,#166,#167));
#42=FACE_OUTER_BOUND('',#400,.T.);
#43=FACE_OUTER_BOUND('',#401,.T.);
#44=FACE_OUTER_BOUND('',#402,.T.);
#45=FACE_OUTER_BOUND('',#436,.T.);
#46=FACE_OUTER_BOUND('',#437,.T.);
#47=FACE_OUTER_BOUND('',#438,.T.);
#48=FACE_OUTER_BOUND('',#439,.T.);
#49=FACE_OUTER_BOUND('',#473,.T.);
#50=FACE_OUTER_BOUND('',#476,.T.);
#51=FACE_OUTER_BOUND('',#477,.T.);
#52=FACE_OUTER_BOUND('',#478,.T.);
#53=FACE_OUTER_BOUND('',#479,.T.);
#54=PLANE('',#1038);
#55=PLANE('',#1039);
#56=PLANE('',#1040);
#57=PLANE('',#1041);
#58=PLANE('',#1043);
#59=PLANE('',#1044);
#60=PLANE('',#1045);
#61=PLANE('',#1046);
#62=PLANE('',#1047);
#63=PLANE('',#1053);
#64=PLANE('',#1054);
#65=LINE('',#1484,#93);
#66=LINE('',#1487,#94);
#67=LINE('',#1489,#95);
#68=LINE('',#1491,#96);
#69=LINE('',#1492,#97);
#70=LINE('',#1497,#98);
#71=LINE('',#1501,#99);
#72=LINE('',#1505,#100);
#73=LINE('',#1509,#101);
#74=LINE('',#1511,#102);
#75=LINE('',#1513,#103);
#76=LINE('',#1515,#104);
#77=LINE('',#1517,#105);
#78=LINE('',#1519,#106);
#79=LINE('',#1521,#107);
#80=LINE('',#1525,#108);
#81=LINE('',#1528,#109);
#82=LINE('',#1530,#110);
#83=LINE('',#1532,#111);
#84=LINE('',#1534,#112);
#85=LINE('',#1536,#113);
#86=LINE('',#1538,#114);
#87=LINE('',#1540,#115);
#88=LINE('',#1543,#116);
#89=LINE('',#1544,#117);
#90=LINE('',#1550,#118);
#91=LINE('',#1556,#119);
#92=LINE('',#1557,#120);
#93=VECTOR('',#1248,1.);
#94=VECTOR('',#1249,1.);
#95=VECTOR('',#1250,1.);
#96=VECTOR('',#1251,1.);
#97=VECTOR('',#1252,1.);
#98=VECTOR('',#1255,1.);
#99=VECTOR('',#1258,1.);
#100=VECTOR('',#1261,1.);
#101=VECTOR('',#1266,1.);
#102=VECTOR('',#1267,1.);
#103=VECTOR('',#1268,1.);
#104=VECTOR('',#1271,1.);
#105=VECTOR('',#1272,1.);
#106=VECTOR('',#1275,1.);
#107=VECTOR('',#1276,1.);
#108=VECTOR('',#1281,1.);
#109=VECTOR('',#1286,1.);
#110=VECTOR('',#1287,1.);
#111=VECTOR('',#1288,1.);
#112=VECTOR('',#1291,1.);
#113=VECTOR('',#1292,1.);
#114=VECTOR('',#1293,1.);
#115=VECTOR('',#1296,1.);
#116=VECTOR('',#1297,1.);
#117=VECTOR('',#1298,1.);
#118=VECTOR('',#1305,1.);
#119=VECTOR('',#1314,1.);
#120=VECTOR('',#1315,1.);
#121=ADVANCED_FACE('',(#204,#205),#168,.F.);
#122=ADVANCED_FACE('',(#206,#207),#169,.F.);
#123=ADVANCED_FACE('',(#208,#209),#170,.F.);
#124=ADVANCED_FACE('',(#210,#211),#171,.F.);
#125=ADVANCED_FACE('',(#212,#213),#172,.F.);
#126=ADVANCED_FACE('',(#214,#215),#173,.F.);
#127=ADVANCED_FACE('',(#216,#217),#174,.F.);
#128=ADVANCED_FACE('',(#218,#219),#175,.F.);
#129=ADVANCED_FACE('',(#220,#221),#176,.F.);
#130=ADVANCED_FACE('',(#222,#223),#177,.F.);
#131=ADVANCED_FACE('',(#224,#225),#178,.F.);
#132=ADVANCED_FACE('',(#226,#227),#179,.F.);
#133=ADVANCED_FACE('',(#228,#229),#180,.F.);
#134=ADVANCED_FACE('',(#230,#231),#181,.F.);
#135=ADVANCED_FACE('',(#232,#233),#182,.F.);
#136=ADVANCED_FACE('',(#234,#235),#183,.F.);
#137=ADVANCED_FACE('',(#236,#237),#184,.F.);
#138=ADVANCED_FACE('',(#238,#239),#185,.F.);
#139=ADVANCED_FACE('',(#240,#241),#186,.F.);
#140=ADVANCED_FACE('',(#242,#243),#187,.F.);
#141=ADVANCED_FACE('',(#244,#245),#188,.F.);
#142=ADVANCED_FACE('',(#246,#247),#189,.F.);
#143=ADVANCED_FACE('',(#248,#249),#190,.F.);
#144=ADVANCED_FACE('',(#250,#251),#191,.F.);
#145=ADVANCED_FACE('',(#252,#253),#192,.F.);
#146=ADVANCED_FACE('',(#254,#255),#193,.F.);
#147=ADVANCED_FACE('',(#256,#257),#194,.F.);
#148=ADVANCED_FACE('',(#258,#259),#195,.F.);
#149=ADVANCED_FACE('',(#260,#261),#196,.F.);
#150=ADVANCED_FACE('',(#262,#263),#197,.F.);
#151=ADVANCED_FACE('',(#264,#265),#198,.F.);
#152=ADVANCED_FACE('',(#266,#267),#54,.T.);
#153=ADVANCED_FACE('',(#42),#55,.T.);
#154=ADVANCED_FACE('',(#43),#56,.T.);
#155=ADVANCED_FACE('',(#44),#57,.T.);
#156=ADVANCED_FACE('',(#268,#269,#270,#271,#272,#273,#274,#275,#276,#277,
#278,#279,#280,#281,#282,#283,#284,#285,#286,#287,#288,#289,#290,#291,#292,
#293,#294,#295,#296,#297,#298,#299,#300),#58,.T.);
#157=ADVANCED_FACE('',(#45),#59,.T.);
#158=ADVANCED_FACE('',(#46),#60,.F.);
#159=ADVANCED_FACE('',(#47),#61,.F.);
#160=ADVANCED_FACE('',(#48),#62,.F.);
#161=ADVANCED_FACE('',(#301,#302,#303,#304,#305,#306,#307,#308,#309,#310,
#311,#312,#313,#314,#315,#316,#317,#318,#319,#320,#321,#322,#323,#324,#325,
#326,#327,#328,#329,#330,#331,#332,#333),#63,.F.);
#162=ADVANCED_FACE('',(#49),#64,.F.);
#163=ADVANCED_FACE('',(#334,#335),#199,.F.);
#164=ADVANCED_FACE('',(#50),#200,.F.);
#165=ADVANCED_FACE('',(#51),#201,.F.);
#166=ADVANCED_FACE('',(#52),#202,.F.);
#167=ADVANCED_FACE('',(#53),#203,.F.);
#168=CYLINDRICAL_SURFACE('',#943,6.5615);
#169=CYLINDRICAL_SURFACE('',#946,6.5615);
#170=CYLINDRICAL_SURFACE('',#949,6.5615);
#171=CYLINDRICAL_SURFACE('',#952,6.5615);
#172=CYLINDRICAL_SURFACE('',#955,6.5615);
#173=CYLINDRICAL_SURFACE('',#958,6.5615);
#174=CYLINDRICAL_SURFACE('',#961,6.5615);
#175=CYLINDRICAL_SURFACE('',#964,6.5615);
#176=CYLINDRICAL_SURFACE('',#967,6.5615);
#177=CYLINDRICAL_SURFACE('',#970,6.5615);
#178=CYLINDRICAL_SURFACE('',#973,6.5615);
#179=CYLINDRICAL_SURFACE('',#976,6.5615);
#180=CYLINDRICAL_SURFACE('',#979,6.5615);
#181=CYLINDRICAL_SURFACE('',#982,6.5615);
#182=CYLINDRICAL_SURFACE('',#985,6.5615);
#183=CYLINDRICAL_SURFACE('',#988,6.5615);
#184=CYLINDRICAL_SURFACE('',#991,6.5615);
#185=CYLINDRICAL_SURFACE('',#994,6.5615);
#186=CYLINDRICAL_SURFACE('',#997,6.5615);
#187=CYLINDRICAL_SURFACE('',#1000,6.5615);
#188=CYLINDRICAL_SURFACE('',#1003,6.5615);
#189=CYLINDRICAL_SURFACE('',#1006,6.5615);
#190=CYLINDRICAL_SURFACE('',#1009,6.5615);
#191=CYLINDRICAL_SURFACE('',#1012,6.5615);
#192=CYLINDRICAL_SURFACE('',#1015,6.5615);
#193=CYLINDRICAL_SURFACE('',#1018,6.5615);
#194=CYLINDRICAL_SURFACE('',#1021,6.5615);
#195=CYLINDRICAL_SURFACE('',#1024,6.5615);
#196=CYLINDRICAL_SURFACE('',#1027,6.5615);
#197=CYLINDRICAL_SURFACE('',#1030,6.5615);
#198=CYLINDRICAL_SURFACE('',#1033,6.5615);
#199=CYLINDRICAL_SURFACE('',#1055,6.5615);
#200=CYLINDRICAL_SURFACE('',#1056,10.);
#201=CYLINDRICAL_SURFACE('',#1057,10.);
#202=CYLINDRICAL_SURFACE('',#1058,10.);
#203=CYLINDRICAL_SURFACE('',#1059,10.);
#204=FACE_BOUND('',#336,.T.);
#205=FACE_BOUND('',#337,.T.);
#206=FACE_BOUND('',#338,.T.);
#207=FACE_BOUND('',#339,.T.);
#208=FACE_BOUND('',#340,.T.);
#209=FACE_BOUND('',#341,.T.);
#210=FACE_BOUND('',#342,.T.);
#211=FACE_BOUND('',#343,.T.);
#212=FACE_BOUND('',#344,.T.);
#213=FACE_BOUND('',#345,.T.);
#214=FACE_BOUND('',#346,.T.);
#215=FACE_BOUND('',#347,.T.);
#216=FACE_BOUND('',#348,.T.);
#217=FACE_BOUND('',#349,.T.);
#218=FACE_BOUND('',#350,.T.);
#219=FACE_BOUND('',#351,.T.);
#220=FACE_BOUND('',#352,.T.);
#221=FACE_BOUND('',#353,.T.);
#222=FACE_BOUND('',#354,.T.);
#223=FACE_BOUND('',#355,.T.);
#224=FACE_BOUND('',#356,.T.);
#225=FACE_BOUND('',#357,.T.);
#226=FACE_BOUND('',#358,.T.);
#227=FACE_BOUND('',#359,.T.);
#228=FACE_BOUND('',#360,.T.);
#229=FACE_BOUND('',#361,.T.);
#230=FACE_BOUND('',#362,.T.);
#231=FACE_BOUND('',#363,.T.);
#232=FACE_BOUND('',#364,.T.);
#233=FACE_BOUND('',#365,.T.);
#234=FACE_BOUND('',#366,.T.);
#235=FACE_BOUND('',#367,.T.);
#236=FACE_BOUND('',#368,.T.);
#237=FACE_BOUND('',#369,.T.);
#238=FACE_BOUND('',#370,.T.);
#239=FACE_BOUND('',#371,.T.);
#240=FACE_BOUND('',#372,.T.);
#241=FACE_BOUND('',#373,.T.);
#242=FACE_BOUND('',#374,.T.);
#243=FACE_BOUND('',#375,.T.);
#244=FACE_BOUND('',#376,.T.);
#245=FACE_BOUND('',#377,.T.);
#246=FACE_BOUND('',#378,.T.);
#247=FACE_BOUND('',#379,.T.);
#248=FACE_BOUND('',#380,.T.);
#249=FACE_BOUND('',#381,.T.);
#250=FACE_BOUND('',#382,.T.);
#251=FACE_BOUND('',#383,.T.);
#252=FACE_BOUND('',#384,.T.);
#253=FACE_BOUND('',#385,.T.);
#254=FACE_BOUND('',#386,.T.);
#255=FACE_BOUND('',#387,.T.);
#256=FACE_BOUND('',#388,.T.);
#257=FACE_BOUND('',#389,.T.);
#258=FACE_BOUND('',#390,.T.);
#259=FACE_BOUND('',#391,.T.);
#260=FACE_BOUND('',#392,.T.);
#261=FACE_BOUND('',#393,.T.);
#262=FACE_BOUND('',#394,.T.);
#263=FACE_BOUND('',#395,.T.);
#264=FACE_BOUND('',#396,.T.);
#265=FACE_BOUND('',#397,.T.);
#266=FACE_BOUND('',#398,.T.);
#267=FACE_BOUND('',#399,.T.);
#268=FACE_BOUND('',#403,.T.);
#269=FACE_BOUND('',#404,.T.);
#270=FACE_BOUND('',#405,.T.);
#271=FACE_BOUND('',#406,.T.);
#272=FACE_BOUND('',#407,.T.);
#273=FACE_BOUND('',#408,.T.);
#274=FACE_BOUND('',#409,.T.);
#275=FACE_BOUND('',#410,.T.);
#276=FACE_BOUND('',#411,.T.);
#277=FACE_BOUND('',#412,.T.);
#278=FACE_BOUND('',#413,.T.);
#279=FACE_BOUND('',#414,.T.);
#280=FACE_BOUND('',#415,.T.);
#281=FACE_BOUND('',#416,.T.);
#282=FACE_BOUND('',#417,.T.);
#283=FACE_BOUND('',#418,.T.);
#284=FACE_BOUND('',#419,.T.);
#285=FACE_BOUND('',#420,.T.);
#286=FACE_BOUND('',#421,.T.);
#287=FACE_BOUND('',#422,.T.);
#288=FACE_BOUND('',#423,.T.);
#289=FACE_BOUND('',#424,.T.);
#290=FACE_BOUND('',#425,.T.);
#291=FACE_BOUND('',#426,.T.);
#292=FACE_BOUND('',#427,.T.);
#293=FACE_BOUND('',#428,.T.);
#294=FACE_BOUND('',#429,.T.);
#295=FACE_BOUND('',#430,.T.);
#296=FACE_BOUND('',#431,.T.);
#297=FACE_BOUND('',#432,.T.);
#298=FACE_BOUND('',#433,.T.);
#299=FACE_BOUND('',#434,.T.);
#300=FACE_BOUND('',#435,.T.);
#301=FACE_BOUND('',#440,.T.);
#302=FACE_BOUND('',#441,.T.);
#303=FACE_BOUND('',#442,.T.);
#304=FACE_BOUND('',#443,.T.);
#305=FACE_BOUND('',#444,.T.);
#306=FACE_BOUND('',#445,.T.);
#307=FACE_BOUND('',#446,.T.);
#308=FACE_BOUND('',#447,.T.);
#309=FACE_BOUND('',#448,.T.);
#310=FACE_BOUND('',#449,.T.);
#311=FACE_BOUND('',#450,.T.);
#312=FACE_BOUND('',#451,.T.);
#313=FACE_BOUND('',#452,.T.);
#314=FACE_BOUND('',#453,.T.);
#315=FACE_BOUND('',#454,.T.);
#316=FACE_BOUND('',#455,.T.);
#317=FACE_BOUND('',#456,.T.);
#318=FACE_BOUND('',#457,.T.);
#319=FACE_BOUND('',#458,.T.);
#320=FACE_BOUND('',#459,.T.);
#321=FACE_BOUND('',#460,.T.);
#322=FACE_BOUND('',#461,.T.);
#323=FACE_BOUND('',#462,.T.);
#324=FACE_BOUND('',#463,.T.);
#325=FACE_BOUND('',#464,.T.);
#326=FACE_BOUND('',#465,.T.);
#327=FACE_BOUND('',#466,.T.);
#328=FACE_BOUND('',#467,.T.);
#329=FACE_BOUND('',#468,.T.);
#330=FACE_BOUND('',#469,.T.);
#331=FACE_BOUND('',#470,.T.);
#332=FACE_BOUND('',#471,.T.);
#333=FACE_BOUND('',#472,.T.);
#334=FACE_BOUND('',#474,.T.);
#335=FACE_BOUND('',#475,.T.);
#336=EDGE_LOOP('',(#480));
#337=EDGE_LOOP('',(#481));
#338=EDGE_LOOP('',(#482));
#339=EDGE_LOOP('',(#483));
#340=EDGE_LOOP('',(#484));
#341=EDGE_LOOP('',(#485));
#342=EDGE_LOOP('',(#486));
#343=EDGE_LOOP('',(#487));
#344=EDGE_LOOP('',(#488));
#345=EDGE_LOOP('',(#489));
#346=EDGE_LOOP('',(#490));
#347=EDGE_LOOP('',(#491));
#348=EDGE_LOOP('',(#492));
#349=EDGE_LOOP('',(#493));
#350=EDGE_LOOP('',(#494));
#351=EDGE_LOOP('',(#495));
#352=EDGE_LOOP('',(#496));
#353=EDGE_LOOP('',(#497));
#354=EDGE_LOOP('',(#498));
#355=EDGE_LOOP('',(#499));
#356=EDGE_LOOP('',(#500));
#357=EDGE_LOOP('',(#501));
#358=EDGE_LOOP('',(#502));
#359=EDGE_LOOP('',(#503));
#360=EDGE_LOOP('',(#504));
#361=EDGE_LOOP('',(#505));
#362=EDGE_LOOP('',(#506));
#363=EDGE_LOOP('',(#507));
#364=EDGE_LOOP('',(#508));
#365=EDGE_LOOP('',(#509));
#366=EDGE_LOOP('',(#510));
#367=EDGE_LOOP('',(#511));
#368=EDGE_LOOP('',(#512));
#369=EDGE_LOOP('',(#513));
#370=EDGE_LOOP('',(#514));
#371=EDGE_LOOP('',(#515));
#372=EDGE_LOOP('',(#516));
#373=EDGE_LOOP('',(#517));
#374=EDGE_LOOP('',(#518));
#375=EDGE_LOOP('',(#519));
#376=EDGE_LOOP('',(#520));
#377=EDGE_LOOP('',(#521));
#378=EDGE_LOOP('',(#522));
#379=EDGE_LOOP('',(#523));
#380=EDGE_LOOP('',(#524));
#381=EDGE_LOOP('',(#525));
#382=EDGE_LOOP('',(#526));
#383=EDGE_LOOP('',(#527));
#384=EDGE_LOOP('',(#528));
#385=EDGE_LOOP('',(#529));
#386=EDGE_LOOP('',(#530));
#387=EDGE_LOOP('',(#531));
#388=EDGE_LOOP('',(#532));
#389=EDGE_LOOP('',(#533));
#390=EDGE_LOOP('',(#534));
#391=EDGE_LOOP('',(#535));
#392=EDGE_LOOP('',(#536));
#393=EDGE_LOOP('',(#537));
#394=EDGE_LOOP('',(#538));
#395=EDGE_LOOP('',(#539));
#396=EDGE_LOOP('',(#540));
#397=EDGE_LOOP('',(#541));
#398=EDGE_LOOP('',(#542,#543,#544,#545));
#399=EDGE_LOOP('',(#546,#547,#548,#549,#550,#551,#552,#553));
#400=EDGE_LOOP('',(#554,#555,#556,#557));
#401=EDGE_LOOP('',(#558,#559,#560,#561));
#402=EDGE_LOOP('',(#562,#563,#564,#565));
#403=EDGE_LOOP('',(#566));
#404=EDGE_LOOP('',(#567));
#405=EDGE_LOOP('',(#568));
#406=EDGE_LOOP('',(#569));
#407=EDGE_LOOP('',(#570));
#408=EDGE_LOOP('',(#571));
#409=EDGE_LOOP('',(#572));
#410=EDGE_LOOP('',(#573));
#411=EDGE_LOOP('',(#574));
#412=EDGE_LOOP('',(#575));
#413=EDGE_LOOP('',(#576));
#414=EDGE_LOOP('',(#577));
#415=EDGE_LOOP('',(#578));
#416=EDGE_LOOP('',(#579));
#417=EDGE_LOOP('',(#580));
#418=EDGE_LOOP('',(#581));
#419=EDGE_LOOP('',(#582));
#420=EDGE_LOOP('',(#583));
#421=EDGE_LOOP('',(#584));
#422=EDGE_LOOP('',(#585));
#423=EDGE_LOOP('',(#586));
#424=EDGE_LOOP('',(#587));
#425=EDGE_LOOP('',(#588));
#426=EDGE_LOOP('',(#589));
#427=EDGE_LOOP('',(#590));
#428=EDGE_LOOP('',(#591));
#429=EDGE_LOOP('',(#592));
#430=EDGE_LOOP('',(#593));
#431=EDGE_LOOP('',(#594));
#432=EDGE_LOOP('',(#595));
#433=EDGE_LOOP('',(#596));
#434=EDGE_LOOP('',(#597));
#435=EDGE_LOOP('',(#598,#599,#600,#601));
#436=EDGE_LOOP('',(#602,#603,#604,#605));
#437=EDGE_LOOP('',(#606,#607,#608,#609));
#438=EDGE_LOOP('',(#610,#611,#612,#613));
#439=EDGE_LOOP('',(#614,#615,#616,#617));
#440=EDGE_LOOP('',(#618));
#441=EDGE_LOOP('',(#619));
#442=EDGE_LOOP('',(#620));
#443=EDGE_LOOP('',(#621));
#444=EDGE_LOOP('',(#622));
#445=EDGE_LOOP('',(#623));
#446=EDGE_LOOP('',(#624));
#447=EDGE_LOOP('',(#625));
#448=EDGE_LOOP('',(#626));
#449=EDGE_LOOP('',(#627));
#450=EDGE_LOOP('',(#628));
#451=EDGE_LOOP('',(#629));
#452=EDGE_LOOP('',(#630));
#453=EDGE_LOOP('',(#631));
#454=EDGE_LOOP('',(#632));
#455=EDGE_LOOP('',(#633));
#456=EDGE_LOOP('',(#634));
#457=EDGE_LOOP('',(#635));
#458=EDGE_LOOP('',(#636));
#459=EDGE_LOOP('',(#637));
#460=EDGE_LOOP('',(#638));
#461=EDGE_LOOP('',(#639));
#462=EDGE_LOOP('',(#640));
#463=EDGE_LOOP('',(#641));
#464=EDGE_LOOP('',(#642));
#465=EDGE_LOOP('',(#643));
#466=EDGE_LOOP('',(#644));
#467=EDGE_LOOP('',(#645));
#468=EDGE_LOOP('',(#646));
#469=EDGE_LOOP('',(#647));
#470=EDGE_LOOP('',(#648));
#471=EDGE_LOOP('',(#649));
#472=EDGE_LOOP('',(#650,#651,#652,#653,#654,#655,#656,#657));
#473=EDGE_LOOP('',(#658,#659,#660,#661));
#474=EDGE_LOOP('',(#662));
#475=EDGE_LOOP('',(#663));
#476=EDGE_LOOP('',(#664,#665,#666,#667));
#477=EDGE_LOOP('',(#668,#669,#670,#671));
#478=EDGE_LOOP('',(#672,#673,#674,#675));
#479=EDGE_LOOP('',(#676,#677,#678,#679));
#480=ORIENTED_EDGE('',*,*,#768,.T.);
#481=ORIENTED_EDGE('',*,*,#769,.F.);
#482=ORIENTED_EDGE('',*,*,#770,.T.);
#483=ORIENTED_EDGE('',*,*,#771,.F.);
#484=ORIENTED_EDGE('',*,*,#772,.T.);
#485=ORIENTED_EDGE('',*,*,#773,.F.);
#486=ORIENTED_EDGE('',*,*,#774,.T.);
#487=ORIENTED_EDGE('',*,*,#775,.F.);
#488=ORIENTED_EDGE('',*,*,#776,.T.);
#489=ORIENTED_EDGE('',*,*,#777,.F.);
#490=ORIENTED_EDGE('',*,*,#778,.T.);
#491=ORIENTED_EDGE('',*,*,#779,.F.);
#492=ORIENTED_EDGE('',*,*,#780,.T.);
#493=ORIENTED_EDGE('',*,*,#781,.F.);
#494=ORIENTED_EDGE('',*,*,#782,.T.);
#495=ORIENTED_EDGE('',*,*,#783,.F.);
#496=ORIENTED_EDGE('',*,*,#784,.T.);
#497=ORIENTED_EDGE('',*,*,#785,.F.);
#498=ORIENTED_EDGE('',*,*,#786,.T.);
#499=ORIENTED_EDGE('',*,*,#787,.F.);
#500=ORIENTED_EDGE('',*,*,#788,.T.);
#501=ORIENTED_EDGE('',*,*,#789,.F.);
#502=ORIENTED_EDGE('',*,*,#790,.T.);
#503=ORIENTED_EDGE('',*,*,#791,.F.);
#504=ORIENTED_EDGE('',*,*,#792,.T.);
#505=ORIENTED_EDGE('',*,*,#793,.F.);
#506=ORIENTED_EDGE('',*,*,#794,.T.);
#507=ORIENTED_EDGE('',*,*,#795,.F.);
#508=ORIENTED_EDGE('',*,*,#796,.T.);
#509=ORIENTED_EDGE('',*,*,#797,.F.);
#510=ORIENTED_EDGE('',*,*,#798,.T.);
#511=ORIENTED_EDGE('',*,*,#799,.F.);
#512=ORIENTED_EDGE('',*,*,#800,.T.);
#513=ORIENTED_EDGE('',*,*,#801,.F.);
#514=ORIENTED_EDGE('',*,*,#802,.T.);
#515=ORIENTED_EDGE('',*,*,#803,.F.);
#516=ORIENTED_EDGE('',*,*,#804,.T.);
#517=ORIENTED_EDGE('',*,*,#805,.F.);
#518=ORIENTED_EDGE('',*,*,#806,.T.);
#519=ORIENTED_EDGE('',*,*,#807,.F.);
#520=ORIENTED_EDGE('',*,*,#808,.T.);
#521=ORIENTED_EDGE('',*,*,#809,.F.);
#522=ORIENTED_EDGE('',*,*,#810,.T.);
#523=ORIENTED_EDGE('',*,*,#811,.F.);
#524=ORIENTED_EDGE('',*,*,#812,.T.);
#525=ORIENTED_EDGE('',*,*,#813,.F.);
#526=ORIENTED_EDGE('',*,*,#814,.T.);
#527=ORIENTED_EDGE('',*,*,#815,.F.);
#528=ORIENTED_EDGE('',*,*,#816,.T.);
#529=ORIENTED_EDGE('',*,*,#817,.F.);
#530=ORIENTED_EDGE('',*,*,#818,.T.);
#531=ORIENTED_EDGE('',*,*,#819,.F.);
#532=ORIENTED_EDGE('',*,*,#820,.T.);
#533=ORIENTED_EDGE('',*,*,#821,.F.);
#534=ORIENTED_EDGE('',*,*,#822,.T.);
#535=ORIENTED_EDGE('',*,*,#823,.F.);
#536=ORIENTED_EDGE('',*,*,#824,.T.);
#537=ORIENTED_EDGE('',*,*,#825,.F.);
#538=ORIENTED_EDGE('',*,*,#826,.T.);
#539=ORIENTED_EDGE('',*,*,#827,.F.);
#540=ORIENTED_EDGE('',*,*,#828,.T.);
#541=ORIENTED_EDGE('',*,*,#829,.F.);
#542=ORIENTED_EDGE('',*,*,#830,.F.);
#543=ORIENTED_EDGE('',*,*,#831,.F.);
#544=ORIENTED_EDGE('',*,*,#832,.F.);
#545=ORIENTED_EDGE('',*,*,#833,.F.);
#546=ORIENTED_EDGE('',*,*,#834,.T.);
#547=ORIENTED_EDGE('',*,*,#835,.T.);
#548=ORIENTED_EDGE('',*,*,#836,.T.);
#549=ORIENTED_EDGE('',*,*,#837,.T.);
#550=ORIENTED_EDGE('',*,*,#838,.T.);
#551=ORIENTED_EDGE('',*,*,#839,.T.);
#552=ORIENTED_EDGE('',*,*,#840,.T.);
#553=ORIENTED_EDGE('',*,*,#841,.T.);
#554=ORIENTED_EDGE('',*,*,#842,.T.);
#555=ORIENTED_EDGE('',*,*,#830,.T.);
#556=ORIENTED_EDGE('',*,*,#843,.F.);
#557=ORIENTED_EDGE('',*,*,#844,.T.);
#558=ORIENTED_EDGE('',*,*,#843,.T.);
#559=ORIENTED_EDGE('',*,*,#833,.T.);
#560=ORIENTED_EDGE('',*,*,#845,.F.);
#561=ORIENTED_EDGE('',*,*,#846,.T.);
#562=ORIENTED_EDGE('',*,*,#845,.T.);
#563=ORIENTED_EDGE('',*,*,#832,.T.);
#564=ORIENTED_EDGE('',*,*,#847,.F.);
#565=ORIENTED_EDGE('',*,*,#848,.T.);
#566=ORIENTED_EDGE('',*,*,#768,.F.);
#567=ORIENTED_EDGE('',*,*,#770,.F.);
#568=ORIENTED_EDGE('',*,*,#772,.F.);
#569=ORIENTED_EDGE('',*,*,#774,.F.);
#570=ORIENTED_EDGE('',*,*,#776,.F.);
#571=ORIENTED_EDGE('',*,*,#778,.F.);
#572=ORIENTED_EDGE('',*,*,#780,.F.);
#573=ORIENTED_EDGE('',*,*,#782,.F.);
#574=ORIENTED_EDGE('',*,*,#784,.F.);
#575=ORIENTED_EDGE('',*,*,#786,.F.);
#576=ORIENTED_EDGE('',*,*,#788,.F.);
#577=ORIENTED_EDGE('',*,*,#790,.F.);
#578=ORIENTED_EDGE('',*,*,#792,.F.);
#579=ORIENTED_EDGE('',*,*,#794,.F.);
#580=ORIENTED_EDGE('',*,*,#796,.F.);
#581=ORIENTED_EDGE('',*,*,#798,.F.);
#582=ORIENTED_EDGE('',*,*,#800,.F.);
#583=ORIENTED_EDGE('',*,*,#802,.F.);
#584=ORIENTED_EDGE('',*,*,#804,.F.);
#585=ORIENTED_EDGE('',*,*,#806,.F.);
#586=ORIENTED_EDGE('',*,*,#808,.F.);
#587=ORIENTED_EDGE('',*,*,#810,.F.);
#588=ORIENTED_EDGE('',*,*,#812,.F.);
#589=ORIENTED_EDGE('',*,*,#814,.F.);
#590=ORIENTED_EDGE('',*,*,#816,.F.);
#591=ORIENTED_EDGE('',*,*,#818,.F.);
#592=ORIENTED_EDGE('',*,*,#820,.F.);
#593=ORIENTED_EDGE('',*,*,#822,.F.);
#594=ORIENTED_EDGE('',*,*,#824,.F.);
#595=ORIENTED_EDGE('',*,*,#826,.F.);
#596=ORIENTED_EDGE('',*,*,#828,.F.);
#597=ORIENTED_EDGE('',*,*,#849,.F.);
#598=ORIENTED_EDGE('',*,*,#850,.F.);
#599=ORIENTED_EDGE('',*,*,#844,.F.);
#600=ORIENTED_EDGE('',*,*,#846,.F.);
#601=ORIENTED_EDGE('',*,*,#848,.F.);
#602=ORIENTED_EDGE('',*,*,#850,.T.);
#603=ORIENTED_EDGE('',*,*,#847,.T.);
#604=ORIENTED_EDGE('',*,*,#831,.T.);
#605=ORIENTED_EDGE('',*,*,#842,.F.);
#606=ORIENTED_EDGE('',*,*,#838,.F.);
#607=ORIENTED_EDGE('',*,*,#851,.T.);
#608=ORIENTED_EDGE('',*,*,#852,.F.);
#609=ORIENTED_EDGE('',*,*,#853,.T.);
#610=ORIENTED_EDGE('',*,*,#840,.F.);
#611=ORIENTED_EDGE('',*,*,#854,.T.);
#612=ORIENTED_EDGE('',*,*,#855,.F.);
#613=ORIENTED_EDGE('',*,*,#856,.T.);
#614=ORIENTED_EDGE('',*,*,#857,.F.);
#615=ORIENTED_EDGE('',*,*,#858,.T.);
#616=ORIENTED_EDGE('',*,*,#834,.F.);
#617=ORIENTED_EDGE('',*,*,#859,.T.);
#618=ORIENTED_EDGE('',*,*,#769,.T.);
#619=ORIENTED_EDGE('',*,*,#771,.T.);
#620=ORIENTED_EDGE('',*,*,#773,.T.);
#621=ORIENTED_EDGE('',*,*,#775,.T.);
#622=ORIENTED_EDGE('',*,*,#777,.T.);
#623=ORIENTED_EDGE('',*,*,#779,.T.);
#624=ORIENTED_EDGE('',*,*,#781,.T.);
#625=ORIENTED_EDGE('',*,*,#783,.T.);
#626=ORIENTED_EDGE('',*,*,#785,.T.);
#627=ORIENTED_EDGE('',*,*,#787,.T.);
#628=ORIENTED_EDGE('',*,*,#789,.T.);
#629=ORIENTED_EDGE('',*,*,#791,.T.);
#630=ORIENTED_EDGE('',*,*,#793,.T.);
#631=ORIENTED_EDGE('',*,*,#795,.T.);
#632=ORIENTED_EDGE('',*,*,#797,.T.);
#633=ORIENTED_EDGE('',*,*,#799,.T.);
#634=ORIENTED_EDGE('',*,*,#801,.T.);
#635=ORIENTED_EDGE('',*,*,#803,.T.);
#636=ORIENTED_EDGE('',*,*,#805,.T.);
#637=ORIENTED_EDGE('',*,*,#807,.T.);
#638=ORIENTED_EDGE('',*,*,#809,.T.);
#639=ORIENTED_EDGE('',*,*,#811,.T.);
#640=ORIENTED_EDGE('',*,*,#813,.T.);
#641=ORIENTED_EDGE('',*,*,#815,.T.);
#642=ORIENTED_EDGE('',*,*,#817,.T.);
#643=ORIENTED_EDGE('',*,*,#819,.T.);
#644=ORIENTED_EDGE('',*,*,#821,.T.);
#645=ORIENTED_EDGE('',*,*,#823,.T.);
#646=ORIENTED_EDGE('',*,*,#825,.T.);
#647=ORIENTED_EDGE('',*,*,#827,.T.);
#648=ORIENTED_EDGE('',*,*,#829,.T.);
#649=ORIENTED_EDGE('',*,*,#860,.T.);
#650=ORIENTED_EDGE('',*,*,#852,.T.);
#651=ORIENTED_EDGE('',*,*,#861,.T.);
#652=ORIENTED_EDGE('',*,*,#862,.T.);
#653=ORIENTED_EDGE('',*,*,#863,.T.);
#654=ORIENTED_EDGE('',*,*,#857,.T.);
#655=ORIENTED_EDGE('',*,*,#864,.T.);
#656=ORIENTED_EDGE('',*,*,#855,.T.);
#657=ORIENTED_EDGE('',*,*,#865,.T.);
#658=ORIENTED_EDGE('',*,*,#862,.F.);
#659=ORIENTED_EDGE('',*,*,#866,.T.);
#660=ORIENTED_EDGE('',*,*,#836,.F.);
#661=ORIENTED_EDGE('',*,*,#867,.T.);
#662=ORIENTED_EDGE('',*,*,#849,.T.);
#663=ORIENTED_EDGE('',*,*,#860,.F.);
#664=ORIENTED_EDGE('',*,*,#861,.F.);
#665=ORIENTED_EDGE('',*,*,#851,.F.);
#666=ORIENTED_EDGE('',*,*,#837,.F.);
#667=ORIENTED_EDGE('',*,*,#866,.F.);
#668=ORIENTED_EDGE('',*,*,#863,.F.);
#669=ORIENTED_EDGE('',*,*,#867,.F.);
#670=ORIENTED_EDGE('',*,*,#835,.F.);
#671=ORIENTED_EDGE('',*,*,#858,.F.);
#672=ORIENTED_EDGE('',*,*,#865,.F.);
#673=ORIENTED_EDGE('',*,*,#854,.F.);
#674=ORIENTED_EDGE('',*,*,#839,.F.);
#675=ORIENTED_EDGE('',*,*,#853,.F.);
#676=ORIENTED_EDGE('',*,*,#864,.F.);
#677=ORIENTED_EDGE('',*,*,#859,.F.);
#678=ORIENTED_EDGE('',*,*,#841,.F.);
#679=ORIENTED_EDGE('',*,*,#856,.F.);
#680=VERTEX_POINT('',#1330);
#681=VERTEX_POINT('',#1332);
#682=VERTEX_POINT('',#1335);
#683=VERTEX_POINT('',#1337);
#684=VERTEX_POINT('',#1340);
#685=VERTEX_POINT('',#1342);
#686=VERTEX_POINT('',#1345);
#687=VERTEX_POINT('',#1347);
#688=VERTEX_POINT('',#1350);
#689=VERTEX_POINT('',#1352);
#690=VERTEX_POINT('',#1355);
#691=VERTEX_POINT('',#1357);
#692=VERTEX_POINT('',#1360);
#693=VERTEX_POINT('',#1362);
#694=VERTEX_POINT('',#1365);
#695=VERTEX_POINT('',#1367);
#696=VERTEX_POINT('',#1370);
#697=VERTEX_POINT('',#1372);
#698=VERTEX_POINT('',#1375);
#699=VERTEX_POINT('',#1377);
#700=VERTEX_POINT('',#1380);
#701=VERTEX_POINT('',#1382);
#702=VERTEX_POINT('',#1385);
#703=VERTEX_POINT('',#1387);
#704=VERTEX_POINT('',#1390);
#705=VERTEX_POINT('',#1392);
#706=VERTEX_POINT('',#1395);
#707=VERTEX_POINT('',#1397);
#708=VERTEX_POINT('',#1400);
#709=VERTEX_POINT('',#1402);
#710=VERTEX_POINT('',#1405);
#711=VERTEX_POINT('',#1407);
#712=VERTEX_POINT('',#1410);
#713=VERTEX_POINT('',#1412);
#714=VERTEX_POINT('',#1415);
#715=VERTEX_POINT('',#1417);
#716=VERTEX_POINT('',#1420);
#717=VERTEX_POINT('',#1422);
#718=VERTEX_POINT('',#1425);
#719=VERTEX_POINT('',#1427);
#720=VERTEX_POINT('',#1430);
#721=VERTEX_POINT('',#1432);
#722=VERTEX_POINT('',#1435);
#723=VERTEX_POINT('',#1437);
#724=VERTEX_POINT('',#1440);
#725=VERTEX_POINT('',#1442);
#726=VERTEX_POINT('',#1445);
#727=VERTEX_POINT('',#1447);
#728=VERTEX_POINT('',#1450);
#729=VERTEX_POINT('',#1452);
#730=VERTEX_POINT('',#1455);
#731=VERTEX_POINT('',#1457);
#732=VERTEX_POINT('',#1460);
#733=VERTEX_POINT('',#1462);
#734=VERTEX_POINT('',#1465);
#735=VERTEX_POINT('',#1467);
#736=VERTEX_POINT('',#1470);
#737=VERTEX_POINT('',#1472);
#738=VERTEX_POINT('',#1475);
#739=VERTEX_POINT('',#1477);
#740=VERTEX_POINT('',#1480);
#741=VERTEX_POINT('',#1482);
#742=VERTEX_POINT('',#1485);
#743=VERTEX_POINT('',#1486);
#744=VERTEX_POINT('',#1488);
#745=VERTEX_POINT('',#1490);
#746=VERTEX_POINT('',#1493);
#747=VERTEX_POINT('',#1494);
#748=VERTEX_POINT('',#1496);
#749=VERTEX_POINT('',#1498);
#750=VERTEX_POINT('',#1500);
#751=VERTEX_POINT('',#1502);
#752=VERTEX_POINT('',#1504);
#753=VERTEX_POINT('',#1506);
#754=VERTEX_POINT('',#1510);
#755=VERTEX_POINT('',#1512);
#756=VERTEX_POINT('',#1516);
#757=VERTEX_POINT('',#1520);
#758=VERTEX_POINT('',#1524);
#759=VERTEX_POINT('',#1529);
#760=VERTEX_POINT('',#1531);
#761=VERTEX_POINT('',#1535);
#762=VERTEX_POINT('',#1537);
#763=VERTEX_POINT('',#1541);
#764=VERTEX_POINT('',#1542);
#765=VERTEX_POINT('',#1547);
#766=VERTEX_POINT('',#1549);
#767=VERTEX_POINT('',#1551);
#768=EDGE_CURVE('',#680,#680,#868,.T.);
#769=EDGE_CURVE('',#681,#681,#869,.T.);
#770=EDGE_CURVE('',#682,#682,#870,.T.);
#771=EDGE_CURVE('',#683,#683,#871,.T.);
#772=EDGE_CURVE('',#684,#684,#872,.T.);
#773=EDGE_CURVE('',#685,#685,#873,.T.);
#774=EDGE_CURVE('',#686,#686,#874,.T.);
#775=EDGE_CURVE('',#687,#687,#875,.T.);
#776=EDGE_CURVE('',#688,#688,#876,.T.);
#777=EDGE_CURVE('',#689,#689,#877,.T.);
#778=EDGE_CURVE('',#690,#690,#878,.T.);
#779=EDGE_CURVE('',#691,#691,#879,.T.);
#780=EDGE_CURVE('',#692,#692,#880,.T.);
#781=EDGE_CURVE('',#693,#693,#881,.T.);
#782=EDGE_CURVE('',#694,#694,#882,.T.);
#783=EDGE_CURVE('',#695,#695,#883,.T.);
#784=EDGE_CURVE('',#696,#696,#884,.T.);
#785=EDGE_CURVE('',#697,#697,#885,.T.);
#786=EDGE_CURVE('',#698,#698,#886,.T.);
#787=EDGE_CURVE('',#699,#699,#887,.T.);
#788=EDGE_CURVE('',#700,#700,#888,.T.);
#789=EDGE_CURVE('',#701,#701,#889,.T.);
#790=EDGE_CURVE('',#702,#702,#890,.T.);
#791=EDGE_CURVE('',#703,#703,#891,.T.);
#792=EDGE_CURVE('',#704,#704,#892,.T.);
#793=EDGE_CURVE('',#705,#705,#893,.T.);
#794=EDGE_CURVE('',#706,#706,#894,.T.);
#795=EDGE_CURVE('',#707,#707,#895,.T.);
#796=EDGE_CURVE('',#708,#708,#896,.T.);
#797=EDGE_CURVE('',#709,#709,#897,.T.);
#798=EDGE_CURVE('',#710,#710,#898,.T.);
#799=EDGE_CURVE('',#711,#711,#899,.T.);
#800=EDGE_CURVE('',#712,#712,#900,.T.);
#801=EDGE_CURVE('',#713,#713,#901,.T.);
#802=EDGE_CURVE('',#714,#714,#902,.T.);
#803=EDGE_CURVE('',#715,#715,#903,.T.);
#804=EDGE_CURVE('',#716,#716,#904,.T.);
#805=EDGE_CURVE('',#717,#717,#905,.T.);
#806=EDGE_CURVE('',#718,#718,#906,.T.);
#807=EDGE_CURVE('',#719,#719,#907,.T.);
#808=EDGE_CURVE('',#720,#720,#908,.T.);
#809=EDGE_CURVE('',#721,#721,#909,.T.);
#810=EDGE_CURVE('',#722,#722,#910,.T.);
#811=EDGE_CURVE('',#723,#723,#911,.T.);
#812=EDGE_CURVE('',#724,#724,#912,.T.);
#813=EDGE_CURVE('',#725,#725,#913,.T.);
#814=EDGE_CURVE('',#726,#726,#914,.T.);
#815=EDGE_CURVE('',#727,#727,#915,.T.);
#816=EDGE_CURVE('',#728,#728,#916,.T.);
#817=EDGE_CURVE('',#729,#729,#917,.T.);
#818=EDGE_CURVE('',#730,#730,#918,.T.);
#819=EDGE_CURVE('',#731,#731,#919,.T.);
#820=EDGE_CURVE('',#732,#732,#920,.T.);
#821=EDGE_CURVE('',#733,#733,#921,.T.);
#822=EDGE_CURVE('',#734,#734,#922,.T.);
#823=EDGE_CURVE('',#735,#735,#923,.T.);
#824=EDGE_CURVE('',#736,#736,#924,.T.);
#825=EDGE_CURVE('',#737,#737,#925,.T.);
#826=EDGE_CURVE('',#738,#738,#926,.T.);
#827=EDGE_CURVE('',#739,#739,#927,.T.);
#828=EDGE_CURVE('',#740,#740,#928,.T.);
#829=EDGE_CURVE('',#741,#741,#929,.T.);
#830=EDGE_CURVE('',#742,#743,#65,.T.);
#831=EDGE_CURVE('',#744,#742,#66,.T.);
#832=EDGE_CURVE('',#745,#744,#67,.T.);
#833=EDGE_CURVE('',#743,#745,#68,.T.);
#834=EDGE_CURVE('',#746,#747,#69,.T.);
#835=EDGE_CURVE('',#747,#748,#930,.T.);
#836=EDGE_CURVE('',#748,#749,#70,.T.);
#837=EDGE_CURVE('',#749,#750,#931,.T.);
#838=EDGE_CURVE('',#750,#751,#71,.T.);
#839=EDGE_CURVE('',#751,#752,#932,.T.);
#840=EDGE_CURVE('',#752,#753,#72,.T.);
#841=EDGE_CURVE('',#753,#746,#933,.T.);
#842=EDGE_CURVE('',#754,#742,#73,.T.);
#843=EDGE_CURVE('',#755,#743,#74,.T.);
#844=EDGE_CURVE('',#755,#754,#75,.T.);
#845=EDGE_CURVE('',#756,#745,#76,.T.);
#846=EDGE_CURVE('',#756,#755,#77,.T.);
#847=EDGE_CURVE('',#757,#744,#78,.T.);
#848=EDGE_CURVE('',#757,#756,#79,.T.);
#849=EDGE_CURVE('',#758,#758,#934,.T.);
#850=EDGE_CURVE('',#754,#757,#80,.T.);
#851=EDGE_CURVE('',#750,#759,#81,.T.);
#852=EDGE_CURVE('',#760,#759,#82,.T.);
#853=EDGE_CURVE('',#760,#751,#83,.T.);
#854=EDGE_CURVE('',#752,#761,#84,.T.);
#855=EDGE_CURVE('',#762,#761,#85,.T.);
#856=EDGE_CURVE('',#762,#753,#86,.T.);
#857=EDGE_CURVE('',#763,#764,#87,.T.);
#858=EDGE_CURVE('',#763,#747,#88,.T.);
#859=EDGE_CURVE('',#746,#764,#89,.T.);
#860=EDGE_CURVE('',#765,#765,#935,.T.);
#861=EDGE_CURVE('',#759,#766,#936,.T.);
#862=EDGE_CURVE('',#766,#767,#90,.T.);
#863=EDGE_CURVE('',#767,#763,#937,.T.);
#864=EDGE_CURVE('',#764,#762,#938,.T.);
#865=EDGE_CURVE('',#761,#760,#939,.T.);
#866=EDGE_CURVE('',#766,#749,#91,.T.);
#867=EDGE_CURVE('',#748,#767,#92,.T.);
#868=CIRCLE('',#941,6.5615);
#869=CIRCLE('',#942,6.5615);
#870=CIRCLE('',#944,6.5615);
#871=CIRCLE('',#945,6.5615);
#872=CIRCLE('',#947,6.5615);
#873=CIRCLE('',#948,6.5615);
#874=CIRCLE('',#950,6.5615);
#875=CIRCLE('',#951,6.5615);
#876=CIRCLE('',#953,6.5615);
#877=CIRCLE('',#954,6.5615);
#878=CIRCLE('',#956,6.5615);
#879=CIRCLE('',#957,6.5615);
#880=CIRCLE('',#959,6.5615);
#881=CIRCLE('',#960,6.5615);
#882=CIRCLE('',#962,6.5615);
#883=CIRCLE('',#963,6.5615);
#884=CIRCLE('',#965,6.5615);
#885=CIRCLE('',#966,6.5615);
#886=CIRCLE('',#968,6.5615);
#887=CIRCLE('',#969,6.5615);
#888=CIRCLE('',#971,6.5615);
#889=CIRCLE('',#972,6.5615);
#890=CIRCLE('',#974,6.5615);
#891=CIRCLE('',#975,6.5615);
#892=CIRCLE('',#977,6.5615);
#893=CIRCLE('',#978,6.5615);
#894=CIRCLE('',#980,6.5615);
#895=CIRCLE('',#981,6.5615);
#896=CIRCLE('',#983,6.5615);
#897=CIRCLE('',#984,6.5615);
#898=CIRCLE('',#986,6.5615);
#899=CIRCLE('',#987,6.5615);
#900=CIRCLE('',#989,6.5615);
#901=CIRCLE('',#990,6.5615);
#902=CIRCLE('',#992,6.5615);
#903=CIRCLE('',#993,6.5615);
#904=CIRCLE('',#995,6.5615);
#905=CIRCLE('',#996,6.5615);
#906=CIRCLE('',#998,6.5615);
#907=CIRCLE('',#999,6.5615);
#908=CIRCLE('',#1001,6.5615);
#909=CIRCLE('',#1002,6.5615);
#910=CIRCLE('',#1004,6.5615);
#911=CIRCLE('',#1005,6.5615);
#912=CIRCLE('',#1007,6.5615);
#913=CIRCLE('',#1008,6.5615);
#914=CIRCLE('',#1010,6.5615);
#915=CIRCLE('',#1011,6.5615);
#916=CIRCLE('',#1013,6.5615);
#917=CIRCLE('',#1014,6.5615);
#918=CIRCLE('',#1016,6.5615);
#919=CIRCLE('',#1017,6.5615);
#920=CIRCLE('',#1019,6.5615);
#921=CIRCLE('',#1020,6.5615);
#922=CIRCLE('',#1022,6.5615);
#923=CIRCLE('',#1023,6.5615);
#924=CIRCLE('',#1025,6.5615);
#925=CIRCLE('',#1026,6.5615);
#926=CIRCLE('',#1028,6.5615);
#927=CIRCLE('',#1029,6.5615);
#928=CIRCLE('',#1031,6.5615);
#929=CIRCLE('',#1032,6.5615);
#930=CIRCLE('',#1034,10.);
#931=CIRCLE('',#1035,10.);
#932=CIRCLE('',#1036,10.);
#933=CIRCLE('',#1037,10.);
#934=CIRCLE('',#1042,6.5615);
#935=CIRCLE('',#1048,6.5615);
#936=CIRCLE('',#1049,10.);
#937=CIRCLE('',#1050,10.);
#938=CIRCLE('',#1051,10.);
#939=CIRCLE('',#1052,10.);
#940=AXIS2_PLACEMENT_3D('',#1328,#1060,#1061);
#941=AXIS2_PLACEMENT_3D('',#1329,#1062,#1063);
#942=AXIS2_PLACEMENT_3D('',#1331,#1064,#1065);
#943=AXIS2_PLACEMENT_3D('',#1333,#1066,#1067);
#944=AXIS2_PLACEMENT_3D('',#1334,#1068,#1069);
#945=AXIS2_PLACEMENT_3D('',#1336,#1070,#1071);
#946=AXIS2_PLACEMENT_3D('',#1338,#1072,#1073);
#947=AXIS2_PLACEMENT_3D('',#1339,#1074,#1075);
#948=AXIS2_PLACEMENT_3D('',#1341,#1076,#1077);
#949=AXIS2_PLACEMENT_3D('',#1343,#1078,#1079);
#950=AXIS2_PLACEMENT_3D('',#1344,#1080,#1081);
#951=AXIS2_PLACEMENT_3D('',#1346,#1082,#1083);
#952=AXIS2_PLACEMENT_3D('',#1348,#1084,#1085);
#953=AXIS2_PLACEMENT_3D('',#1349,#1086,#1087);
#954=AXIS2_PLACEMENT_3D('',#1351,#1088,#1089);
#955=AXIS2_PLACEMENT_3D('',#1353,#1090,#1091);
#956=AXIS2_PLACEMENT_3D('',#1354,#1092,#1093);
#957=AXIS2_PLACEMENT_3D('',#1356,#1094,#1095);
#958=AXIS2_PLACEMENT_3D('',#1358,#1096,#1097);
#959=AXIS2_PLACEMENT_3D('',#1359,#1098,#1099);
#960=AXIS2_PLACEMENT_3D('',#1361,#1100,#1101);
#961=AXIS2_PLACEMENT_3D('',#1363,#1102,#1103);
#962=AXIS2_PLACEMENT_3D('',#1364,#1104,#1105);
#963=AXIS2_PLACEMENT_3D('',#1366,#1106,#1107);
#964=AXIS2_PLACEMENT_3D('',#1368,#1108,#1109);
#965=AXIS2_PLACEMENT_3D('',#1369,#1110,#1111);
#966=AXIS2_PLACEMENT_3D('',#1371,#1112,#1113);
#967=AXIS2_PLACEMENT_3D('',#1373,#1114,#1115);
#968=AXIS2_PLACEMENT_3D('',#1374,#1116,#1117);
#969=AXIS2_PLACEMENT_3D('',#1376,#1118,#1119);
#970=AXIS2_PLACEMENT_3D('',#1378,#1120,#1121);
#971=AXIS2_PLACEMENT_3D('',#1379,#1122,#1123);
#972=AXIS2_PLACEMENT_3D('',#1381,#1124,#1125);
#973=AXIS2_PLACEMENT_3D('',#1383,#1126,#1127);
#974=AXIS2_PLACEMENT_3D('',#1384,#1128,#1129);
#975=AXIS2_PLACEMENT_3D('',#1386,#1130,#1131);
#976=AXIS2_PLACEMENT_3D('',#1388,#1132,#1133);
#977=AXIS2_PLACEMENT_3D('',#1389,#1134,#1135);
#978=AXIS2_PLACEMENT_3D('',#1391,#1136,#1137);
#979=AXIS2_PLACEMENT_3D('',#1393,#1138,#1139);
#980=AXIS2_PLACEMENT_3D('',#1394,#1140,#1141);
#981=AXIS2_PLACEMENT_3D('',#1396,#1142,#1143);
#982=AXIS2_PLACEMENT_3D('',#1398,#1144,#1145);
#983=AXIS2_PLACEMENT_3D('',#1399,#1146,#1147);
#984=AXIS2_PLACEMENT_3D('',#1401,#1148,#1149);
#985=AXIS2_PLACEMENT_3D('',#1403,#1150,#1151);
#986=AXIS2_PLACEMENT_3D('',#1404,#1152,#1153);
#987=AXIS2_PLACEMENT_3D('',#1406,#1154,#1155);
#988=AXIS2_PLACEMENT_3D('',#1408,#1156,#1157);
#989=AXIS2_PLACEMENT_3D('',#1409,#1158,#1159);
#990=AXIS2_PLACEMENT_3D('',#1411,#1160,#1161);
#991=AXIS2_PLACEMENT_3D('',#1413,#1162,#1163);
#992=AXIS2_PLACEMENT_3D('',#1414,#1164,#1165);
#993=AXIS2_PLACEMENT_3D('',#1416,#1166,#1167);
#994=AXIS2_PLACEMENT_3D('',#1418,#1168,#1169);
#995=AXIS2_PLACEMENT_3D('',#1419,#1170,#1171);
#996=AXIS2_PLACEMENT_3D('',#1421,#1172,#1173);
#997=AXIS2_PLACEMENT_3D('',#1423,#1174,#1175);
#998=AXIS2_PLACEMENT_3D('',#1424,#1176,#1177);
#999=AXIS2_PLACEMENT_3D('',#1426,#1178,#1179);
#1000=AXIS2_PLACEMENT_3D('',#1428,#1180,#1181);
#1001=AXIS2_PLACEMENT_3D('',#1429,#1182,#1183);
#1002=AXIS2_PLACEMENT_3D('',#1431,#1184,#1185);
#1003=AXIS2_PLACEMENT_3D('',#1433,#1186,#1187);
#1004=AXIS2_PLACEMENT_3D('',#1434,#1188,#1189);
#1005=AXIS2_PLACEMENT_3D('',#1436,#1190,#1191);
#1006=AXIS2_PLACEMENT_3D('',#1438,#1192,#1193);
#1007=AXIS2_PLACEMENT_3D('',#1439,#1194,#1195);
#1008=AXIS2_PLACEMENT_3D('',#1441,#1196,#1197);
#1009=AXIS2_PLACEMENT_3D('',#1443,#1198,#1199);
#1010=AXIS2_PLACEMENT_3D('',#1444,#1200,#1201);
#1011=AXIS2_PLACEMENT_3D('',#1446,#1202,#1203);
#1012=AXIS2_PLACEMENT_3D('',#1448,#1204,#1205);
#1013=AXIS2_PLACEMENT_3D('',#1449,#1206,#1207);
#1014=AXIS2_PLACEMENT_3D('',#1451,#1208,#1209);
#1015=AXIS2_PLACEMENT_3D('',#1453,#1210,#1211);
#1016=AXIS2_PLACEMENT_3D('',#1454,#1212,#1213);
#1017=AXIS2_PLACEMENT_3D('',#1456,#1214,#1215);
#1018=AXIS2_PLACEMENT_3D('',#1458,#1216,#1217);
#1019=AXIS2_PLACEMENT_3D('',#1459,#1218,#1219);
#1020=AXIS2_PLACEMENT_3D('',#1461,#1220,#1221);
#1021=AXIS2_PLACEMENT_3D('',#1463,#1222,#1223);
#1022=AXIS2_PLACEMENT_3D('',#1464,#1224,#1225);
#1023=AXIS2_PLACEMENT_3D('',#1466,#1226,#1227);
#1024=AXIS2_PLACEMENT_3D('',#1468,#1228,#1229);
#1025=AXIS2_PLACEMENT_3D('',#1469,#1230,#1231);
#1026=AXIS2_PLACEMENT_3D('',#1471,#1232,#1233);
#1027=AXIS2_PLACEMENT_3D('',#1473,#1234,#1235);
#1028=AXIS2_PLACEMENT_3D('',#1474,#1236,#1237);
#1029=AXIS2_PLACEMENT_3D('',#1476,#1238,#1239);
#1030=AXIS2_PLACEMENT_3D('',#1478,#1240,#1241);
#1031=AXIS2_PLACEMENT_3D('',#1479,#1242,#1243);
#1032=AXIS2_PLACEMENT_3D('',#1481,#1244,#1245);
#1033=AXIS2_PLACEMENT_3D('',#1483,#1246,#1247);
#1034=AXIS2_PLACEMENT_3D('',#1495,#1253,#1254);
#1035=AXIS2_PLACEMENT_3D('',#1499,#1256,#1257);
#1036=AXIS2_PLACEMENT_3D('',#1503,#1259,#1260);
#1037=AXIS2_PLACEMENT_3D('',#1507,#1262,#1263);
#1038=AXIS2_PLACEMENT_3D('',#1508,#1264,#1265);
#1039=AXIS2_PLACEMENT_3D('',#1514,#1269,#1270);
#1040=AXIS2_PLACEMENT_3D('',#1518,#1273,#1274);
#1041=AXIS2_PLACEMENT_3D('',#1522,#1277,#1278);
#1042=AXIS2_PLACEMENT_3D('',#1523,#1279,#1280);
#1043=AXIS2_PLACEMENT_3D('',#1526,#1282,#1283);
#1044=AXIS2_PLACEMENT_3D('',#1527,#1284,#1285);
#1045=AXIS2_PLACEMENT_3D('',#1533,#1289,#1290);
#1046=AXIS2_PLACEMENT_3D('',#1539,#1294,#1295);
#1047=AXIS2_PLACEMENT_3D('',#1545,#1299,#1300);
#1048=AXIS2_PLACEMENT_3D('',#1546,#1301,#1302);
#1049=AXIS2_PLACEMENT_3D('',#1548,#1303,#1304);
#1050=AXIS2_PLACEMENT_3D('',#1552,#1306,#1307);
#1051=AXIS2_PLACEMENT_3D('',#1553,#1308,#1309);
#1052=AXIS2_PLACEMENT_3D('',#1554,#1310,#1311);
#1053=AXIS2_PLACEMENT_3D('',#1555,#1312,#1313);
#1054=AXIS2_PLACEMENT_3D('',#1558,#1316,#1317);
#1055=AXIS2_PLACEMENT_3D('',#1559,#1318,#1319);
#1056=AXIS2_PLACEMENT_3D('',#1560,#1320,#1321);
#1057=AXIS2_PLACEMENT_3D('',#1561,#1322,#1323);
#1058=AXIS2_PLACEMENT_3D('',#1562,#1324,#1325);
#1059=AXIS2_PLACEMENT_3D('',#1563,#1326,#1327);
#1060=DIRECTION('',(0.,0.,1.));
#1061=DIRECTION('',(1.,0.,0.));
#1062=DIRECTION('',(0.,0.,-1.));
#1063=DIRECTION('',(-1.,0.,0.));
#1064=DIRECTION('',(0.,0.,-1.));
#1065=DIRECTION('',(-1.,0.,0.));
#1066=DIRECTION('',(0.,0.,-1.));
#1067=DIRECTION('',(-1.,0.,0.));
#1068=DIRECTION('',(0.,0.,-1.));
#1069=DIRECTION('',(-1.,0.,0.));
#1070=DIRECTION('',(0.,0.,-1.));
#1071=DIRECTION('',(-1.,0.,0.));
#1072=DIRECTION('',(0.,0.,-1.));
#1073=DIRECTION('',(-1.,0.,0.));
#1074=DIRECTION('',(0.,0.,-1.));
#1075=DIRECTION('',(-1.,0.,0.));
#1076=DIRECTION('',(0.,0.,-1.));
#1077=DIRECTION('',(-1.,0.,0.));
#1078=DIRECTION('',(0.,0.,-1.));
#1079=DIRECTION('',(-1.,0.,0.));
#1080=DIRECTION('',(0.,0.,-1.));
#1081=DIRECTION('',(-1.,0.,0.));
#1082=DIRECTION('',(0.,0.,-1.));
#1083=DIRECTION('',(-1.,0.,0.));
#1084=DIRECTION('',(0.,0.,-1.));
#1085=DIRECTION('',(-1.,0.,0.));
#1086=DIRECTION('',(0.,0.,-1.));
#1087=DIRECTION('',(-1.,0.,0.));
#1088=DIRECTION('',(0.,0.,-1.));
#1089=DIRECTION('',(-1.,0.,0.));
#1090=DIRECTION('',(0.,0.,-1.));
#1091=DIRECTION('',(-1.,0.,0.));
#1092=DIRECTION('',(0.,0.,-1.));
#1093=DIRECTION('',(-1.,0.,0.));
#1094=DIRECTION('',(0.,0.,-1.));
#1095=DIRECTION('',(-1.,0.,0.));
#1096=DIRECTION('',(0.,0.,-1.));
#1097=DIRECTION('',(-1.,0.,0.));
#1098=DIRECTION('',(0.,0.,-1.));
#1099=DIRECTION('',(-1.,0.,0.));
#1100=DIRECTION('',(0.,0.,-1.));
#1101=DIRECTION('',(-1.,0.,0.));
#1102=DIRECTION('',(0.,0.,-1.));
#1103=DIRECTION('',(-1.,0.,0.));
#1104=DIRECTION('',(0.,0.,-1.));
#1105=DIRECTION('',(-1.,0.,0.));
#1106=DIRECTION('',(0.,0.,-1.));
#1107=DIRECTION('',(-1.,0.,0.));
#1108=DIRECTION('',(0.,0.,-1.));
#1109=DIRECTION('',(-1.,0.,0.));
#1110=DIRECTION('',(0.,0.,-1.));
#1111=DIRECTION('',(-1.,0.,0.));
#1112=DIRECTION('',(0.,0.,-1.));
#1113=DIRECTION('',(-1.,0.,0.));
#1114=DIRECTION('',(0.,0.,-1.));
#1115=DIRECTION('',(-1.,0.,0.));
#1116=DIRECTION('',(0.,0.,-1.));
#1117=DIRECTION('',(-1.,0.,0.));
#1118=DIRECTION('',(0.,0.,-1.));
#1119=DIRECTION('',(-1.,0.,0.));
#1120=DIRECTION('',(0.,0.,-1.));
#1121=DIRECTION('',(-1.,0.,0.));
#1122=DIRECTION('',(0.,0.,-1.));
#1123=DIRECTION('',(-1.,0.,0.));
#1124=DIRECTION('',(0.,0.,-1.));
#1125=DIRECTION('',(-1.,0.,0.));
#1126=DIRECTION('',(0.,0.,-1.));
#1127=DIRECTION('',(-1.,0.,0.));
#1128=DIRECTION('',(0.,0.,-1.));
#1129=DIRECTION('',(-1.,0.,0.));
#1130=DIRECTION('',(0.,0.,-1.));
#1131=DIRECTION('',(-1.,0.,0.));
#1132=DIRECTION('',(0.,0.,-1.));
#1133=DIRECTION('',(-1.,0.,0.));
#1134=DIRECTION('',(0.,0.,-1.));
#1135=DIRECTION('',(-1.,0.,0.));
#1136=DIRECTION('',(0.,0.,-1.));
#1137=DIRECTION('',(-1.,0.,0.));
#1138=DIRECTION('',(0.,0.,-1.));
#1139=DIRECTION('',(-1.,0.,0.));
#1140=DIRECTION('',(0.,0.,-1.));
#1141=DIRECTION('',(-1.,0.,0.));
#1142=DIRECTION('',(0.,0.,-1.));
#1143=DIRECTION('',(-1.,0.,0.));
#1144=DIRECTION('',(0.,0.,-1.));
#1145=DIRECTION('',(-1.,0.,0.));
#1146=DIRECTION('',(0.,0.,-1.));
#1147=DIRECTION('',(-1.,0.,0.));
#1148=DIRECTION('',(0.,0.,-1.));
#1149=DIRECTION('',(-1.,0.,0.));
#1150=DIRECTION('',(0.,0.,-1.));
#1151=DIRECTION('',(-1.,0.,0.));
#1152=DIRECTION('',(0.,0.,-1.));
#1153=DIRECTION('',(-1.,0.,0.));
#1154=DIRECTION('',(0.,0.,-1.));
#1155=DIRECTION('',(-1.,0.,0.));
#1156=DIRECTION('',(0.,0.,-1.));
#1157=DIRECTION('',(-1.,0.,0.));
#1158=DIRECTION('',(0.,0.,-1.));
#1159=DIRECTION('',(-1.,0.,0.));
#1160=DIRECTION('',(0.,0.,-1.));
#1161=DIRECTION('',(-1.,0.,0.));
#1162=DIRECTION('',(0.,0.,-1.));
#1163=DIRECTION('',(-1.,0.,0.));
#1164=DIRECTION('',(0.,0.,-1.));
#1165=DIRECTION('',(-1.,0.,0.));
#1166=DIRECTION('',(0.,0.,-1.));
#1167=DIRECTION('',(-1.,0.,0.));
#1168=DIRECTION('',(0.,0.,-1.));
#1169=DIRECTION('',(-1.,0.,0.));
#1170=DIRECTION('',(0.,0.,-1.));
#1171=DIRECTION('',(-1.,0.,0.));
#1172=DIRECTION('',(0.,0.,-1.));
#1173=DIRECTION('',(-1.,0.,0.));
#1174=DIRECTION('',(0.,0.,-1.));
#1175=DIRECTION('',(-1.,0.,0.));
#1176=DIRECTION('',(0.,0.,-1.));
#1177=DIRECTION('',(-1.,0.,0.));
#1178=DIRECTION('',(0.,0.,-1.));
#1179=DIRECTION('',(-1.,0.,0.));
#1180=DIRECTION('',(0.,0.,-1.));
#1181=DIRECTION('',(-1.,0.,0.));
#1182=DIRECTION('',(0.,0.,-1.));
#1183=DIRECTION('',(-1.,0.,0.));
#1184=DIRECTION('',(0.,0.,-1.));
#1185=DIRECTION('',(-1.,0.,0.));
#1186=DIRECTION('',(0.,0.,-1.));
#1187=DIRECTION('',(-1.,0.,0.));
#1188=DIRECTION('',(0.,0.,-1.));
#1189=DIRECTION('',(-1.,0.,0.));
#1190=DIRECTION('',(0.,0.,-1.));
#1191=DIRECTION('',(-1.,0.,0.));
#1192=DIRECTION('',(0.,0.,-1.));
#1193=DIRECTION('',(-1.,0.,0.));
#1194=DIRECTION('',(0.,0.,-1.));
#1195=DIRECTION('',(-1.,0.,0.));
#1196=DIRECTION('',(0.,0.,-1.));
#1197=DIRECTION('',(-1.,0.,0.));
#1198=DIRECTION('',(0.,0.,-1.));
#1199=DIRECTION('',(-1.,0.,0.));
#1200=DIRECTION('',(0.,0.,-1.));
#1201=DIRECTION('',(-1.,0.,0.));
#1202=DIRECTION('',(0.,0.,-1.));
#1203=DIRECTION('',(-1.,0.,0.));
#1204=DIRECTION('',(0.,0.,-1.));
#1205=DIRECTION('',(-1.,0.,0.));
#1206=DIRECTION('',(0.,0.,-1.));
#1207=DIRECTION('',(-1.,0.,0.));
#1208=DIRECTION('',(0.,0.,-1.));
#1209=DIRECTION('',(-1.,0.,0.));
#1210=DIRECTION('',(0.,0.,-1.));
#1211=DIRECTION('',(-1.,0.,0.));
#1212=DIRECTION('',(0.,0.,-1.));
#1213=DIRECTION('',(-1.,0.,0.));
#1214=DIRECTION('',(0.,0.,-1.));
#1215=DIRECTION('',(-1.,0.,0.));
#1216=DIRECTION('',(0.,0.,-1.));
#1217=DIRECTION('',(-1.,0.,0.));
#1218=DIRECTION('',(0.,0.,-1.));
#1219=DIRECTION('',(-1.,0.,0.));
#1220=DIRECTION('',(0.,0.,-1.));
#1221=DIRECTION('',(-1.,0.,0.));
#1222=DIRECTION('',(0.,0.,-1.));
#1223=DIRECTION('',(-1.,0.,0.));
#1224=DIRECTION('',(0.,0.,-1.));
#1225=DIRECTION('',(-1.,0.,0.));
#1226=DIRECTION('',(0.,0.,-1.));
#1227=DIRECTION('',(-1.,0.,0.));
#1228=DIRECTION('',(0.,0.,-1.));
#1229=DIRECTION('',(-1.,0.,0.));
#1230=DIRECTION('',(0.,0.,-1.));
#1231=DIRECTION('',(-1.,0.,0.));
#1232=DIRECTION('',(0.,0.,-1.));
#1233=DIRECTION('',(-1.,0.,0.));
#1234=DIRECTION('',(0.,0.,-1.));
#1235=DIRECTION('',(-1.,0.,0.));
#1236=DIRECTION('',(0.,0.,-1.));
#1237=DIRECTION('',(-1.,0.,0.));
#1238=DIRECTION('',(0.,0.,-1.));
#1239=DIRECTION('',(-1.,0.,0.));
#1240=DIRECTION('',(0.,0.,-1.));
#1241=DIRECTION('',(-1.,0.,0.));
#1242=DIRECTION('',(0.,0.,-1.));
#1243=DIRECTION('',(-1.,0.,0.));
#1244=DIRECTION('',(0.,0.,-1.));
#1245=DIRECTION('',(-1.,0.,0.));
#1246=DIRECTION('',(0.,0.,-1.));
#1247=DIRECTION('',(-1.,0.,0.));
#1248=DIRECTION('',(-1.,0.,0.));
#1249=DIRECTION('',(0.,-1.,0.));
#1250=DIRECTION('',(1.,0.,0.));
#1251=DIRECTION('',(0.,1.,0.));
#1252=DIRECTION('',(1.,0.,0.));
#1253=DIRECTION('',(0.,0.,-1.));
#1254=DIRECTION('',(1.,0.,0.));
#1255=DIRECTION('',(0.,-1.,0.));
#1256=DIRECTION('',(0.,0.,-1.));
#1257=DIRECTION('',(1.,0.,0.));
#1258=DIRECTION('',(-1.,0.,0.));
#1259=DIRECTION('',(0.,0.,-1.));
#1260=DIRECTION('',(1.,0.,0.));
#1261=DIRECTION('',(0.,1.,0.));
#1262=DIRECTION('',(0.,0.,-1.));
#1263=DIRECTION('',(1.,0.,0.));
#1264=DIRECTION('',(0.,0.,1.));
#1265=DIRECTION('',(1.,0.,0.));
#1266=DIRECTION('',(0.,0.,1.));
#1267=DIRECTION('',(0.,0.,1.));
#1268=DIRECTION('',(1.,0.,0.));
#1269=DIRECTION('',(0.,-1.,0.));
#1270=DIRECTION('',(0.,0.,-1.));
#1271=DIRECTION('',(0.,0.,1.));
#1272=DIRECTION('',(0.,-1.,0.));
#1273=DIRECTION('',(-1.,0.,0.));
#1274=DIRECTION('',(0.,0.,1.));
#1275=DIRECTION('',(0.,0.,1.));
#1276=DIRECTION('',(-1.,0.,0.));
#1277=DIRECTION('',(0.,1.,0.));
#1278=DIRECTION('',(0.,0.,1.));
#1279=DIRECTION('',(0.,0.,-1.));
#1280=DIRECTION('',(-1.,0.,0.));
#1281=DIRECTION('',(0.,1.,0.));
#1282=DIRECTION('',(0.,0.,-1.));
#1283=DIRECTION('',(-1.,0.,0.));
#1284=DIRECTION('',(1.,0.,0.));
#1285=DIRECTION('',(0.,0.,-1.));
#1286=DIRECTION('',(0.,0.,-1.));
#1287=DIRECTION('',(1.,0.,0.));
#1288=DIRECTION('',(0.,0.,1.));
#1289=DIRECTION('',(0.,-1.,0.));
#1290=DIRECTION('',(0.,0.,-1.));
#1291=DIRECTION('',(0.,0.,-1.));
#1292=DIRECTION('',(0.,-1.,0.));
#1293=DIRECTION('',(0.,0.,1.));
#1294=DIRECTION('',(-1.,0.,0.));
#1295=DIRECTION('',(0.,0.,1.));
#1296=DIRECTION('',(-1.,0.,0.));
#1297=DIRECTION('',(0.,0.,1.));
#1298=DIRECTION('',(0.,0.,-1.));
#1299=DIRECTION('',(0.,1.,0.));
#1300=DIRECTION('',(0.,0.,1.));
#1301=DIRECTION('',(0.,0.,-1.));
#1302=DIRECTION('',(-1.,0.,0.));
#1303=DIRECTION('',(0.,0.,1.));
#1304=DIRECTION('',(-1.,0.,0.));
#1305=DIRECTION('',(0.,1.,0.));
#1306=DIRECTION('',(0.,0.,1.));
#1307=DIRECTION('',(-1.,0.,0.));
#1308=DIRECTION('',(0.,0.,1.));
#1309=DIRECTION('',(-1.,0.,0.));
#1310=DIRECTION('',(0.,0.,1.));
#1311=DIRECTION('',(-1.,0.,0.));
#1312=DIRECTION('',(0.,0.,-1.));
#1313=DIRECTION('',(-1.,0.,0.));
#1314=DIRECTION('',(0.,0.,1.));
#1315=DIRECTION('',(0.,0.,-1.));
#1316=DIRECTION('',(1.,0.,0.));
#1317=DIRECTION('',(0.,0.,-1.));
#1318=DIRECTION('',(0.,0.,-1.));
#1319=DIRECTION('',(-1.,0.,0.));
#1320=DIRECTION('',(0.,0.,-1.));
#1321=DIRECTION('',(-1.,0.,0.));
#1322=DIRECTION('',(0.,0.,-1.));
#1323=DIRECTION('',(-1.,0.,0.));
#1324=DIRECTION('',(0.,0.,-1.));
#1325=DIRECTION('',(-1.,0.,0.));
#1326=DIRECTION('',(0.,0.,-1.));
#1327=DIRECTION('',(-1.,0.,0.));
#1328=CARTESIAN_POINT('',(0.,0.,0.));
#1329=CARTESIAN_POINT('',(200.,115.,0.));
#1330=CARTESIAN_POINT('',(193.4385,115.,0.));
#1331=CARTESIAN_POINT('',(200.,115.,10.));
#1332=CARTESIAN_POINT('',(193.4385,115.,10.));
#1333=CARTESIAN_POINT('',(200.,115.,30.));
#1334=CARTESIAN_POINT('',(200.,90.,0.));
#1335=CARTESIAN_POINT('',(193.4385,90.,0.));
#1336=CARTESIAN_POINT('',(200.,90.,10.));
#1337=CARTESIAN_POINT('',(193.4385,90.,10.));
#1338=CARTESIAN_POINT('',(200.,90.,30.));
#1339=CARTESIAN_POINT('',(180.,115.,0.));
#1340=CARTESIAN_POINT('',(173.4385,115.,0.));
#1341=CARTESIAN_POINT('',(180.,115.,10.));
#1342=CARTESIAN_POINT('',(173.4385,115.,10.));
#1343=CARTESIAN_POINT('',(180.,115.,30.));
#1344=CARTESIAN_POINT('',(180.,90.,0.));
#1345=CARTESIAN_POINT('',(173.4385,90.,0.));
#1346=CARTESIAN_POINT('',(180.,90.,10.));
#1347=CARTESIAN_POINT('',(173.4385,90.,10.));
#1348=CARTESIAN_POINT('',(180.,90.,30.));
#1349=CARTESIAN_POINT('',(160.,115.,0.));
#1350=CARTESIAN_POINT('',(153.4385,115.,0.));
#1351=CARTESIAN_POINT('',(160.,115.,10.));
#1352=CARTESIAN_POINT('',(153.4385,115.,10.));
#1353=CARTESIAN_POINT('',(160.,115.,30.));
#1354=CARTESIAN_POINT('',(160.,90.,0.));
#1355=CARTESIAN_POINT('',(153.4385,90.,0.));
#1356=CARTESIAN_POINT('',(160.,90.,10.));
#1357=CARTESIAN_POINT('',(153.4385,90.,10.));
#1358=CARTESIAN_POINT('',(160.,90.,30.));
#1359=CARTESIAN_POINT('',(140.,115.,0.));
#1360=CARTESIAN_POINT('',(133.4385,115.,0.));
#1361=CARTESIAN_POINT('',(140.,115.,10.));
#1362=CARTESIAN_POINT('',(133.4385,115.,10.));
#1363=CARTESIAN_POINT('',(140.,115.,30.));
#1364=CARTESIAN_POINT('',(140.,90.,0.));
#1365=CARTESIAN_POINT('',(133.4385,90.,0.));
#1366=CARTESIAN_POINT('',(140.,90.,10.));
#1367=CARTESIAN_POINT('',(133.4385,90.,10.));
#1368=CARTESIAN_POINT('',(140.,90.,30.));
#1369=CARTESIAN_POINT('',(120.,115.,0.));
#1370=CARTESIAN_POINT('',(113.4385,115.,0.));
#1371=CARTESIAN_POINT('',(120.,115.,10.));
#1372=CARTESIAN_POINT('',(113.4385,115.,10.));
#1373=CARTESIAN_POINT('',(120.,115.,30.));
#1374=CARTESIAN_POINT('',(120.,90.,0.));
#1375=CARTESIAN_POINT('',(113.4385,90.,0.));
#1376=CARTESIAN_POINT('',(120.,90.,10.));
#1377=CARTESIAN_POINT('',(113.4385,90.,10.));
#1378=CARTESIAN_POINT('',(120.,90.,30.));
#1379=CARTESIAN_POINT('',(100.,115.,0.));
#1380=CARTESIAN_POINT('',(93.4385,115.,0.));
#1381=CARTESIAN_POINT('',(100.,115.,10.));
#1382=CARTESIAN_POINT('',(93.4385,115.,10.));
#1383=CARTESIAN_POINT('',(100.,115.,30.));
#1384=CARTESIAN_POINT('',(100.,90.,0.));
#1385=CARTESIAN_POINT('',(93.4385,90.,0.));
#1386=CARTESIAN_POINT('',(100.,90.,10.));
#1387=CARTESIAN_POINT('',(93.4385,90.,10.));
#1388=CARTESIAN_POINT('',(100.,90.,30.));
#1389=CARTESIAN_POINT('',(80.,115.,0.));
#1390=CARTESIAN_POINT('',(73.4385,115.,0.));
#1391=CARTESIAN_POINT('',(80.,115.,10.));
#1392=CARTESIAN_POINT('',(73.4385,115.,10.));
#1393=CARTESIAN_POINT('',(80.,115.,30.));
#1394=CARTESIAN_POINT('',(80.,90.,0.));
#1395=CARTESIAN_POINT('',(73.4385,90.,0.));
#1396=CARTESIAN_POINT('',(80.,90.,10.));
#1397=CARTESIAN_POINT('',(73.4385,90.,10.));
#1398=CARTESIAN_POINT('',(80.,90.,30.));
#1399=CARTESIAN_POINT('',(60.,115.,0.));
#1400=CARTESIAN_POINT('',(53.4385,115.,0.));
#1401=CARTESIAN_POINT('',(60.,115.,10.));
#1402=CARTESIAN_POINT('',(53.4385,115.,10.));
#1403=CARTESIAN_POINT('',(60.,115.,30.));
#1404=CARTESIAN_POINT('',(60.,90.,0.));
#1405=CARTESIAN_POINT('',(53.4385,90.,0.));
#1406=CARTESIAN_POINT('',(60.,90.,10.));
#1407=CARTESIAN_POINT('',(53.4385,90.,10.));
#1408=CARTESIAN_POINT('',(60.,90.,30.));
#1409=CARTESIAN_POINT('',(200.,65.,0.));
#1410=CARTESIAN_POINT('',(193.4385,65.,0.));
#1411=CARTESIAN_POINT('',(200.,65.,10.));
#1412=CARTESIAN_POINT('',(193.4385,65.,10.));
#1413=CARTESIAN_POINT('',(200.,65.,30.));
#1414=CARTESIAN_POINT('',(180.,65.,0.));
#1415=CARTESIAN_POINT('',(173.4385,65.,0.));
#1416=CARTESIAN_POINT('',(180.,65.,10.));
#1417=CARTESIAN_POINT('',(173.4385,65.,10.));
#1418=CARTESIAN_POINT('',(180.,65.,30.));
#1419=CARTESIAN_POINT('',(160.,65.,0.));
#1420=CARTESIAN_POINT('',(153.4385,65.,0.));
#1421=CARTESIAN_POINT('',(160.,65.,10.));
#1422=CARTESIAN_POINT('',(153.4385,65.,10.));
#1423=CARTESIAN_POINT('',(160.,65.,30.));
#1424=CARTESIAN_POINT('',(140.,65.,0.));
#1425=CARTESIAN_POINT('',(133.4385,65.,0.));
#1426=CARTESIAN_POINT('',(140.,65.,10.));
#1427=CARTESIAN_POINT('',(133.4385,65.,10.));
#1428=CARTESIAN_POINT('',(140.,65.,30.));
#1429=CARTESIAN_POINT('',(120.,65.,0.));
#1430=CARTESIAN_POINT('',(113.4385,65.,0.));
#1431=CARTESIAN_POINT('',(120.,65.,10.));
#1432=CARTESIAN_POINT('',(113.4385,65.,10.));
#1433=CARTESIAN_POINT('',(120.,65.,30.));
#1434=CARTESIAN_POINT('',(100.,65.,0.));
#1435=CARTESIAN_POINT('',(93.4385,65.,0.));
#1436=CARTESIAN_POINT('',(100.,65.,10.));
#1437=CARTESIAN_POINT('',(93.4385,65.,10.));
#1438=CARTESIAN_POINT('',(100.,65.,30.));
#1439=CARTESIAN_POINT('',(80.,65.,0.));
#1440=CARTESIAN_POINT('',(73.4385,65.,0.));
#1441=CARTESIAN_POINT('',(80.,65.,10.));
#1442=CARTESIAN_POINT('',(73.4385,65.,10.));
#1443=CARTESIAN_POINT('',(80.,65.,30.));
#1444=CARTESIAN_POINT('',(60.,65.,0.));
#1445=CARTESIAN_POINT('',(53.4385,65.,0.));
#1446=CARTESIAN_POINT('',(60.,65.,10.));
#1447=CARTESIAN_POINT('',(53.4385,65.,10.));
#1448=CARTESIAN_POINT('',(60.,65.,30.));
#1449=CARTESIAN_POINT('',(200.,40.,0.));
#1450=CARTESIAN_POINT('',(193.4385,40.,0.));
#1451=CARTESIAN_POINT('',(200.,40.,10.));
#1452=CARTESIAN_POINT('',(193.4385,40.,10.));
#1453=CARTESIAN_POINT('',(200.,40.,30.));
#1454=CARTESIAN_POINT('',(180.,40.,0.));
#1455=CARTESIAN_POINT('',(173.4385,40.,0.));
#1456=CARTESIAN_POINT('',(180.,40.,10.));
#1457=CARTESIAN_POINT('',(173.4385,40.,10.));
#1458=CARTESIAN_POINT('',(180.,40.,30.));
#1459=CARTESIAN_POINT('',(160.,40.,0.));
#1460=CARTESIAN_POINT('',(153.4385,40.,0.));
#1461=CARTESIAN_POINT('',(160.,40.,10.));
#1462=CARTESIAN_POINT('',(153.4385,40.,10.));
#1463=CARTESIAN_POINT('',(160.,40.,30.));
#1464=CARTESIAN_POINT('',(140.,40.,0.));
#1465=CARTESIAN_POINT('',(133.4385,40.,0.));
#1466=CARTESIAN_POINT('',(140.,40.,10.));
#1467=CARTESIAN_POINT('',(133.4385,40.,10.));
#1468=CARTESIAN_POINT('',(140.,40.,30.));
#1469=CARTESIAN_POINT('',(120.,40.,0.));
#1470=CARTESIAN_POINT('',(113.4385,40.,0.));
#1471=CARTESIAN_POINT('',(120.,40.,10.));
#1472=CARTESIAN_POINT('',(113.4385,40.,10.));
#1473=CARTESIAN_POINT('',(120.,40.,30.));
#1474=CARTESIAN_POINT('',(100.,40.,0.));
#1475=CARTESIAN_POINT('',(93.4385,40.,0.));
#1476=CARTESIAN_POINT('',(100.,40.,10.));
#1477=CARTESIAN_POINT('',(93.4385,40.,10.));
#1478=CARTESIAN_POINT('',(100.,40.,30.));
#1479=CARTESIAN_POINT('',(80.,40.,0.));
#1480=CARTESIAN_POINT('',(73.4385,40.,0.));
#1481=CARTESIAN_POINT('',(80.,40.,10.));
#1482=CARTESIAN_POINT('',(73.4385,40.,10.));
#1483=CARTESIAN_POINT('',(80.,40.,30.));
#1484=CARTESIAN_POINT('',(125.,0.,30.));
#1485=CARTESIAN_POINT('',(250.,0.,30.));
#1486=CARTESIAN_POINT('',(0.,0.,30.));
#1487=CARTESIAN_POINT('',(250.,75.,30.));
#1488=CARTESIAN_POINT('',(250.,150.,30.));
#1489=CARTESIAN_POINT('',(125.,150.,30.));
#1490=CARTESIAN_POINT('',(0.,150.,30.));
#1491=CARTESIAN_POINT('',(0.,75.,30.));
#1492=CARTESIAN_POINT('',(125.,140.,30.));
#1493=CARTESIAN_POINT('',(20.,140.,30.));
#1494=CARTESIAN_POINT('',(230.,140.,30.));
#1495=CARTESIAN_POINT('',(230.,130.,30.));
#1496=CARTESIAN_POINT('',(240.,130.,30.));
#1497=CARTESIAN_POINT('',(240.,75.,30.));
#1498=CARTESIAN_POINT('',(240.,20.,30.));
#1499=CARTESIAN_POINT('',(230.,20.,30.));
#1500=CARTESIAN_POINT('',(230.,10.,30.));
#1501=CARTESIAN_POINT('',(125.,10.,30.));
#1502=CARTESIAN_POINT('',(20.,10.,30.));
#1503=CARTESIAN_POINT('',(20.,20.,30.));
#1504=CARTESIAN_POINT('',(10.,20.,30.));
#1505=CARTESIAN_POINT('',(10.,75.,30.));
#1506=CARTESIAN_POINT('',(10.,130.,30.));
#1507=CARTESIAN_POINT('',(20.,130.,30.));
#1508=CARTESIAN_POINT('',(125.,75.,30.));
#1509=CARTESIAN_POINT('',(250.,0.,0.));
#1510=CARTESIAN_POINT('',(250.,0.,0.));
#1511=CARTESIAN_POINT('',(0.,0.,0.));
#1512=CARTESIAN_POINT('',(0.,0.,0.));
#1513=CARTESIAN_POINT('',(125.,0.,0.));
#1514=CARTESIAN_POINT('',(125.,0.,0.));
#1515=CARTESIAN_POINT('',(0.,150.,0.));
#1516=CARTESIAN_POINT('',(0.,150.,0.));
#1517=CARTESIAN_POINT('',(0.,75.,0.));
#1518=CARTESIAN_POINT('',(0.,75.,0.));
#1519=CARTESIAN_POINT('',(250.,150.,0.));
#1520=CARTESIAN_POINT('',(250.,150.,0.));
#1521=CARTESIAN_POINT('',(125.,150.,0.));
#1522=CARTESIAN_POINT('',(125.,150.,0.));
#1523=CARTESIAN_POINT('',(60.,40.,0.));
#1524=CARTESIAN_POINT('',(53.4385,40.,0.));
#1525=CARTESIAN_POINT('',(250.,75.,0.));
#1526=CARTESIAN_POINT('',(125.,75.,0.));
#1527=CARTESIAN_POINT('',(250.,75.,0.));
#1528=CARTESIAN_POINT('',(230.,10.,10.));
#1529=CARTESIAN_POINT('',(230.,10.,10.));
#1530=CARTESIAN_POINT('',(125.,10.,10.));
#1531=CARTESIAN_POINT('',(20.,10.,10.));
#1532=CARTESIAN_POINT('',(20.,10.,30.));
#1533=CARTESIAN_POINT('',(125.,10.,0.));
#1534=CARTESIAN_POINT('',(10.,20.,10.));
#1535=CARTESIAN_POINT('',(10.,20.,10.));
#1536=CARTESIAN_POINT('',(10.,75.,10.));
#1537=CARTESIAN_POINT('',(10.,130.,10.));
#1538=CARTESIAN_POINT('',(10.,130.,30.));
#1539=CARTESIAN_POINT('',(10.,75.,0.));
#1540=CARTESIAN_POINT('',(125.,140.,10.));
#1541=CARTESIAN_POINT('',(230.,140.,10.));
#1542=CARTESIAN_POINT('',(20.,140.,10.));
#1543=CARTESIAN_POINT('',(230.,140.,30.));
#1544=CARTESIAN_POINT('',(20.,140.,10.));
#1545=CARTESIAN_POINT('',(125.,140.,0.));
#1546=CARTESIAN_POINT('',(60.,40.,10.));
#1547=CARTESIAN_POINT('',(53.4385,40.,10.));
#1548=CARTESIAN_POINT('',(230.,20.,10.));
#1549=CARTESIAN_POINT('',(240.,20.,10.));
#1550=CARTESIAN_POINT('',(240.,75.,10.));
#1551=CARTESIAN_POINT('',(240.,130.,10.));
#1552=CARTESIAN_POINT('',(230.,130.,10.));
#1553=CARTESIAN_POINT('',(20.,130.,10.));
#1554=CARTESIAN_POINT('',(20.,20.,10.));
#1555=CARTESIAN_POINT('',(125.,75.,10.));
#1556=CARTESIAN_POINT('',(240.,20.,30.));
#1557=CARTESIAN_POINT('',(240.,130.,10.));
#1558=CARTESIAN_POINT('',(240.,75.,0.));
#1559=CARTESIAN_POINT('',(60.,40.,30.));
#1560=CARTESIAN_POINT('',(230.,20.,0.));
#1561=CARTESIAN_POINT('',(230.,130.,0.));
#1562=CARTESIAN_POINT('',(20.,20.,0.));
#1563=CARTESIAN_POINT('',(20.,130.,0.));
#1564=MECHANICAL_DESIGN_GEOMETRIC_PRESENTATION_REPRESENTATION('',(#32),
#1565);
#1565=(
GEOMETRIC_REPRESENTATION_CONTEXT(3)
GLOBAL_UNCERTAINTY_ASSIGNED_CONTEXT((#1566))
GLOBAL_UNIT_ASSIGNED_CONTEXT((#1572,#1568,#1567))
REPRESENTATION_CONTEXT('002 - HOLES_POCKET','TOP_LEVEL_ASSEMBLY_PART')
);
#1566=UNCERTAINTY_MEASURE_WITH_UNIT(LENGTH_MEASURE(2.E-5),#1572,
'DISTANCE_ACCURACY_VALUE','Maximum Tolerance applied to model');
#1567=(
NAMED_UNIT(*)
SI_UNIT($,.STERADIAN.)
SOLID_ANGLE_UNIT()
);
#1568=(
CONVERSION_BASED_UNIT('DEGREE',#1570)
NAMED_UNIT(#1569)
PLANE_ANGLE_UNIT()
);
#1569=DIMENSIONAL_EXPONENTS(0.,0.,0.,0.,0.,0.,0.);
#1570=PLANE_ANGLE_MEASURE_WITH_UNIT(PLANE_ANGLE_MEASURE(0.0174532925),#1571);
#1571=(
NAMED_UNIT(*)
PLANE_ANGLE_UNIT()
SI_UNIT($,.RADIAN.)
);
#1572=(
LENGTH_UNIT()
NAMED_UNIT(*)
SI_UNIT(.MILLI.,.METRE.)
);
ENDSEC;
END-ISO-10303-21;
