ISO-10303-21;
HEADER;
/* Generated by software containing ST-Developer
 * from STEP Tools, Inc. (www.steptools.com) 
 */
/* OPTION: using custom schema-name function */

FILE_DESCRIPTION(
/* description */ (''),
/* implementation_level */ '2;1');

FILE_NAME(
/* name */ '003 - HOLES_BROKEN.stp',
/* time_stamp */ '2026-08-06T14:28:59+08:00',
/* author */ (''),
/* organization */ (''),
/* preprocessor_version */ 'ST-DEVELOPER v20.1',
/* originating_system */ 'SIEMENS PLM Software NX2512.5000',
/* authorisation */ '');

FILE_SCHEMA (('AUTOMOTIVE_DESIGN { 1 0 10303 214 3 1 1 1 }'));
ENDSEC;

DATA;
#10=PROPERTY_DEFINITION_REPRESENTATION(#14,#12);
#11=PROPERTY_DEFINITION_REPRESENTATION(#15,#13);
#12=REPRESENTATION('',(#16),#1283);
#13=REPRESENTATION('',(#17),#1283);
#14=PROPERTY_DEFINITION('pmi validation property','',#21);
#15=PROPERTY_DEFINITION('pmi validation property','',#21);
#16=VALUE_REPRESENTATION_ITEM('number of annotations',COUNT_MEASURE(0.));
#17=VALUE_REPRESENTATION_ITEM('number of views',COUNT_MEASURE(0.));
#18=SHAPE_REPRESENTATION_RELATIONSHIP('None',
'relationship between 003 - HOLES_BROKEN_objects-None and 003 - HOLES_
BROKEN_objects-None',#30,#19);
#19=ADVANCED_BREP_SHAPE_REPRESENTATION(
'003 - HOLES_BROKEN_objects-None',(#40),#1283);
#20=SHAPE_DEFINITION_REPRESENTATION(#21,#30);
#21=PRODUCT_DEFINITION_SHAPE('','',#22);
#22=PRODUCT_DEFINITION(' ','',#24,#23);
#23=PRODUCT_DEFINITION_CONTEXT('part definition',#29,'design');
#24=PRODUCT_DEFINITION_FORMATION_WITH_SPECIFIED_SOURCE(' ',' ',#26,
 .NOT_KNOWN.);
#25=PRODUCT_RELATED_PRODUCT_CATEGORY('part','',(#26));
#26=PRODUCT('003 - HOLES_BROKEN_objects','003 - HOLES_BROKEN_objects',
' ',(#27));
#27=PRODUCT_CONTEXT(' ',#29,'mechanical');
#28=APPLICATION_PROTOCOL_DEFINITION('international standard',
'automotive_design',2010,#29);
#29=APPLICATION_CONTEXT(
'core data for automotive mechanical design processes');
#30=SHAPE_REPRESENTATION('003 - HOLES_BROKEN_objects-None',(#774),#1283);
#31=PRESENTATION_LAYER_ASSIGNMENT('1','Layer 1',(#40));
#32=STYLED_ITEM('',(#33),#40);
#33=PRESENTATION_STYLE_ASSIGNMENT((#34));
#34=SURFACE_STYLE_USAGE(.BOTH.,#35);
#35=SURFACE_SIDE_STYLE('',(#36));
#36=SURFACE_STYLE_FILL_AREA(#37);
#37=FILL_AREA_STYLE('',(#38));
#38=FILL_AREA_STYLE_COLOUR('',#39);
#39=COLOUR_RGB('medium steel',0.611764705882353,0.658823529411765,0.670588235294118);
#40=MANIFOLD_SOLID_BREP('',#41);
#41=CLOSED_SHELL('',(#76,#77,#78,#79,#80,#81,#82,#83,#84,#85,#86,#87,#88,
#89,#90,#91,#92,#93,#94,#95,#96,#97,#98,#99,#100,#101,#102,#103,#104,#105,
#106,#107,#108,#109,#110,#111,#112,#113));
#42=PLANE('',#868);
#43=PLANE('',#869);
#44=PLANE('',#870);
#45=PLANE('',#872);
#46=PLANE('',#873);
#47=PLANE('',#876);
#48=FACE_OUTER_BOUND('',#370,.T.);
#49=FACE_OUTER_BOUND('',#371,.T.);
#50=FACE_OUTER_BOUND('',#372,.T.);
#51=FACE_OUTER_BOUND('',#406,.T.);
#52=LINE('',#1251,#64);
#53=LINE('',#1254,#65);
#54=LINE('',#1256,#66);
#55=LINE('',#1258,#67);
#56=LINE('',#1260,#68);
#57=LINE('',#1262,#69);
#58=LINE('',#1264,#70);
#59=LINE('',#1266,#71);
#60=LINE('',#1268,#72);
#61=LINE('',#1270,#73);
#62=LINE('',#1274,#74);
#63=LINE('',#1276,#75);
#64=VECTOR('',#1065,1.);
#65=VECTOR('',#1066,1.);
#66=VECTOR('',#1067,1.);
#67=VECTOR('',#1068,1.);
#68=VECTOR('',#1071,1.);
#69=VECTOR('',#1072,1.);
#70=VECTOR('',#1073,1.);
#71=VECTOR('',#1076,1.);
#72=VECTOR('',#1077,1.);
#73=VECTOR('',#1078,1.);
#74=VECTOR('',#1083,1.);
#75=VECTOR('',#1086,1.);
#76=ADVANCED_FACE('',(#178,#179),#114,.F.);
#77=ADVANCED_FACE('',(#180,#181),#115,.F.);
#78=ADVANCED_FACE('',(#182,#183),#116,.F.);
#79=ADVANCED_FACE('',(#184,#185),#117,.F.);
#80=ADVANCED_FACE('',(#186,#187),#118,.F.);
#81=ADVANCED_FACE('',(#188,#189),#119,.F.);
#82=ADVANCED_FACE('',(#190,#191),#120,.F.);
#83=ADVANCED_FACE('',(#192,#193),#121,.F.);
#84=ADVANCED_FACE('',(#194,#195),#122,.F.);
#85=ADVANCED_FACE('',(#196,#197),#123,.F.);
#86=ADVANCED_FACE('',(#198,#199),#124,.F.);
#87=ADVANCED_FACE('',(#200,#201),#125,.F.);
#88=ADVANCED_FACE('',(#202,#203),#126,.F.);
#89=ADVANCED_FACE('',(#204,#205),#127,.F.);
#90=ADVANCED_FACE('',(#206,#207),#128,.F.);
#91=ADVANCED_FACE('',(#208,#209),#129,.F.);
#92=ADVANCED_FACE('',(#210,#211),#130,.F.);
#93=ADVANCED_FACE('',(#212,#213),#131,.F.);
#94=ADVANCED_FACE('',(#214,#215),#132,.F.);
#95=ADVANCED_FACE('',(#216,#217),#133,.F.);
#96=ADVANCED_FACE('',(#218,#219),#134,.F.);
#97=ADVANCED_FACE('',(#220,#221),#135,.F.);
#98=ADVANCED_FACE('',(#222,#223),#136,.F.);
#99=ADVANCED_FACE('',(#224,#225),#137,.F.);
#100=ADVANCED_FACE('',(#226,#227),#138,.F.);
#101=ADVANCED_FACE('',(#228,#229),#139,.F.);
#102=ADVANCED_FACE('',(#230,#231),#140,.F.);
#103=ADVANCED_FACE('',(#232,#233),#141,.F.);
#104=ADVANCED_FACE('',(#234,#235),#142,.F.);
#105=ADVANCED_FACE('',(#236,#237),#143,.F.);
#106=ADVANCED_FACE('',(#238,#239),#144,.F.);
#107=ADVANCED_FACE('',(#48),#42,.T.);
#108=ADVANCED_FACE('',(#49),#43,.T.);
#109=ADVANCED_FACE('',(#50),#44,.T.);
#110=ADVANCED_FACE('',(#240,#241,#242,#243,#244,#245,#246,#247,#248,#249,
#250,#251,#252,#253,#254,#255,#256,#257,#258,#259,#260,#261,#262,#263,#264,
#265,#266,#267,#268,#269,#270,#271,#272),#45,.T.);
#111=ADVANCED_FACE('',(#51),#46,.T.);
#112=ADVANCED_FACE('',(#273,#274),#145,.F.);
#113=ADVANCED_FACE('',(#275,#276,#277,#278,#279,#280,#281,#282,#283,#284,
#285,#286,#287,#288,#289,#290,#291,#292,#293,#294,#295,#296,#297,#298,#299,
#300,#301,#302,#303,#304,#305,#306,#307),#47,.F.);
#114=CYLINDRICAL_SURFACE('',#777,6.5615);
#115=CYLINDRICAL_SURFACE('',#780,6.5615);
#116=CYLINDRICAL_SURFACE('',#783,6.5615);
#117=CYLINDRICAL_SURFACE('',#786,6.5615);
#118=CYLINDRICAL_SURFACE('',#789,6.5615);
#119=CYLINDRICAL_SURFACE('',#792,6.5615);
#120=CYLINDRICAL_SURFACE('',#795,6.5615);
#121=CYLINDRICAL_SURFACE('',#798,6.5615);
#122=CYLINDRICAL_SURFACE('',#801,6.5615);
#123=CYLINDRICAL_SURFACE('',#804,6.5615);
#124=CYLINDRICAL_SURFACE('',#807,6.5615);
#125=CYLINDRICAL_SURFACE('',#810,6.5615);
#126=CYLINDRICAL_SURFACE('',#813,6.5615);
#127=CYLINDRICAL_SURFACE('',#816,6.5615);
#128=CYLINDRICAL_SURFACE('',#819,6.5615);
#129=CYLINDRICAL_SURFACE('',#822,6.5615);
#130=CYLINDRICAL_SURFACE('',#825,6.5615);
#131=CYLINDRICAL_SURFACE('',#828,6.5615);
#132=CYLINDRICAL_SURFACE('',#831,6.5615);
#133=CYLINDRICAL_SURFACE('',#834,6.5615);
#134=CYLINDRICAL_SURFACE('',#837,6.5615);
#135=CYLINDRICAL_SURFACE('',#840,6.5615);
#136=CYLINDRICAL_SURFACE('',#843,6.5615);
#137=CYLINDRICAL_SURFACE('',#846,6.5615);
#138=CYLINDRICAL_SURFACE('',#849,6.5615);
#139=CYLINDRICAL_SURFACE('',#852,6.5615);
#140=CYLINDRICAL_SURFACE('',#855,6.5615);
#141=CYLINDRICAL_SURFACE('',#858,6.5615);
#142=CYLINDRICAL_SURFACE('',#861,6.5615);
#143=CYLINDRICAL_SURFACE('',#864,6.5615);
#144=CYLINDRICAL_SURFACE('',#867,6.5615);
#145=CYLINDRICAL_SURFACE('',#875,6.5615);
#146=ELLIPSE('',#776,6.56703843005993,6.5615);
#147=ELLIPSE('',#779,6.56703843005993,6.5615);
#148=ELLIPSE('',#782,6.56703843005993,6.5615);
#149=ELLIPSE('',#785,6.56703843005993,6.5615);
#150=ELLIPSE('',#788,6.56703843005993,6.5615);
#151=ELLIPSE('',#791,6.56703843005993,6.5615);
#152=ELLIPSE('',#794,6.56703843005993,6.5615);
#153=ELLIPSE('',#797,6.56703843005993,6.5615);
#154=ELLIPSE('',#800,6.56703843005993,6.5615);
#155=ELLIPSE('',#803,6.56703843005993,6.5615);
#156=ELLIPSE('',#806,6.56703843005993,6.5615);
#157=ELLIPSE('',#809,6.56703843005993,6.5615);
#158=ELLIPSE('',#812,6.56703843005993,6.5615);
#159=ELLIPSE('',#815,6.56703843005993,6.5615);
#160=ELLIPSE('',#818,6.56703843005993,6.5615);
#161=ELLIPSE('',#821,6.56703843005993,6.5615);
#162=ELLIPSE('',#824,6.56703843005993,6.5615);
#163=ELLIPSE('',#827,6.56703843005993,6.5615);
#164=ELLIPSE('',#830,6.56703843005993,6.5615);
#165=ELLIPSE('',#833,6.56703843005993,6.5615);
#166=ELLIPSE('',#836,6.56703843005993,6.5615);
#167=ELLIPSE('',#839,6.56703843005993,6.5615);
#168=ELLIPSE('',#842,6.56703843005993,6.5615);
#169=ELLIPSE('',#845,6.56703843005993,6.5615);
#170=ELLIPSE('',#848,6.56703843005993,6.5615);
#171=ELLIPSE('',#851,6.56703843005993,6.5615);
#172=ELLIPSE('',#854,6.56703843005993,6.5615);
#173=ELLIPSE('',#857,6.56703843005993,6.5615);
#174=ELLIPSE('',#860,6.56703843005993,6.5615);
#175=ELLIPSE('',#863,6.56703843005993,6.5615);
#176=ELLIPSE('',#866,6.56703843005993,6.5615);
#177=ELLIPSE('',#874,6.56703843005993,6.5615);
#178=FACE_BOUND('',#308,.T.);
#179=FACE_BOUND('',#309,.T.);
#180=FACE_BOUND('',#310,.T.);
#181=FACE_BOUND('',#311,.T.);
#182=FACE_BOUND('',#312,.T.);
#183=FACE_BOUND('',#313,.T.);
#184=FACE_BOUND('',#314,.T.);
#185=FACE_BOUND('',#315,.T.);
#186=FACE_BOUND('',#316,.T.);
#187=FACE_BOUND('',#317,.T.);
#188=FACE_BOUND('',#318,.T.);
#189=FACE_BOUND('',#319,.T.);
#190=FACE_BOUND('',#320,.T.);
#191=FACE_BOUND('',#321,.T.);
#192=FACE_BOUND('',#322,.T.);
#193=FACE_BOUND('',#323,.T.);
#194=FACE_BOUND('',#324,.T.);
#195=FACE_BOUND('',#325,.T.);
#196=FACE_BOUND('',#326,.T.);
#197=FACE_BOUND('',#327,.T.);
#198=FACE_BOUND('',#328,.T.);
#199=FACE_BOUND('',#329,.T.);
#200=FACE_BOUND('',#330,.T.);
#201=FACE_BOUND('',#331,.T.);
#202=FACE_BOUND('',#332,.T.);
#203=FACE_BOUND('',#333,.T.);
#204=FACE_BOUND('',#334,.T.);
#205=FACE_BOUND('',#335,.T.);
#206=FACE_BOUND('',#336,.T.);
#207=FACE_BOUND('',#337,.T.);
#208=FACE_BOUND('',#338,.T.);
#209=FACE_BOUND('',#339,.T.);
#210=FACE_BOUND('',#340,.T.);
#211=FACE_BOUND('',#341,.T.);
#212=FACE_BOUND('',#342,.T.);
#213=FACE_BOUND('',#343,.T.);
#214=FACE_BOUND('',#344,.T.);
#215=FACE_BOUND('',#345,.T.);
#216=FACE_BOUND('',#346,.T.);
#217=FACE_BOUND('',#347,.T.);
#218=FACE_BOUND('',#348,.T.);
#219=FACE_BOUND('',#349,.T.);
#220=FACE_BOUND('',#350,.T.);
#221=FACE_BOUND('',#351,.T.);
#222=FACE_BOUND('',#352,.T.);
#223=FACE_BOUND('',#353,.T.);
#224=FACE_BOUND('',#354,.T.);
#225=FACE_BOUND('',#355,.T.);
#226=FACE_BOUND('',#356,.T.);
#227=FACE_BOUND('',#357,.T.);
#228=FACE_BOUND('',#358,.T.);
#229=FACE_BOUND('',#359,.T.);
#230=FACE_BOUND('',#360,.T.);
#231=FACE_BOUND('',#361,.T.);
#232=FACE_BOUND('',#362,.T.);
#233=FACE_BOUND('',#363,.T.);
#234=FACE_BOUND('',#364,.T.);
#235=FACE_BOUND('',#365,.T.);
#236=FACE_BOUND('',#366,.T.);
#237=FACE_BOUND('',#367,.T.);
#238=FACE_BOUND('',#368,.T.);
#239=FACE_BOUND('',#369,.T.);
#240=FACE_BOUND('',#373,.T.);
#241=FACE_BOUND('',#374,.T.);
#242=FACE_BOUND('',#375,.T.);
#243=FACE_BOUND('',#376,.T.);
#244=FACE_BOUND('',#377,.T.);
#245=FACE_BOUND('',#378,.T.);
#246=FACE_BOUND('',#379,.T.);
#247=FACE_BOUND('',#380,.T.);
#248=FACE_BOUND('',#381,.T.);
#249=FACE_BOUND('',#382,.T.);
#250=FACE_BOUND('',#383,.T.);
#251=FACE_BOUND('',#384,.T.);
#252=FACE_BOUND('',#385,.T.);
#253=FACE_BOUND('',#386,.T.);
#254=FACE_BOUND('',#387,.T.);
#255=FACE_BOUND('',#388,.T.);
#256=FACE_BOUND('',#389,.T.);
#257=FACE_BOUND('',#390,.T.);
#258=FACE_BOUND('',#391,.T.);
#259=FACE_BOUND('',#392,.T.);
#260=FACE_BOUND('',#393,.T.);
#261=FACE_BOUND('',#394,.T.);
#262=FACE_BOUND('',#395,.T.);
#263=FACE_BOUND('',#396,.T.);
#264=FACE_BOUND('',#397,.T.);
#265=FACE_BOUND('',#398,.T.);
#266=FACE_BOUND('',#399,.T.);
#267=FACE_BOUND('',#400,.T.);
#268=FACE_BOUND('',#401,.T.);
#269=FACE_BOUND('',#402,.T.);
#270=FACE_BOUND('',#403,.T.);
#271=FACE_BOUND('',#404,.T.);
#272=FACE_BOUND('',#405,.T.);
#273=FACE_BOUND('',#407,.T.);
#274=FACE_BOUND('',#408,.T.);
#275=FACE_BOUND('',#409,.T.);
#276=FACE_BOUND('',#410,.T.);
#277=FACE_BOUND('',#411,.T.);
#278=FACE_BOUND('',#412,.T.);
#279=FACE_BOUND('',#413,.T.);
#280=FACE_BOUND('',#414,.T.);
#281=FACE_BOUND('',#415,.T.);
#282=FACE_BOUND('',#416,.T.);
#283=FACE_BOUND('',#417,.T.);
#284=FACE_BOUND('',#418,.T.);
#285=FACE_BOUND('',#419,.T.);
#286=FACE_BOUND('',#420,.T.);
#287=FACE_BOUND('',#421,.T.);
#288=FACE_BOUND('',#422,.T.);
#289=FACE_BOUND('',#423,.T.);
#290=FACE_BOUND('',#424,.T.);
#291=FACE_BOUND('',#425,.T.);
#292=FACE_BOUND('',#426,.T.);
#293=FACE_BOUND('',#427,.T.);
#294=FACE_BOUND('',#428,.T.);
#295=FACE_BOUND('',#429,.T.);
#296=FACE_BOUND('',#430,.T.);
#297=FACE_BOUND('',#431,.T.);
#298=FACE_BOUND('',#432,.T.);
#299=FACE_BOUND('',#433,.T.);
#300=FACE_BOUND('',#434,.T.);
#301=FACE_BOUND('',#435,.T.);
#302=FACE_BOUND('',#436,.T.);
#303=FACE_BOUND('',#437,.T.);
#304=FACE_BOUND('',#438,.T.);
#305=FACE_BOUND('',#439,.T.);
#306=FACE_BOUND('',#440,.T.);
#307=FACE_BOUND('',#441,.T.);
#308=EDGE_LOOP('',(#442));
#309=EDGE_LOOP('',(#443));
#310=EDGE_LOOP('',(#444));
#311=EDGE_LOOP('',(#445));
#312=EDGE_LOOP('',(#446));
#313=EDGE_LOOP('',(#447));
#314=EDGE_LOOP('',(#448));
#315=EDGE_LOOP('',(#449));
#316=EDGE_LOOP('',(#450));
#317=EDGE_LOOP('',(#451));
#318=EDGE_LOOP('',(#452));
#319=EDGE_LOOP('',(#453));
#320=EDGE_LOOP('',(#454));
#321=EDGE_LOOP('',(#455));
#322=EDGE_LOOP('',(#456));
#323=EDGE_LOOP('',(#457));
#324=EDGE_LOOP('',(#458));
#325=EDGE_LOOP('',(#459));
#326=EDGE_LOOP('',(#460));
#327=EDGE_LOOP('',(#461));
#328=EDGE_LOOP('',(#462));
#329=EDGE_LOOP('',(#463));
#330=EDGE_LOOP('',(#464));
#331=EDGE_LOOP('',(#465));
#332=EDGE_LOOP('',(#466));
#333=EDGE_LOOP('',(#467));
#334=EDGE_LOOP('',(#468));
#335=EDGE_LOOP('',(#469));
#336=EDGE_LOOP('',(#470));
#337=EDGE_LOOP('',(#471));
#338=EDGE_LOOP('',(#472));
#339=EDGE_LOOP('',(#473));
#340=EDGE_LOOP('',(#474));
#341=EDGE_LOOP('',(#475));
#342=EDGE_LOOP('',(#476));
#343=EDGE_LOOP('',(#477));
#344=EDGE_LOOP('',(#478));
#345=EDGE_LOOP('',(#479));
#346=EDGE_LOOP('',(#480));
#347=EDGE_LOOP('',(#481));
#348=EDGE_LOOP('',(#482));
#349=EDGE_LOOP('',(#483));
#350=EDGE_LOOP('',(#484));
#351=EDGE_LOOP('',(#485));
#352=EDGE_LOOP('',(#486));
#353=EDGE_LOOP('',(#487));
#354=EDGE_LOOP('',(#488));
#355=EDGE_LOOP('',(#489));
#356=EDGE_LOOP('',(#490));
#357=EDGE_LOOP('',(#491));
#358=EDGE_LOOP('',(#492));
#359=EDGE_LOOP('',(#493));
#360=EDGE_LOOP('',(#494));
#361=EDGE_LOOP('',(#495));
#362=EDGE_LOOP('',(#496));
#363=EDGE_LOOP('',(#497));
#364=EDGE_LOOP('',(#498));
#365=EDGE_LOOP('',(#499));
#366=EDGE_LOOP('',(#500));
#367=EDGE_LOOP('',(#501));
#368=EDGE_LOOP('',(#502));
#369=EDGE_LOOP('',(#503));
#370=EDGE_LOOP('',(#504,#505,#506,#507));
#371=EDGE_LOOP('',(#508,#509,#510,#511));
#372=EDGE_LOOP('',(#512,#513,#514,#515));
#373=EDGE_LOOP('',(#516));
#374=EDGE_LOOP('',(#517));
#375=EDGE_LOOP('',(#518));
#376=EDGE_LOOP('',(#519));
#377=EDGE_LOOP('',(#520));
#378=EDGE_LOOP('',(#521));
#379=EDGE_LOOP('',(#522));
#380=EDGE_LOOP('',(#523));
#381=EDGE_LOOP('',(#524));
#382=EDGE_LOOP('',(#525));
#383=EDGE_LOOP('',(#526));
#384=EDGE_LOOP('',(#527));
#385=EDGE_LOOP('',(#528));
#386=EDGE_LOOP('',(#529));
#387=EDGE_LOOP('',(#530));
#388=EDGE_LOOP('',(#531));
#389=EDGE_LOOP('',(#532));
#390=EDGE_LOOP('',(#533));
#391=EDGE_LOOP('',(#534));
#392=EDGE_LOOP('',(#535));
#393=EDGE_LOOP('',(#536));
#394=EDGE_LOOP('',(#537));
#395=EDGE_LOOP('',(#538));
#396=EDGE_LOOP('',(#539));
#397=EDGE_LOOP('',(#540));
#398=EDGE_LOOP('',(#541));
#399=EDGE_LOOP('',(#542));
#400=EDGE_LOOP('',(#543));
#401=EDGE_LOOP('',(#544));
#402=EDGE_LOOP('',(#545));
#403=EDGE_LOOP('',(#546));
#404=EDGE_LOOP('',(#547));
#405=EDGE_LOOP('',(#548,#549,#550,#551));
#406=EDGE_LOOP('',(#552,#553,#554,#555));
#407=EDGE_LOOP('',(#556));
#408=EDGE_LOOP('',(#557));
#409=EDGE_LOOP('',(#558,#559,#560,#561));
#410=EDGE_LOOP('',(#562));
#411=EDGE_LOOP('',(#563));
#412=EDGE_LOOP('',(#564));
#413=EDGE_LOOP('',(#565));
#414=EDGE_LOOP('',(#566));
#415=EDGE_LOOP('',(#567));
#416=EDGE_LOOP('',(#568));
#417=EDGE_LOOP('',(#569));
#418=EDGE_LOOP('',(#570));
#419=EDGE_LOOP('',(#571));
#420=EDGE_LOOP('',(#572));
#421=EDGE_LOOP('',(#573));
#422=EDGE_LOOP('',(#574));
#423=EDGE_LOOP('',(#575));
#424=EDGE_LOOP('',(#576));
#425=EDGE_LOOP('',(#577));
#426=EDGE_LOOP('',(#578));
#427=EDGE_LOOP('',(#579));
#428=EDGE_LOOP('',(#580));
#429=EDGE_LOOP('',(#581));
#430=EDGE_LOOP('',(#582));
#431=EDGE_LOOP('',(#583));
#432=EDGE_LOOP('',(#584));
#433=EDGE_LOOP('',(#585));
#434=EDGE_LOOP('',(#586));
#435=EDGE_LOOP('',(#587));
#436=EDGE_LOOP('',(#588));
#437=EDGE_LOOP('',(#589));
#438=EDGE_LOOP('',(#590));
#439=EDGE_LOOP('',(#591));
#440=EDGE_LOOP('',(#592));
#441=EDGE_LOOP('',(#593));
#442=ORIENTED_EDGE('',*,*,#666,.T.);
#443=ORIENTED_EDGE('',*,*,#667,.F.);
#444=ORIENTED_EDGE('',*,*,#668,.T.);
#445=ORIENTED_EDGE('',*,*,#669,.F.);
#446=ORIENTED_EDGE('',*,*,#670,.T.);
#447=ORIENTED_EDGE('',*,*,#671,.F.);
#448=ORIENTED_EDGE('',*,*,#672,.T.);
#449=ORIENTED_EDGE('',*,*,#673,.F.);
#450=ORIENTED_EDGE('',*,*,#674,.T.);
#451=ORIENTED_EDGE('',*,*,#675,.F.);
#452=ORIENTED_EDGE('',*,*,#676,.T.);
#453=ORIENTED_EDGE('',*,*,#677,.F.);
#454=ORIENTED_EDGE('',*,*,#678,.T.);
#455=ORIENTED_EDGE('',*,*,#679,.F.);
#456=ORIENTED_EDGE('',*,*,#680,.T.);
#457=ORIENTED_EDGE('',*,*,#681,.F.);
#458=ORIENTED_EDGE('',*,*,#682,.T.);
#459=ORIENTED_EDGE('',*,*,#683,.F.);
#460=ORIENTED_EDGE('',*,*,#684,.T.);
#461=ORIENTED_EDGE('',*,*,#685,.F.);
#462=ORIENTED_EDGE('',*,*,#686,.T.);
#463=ORIENTED_EDGE('',*,*,#687,.F.);
#464=ORIENTED_EDGE('',*,*,#688,.T.);
#465=ORIENTED_EDGE('',*,*,#689,.F.);
#466=ORIENTED_EDGE('',*,*,#690,.T.);
#467=ORIENTED_EDGE('',*,*,#691,.F.);
#468=ORIENTED_EDGE('',*,*,#692,.T.);
#469=ORIENTED_EDGE('',*,*,#693,.F.);
#470=ORIENTED_EDGE('',*,*,#694,.T.);
#471=ORIENTED_EDGE('',*,*,#695,.F.);
#472=ORIENTED_EDGE('',*,*,#696,.T.);
#473=ORIENTED_EDGE('',*,*,#697,.F.);
#474=ORIENTED_EDGE('',*,*,#698,.T.);
#475=ORIENTED_EDGE('',*,*,#699,.F.);
#476=ORIENTED_EDGE('',*,*,#700,.T.);
#477=ORIENTED_EDGE('',*,*,#701,.F.);
#478=ORIENTED_EDGE('',*,*,#702,.T.);
#479=ORIENTED_EDGE('',*,*,#703,.F.);
#480=ORIENTED_EDGE('',*,*,#704,.T.);
#481=ORIENTED_EDGE('',*,*,#705,.F.);
#482=ORIENTED_EDGE('',*,*,#706,.T.);
#483=ORIENTED_EDGE('',*,*,#707,.F.);
#484=ORIENTED_EDGE('',*,*,#708,.T.);
#485=ORIENTED_EDGE('',*,*,#709,.F.);
#486=ORIENTED_EDGE('',*,*,#710,.T.);
#487=ORIENTED_EDGE('',*,*,#711,.F.);
#488=ORIENTED_EDGE('',*,*,#712,.T.);
#489=ORIENTED_EDGE('',*,*,#713,.F.);
#490=ORIENTED_EDGE('',*,*,#714,.T.);
#491=ORIENTED_EDGE('',*,*,#715,.F.);
#492=ORIENTED_EDGE('',*,*,#716,.T.);
#493=ORIENTED_EDGE('',*,*,#717,.F.);
#494=ORIENTED_EDGE('',*,*,#718,.T.);
#495=ORIENTED_EDGE('',*,*,#719,.F.);
#496=ORIENTED_EDGE('',*,*,#720,.T.);
#497=ORIENTED_EDGE('',*,*,#721,.F.);
#498=ORIENTED_EDGE('',*,*,#722,.T.);
#499=ORIENTED_EDGE('',*,*,#723,.F.);
#500=ORIENTED_EDGE('',*,*,#724,.T.);
#501=ORIENTED_EDGE('',*,*,#725,.F.);
#502=ORIENTED_EDGE('',*,*,#726,.T.);
#503=ORIENTED_EDGE('',*,*,#727,.F.);
#504=ORIENTED_EDGE('',*,*,#728,.T.);
#505=ORIENTED_EDGE('',*,*,#729,.T.);
#506=ORIENTED_EDGE('',*,*,#730,.F.);
#507=ORIENTED_EDGE('',*,*,#731,.T.);
#508=ORIENTED_EDGE('',*,*,#730,.T.);
#509=ORIENTED_EDGE('',*,*,#732,.T.);
#510=ORIENTED_EDGE('',*,*,#733,.F.);
#511=ORIENTED_EDGE('',*,*,#734,.T.);
#512=ORIENTED_EDGE('',*,*,#733,.T.);
#513=ORIENTED_EDGE('',*,*,#735,.T.);
#514=ORIENTED_EDGE('',*,*,#736,.F.);
#515=ORIENTED_EDGE('',*,*,#737,.T.);
#516=ORIENTED_EDGE('',*,*,#666,.F.);
#517=ORIENTED_EDGE('',*,*,#668,.F.);
#518=ORIENTED_EDGE('',*,*,#670,.F.);
#519=ORIENTED_EDGE('',*,*,#672,.F.);
#520=ORIENTED_EDGE('',*,*,#674,.F.);
#521=ORIENTED_EDGE('',*,*,#676,.F.);
#522=ORIENTED_EDGE('',*,*,#678,.F.);
#523=ORIENTED_EDGE('',*,*,#680,.F.);
#524=ORIENTED_EDGE('',*,*,#682,.F.);
#525=ORIENTED_EDGE('',*,*,#684,.F.);
#526=ORIENTED_EDGE('',*,*,#686,.F.);
#527=ORIENTED_EDGE('',*,*,#688,.F.);
#528=ORIENTED_EDGE('',*,*,#690,.F.);
#529=ORIENTED_EDGE('',*,*,#692,.F.);
#530=ORIENTED_EDGE('',*,*,#694,.F.);
#531=ORIENTED_EDGE('',*,*,#696,.F.);
#532=ORIENTED_EDGE('',*,*,#698,.F.);
#533=ORIENTED_EDGE('',*,*,#700,.F.);
#534=ORIENTED_EDGE('',*,*,#702,.F.);
#535=ORIENTED_EDGE('',*,*,#704,.F.);
#536=ORIENTED_EDGE('',*,*,#706,.F.);
#537=ORIENTED_EDGE('',*,*,#708,.F.);
#538=ORIENTED_EDGE('',*,*,#710,.F.);
#539=ORIENTED_EDGE('',*,*,#712,.F.);
#540=ORIENTED_EDGE('',*,*,#714,.F.);
#541=ORIENTED_EDGE('',*,*,#716,.F.);
#542=ORIENTED_EDGE('',*,*,#718,.F.);
#543=ORIENTED_EDGE('',*,*,#720,.F.);
#544=ORIENTED_EDGE('',*,*,#722,.F.);
#545=ORIENTED_EDGE('',*,*,#724,.F.);
#546=ORIENTED_EDGE('',*,*,#726,.F.);
#547=ORIENTED_EDGE('',*,*,#738,.F.);
#548=ORIENTED_EDGE('',*,*,#739,.F.);
#549=ORIENTED_EDGE('',*,*,#731,.F.);
#550=ORIENTED_EDGE('',*,*,#734,.F.);
#551=ORIENTED_EDGE('',*,*,#737,.F.);
#552=ORIENTED_EDGE('',*,*,#736,.T.);
#553=ORIENTED_EDGE('',*,*,#740,.T.);
#554=ORIENTED_EDGE('',*,*,#728,.F.);
#555=ORIENTED_EDGE('',*,*,#739,.T.);
#556=ORIENTED_EDGE('',*,*,#738,.T.);
#557=ORIENTED_EDGE('',*,*,#741,.F.);
#558=ORIENTED_EDGE('',*,*,#735,.F.);
#559=ORIENTED_EDGE('',*,*,#732,.F.);
#560=ORIENTED_EDGE('',*,*,#729,.F.);
#561=ORIENTED_EDGE('',*,*,#740,.F.);
#562=ORIENTED_EDGE('',*,*,#667,.T.);
#563=ORIENTED_EDGE('',*,*,#669,.T.);
#564=ORIENTED_EDGE('',*,*,#671,.T.);
#565=ORIENTED_EDGE('',*,*,#673,.T.);
#566=ORIENTED_EDGE('',*,*,#675,.T.);
#567=ORIENTED_EDGE('',*,*,#677,.T.);
#568=ORIENTED_EDGE('',*,*,#679,.T.);
#569=ORIENTED_EDGE('',*,*,#681,.T.);
#570=ORIENTED_EDGE('',*,*,#683,.T.);
#571=ORIENTED_EDGE('',*,*,#685,.T.);
#572=ORIENTED_EDGE('',*,*,#687,.T.);
#573=ORIENTED_EDGE('',*,*,#689,.T.);
#574=ORIENTED_EDGE('',*,*,#691,.T.);
#575=ORIENTED_EDGE('',*,*,#693,.T.);
#576=ORIENTED_EDGE('',*,*,#695,.T.);
#577=ORIENTED_EDGE('',*,*,#697,.T.);
#578=ORIENTED_EDGE('',*,*,#699,.T.);
#579=ORIENTED_EDGE('',*,*,#701,.T.);
#580=ORIENTED_EDGE('',*,*,#703,.T.);
#581=ORIENTED_EDGE('',*,*,#705,.T.);
#582=ORIENTED_EDGE('',*,*,#707,.T.);
#583=ORIENTED_EDGE('',*,*,#709,.T.);
#584=ORIENTED_EDGE('',*,*,#711,.T.);
#585=ORIENTED_EDGE('',*,*,#713,.T.);
#586=ORIENTED_EDGE('',*,*,#715,.T.);
#587=ORIENTED_EDGE('',*,*,#717,.T.);
#588=ORIENTED_EDGE('',*,*,#719,.T.);
#589=ORIENTED_EDGE('',*,*,#721,.T.);
#590=ORIENTED_EDGE('',*,*,#723,.T.);
#591=ORIENTED_EDGE('',*,*,#725,.T.);
#592=ORIENTED_EDGE('',*,*,#727,.T.);
#593=ORIENTED_EDGE('',*,*,#741,.T.);
#594=VERTEX_POINT('',#1097);
#595=VERTEX_POINT('',#1099);
#596=VERTEX_POINT('',#1102);
#597=VERTEX_POINT('',#1104);
#598=VERTEX_POINT('',#1107);
#599=VERTEX_POINT('',#1109);
#600=VERTEX_POINT('',#1112);
#601=VERTEX_POINT('',#1114);
#602=VERTEX_POINT('',#1117);
#603=VERTEX_POINT('',#1119);
#604=VERTEX_POINT('',#1122);
#605=VERTEX_POINT('',#1124);
#606=VERTEX_POINT('',#1127);
#607=VERTEX_POINT('',#1129);
#608=VERTEX_POINT('',#1132);
#609=VERTEX_POINT('',#1134);
#610=VERTEX_POINT('',#1137);
#611=VERTEX_POINT('',#1139);
#612=VERTEX_POINT('',#1142);
#613=VERTEX_POINT('',#1144);
#614=VERTEX_POINT('',#1147);
#615=VERTEX_POINT('',#1149);
#616=VERTEX_POINT('',#1152);
#617=VERTEX_POINT('',#1154);
#618=VERTEX_POINT('',#1157);
#619=VERTEX_POINT('',#1159);
#620=VERTEX_POINT('',#1162);
#621=VERTEX_POINT('',#1164);
#622=VERTEX_POINT('',#1167);
#623=VERTEX_POINT('',#1169);
#624=VERTEX_POINT('',#1172);
#625=VERTEX_POINT('',#1174);
#626=VERTEX_POINT('',#1177);
#627=VERTEX_POINT('',#1179);
#628=VERTEX_POINT('',#1182);
#629=VERTEX_POINT('',#1184);
#630=VERTEX_POINT('',#1187);
#631=VERTEX_POINT('',#1189);
#632=VERTEX_POINT('',#1192);
#633=VERTEX_POINT('',#1194);
#634=VERTEX_POINT('',#1197);
#635=VERTEX_POINT('',#1199);
#636=VERTEX_POINT('',#1202);
#637=VERTEX_POINT('',#1204);
#638=VERTEX_POINT('',#1207);
#639=VERTEX_POINT('',#1209);
#640=VERTEX_POINT('',#1212);
#641=VERTEX_POINT('',#1214);
#642=VERTEX_POINT('',#1217);
#643=VERTEX_POINT('',#1219);
#644=VERTEX_POINT('',#1222);
#645=VERTEX_POINT('',#1224);
#646=VERTEX_POINT('',#1227);
#647=VERTEX_POINT('',#1229);
#648=VERTEX_POINT('',#1232);
#649=VERTEX_POINT('',#1234);
#650=VERTEX_POINT('',#1237);
#651=VERTEX_POINT('',#1239);
#652=VERTEX_POINT('',#1242);
#653=VERTEX_POINT('',#1244);
#654=VERTEX_POINT('',#1247);
#655=VERTEX_POINT('',#1249);
#656=VERTEX_POINT('',#1252);
#657=VERTEX_POINT('',#1253);
#658=VERTEX_POINT('',#1255);
#659=VERTEX_POINT('',#1257);
#660=VERTEX_POINT('',#1261);
#661=VERTEX_POINT('',#1263);
#662=VERTEX_POINT('',#1267);
#663=VERTEX_POINT('',#1269);
#664=VERTEX_POINT('',#1273);
#665=VERTEX_POINT('',#1279);
#666=EDGE_CURVE('',#594,#594,#742,.T.);
#667=EDGE_CURVE('',#595,#595,#146,.T.);
#668=EDGE_CURVE('',#596,#596,#743,.T.);
#669=EDGE_CURVE('',#597,#597,#147,.T.);
#670=EDGE_CURVE('',#598,#598,#744,.T.);
#671=EDGE_CURVE('',#599,#599,#148,.T.);
#672=EDGE_CURVE('',#600,#600,#745,.T.);
#673=EDGE_CURVE('',#601,#601,#149,.T.);
#674=EDGE_CURVE('',#602,#602,#746,.T.);
#675=EDGE_CURVE('',#603,#603,#150,.T.);
#676=EDGE_CURVE('',#604,#604,#747,.T.);
#677=EDGE_CURVE('',#605,#605,#151,.T.);
#678=EDGE_CURVE('',#606,#606,#748,.T.);
#679=EDGE_CURVE('',#607,#607,#152,.T.);
#680=EDGE_CURVE('',#608,#608,#749,.T.);
#681=EDGE_CURVE('',#609,#609,#153,.T.);
#682=EDGE_CURVE('',#610,#610,#750,.T.);
#683=EDGE_CURVE('',#611,#611,#154,.T.);
#684=EDGE_CURVE('',#612,#612,#751,.T.);
#685=EDGE_CURVE('',#613,#613,#155,.T.);
#686=EDGE_CURVE('',#614,#614,#752,.T.);
#687=EDGE_CURVE('',#615,#615,#156,.T.);
#688=EDGE_CURVE('',#616,#616,#753,.T.);
#689=EDGE_CURVE('',#617,#617,#157,.T.);
#690=EDGE_CURVE('',#618,#618,#754,.T.);
#691=EDGE_CURVE('',#619,#619,#158,.T.);
#692=EDGE_CURVE('',#620,#620,#755,.T.);
#693=EDGE_CURVE('',#621,#621,#159,.T.);
#694=EDGE_CURVE('',#622,#622,#756,.T.);
#695=EDGE_CURVE('',#623,#623,#160,.T.);
#696=EDGE_CURVE('',#624,#624,#757,.T.);
#697=EDGE_CURVE('',#625,#625,#161,.T.);
#698=EDGE_CURVE('',#626,#626,#758,.T.);
#699=EDGE_CURVE('',#627,#627,#162,.T.);
#700=EDGE_CURVE('',#628,#628,#759,.T.);
#701=EDGE_CURVE('',#629,#629,#163,.T.);
#702=EDGE_CURVE('',#630,#630,#760,.T.);
#703=EDGE_CURVE('',#631,#631,#164,.T.);
#704=EDGE_CURVE('',#632,#632,#761,.T.);
#705=EDGE_CURVE('',#633,#633,#165,.T.);
#706=EDGE_CURVE('',#634,#634,#762,.T.);
#707=EDGE_CURVE('',#635,#635,#166,.T.);
#708=EDGE_CURVE('',#636,#636,#763,.T.);
#709=EDGE_CURVE('',#637,#637,#167,.T.);
#710=EDGE_CURVE('',#638,#638,#764,.T.);
#711=EDGE_CURVE('',#639,#639,#168,.T.);
#712=EDGE_CURVE('',#640,#640,#765,.T.);
#713=EDGE_CURVE('',#641,#641,#169,.T.);
#714=EDGE_CURVE('',#642,#642,#766,.T.);
#715=EDGE_CURVE('',#643,#643,#170,.T.);
#716=EDGE_CURVE('',#644,#644,#767,.T.);
#717=EDGE_CURVE('',#645,#645,#171,.T.);
#718=EDGE_CURVE('',#646,#646,#768,.T.);
#719=EDGE_CURVE('',#647,#647,#172,.T.);
#720=EDGE_CURVE('',#648,#648,#769,.T.);
#721=EDGE_CURVE('',#649,#649,#173,.T.);
#722=EDGE_CURVE('',#650,#650,#770,.T.);
#723=EDGE_CURVE('',#651,#651,#174,.T.);
#724=EDGE_CURVE('',#652,#652,#771,.T.);
#725=EDGE_CURVE('',#653,#653,#175,.T.);
#726=EDGE_CURVE('',#654,#654,#772,.T.);
#727=EDGE_CURVE('',#655,#655,#176,.T.);
#728=EDGE_CURVE('',#656,#657,#52,.T.);
#729=EDGE_CURVE('',#657,#658,#53,.T.);
#730=EDGE_CURVE('',#659,#658,#54,.T.);
#731=EDGE_CURVE('',#659,#656,#55,.T.);
#732=EDGE_CURVE('',#658,#660,#56,.T.);
#733=EDGE_CURVE('',#661,#660,#57,.T.);
#734=EDGE_CURVE('',#661,#659,#58,.T.);
#735=EDGE_CURVE('',#660,#662,#59,.T.);
#736=EDGE_CURVE('',#663,#662,#60,.T.);
#737=EDGE_CURVE('',#663,#661,#61,.T.);
#738=EDGE_CURVE('',#664,#664,#773,.T.);
#739=EDGE_CURVE('',#656,#663,#62,.T.);
#740=EDGE_CURVE('',#662,#657,#63,.T.);
#741=EDGE_CURVE('',#665,#665,#177,.T.);
#742=CIRCLE('',#775,6.5615);
#743=CIRCLE('',#778,6.5615);
#744=CIRCLE('',#781,6.5615);
#745=CIRCLE('',#784,6.5615);
#746=CIRCLE('',#787,6.5615);
#747=CIRCLE('',#790,6.5615);
#748=CIRCLE('',#793,6.5615);
#749=CIRCLE('',#796,6.5615);
#750=CIRCLE('',#799,6.5615);
#751=CIRCLE('',#802,6.5615);
#752=CIRCLE('',#805,6.5615);
#753=CIRCLE('',#808,6.5615);
#754=CIRCLE('',#811,6.5615);
#755=CIRCLE('',#814,6.5615);
#756=CIRCLE('',#817,6.5615);
#757=CIRCLE('',#820,6.5615);
#758=CIRCLE('',#823,6.5615);
#759=CIRCLE('',#826,6.5615);
#760=CIRCLE('',#829,6.5615);
#761=CIRCLE('',#832,6.5615);
#762=CIRCLE('',#835,6.5615);
#763=CIRCLE('',#838,6.5615);
#764=CIRCLE('',#841,6.5615);
#765=CIRCLE('',#844,6.5615);
#766=CIRCLE('',#847,6.5615);
#767=CIRCLE('',#850,6.5615);
#768=CIRCLE('',#853,6.5615);
#769=CIRCLE('',#856,6.5615);
#770=CIRCLE('',#859,6.5615);
#771=CIRCLE('',#862,6.5615);
#772=CIRCLE('',#865,6.5615);
#773=CIRCLE('',#871,6.5615);
#774=AXIS2_PLACEMENT_3D('',#1095,#877,#878);
#775=AXIS2_PLACEMENT_3D('',#1096,#879,#880);
#776=AXIS2_PLACEMENT_3D('',#1098,#881,#882);
#777=AXIS2_PLACEMENT_3D('',#1100,#883,#884);
#778=AXIS2_PLACEMENT_3D('',#1101,#885,#886);
#779=AXIS2_PLACEMENT_3D('',#1103,#887,#888);
#780=AXIS2_PLACEMENT_3D('',#1105,#889,#890);
#781=AXIS2_PLACEMENT_3D('',#1106,#891,#892);
#782=AXIS2_PLACEMENT_3D('',#1108,#893,#894);
#783=AXIS2_PLACEMENT_3D('',#1110,#895,#896);
#784=AXIS2_PLACEMENT_3D('',#1111,#897,#898);
#785=AXIS2_PLACEMENT_3D('',#1113,#899,#900);
#786=AXIS2_PLACEMENT_3D('',#1115,#901,#902);
#787=AXIS2_PLACEMENT_3D('',#1116,#903,#904);
#788=AXIS2_PLACEMENT_3D('',#1118,#905,#906);
#789=AXIS2_PLACEMENT_3D('',#1120,#907,#908);
#790=AXIS2_PLACEMENT_3D('',#1121,#909,#910);
#791=AXIS2_PLACEMENT_3D('',#1123,#911,#912);
#792=AXIS2_PLACEMENT_3D('',#1125,#913,#914);
#793=AXIS2_PLACEMENT_3D('',#1126,#915,#916);
#794=AXIS2_PLACEMENT_3D('',#1128,#917,#918);
#795=AXIS2_PLACEMENT_3D('',#1130,#919,#920);
#796=AXIS2_PLACEMENT_3D('',#1131,#921,#922);
#797=AXIS2_PLACEMENT_3D('',#1133,#923,#924);
#798=AXIS2_PLACEMENT_3D('',#1135,#925,#926);
#799=AXIS2_PLACEMENT_3D('',#1136,#927,#928);
#800=AXIS2_PLACEMENT_3D('',#1138,#929,#930);
#801=AXIS2_PLACEMENT_3D('',#1140,#931,#932);
#802=AXIS2_PLACEMENT_3D('',#1141,#933,#934);
#803=AXIS2_PLACEMENT_3D('',#1143,#935,#936);
#804=AXIS2_PLACEMENT_3D('',#1145,#937,#938);
#805=AXIS2_PLACEMENT_3D('',#1146,#939,#940);
#806=AXIS2_PLACEMENT_3D('',#1148,#941,#942);
#807=AXIS2_PLACEMENT_3D('',#1150,#943,#944);
#808=AXIS2_PLACEMENT_3D('',#1151,#945,#946);
#809=AXIS2_PLACEMENT_3D('',#1153,#947,#948);
#810=AXIS2_PLACEMENT_3D('',#1155,#949,#950);
#811=AXIS2_PLACEMENT_3D('',#1156,#951,#952);
#812=AXIS2_PLACEMENT_3D('',#1158,#953,#954);
#813=AXIS2_PLACEMENT_3D('',#1160,#955,#956);
#814=AXIS2_PLACEMENT_3D('',#1161,#957,#958);
#815=AXIS2_PLACEMENT_3D('',#1163,#959,#960);
#816=AXIS2_PLACEMENT_3D('',#1165,#961,#962);
#817=AXIS2_PLACEMENT_3D('',#1166,#963,#964);
#818=AXIS2_PLACEMENT_3D('',#1168,#965,#966);
#819=AXIS2_PLACEMENT_3D('',#1170,#967,#968);
#820=AXIS2_PLACEMENT_3D('',#1171,#969,#970);
#821=AXIS2_PLACEMENT_3D('',#1173,#971,#972);
#822=AXIS2_PLACEMENT_3D('',#1175,#973,#974);
#823=AXIS2_PLACEMENT_3D('',#1176,#975,#976);
#824=AXIS2_PLACEMENT_3D('',#1178,#977,#978);
#825=AXIS2_PLACEMENT_3D('',#1180,#979,#980);
#826=AXIS2_PLACEMENT_3D('',#1181,#981,#982);
#827=AXIS2_PLACEMENT_3D('',#1183,#983,#984);
#828=AXIS2_PLACEMENT_3D('',#1185,#985,#986);
#829=AXIS2_PLACEMENT_3D('',#1186,#987,#988);
#830=AXIS2_PLACEMENT_3D('',#1188,#989,#990);
#831=AXIS2_PLACEMENT_3D('',#1190,#991,#992);
#832=AXIS2_PLACEMENT_3D('',#1191,#993,#994);
#833=AXIS2_PLACEMENT_3D('',#1193,#995,#996);
#834=AXIS2_PLACEMENT_3D('',#1195,#997,#998);
#835=AXIS2_PLACEMENT_3D('',#1196,#999,#1000);
#836=AXIS2_PLACEMENT_3D('',#1198,#1001,#1002);
#837=AXIS2_PLACEMENT_3D('',#1200,#1003,#1004);
#838=AXIS2_PLACEMENT_3D('',#1201,#1005,#1006);
#839=AXIS2_PLACEMENT_3D('',#1203,#1007,#1008);
#840=AXIS2_PLACEMENT_3D('',#1205,#1009,#1010);
#841=AXIS2_PLACEMENT_3D('',#1206,#1011,#1012);
#842=AXIS2_PLACEMENT_3D('',#1208,#1013,#1014);
#843=AXIS2_PLACEMENT_3D('',#1210,#1015,#1016);
#844=AXIS2_PLACEMENT_3D('',#1211,#1017,#1018);
#845=AXIS2_PLACEMENT_3D('',#1213,#1019,#1020);
#846=AXIS2_PLACEMENT_3D('',#1215,#1021,#1022);
#847=AXIS2_PLACEMENT_3D('',#1216,#1023,#1024);
#848=AXIS2_PLACEMENT_3D('',#1218,#1025,#1026);
#849=AXIS2_PLACEMENT_3D('',#1220,#1027,#1028);
#850=AXIS2_PLACEMENT_3D('',#1221,#1029,#1030);
#851=AXIS2_PLACEMENT_3D('',#1223,#1031,#1032);
#852=AXIS2_PLACEMENT_3D('',#1225,#1033,#1034);
#853=AXIS2_PLACEMENT_3D('',#1226,#1035,#1036);
#854=AXIS2_PLACEMENT_3D('',#1228,#1037,#1038);
#855=AXIS2_PLACEMENT_3D('',#1230,#1039,#1040);
#856=AXIS2_PLACEMENT_3D('',#1231,#1041,#1042);
#857=AXIS2_PLACEMENT_3D('',#1233,#1043,#1044);
#858=AXIS2_PLACEMENT_3D('',#1235,#1045,#1046);
#859=AXIS2_PLACEMENT_3D('',#1236,#1047,#1048);
#860=AXIS2_PLACEMENT_3D('',#1238,#1049,#1050);
#861=AXIS2_PLACEMENT_3D('',#1240,#1051,#1052);
#862=AXIS2_PLACEMENT_3D('',#1241,#1053,#1054);
#863=AXIS2_PLACEMENT_3D('',#1243,#1055,#1056);
#864=AXIS2_PLACEMENT_3D('',#1245,#1057,#1058);
#865=AXIS2_PLACEMENT_3D('',#1246,#1059,#1060);
#866=AXIS2_PLACEMENT_3D('',#1248,#1061,#1062);
#867=AXIS2_PLACEMENT_3D('',#1250,#1063,#1064);
#868=AXIS2_PLACEMENT_3D('',#1259,#1069,#1070);
#869=AXIS2_PLACEMENT_3D('',#1265,#1074,#1075);
#870=AXIS2_PLACEMENT_3D('',#1271,#1079,#1080);
#871=AXIS2_PLACEMENT_3D('',#1272,#1081,#1082);
#872=AXIS2_PLACEMENT_3D('',#1275,#1084,#1085);
#873=AXIS2_PLACEMENT_3D('',#1277,#1087,#1088);
#874=AXIS2_PLACEMENT_3D('',#1278,#1089,#1090);
#875=AXIS2_PLACEMENT_3D('',#1280,#1091,#1092);
#876=AXIS2_PLACEMENT_3D('',#1281,#1093,#1094);
#877=DIRECTION('',(0.,0.,1.));
#878=DIRECTION('',(1.,0.,0.));
#879=DIRECTION('',(0.,0.,-1.));
#880=DIRECTION('',(-1.,0.,0.));
#881=DIRECTION('',(-0.041061231452097,0.,-0.999156632001028));
#882=DIRECTION('',(0.999156632001028,0.,-0.041061231452097));
#883=DIRECTION('',(0.,0.,-1.));
#884=DIRECTION('',(-1.,0.,0.));
#885=DIRECTION('',(0.,0.,-1.));
#886=DIRECTION('',(-1.,0.,0.));
#887=DIRECTION('',(-0.041061231452097,0.,-0.999156632001028));
#888=DIRECTION('',(0.999156632001028,0.,-0.041061231452097));
#889=DIRECTION('',(0.,0.,-1.));
#890=DIRECTION('',(-1.,0.,0.));
#891=DIRECTION('',(0.,0.,-1.));
#892=DIRECTION('',(-1.,0.,0.));
#893=DIRECTION('',(-0.041061231452097,0.,-0.999156632001028));
#894=DIRECTION('',(0.999156632001028,0.,-0.041061231452097));
#895=DIRECTION('',(0.,0.,-1.));
#896=DIRECTION('',(-1.,0.,0.));
#897=DIRECTION('',(0.,0.,-1.));
#898=DIRECTION('',(-1.,0.,0.));
#899=DIRECTION('',(-0.041061231452097,0.,-0.999156632001028));
#900=DIRECTION('',(0.999156632001028,0.,-0.041061231452097));
#901=DIRECTION('',(0.,0.,-1.));
#902=DIRECTION('',(-1.,0.,0.));
#903=DIRECTION('',(0.,0.,-1.));
#904=DIRECTION('',(-1.,0.,0.));
#905=DIRECTION('',(-0.041061231452097,0.,-0.999156632001028));
#906=DIRECTION('',(0.999156632001028,0.,-0.041061231452097));
#907=DIRECTION('',(0.,0.,-1.));
#908=DIRECTION('',(-1.,0.,0.));
#909=DIRECTION('',(0.,0.,-1.));
#910=DIRECTION('',(-1.,0.,0.));
#911=DIRECTION('',(-0.041061231452097,0.,-0.999156632001028));
#912=DIRECTION('',(0.999156632001028,0.,-0.041061231452097));
#913=DIRECTION('',(0.,0.,-1.));
#914=DIRECTION('',(-1.,0.,0.));
#915=DIRECTION('',(0.,0.,-1.));
#916=DIRECTION('',(-1.,0.,0.));
#917=DIRECTION('',(-0.041061231452097,0.,-0.999156632001028));
#918=DIRECTION('',(0.999156632001028,0.,-0.041061231452097));
#919=DIRECTION('',(0.,0.,-1.));
#920=DIRECTION('',(-1.,0.,0.));
#921=DIRECTION('',(0.,0.,-1.));
#922=DIRECTION('',(-1.,0.,0.));
#923=DIRECTION('',(-0.041061231452097,0.,-0.999156632001028));
#924=DIRECTION('',(0.999156632001028,0.,-0.041061231452097));
#925=DIRECTION('',(0.,0.,-1.));
#926=DIRECTION('',(-1.,0.,0.));
#927=DIRECTION('',(0.,0.,-1.));
#928=DIRECTION('',(-1.,0.,0.));
#929=DIRECTION('',(-0.041061231452097,0.,-0.999156632001028));
#930=DIRECTION('',(0.999156632001028,0.,-0.041061231452097));
#931=DIRECTION('',(0.,0.,-1.));
#932=DIRECTION('',(-1.,0.,0.));
#933=DIRECTION('',(0.,0.,-1.));
#934=DIRECTION('',(-1.,0.,0.));
#935=DIRECTION('',(-0.041061231452097,0.,-0.999156632001028));
#936=DIRECTION('',(0.999156632001028,0.,-0.041061231452097));
#937=DIRECTION('',(0.,0.,-1.));
#938=DIRECTION('',(-1.,0.,0.));
#939=DIRECTION('',(0.,0.,-1.));
#940=DIRECTION('',(-1.,0.,0.));
#941=DIRECTION('',(-0.041061231452097,0.,-0.999156632001028));
#942=DIRECTION('',(0.999156632001028,0.,-0.041061231452097));
#943=DIRECTION('',(0.,0.,-1.));
#944=DIRECTION('',(-1.,0.,0.));
#945=DIRECTION('',(0.,0.,-1.));
#946=DIRECTION('',(-1.,0.,0.));
#947=DIRECTION('',(-0.041061231452097,0.,-0.999156632001028));
#948=DIRECTION('',(0.999156632001028,0.,-0.041061231452097));
#949=DIRECTION('',(0.,0.,-1.));
#950=DIRECTION('',(-1.,0.,0.));
#951=DIRECTION('',(0.,0.,-1.));
#952=DIRECTION('',(-1.,0.,0.));
#953=DIRECTION('',(-0.041061231452097,0.,-0.999156632001028));
#954=DIRECTION('',(0.999156632001028,0.,-0.041061231452097));
#955=DIRECTION('',(0.,0.,-1.));
#956=DIRECTION('',(-1.,0.,0.));
#957=DIRECTION('',(0.,0.,-1.));
#958=DIRECTION('',(-1.,0.,0.));
#959=DIRECTION('',(-0.041061231452097,0.,-0.999156632001028));
#960=DIRECTION('',(0.999156632001028,0.,-0.041061231452097));
#961=DIRECTION('',(0.,0.,-1.));
#962=DIRECTION('',(-1.,0.,0.));
#963=DIRECTION('',(0.,0.,-1.));
#964=DIRECTION('',(-1.,0.,0.));
#965=DIRECTION('',(-0.041061231452097,0.,-0.999156632001028));
#966=DIRECTION('',(0.999156632001028,0.,-0.041061231452097));
#967=DIRECTION('',(0.,0.,-1.));
#968=DIRECTION('',(-1.,0.,0.));
#969=DIRECTION('',(0.,0.,-1.));
#970=DIRECTION('',(-1.,0.,0.));
#971=DIRECTION('',(-0.041061231452097,0.,-0.999156632001028));
#972=DIRECTION('',(0.999156632001028,0.,-0.041061231452097));
#973=DIRECTION('',(0.,0.,-1.));
#974=DIRECTION('',(-1.,0.,0.));
#975=DIRECTION('',(0.,0.,-1.));
#976=DIRECTION('',(-1.,0.,0.));
#977=DIRECTION('',(-0.041061231452097,0.,-0.999156632001028));
#978=DIRECTION('',(0.999156632001028,0.,-0.041061231452097));
#979=DIRECTION('',(0.,0.,-1.));
#980=DIRECTION('',(-1.,0.,0.));
#981=DIRECTION('',(0.,0.,-1.));
#982=DIRECTION('',(-1.,0.,0.));
#983=DIRECTION('',(-0.041061231452097,0.,-0.999156632001028));
#984=DIRECTION('',(0.999156632001028,0.,-0.041061231452097));
#985=DIRECTION('',(0.,0.,-1.));
#986=DIRECTION('',(-1.,0.,0.));
#987=DIRECTION('',(0.,0.,-1.));
#988=DIRECTION('',(-1.,0.,0.));
#989=DIRECTION('',(-0.041061231452097,0.,-0.999156632001028));
#990=DIRECTION('',(0.999156632001028,0.,-0.041061231452097));
#991=DIRECTION('',(0.,0.,-1.));
#992=DIRECTION('',(-1.,0.,0.));
#993=DIRECTION('',(0.,0.,-1.));
#994=DIRECTION('',(-1.,0.,0.));
#995=DIRECTION('',(-0.041061231452097,0.,-0.999156632001028));
#996=DIRECTION('',(0.999156632001028,0.,-0.041061231452097));
#997=DIRECTION('',(0.,0.,-1.));
#998=DIRECTION('',(-1.,0.,0.));
#999=DIRECTION('',(0.,0.,-1.));
#1000=DIRECTION('',(-1.,0.,0.));
#1001=DIRECTION('',(-0.041061231452097,0.,-0.999156632001028));
#1002=DIRECTION('',(0.999156632001028,0.,-0.041061231452097));
#1003=DIRECTION('',(0.,0.,-1.));
#1004=DIRECTION('',(-1.,0.,0.));
#1005=DIRECTION('',(0.,0.,-1.));
#1006=DIRECTION('',(-1.,0.,0.));
#1007=DIRECTION('',(-0.041061231452097,0.,-0.999156632001028));
#1008=DIRECTION('',(0.999156632001028,0.,-0.041061231452097));
#1009=DIRECTION('',(0.,0.,-1.));
#1010=DIRECTION('',(-1.,0.,0.));
#1011=DIRECTION('',(0.,0.,-1.));
#1012=DIRECTION('',(-1.,0.,0.));
#1013=DIRECTION('',(-0.041061231452097,0.,-0.999156632001028));
#1014=DIRECTION('',(0.999156632001028,0.,-0.041061231452097));
#1015=DIRECTION('',(0.,0.,-1.));
#1016=DIRECTION('',(-1.,0.,0.));
#1017=DIRECTION('',(0.,0.,-1.));
#1018=DIRECTION('',(-1.,0.,0.));
#1019=DIRECTION('',(-0.041061231452097,0.,-0.999156632001028));
#1020=DIRECTION('',(0.999156632001028,0.,-0.041061231452097));
#1021=DIRECTION('',(0.,0.,-1.));
#1022=DIRECTION('',(-1.,0.,0.));
#1023=DIRECTION('',(0.,0.,-1.));
#1024=DIRECTION('',(-1.,0.,0.));
#1025=DIRECTION('',(-0.041061231452097,0.,-0.999156632001028));
#1026=DIRECTION('',(0.999156632001028,0.,-0.041061231452097));
#1027=DIRECTION('',(0.,0.,-1.));
#1028=DIRECTION('',(-1.,0.,0.));
#1029=DIRECTION('',(0.,0.,-1.));
#1030=DIRECTION('',(-1.,0.,0.));
#1031=DIRECTION('',(-0.041061231452097,0.,-0.999156632001028));
#1032=DIRECTION('',(0.999156632001028,0.,-0.041061231452097));
#1033=DIRECTION('',(0.,0.,-1.));
#1034=DIRECTION('',(-1.,0.,0.));
#1035=DIRECTION('',(0.,0.,-1.));
#1036=DIRECTION('',(-1.,0.,0.));
#1037=DIRECTION('',(-0.041061231452097,0.,-0.999156632001028));
#1038=DIRECTION('',(0.999156632001028,0.,-0.041061231452097));
#1039=DIRECTION('',(0.,0.,-1.));
#1040=DIRECTION('',(-1.,0.,0.));
#1041=DIRECTION('',(0.,0.,-1.));
#1042=DIRECTION('',(-1.,0.,0.));
#1043=DIRECTION('',(-0.041061231452097,0.,-0.999156632001028));
#1044=DIRECTION('',(0.999156632001028,0.,-0.041061231452097));
#1045=DIRECTION('',(0.,0.,-1.));
#1046=DIRECTION('',(-1.,0.,0.));
#1047=DIRECTION('',(0.,0.,-1.));
#1048=DIRECTION('',(-1.,0.,0.));
#1049=DIRECTION('',(-0.041061231452097,0.,-0.999156632001028));
#1050=DIRECTION('',(0.999156632001028,0.,-0.041061231452097));
#1051=DIRECTION('',(0.,0.,-1.));
#1052=DIRECTION('',(-1.,0.,0.));
#1053=DIRECTION('',(0.,0.,-1.));
#1054=DIRECTION('',(-1.,0.,0.));
#1055=DIRECTION('',(-0.041061231452097,0.,-0.999156632001028));
#1056=DIRECTION('',(0.999156632001028,0.,-0.041061231452097));
#1057=DIRECTION('',(0.,0.,-1.));
#1058=DIRECTION('',(-1.,0.,0.));
#1059=DIRECTION('',(0.,0.,-1.));
#1060=DIRECTION('',(-1.,0.,0.));
#1061=DIRECTION('',(-0.041061231452097,0.,-0.999156632001028));
#1062=DIRECTION('',(0.999156632001028,0.,-0.041061231452097));
#1063=DIRECTION('',(0.,0.,-1.));
#1064=DIRECTION('',(-1.,0.,0.));
#1065=DIRECTION('',(0.,0.,1.));
#1066=DIRECTION('',(-0.999156632001028,0.,0.041061231452097));
#1067=DIRECTION('',(0.,0.,1.));
#1068=DIRECTION('',(1.,0.,0.));
#1069=DIRECTION('',(0.,-1.,0.));
#1070=DIRECTION('',(0.,0.,-1.));
#1071=DIRECTION('',(0.,1.,0.));
#1072=DIRECTION('',(0.,0.,1.));
#1073=DIRECTION('',(0.,-1.,0.));
#1074=DIRECTION('',(-1.,0.,0.));
#1075=DIRECTION('',(0.,0.,1.));
#1076=DIRECTION('',(0.999156632001028,0.,-0.041061231452097));
#1077=DIRECTION('',(0.,0.,1.));
#1078=DIRECTION('',(-1.,0.,0.));
#1079=DIRECTION('',(0.,1.,0.));
#1080=DIRECTION('',(0.,0.,1.));
#1081=DIRECTION('',(0.,0.,-1.));
#1082=DIRECTION('',(-1.,0.,0.));
#1083=DIRECTION('',(0.,1.,0.));
#1084=DIRECTION('',(0.,0.,-1.));
#1085=DIRECTION('',(-1.,0.,0.));
#1086=DIRECTION('',(0.,-1.,0.));
#1087=DIRECTION('',(1.,0.,0.));
#1088=DIRECTION('',(0.,0.,-1.));
#1089=DIRECTION('',(-0.041061231452097,0.,-0.999156632001028));
#1090=DIRECTION('',(0.999156632001028,0.,-0.041061231452097));
#1091=DIRECTION('',(0.,0.,-1.));
#1092=DIRECTION('',(-1.,0.,0.));
#1093=DIRECTION('',(-0.041061231452097,0.,-0.999156632001028));
#1094=DIRECTION('',(0.,-1.,0.));
#1095=CARTESIAN_POINT('',(0.,0.,0.));
#1096=CARTESIAN_POINT('',(175.,100.,0.));
#1097=CARTESIAN_POINT('',(168.4385,100.,0.));
#1098=CARTESIAN_POINT('',(175.,100.,18.0821917808219));
#1099=CARTESIAN_POINT('',(181.5615,100.,17.8125410958904));
#1100=CARTESIAN_POINT('',(175.,100.,30.));
#1101=CARTESIAN_POINT('',(175.,75.,0.));
#1102=CARTESIAN_POINT('',(168.4385,75.,0.));
#1103=CARTESIAN_POINT('',(175.,75.,18.0821917808219));
#1104=CARTESIAN_POINT('',(181.5615,75.,17.8125410958904));
#1105=CARTESIAN_POINT('',(175.,75.,30.));
#1106=CARTESIAN_POINT('',(155.,100.,0.));
#1107=CARTESIAN_POINT('',(148.4385,100.,0.));
#1108=CARTESIAN_POINT('',(155.,100.,18.9041095890411));
#1109=CARTESIAN_POINT('',(161.5615,100.,18.6344589041096));
#1110=CARTESIAN_POINT('',(155.,100.,30.));
#1111=CARTESIAN_POINT('',(155.,75.,0.));
#1112=CARTESIAN_POINT('',(148.4385,75.,0.));
#1113=CARTESIAN_POINT('',(155.,75.,18.9041095890411));
#1114=CARTESIAN_POINT('',(161.5615,75.,18.6344589041096));
#1115=CARTESIAN_POINT('',(155.,75.,30.));
#1116=CARTESIAN_POINT('',(135.,100.,0.));
#1117=CARTESIAN_POINT('',(128.4385,100.,0.));
#1118=CARTESIAN_POINT('',(135.,100.,19.7260273972603));
#1119=CARTESIAN_POINT('',(141.5615,100.,19.4563767123288));
#1120=CARTESIAN_POINT('',(135.,100.,30.));
#1121=CARTESIAN_POINT('',(135.,75.,0.));
#1122=CARTESIAN_POINT('',(128.4385,75.,0.));
#1123=CARTESIAN_POINT('',(135.,75.,19.7260273972603));
#1124=CARTESIAN_POINT('',(141.5615,75.,19.4563767123288));
#1125=CARTESIAN_POINT('',(135.,75.,30.));
#1126=CARTESIAN_POINT('',(115.,100.,0.));
#1127=CARTESIAN_POINT('',(108.4385,100.,0.));
#1128=CARTESIAN_POINT('',(115.,100.,20.5479452054795));
#1129=CARTESIAN_POINT('',(121.5615,100.,20.2782945205479));
#1130=CARTESIAN_POINT('',(115.,100.,30.));
#1131=CARTESIAN_POINT('',(115.,75.,0.));
#1132=CARTESIAN_POINT('',(108.4385,75.,0.));
#1133=CARTESIAN_POINT('',(115.,75.,20.5479452054795));
#1134=CARTESIAN_POINT('',(121.5615,75.,20.2782945205479));
#1135=CARTESIAN_POINT('',(115.,75.,30.));
#1136=CARTESIAN_POINT('',(95.,100.,0.));
#1137=CARTESIAN_POINT('',(88.4385,100.,0.));
#1138=CARTESIAN_POINT('',(95.,100.,21.3698630136986));
#1139=CARTESIAN_POINT('',(101.5615,100.,21.1002123287671));
#1140=CARTESIAN_POINT('',(95.,100.,30.));
#1141=CARTESIAN_POINT('',(95.,75.,0.));
#1142=CARTESIAN_POINT('',(88.4385,75.,0.));
#1143=CARTESIAN_POINT('',(95.,75.,21.3698630136986));
#1144=CARTESIAN_POINT('',(101.5615,75.,21.1002123287671));
#1145=CARTESIAN_POINT('',(95.,75.,30.));
#1146=CARTESIAN_POINT('',(75.,100.,0.));
#1147=CARTESIAN_POINT('',(68.4385,100.,0.));
#1148=CARTESIAN_POINT('',(75.,100.,22.1917808219178));
#1149=CARTESIAN_POINT('',(81.5615,100.,21.9221301369863));
#1150=CARTESIAN_POINT('',(75.,100.,30.));
#1151=CARTESIAN_POINT('',(75.,75.,0.));
#1152=CARTESIAN_POINT('',(68.4385,75.,0.));
#1153=CARTESIAN_POINT('',(75.,75.,22.1917808219178));
#1154=CARTESIAN_POINT('',(81.5615,75.,21.9221301369863));
#1155=CARTESIAN_POINT('',(75.,75.,30.));
#1156=CARTESIAN_POINT('',(55.,100.,0.));
#1157=CARTESIAN_POINT('',(48.4385,100.,0.));
#1158=CARTESIAN_POINT('',(55.,100.,23.013698630137));
#1159=CARTESIAN_POINT('',(61.5615,100.,22.7440479452055));
#1160=CARTESIAN_POINT('',(55.,100.,30.));
#1161=CARTESIAN_POINT('',(55.,75.,0.));
#1162=CARTESIAN_POINT('',(48.4385,75.,0.));
#1163=CARTESIAN_POINT('',(55.,75.,23.013698630137));
#1164=CARTESIAN_POINT('',(61.5615,75.,22.7440479452055));
#1165=CARTESIAN_POINT('',(55.,75.,30.));
#1166=CARTESIAN_POINT('',(35.,100.,0.));
#1167=CARTESIAN_POINT('',(28.4385,100.,0.));
#1168=CARTESIAN_POINT('',(35.,100.,23.8356164383562));
#1169=CARTESIAN_POINT('',(41.5615,100.,23.5659657534247));
#1170=CARTESIAN_POINT('',(35.,100.,30.));
#1171=CARTESIAN_POINT('',(35.,75.,0.));
#1172=CARTESIAN_POINT('',(28.4385,75.,0.));
#1173=CARTESIAN_POINT('',(35.,75.,23.8356164383562));
#1174=CARTESIAN_POINT('',(41.5615,75.,23.5659657534247));
#1175=CARTESIAN_POINT('',(35.,75.,30.));
#1176=CARTESIAN_POINT('',(175.,50.,0.));
#1177=CARTESIAN_POINT('',(168.4385,50.,0.));
#1178=CARTESIAN_POINT('',(175.,50.,18.0821917808219));
#1179=CARTESIAN_POINT('',(181.5615,50.,17.8125410958904));
#1180=CARTESIAN_POINT('',(175.,50.,30.));
#1181=CARTESIAN_POINT('',(155.,50.,0.));
#1182=CARTESIAN_POINT('',(148.4385,50.,0.));
#1183=CARTESIAN_POINT('',(155.,50.,18.9041095890411));
#1184=CARTESIAN_POINT('',(161.5615,50.,18.6344589041096));
#1185=CARTESIAN_POINT('',(155.,50.,30.));
#1186=CARTESIAN_POINT('',(135.,50.,0.));
#1187=CARTESIAN_POINT('',(128.4385,50.,0.));
#1188=CARTESIAN_POINT('',(135.,50.,19.7260273972603));
#1189=CARTESIAN_POINT('',(141.5615,50.,19.4563767123288));
#1190=CARTESIAN_POINT('',(135.,50.,30.));
#1191=CARTESIAN_POINT('',(115.,50.,0.));
#1192=CARTESIAN_POINT('',(108.4385,50.,0.));
#1193=CARTESIAN_POINT('',(115.,50.,20.5479452054795));
#1194=CARTESIAN_POINT('',(121.5615,50.,20.2782945205479));
#1195=CARTESIAN_POINT('',(115.,50.,30.));
#1196=CARTESIAN_POINT('',(95.,50.,0.));
#1197=CARTESIAN_POINT('',(88.4385,50.,0.));
#1198=CARTESIAN_POINT('',(95.,50.,21.3698630136986));
#1199=CARTESIAN_POINT('',(101.5615,50.,21.1002123287671));
#1200=CARTESIAN_POINT('',(95.,50.,30.));
#1201=CARTESIAN_POINT('',(75.,50.,0.));
#1202=CARTESIAN_POINT('',(68.4385,50.,0.));
#1203=CARTESIAN_POINT('',(75.,50.,22.1917808219178));
#1204=CARTESIAN_POINT('',(81.5615,50.,21.9221301369863));
#1205=CARTESIAN_POINT('',(75.,50.,30.));
#1206=CARTESIAN_POINT('',(55.,50.,0.));
#1207=CARTESIAN_POINT('',(48.4385,50.,0.));
#1208=CARTESIAN_POINT('',(55.,50.,23.013698630137));
#1209=CARTESIAN_POINT('',(61.5615,50.,22.7440479452055));
#1210=CARTESIAN_POINT('',(55.,50.,30.));
#1211=CARTESIAN_POINT('',(35.,50.,0.));
#1212=CARTESIAN_POINT('',(28.4385,50.,0.));
#1213=CARTESIAN_POINT('',(35.,50.,23.8356164383562));
#1214=CARTESIAN_POINT('',(41.5615,50.,23.5659657534247));
#1215=CARTESIAN_POINT('',(35.,50.,30.));
#1216=CARTESIAN_POINT('',(175.,25.,0.));
#1217=CARTESIAN_POINT('',(168.4385,25.,0.));
#1218=CARTESIAN_POINT('',(175.,25.,18.0821917808219));
#1219=CARTESIAN_POINT('',(181.5615,25.,17.8125410958904));
#1220=CARTESIAN_POINT('',(175.,25.,30.));
#1221=CARTESIAN_POINT('',(155.,25.,0.));
#1222=CARTESIAN_POINT('',(148.4385,25.,0.));
#1223=CARTESIAN_POINT('',(155.,25.,18.9041095890411));
#1224=CARTESIAN_POINT('',(161.5615,25.,18.6344589041096));
#1225=CARTESIAN_POINT('',(155.,25.,30.));
#1226=CARTESIAN_POINT('',(135.,25.,0.));
#1227=CARTESIAN_POINT('',(128.4385,25.,0.));
#1228=CARTESIAN_POINT('',(135.,25.,19.7260273972603));
#1229=CARTESIAN_POINT('',(141.5615,25.,19.4563767123288));
#1230=CARTESIAN_POINT('',(135.,25.,30.));
#1231=CARTESIAN_POINT('',(115.,25.,0.));
#1232=CARTESIAN_POINT('',(108.4385,25.,0.));
#1233=CARTESIAN_POINT('',(115.,25.,20.5479452054795));
#1234=CARTESIAN_POINT('',(121.5615,25.,20.2782945205479));
#1235=CARTESIAN_POINT('',(115.,25.,30.));
#1236=CARTESIAN_POINT('',(95.,25.,0.));
#1237=CARTESIAN_POINT('',(88.4385,25.,0.));
#1238=CARTESIAN_POINT('',(95.,25.,21.3698630136986));
#1239=CARTESIAN_POINT('',(101.5615,25.,21.1002123287671));
#1240=CARTESIAN_POINT('',(95.,25.,30.));
#1241=CARTESIAN_POINT('',(75.,25.,0.));
#1242=CARTESIAN_POINT('',(68.4385,25.,0.));
#1243=CARTESIAN_POINT('',(75.,25.,22.1917808219178));
#1244=CARTESIAN_POINT('',(81.5615,25.,21.9221301369863));
#1245=CARTESIAN_POINT('',(75.,25.,30.));
#1246=CARTESIAN_POINT('',(55.,25.,0.));
#1247=CARTESIAN_POINT('',(48.4385,25.,0.));
#1248=CARTESIAN_POINT('',(55.,25.,23.013698630137));
#1249=CARTESIAN_POINT('',(61.5615,25.,22.7440479452055));
#1250=CARTESIAN_POINT('',(55.,25.,30.));
#1251=CARTESIAN_POINT('',(250.,0.,0.));
#1252=CARTESIAN_POINT('',(250.,0.,0.));
#1253=CARTESIAN_POINT('',(250.,0.,15.));
#1254=CARTESIAN_POINT('',(125.826152116898,0.,20.1030348445111));
#1255=CARTESIAN_POINT('',(0.,0.,25.2739726027397));
#1256=CARTESIAN_POINT('',(0.,0.,0.));
#1257=CARTESIAN_POINT('',(0.,0.,0.));
#1258=CARTESIAN_POINT('',(125.,0.,0.));
#1259=CARTESIAN_POINT('',(125.,0.,0.));
#1260=CARTESIAN_POINT('',(0.,75.,25.2739726027397));
#1261=CARTESIAN_POINT('',(0.,150.,25.2739726027397));
#1262=CARTESIAN_POINT('',(0.,150.,0.));
#1263=CARTESIAN_POINT('',(0.,150.,0.));
#1264=CARTESIAN_POINT('',(0.,75.,0.));
#1265=CARTESIAN_POINT('',(0.,75.,0.));
#1266=CARTESIAN_POINT('',(125.826152116898,150.,20.1030348445111));
#1267=CARTESIAN_POINT('',(250.,150.,15.));
#1268=CARTESIAN_POINT('',(250.,150.,0.));
#1269=CARTESIAN_POINT('',(250.,150.,0.));
#1270=CARTESIAN_POINT('',(125.,150.,0.));
#1271=CARTESIAN_POINT('',(125.,150.,0.));
#1272=CARTESIAN_POINT('',(35.,25.,0.));
#1273=CARTESIAN_POINT('',(28.4385,25.,0.));
#1274=CARTESIAN_POINT('',(250.,75.,0.));
#1275=CARTESIAN_POINT('',(125.,75.,0.));
#1276=CARTESIAN_POINT('',(250.,75.,15.));
#1277=CARTESIAN_POINT('',(250.,75.,0.));
#1278=CARTESIAN_POINT('',(35.,25.,23.8356164383562));
#1279=CARTESIAN_POINT('',(41.5615,25.,23.5659657534247));
#1280=CARTESIAN_POINT('',(35.,25.,30.));
#1281=CARTESIAN_POINT('',(250.,75.,15.));
#1282=MECHANICAL_DESIGN_GEOMETRIC_PRESENTATION_REPRESENTATION('',(#32),
#1283);
#1283=(
GEOMETRIC_REPRESENTATION_CONTEXT(3)
GLOBAL_UNCERTAINTY_ASSIGNED_CONTEXT((#1284))
GLOBAL_UNIT_ASSIGNED_CONTEXT((#1290,#1286,#1285))
REPRESENTATION_CONTEXT('003 - HOLES_BROKEN','TOP_LEVEL_ASSEMBLY_PART')
);
#1284=UNCERTAINTY_MEASURE_WITH_UNIT(LENGTH_MEASURE(2.E-5),#1290,
'DISTANCE_ACCURACY_VALUE','Maximum Tolerance applied to model');
#1285=(
NAMED_UNIT(*)
SI_UNIT($,.STERADIAN.)
SOLID_ANGLE_UNIT()
);
#1286=(
CONVERSION_BASED_UNIT('DEGREE',#1288)
NAMED_UNIT(#1287)
PLANE_ANGLE_UNIT()
);
#1287=DIMENSIONAL_EXPONENTS(0.,0.,0.,0.,0.,0.,0.);
#1288=PLANE_ANGLE_MEASURE_WITH_UNIT(PLANE_ANGLE_MEASURE(0.0174532925),#1289);
#1289=(
NAMED_UNIT(*)
PLANE_ANGLE_UNIT()
SI_UNIT($,.RADIAN.)
);
#1290=(
LENGTH_UNIT()
NAMED_UNIT(*)
SI_UNIT(.MILLI.,.METRE.)
);
ENDSEC;
END-ISO-10303-21;
