ISO-10303-21;
HEADER;
/* Generated by software containing ST-Developer
 * from STEP Tools, Inc. (www.steptools.com) 
 */
/* OPTION: using custom schema-name function */

FILE_DESCRIPTION(
/* description */ (''),
/* implementation_level */ '2;1');

FILE_NAME(
/* name */ '004 - HOLES_MULTI.stp',
/* time_stamp */ '2026-07-28T17:58:54+08:00',
/* author */ (''),
/* organization */ (''),
/* preprocessor_version */ 'ST-DEVELOPER v20.1',
/* originating_system */ 'SIEMENS PLM Software NX2512.5000',
/* authorisation */ '');

FILE_SCHEMA (('AUTOMOTIVE_DESIGN { 1 0 10303 214 3 1 1 1 }'));
ENDSEC;

DATA;
#10=PROPERTY_DEFINITION_REPRESENTATION(#14,#12);
#11=PROPERTY_DEFINITION_REPRESENTATION(#15,#13);
#12=REPRESENTATION('',(#16),#1895);
#13=REPRESENTATION('',(#17),#1895);
#14=PROPERTY_DEFINITION('pmi validation property','',#21);
#15=PROPERTY_DEFINITION('pmi validation property','',#21);
#16=VALUE_REPRESENTATION_ITEM('number of annotations',COUNT_MEASURE(0.));
#17=VALUE_REPRESENTATION_ITEM('number of views',COUNT_MEASURE(0.));
#18=SHAPE_REPRESENTATION_RELATIONSHIP('None',
'relationship between 004 - HOLES_MULTI_objects-None and 004 - HOLES_M
ULTI_objects-None',#30,#19);
#19=ADVANCED_BREP_SHAPE_REPRESENTATION('004 - HOLES_MULTI_objects-None',
(#40),#1895);
#20=SHAPE_DEFINITION_REPRESENTATION(#21,#30);
#21=PRODUCT_DEFINITION_SHAPE('','',#22);
#22=PRODUCT_DEFINITION(' ','',#24,#23);
#23=PRODUCT_DEFINITION_CONTEXT('part definition',#29,'design');
#24=PRODUCT_DEFINITION_FORMATION_WITH_SPECIFIED_SOURCE(' ',' ',#26,
 .NOT_KNOWN.);
#25=PRODUCT_RELATED_PRODUCT_CATEGORY('part','',(#26));
#26=PRODUCT('004 - HOLES_MULTI_objects','004 - HOLES_MULTI_objects',' ',
(#27));
#27=PRODUCT_CONTEXT(' ',#29,'mechanical');
#28=APPLICATION_PROTOCOL_DEFINITION('international standard',
'automotive_design',2010,#29);
#29=APPLICATION_CONTEXT(
'core data for automotive mechanical design processes');
#30=SHAPE_REPRESENTATION('004 - HOLES_MULTI_objects-None',(#1134),#1895);
#31=PRESENTATION_LAYER_ASSIGNMENT('1','Layer 1',(#40));
#32=STYLED_ITEM('',(#33),#40);
#33=PRESENTATION_STYLE_ASSIGNMENT((#34));
#34=SURFACE_STYLE_USAGE(.BOTH.,#35);
#35=SURFACE_SIDE_STYLE('',(#36));
#36=SURFACE_STYLE_FILL_AREA(#37);
#37=FILL_AREA_STYLE('',(#38));
#38=FILL_AREA_STYLE_COLOUR('',#39);
#39=COLOUR_RGB('medium steel',0.611764705882353,0.658823529411765,0.670588235294118);
#40=MANIFOLD_SOLID_BREP('',#41);
#41=CLOSED_SHELL('',(#76,#77,#78,#79,#80,#81,#82,#83,#84,#85,#86,#87,#88,
#89,#90,#91,#92,#93,#94,#95,#96,#97,#98,#99,#100,#101,#102,#103,#104,#105,
#106,#107,#108,#109,#110,#111,#112,#113,#114,#115,#116,#117,#118,#119,#120,
#121,#122,#123,#124,#125,#126,#127,#128,#129,#130,#131));
#42=FACE_OUTER_BOUND('',#533,.T.);
#43=FACE_OUTER_BOUND('',#534,.T.);
#44=FACE_OUTER_BOUND('',#535,.T.);
#45=FACE_OUTER_BOUND('',#587,.T.);
#46=PLANE('',#1283);
#47=PLANE('',#1284);
#48=PLANE('',#1285);
#49=PLANE('',#1286);
#50=PLANE('',#1288);
#51=PLANE('',#1289);
#52=LINE('',#1865,#64);
#53=LINE('',#1868,#65);
#54=LINE('',#1870,#66);
#55=LINE('',#1872,#67);
#56=LINE('',#1874,#68);
#57=LINE('',#1876,#69);
#58=LINE('',#1878,#70);
#59=LINE('',#1880,#71);
#60=LINE('',#1882,#72);
#61=LINE('',#1884,#73);
#62=LINE('',#1886,#74);
#63=LINE('',#1890,#75);
#64=VECTOR('',#1589,1.);
#65=VECTOR('',#1590,1.);
#66=VECTOR('',#1591,1.);
#67=VECTOR('',#1592,1.);
#68=VECTOR('',#1595,1.);
#69=VECTOR('',#1596,1.);
#70=VECTOR('',#1597,1.);
#71=VECTOR('',#1600,1.);
#72=VECTOR('',#1601,1.);
#73=VECTOR('',#1604,1.);
#74=VECTOR('',#1605,1.);
#75=VECTOR('',#1610,1.);
#76=ADVANCED_FACE('',(#182,#183),#132,.F.);
#77=ADVANCED_FACE('',(#184,#185),#133,.F.);
#78=ADVANCED_FACE('',(#186,#187),#134,.F.);
#79=ADVANCED_FACE('',(#188,#189),#135,.F.);
#80=ADVANCED_FACE('',(#190,#191),#136,.F.);
#81=ADVANCED_FACE('',(#192,#193),#137,.F.);
#82=ADVANCED_FACE('',(#194,#195),#138,.F.);
#83=ADVANCED_FACE('',(#196,#197),#139,.F.);
#84=ADVANCED_FACE('',(#198,#199),#140,.F.);
#85=ADVANCED_FACE('',(#200,#201),#141,.F.);
#86=ADVANCED_FACE('',(#202,#203),#142,.F.);
#87=ADVANCED_FACE('',(#204,#205),#143,.F.);
#88=ADVANCED_FACE('',(#206,#207),#144,.F.);
#89=ADVANCED_FACE('',(#208,#209),#145,.F.);
#90=ADVANCED_FACE('',(#210,#211),#146,.F.);
#91=ADVANCED_FACE('',(#212,#213),#147,.F.);
#92=ADVANCED_FACE('',(#214,#215),#148,.F.);
#93=ADVANCED_FACE('',(#216,#217),#149,.F.);
#94=ADVANCED_FACE('',(#218,#219),#150,.F.);
#95=ADVANCED_FACE('',(#220,#221),#151,.F.);
#96=ADVANCED_FACE('',(#222,#223),#152,.F.);
#97=ADVANCED_FACE('',(#224,#225),#153,.F.);
#98=ADVANCED_FACE('',(#226,#227),#154,.F.);
#99=ADVANCED_FACE('',(#228,#229),#155,.F.);
#100=ADVANCED_FACE('',(#230,#231),#156,.F.);
#101=ADVANCED_FACE('',(#232,#233),#157,.F.);
#102=ADVANCED_FACE('',(#234,#235),#158,.F.);
#103=ADVANCED_FACE('',(#236,#237),#159,.F.);
#104=ADVANCED_FACE('',(#238,#239),#160,.F.);
#105=ADVANCED_FACE('',(#240,#241),#161,.F.);
#106=ADVANCED_FACE('',(#242,#243),#162,.F.);
#107=ADVANCED_FACE('',(#244,#245),#163,.F.);
#108=ADVANCED_FACE('',(#246,#247),#164,.F.);
#109=ADVANCED_FACE('',(#248,#249),#165,.F.);
#110=ADVANCED_FACE('',(#250,#251),#166,.F.);
#111=ADVANCED_FACE('',(#252,#253),#167,.F.);
#112=ADVANCED_FACE('',(#254,#255),#168,.F.);
#113=ADVANCED_FACE('',(#256,#257),#169,.F.);
#114=ADVANCED_FACE('',(#258,#259),#170,.F.);
#115=ADVANCED_FACE('',(#260,#261),#171,.F.);
#116=ADVANCED_FACE('',(#262,#263),#172,.F.);
#117=ADVANCED_FACE('',(#264,#265),#173,.F.);
#118=ADVANCED_FACE('',(#266,#267),#174,.F.);
#119=ADVANCED_FACE('',(#268,#269),#175,.F.);
#120=ADVANCED_FACE('',(#270,#271),#176,.F.);
#121=ADVANCED_FACE('',(#272,#273),#177,.F.);
#122=ADVANCED_FACE('',(#274,#275),#178,.F.);
#123=ADVANCED_FACE('',(#276,#277),#179,.F.);
#124=ADVANCED_FACE('',(#278,#279),#180,.F.);
#125=ADVANCED_FACE('',(#280,#281,#282,#283,#284,#285,#286,#287,#288,#289,
#290,#291,#292,#293,#294,#295,#296,#297,#298,#299,#300,#301,#302,#303,#304,
#305,#306,#307,#308,#309,#310,#311,#312,#313,#314,#315,#316,#317,#318,#319,
#320,#321,#322,#323,#324,#325,#326,#327,#328,#329,#330),#46,.T.);
#126=ADVANCED_FACE('',(#42),#47,.T.);
#127=ADVANCED_FACE('',(#43),#48,.T.);
#128=ADVANCED_FACE('',(#44),#49,.T.);
#129=ADVANCED_FACE('',(#331,#332,#333,#334,#335,#336,#337,#338,#339,#340,
#341,#342,#343,#344,#345,#346,#347,#348,#349,#350,#351,#352,#353,#354,#355,
#356,#357,#358,#359,#360,#361,#362,#363,#364,#365,#366,#367,#368,#369,#370,
#371,#372,#373,#374,#375,#376,#377,#378,#379,#380,#381),#50,.T.);
#130=ADVANCED_FACE('',(#45),#51,.T.);
#131=ADVANCED_FACE('',(#382,#383),#181,.F.);
#132=CYLINDRICAL_SURFACE('',#1137,7.8945);
#133=CYLINDRICAL_SURFACE('',#1140,7.8945);
#134=CYLINDRICAL_SURFACE('',#1143,6.5615);
#135=CYLINDRICAL_SURFACE('',#1146,7.8945);
#136=CYLINDRICAL_SURFACE('',#1149,7.8945);
#137=CYLINDRICAL_SURFACE('',#1152,6.5615);
#138=CYLINDRICAL_SURFACE('',#1155,7.8945);
#139=CYLINDRICAL_SURFACE('',#1158,7.8945);
#140=CYLINDRICAL_SURFACE('',#1161,6.5615);
#141=CYLINDRICAL_SURFACE('',#1164,6.5615);
#142=CYLINDRICAL_SURFACE('',#1167,6.5615);
#143=CYLINDRICAL_SURFACE('',#1170,6.5615);
#144=CYLINDRICAL_SURFACE('',#1173,6.5615);
#145=CYLINDRICAL_SURFACE('',#1176,6.5615);
#146=CYLINDRICAL_SURFACE('',#1179,6.5615);
#147=CYLINDRICAL_SURFACE('',#1182,6.5615);
#148=CYLINDRICAL_SURFACE('',#1185,6.5615);
#149=CYLINDRICAL_SURFACE('',#1188,6.5615);
#150=CYLINDRICAL_SURFACE('',#1191,6.5615);
#151=CYLINDRICAL_SURFACE('',#1194,3.673);
#152=CYLINDRICAL_SURFACE('',#1197,3.673);
#153=CYLINDRICAL_SURFACE('',#1200,6.5615);
#154=CYLINDRICAL_SURFACE('',#1203,3.673);
#155=CYLINDRICAL_SURFACE('',#1206,3.673);
#156=CYLINDRICAL_SURFACE('',#1209,6.5615);
#157=CYLINDRICAL_SURFACE('',#1212,6.5615);
#158=CYLINDRICAL_SURFACE('',#1215,6.5615);
#159=CYLINDRICAL_SURFACE('',#1218,6.5615);
#160=CYLINDRICAL_SURFACE('',#1221,6.5615);
#161=CYLINDRICAL_SURFACE('',#1224,6.5615);
#162=CYLINDRICAL_SURFACE('',#1227,6.5615);
#163=CYLINDRICAL_SURFACE('',#1230,3.67300000000001);
#164=CYLINDRICAL_SURFACE('',#1233,3.67300000000001);
#165=CYLINDRICAL_SURFACE('',#1236,6.5615);
#166=CYLINDRICAL_SURFACE('',#1239,6.5615);
#167=CYLINDRICAL_SURFACE('',#1242,6.5615);
#168=CYLINDRICAL_SURFACE('',#1245,6.5615);
#169=CYLINDRICAL_SURFACE('',#1248,6.5615);
#170=CYLINDRICAL_SURFACE('',#1251,6.5615);
#171=CYLINDRICAL_SURFACE('',#1254,7.8945);
#172=CYLINDRICAL_SURFACE('',#1257,6.5615);
#173=CYLINDRICAL_SURFACE('',#1260,3.67300000000001);
#174=CYLINDRICAL_SURFACE('',#1263,3.67300000000001);
#175=CYLINDRICAL_SURFACE('',#1266,6.5615);
#176=CYLINDRICAL_SURFACE('',#1269,6.5615);
#177=CYLINDRICAL_SURFACE('',#1272,6.5615);
#178=CYLINDRICAL_SURFACE('',#1275,6.5615);
#179=CYLINDRICAL_SURFACE('',#1278,6.5615);
#180=CYLINDRICAL_SURFACE('',#1281,6.5615);
#181=CYLINDRICAL_SURFACE('',#1290,6.5615);
#182=FACE_BOUND('',#384,.T.);
#183=FACE_BOUND('',#385,.T.);
#184=FACE_BOUND('',#386,.T.);
#185=FACE_BOUND('',#387,.T.);
#186=FACE_BOUND('',#388,.T.);
#187=FACE_BOUND('',#389,.T.);
#188=FACE_BOUND('',#390,.T.);
#189=FACE_BOUND('',#391,.T.);
#190=FACE_BOUND('',#392,.T.);
#191=FACE_BOUND('',#393,.T.);
#192=FACE_BOUND('',#394,.T.);
#193=FACE_BOUND('',#395,.T.);
#194=FACE_BOUND('',#396,.T.);
#195=FACE_BOUND('',#397,.T.);
#196=FACE_BOUND('',#398,.T.);
#197=FACE_BOUND('',#399,.T.);
#198=FACE_BOUND('',#400,.T.);
#199=FACE_BOUND('',#401,.T.);
#200=FACE_BOUND('',#402,.T.);
#201=FACE_BOUND('',#403,.T.);
#202=FACE_BOUND('',#404,.T.);
#203=FACE_BOUND('',#405,.T.);
#204=FACE_BOUND('',#406,.T.);
#205=FACE_BOUND('',#407,.T.);
#206=FACE_BOUND('',#408,.T.);
#207=FACE_BOUND('',#409,.T.);
#208=FACE_BOUND('',#410,.T.);
#209=FACE_BOUND('',#411,.T.);
#210=FACE_BOUND('',#412,.T.);
#211=FACE_BOUND('',#413,.T.);
#212=FACE_BOUND('',#414,.T.);
#213=FACE_BOUND('',#415,.T.);
#214=FACE_BOUND('',#416,.T.);
#215=FACE_BOUND('',#417,.T.);
#216=FACE_BOUND('',#418,.T.);
#217=FACE_BOUND('',#419,.T.);
#218=FACE_BOUND('',#420,.T.);
#219=FACE_BOUND('',#421,.T.);
#220=FACE_BOUND('',#422,.T.);
#221=FACE_BOUND('',#423,.T.);
#222=FACE_BOUND('',#424,.T.);
#223=FACE_BOUND('',#425,.T.);
#224=FACE_BOUND('',#426,.T.);
#225=FACE_BOUND('',#427,.T.);
#226=FACE_BOUND('',#428,.T.);
#227=FACE_BOUND('',#429,.T.);
#228=FACE_BOUND('',#430,.T.);
#229=FACE_BOUND('',#431,.T.);
#230=FACE_BOUND('',#432,.T.);
#231=FACE_BOUND('',#433,.T.);
#232=FACE_BOUND('',#434,.T.);
#233=FACE_BOUND('',#435,.T.);
#234=FACE_BOUND('',#436,.T.);
#235=FACE_BOUND('',#437,.T.);
#236=FACE_BOUND('',#438,.T.);
#237=FACE_BOUND('',#439,.T.);
#238=FACE_BOUND('',#440,.T.);
#239=FACE_BOUND('',#441,.T.);
#240=FACE_BOUND('',#442,.T.);
#241=FACE_BOUND('',#443,.T.);
#242=FACE_BOUND('',#444,.T.);
#243=FACE_BOUND('',#445,.T.);
#244=FACE_BOUND('',#446,.T.);
#245=FACE_BOUND('',#447,.T.);
#246=FACE_BOUND('',#448,.T.);
#247=FACE_BOUND('',#449,.T.);
#248=FACE_BOUND('',#450,.T.);
#249=FACE_BOUND('',#451,.T.);
#250=FACE_BOUND('',#452,.T.);
#251=FACE_BOUND('',#453,.T.);
#252=FACE_BOUND('',#454,.T.);
#253=FACE_BOUND('',#455,.T.);
#254=FACE_BOUND('',#456,.T.);
#255=FACE_BOUND('',#457,.T.);
#256=FACE_BOUND('',#458,.T.);
#257=FACE_BOUND('',#459,.T.);
#258=FACE_BOUND('',#460,.T.);
#259=FACE_BOUND('',#461,.T.);
#260=FACE_BOUND('',#462,.T.);
#261=FACE_BOUND('',#463,.T.);
#262=FACE_BOUND('',#464,.T.);
#263=FACE_BOUND('',#465,.T.);
#264=FACE_BOUND('',#466,.T.);
#265=FACE_BOUND('',#467,.T.);
#266=FACE_BOUND('',#468,.T.);
#267=FACE_BOUND('',#469,.T.);
#268=FACE_BOUND('',#470,.T.);
#269=FACE_BOUND('',#471,.T.);
#270=FACE_BOUND('',#472,.T.);
#271=FACE_BOUND('',#473,.T.);
#272=FACE_BOUND('',#474,.T.);
#273=FACE_BOUND('',#475,.T.);
#274=FACE_BOUND('',#476,.T.);
#275=FACE_BOUND('',#477,.T.);
#276=FACE_BOUND('',#478,.T.);
#277=FACE_BOUND('',#479,.T.);
#278=FACE_BOUND('',#480,.T.);
#279=FACE_BOUND('',#481,.T.);
#280=FACE_BOUND('',#482,.T.);
#281=FACE_BOUND('',#483,.T.);
#282=FACE_BOUND('',#484,.T.);
#283=FACE_BOUND('',#485,.T.);
#284=FACE_BOUND('',#486,.T.);
#285=FACE_BOUND('',#487,.T.);
#286=FACE_BOUND('',#488,.T.);
#287=FACE_BOUND('',#489,.T.);
#288=FACE_BOUND('',#490,.T.);
#289=FACE_BOUND('',#491,.T.);
#290=FACE_BOUND('',#492,.T.);
#291=FACE_BOUND('',#493,.T.);
#292=FACE_BOUND('',#494,.T.);
#293=FACE_BOUND('',#495,.T.);
#294=FACE_BOUND('',#496,.T.);
#295=FACE_BOUND('',#497,.T.);
#296=FACE_BOUND('',#498,.T.);
#297=FACE_BOUND('',#499,.T.);
#298=FACE_BOUND('',#500,.T.);
#299=FACE_BOUND('',#501,.T.);
#300=FACE_BOUND('',#502,.T.);
#301=FACE_BOUND('',#503,.T.);
#302=FACE_BOUND('',#504,.T.);
#303=FACE_BOUND('',#505,.T.);
#304=FACE_BOUND('',#506,.T.);
#305=FACE_BOUND('',#507,.T.);
#306=FACE_BOUND('',#508,.T.);
#307=FACE_BOUND('',#509,.T.);
#308=FACE_BOUND('',#510,.T.);
#309=FACE_BOUND('',#511,.T.);
#310=FACE_BOUND('',#512,.T.);
#311=FACE_BOUND('',#513,.T.);
#312=FACE_BOUND('',#514,.T.);
#313=FACE_BOUND('',#515,.T.);
#314=FACE_BOUND('',#516,.T.);
#315=FACE_BOUND('',#517,.T.);
#316=FACE_BOUND('',#518,.T.);
#317=FACE_BOUND('',#519,.T.);
#318=FACE_BOUND('',#520,.T.);
#319=FACE_BOUND('',#521,.T.);
#320=FACE_BOUND('',#522,.T.);
#321=FACE_BOUND('',#523,.T.);
#322=FACE_BOUND('',#524,.T.);
#323=FACE_BOUND('',#525,.T.);
#324=FACE_BOUND('',#526,.T.);
#325=FACE_BOUND('',#527,.T.);
#326=FACE_BOUND('',#528,.T.);
#327=FACE_BOUND('',#529,.T.);
#328=FACE_BOUND('',#530,.T.);
#329=FACE_BOUND('',#531,.T.);
#330=FACE_BOUND('',#532,.T.);
#331=FACE_BOUND('',#536,.T.);
#332=FACE_BOUND('',#537,.T.);
#333=FACE_BOUND('',#538,.T.);
#334=FACE_BOUND('',#539,.T.);
#335=FACE_BOUND('',#540,.T.);
#336=FACE_BOUND('',#541,.T.);
#337=FACE_BOUND('',#542,.T.);
#338=FACE_BOUND('',#543,.T.);
#339=FACE_BOUND('',#544,.T.);
#340=FACE_BOUND('',#545,.T.);
#341=FACE_BOUND('',#546,.T.);
#342=FACE_BOUND('',#547,.T.);
#343=FACE_BOUND('',#548,.T.);
#344=FACE_BOUND('',#549,.T.);
#345=FACE_BOUND('',#550,.T.);
#346=FACE_BOUND('',#551,.T.);
#347=FACE_BOUND('',#552,.T.);
#348=FACE_BOUND('',#553,.T.);
#349=FACE_BOUND('',#554,.T.);
#350=FACE_BOUND('',#555,.T.);
#351=FACE_BOUND('',#556,.T.);
#352=FACE_BOUND('',#557,.T.);
#353=FACE_BOUND('',#558,.T.);
#354=FACE_BOUND('',#559,.T.);
#355=FACE_BOUND('',#560,.T.);
#356=FACE_BOUND('',#561,.T.);
#357=FACE_BOUND('',#562,.T.);
#358=FACE_BOUND('',#563,.T.);
#359=FACE_BOUND('',#564,.T.);
#360=FACE_BOUND('',#565,.T.);
#361=FACE_BOUND('',#566,.T.);
#362=FACE_BOUND('',#567,.T.);
#363=FACE_BOUND('',#568,.T.);
#364=FACE_BOUND('',#569,.T.);
#365=FACE_BOUND('',#570,.T.);
#366=FACE_BOUND('',#571,.T.);
#367=FACE_BOUND('',#572,.T.);
#368=FACE_BOUND('',#573,.T.);
#369=FACE_BOUND('',#574,.T.);
#370=FACE_BOUND('',#575,.T.);
#371=FACE_BOUND('',#576,.T.);
#372=FACE_BOUND('',#577,.T.);
#373=FACE_BOUND('',#578,.T.);
#374=FACE_BOUND('',#579,.T.);
#375=FACE_BOUND('',#580,.T.);
#376=FACE_BOUND('',#581,.T.);
#377=FACE_BOUND('',#582,.T.);
#378=FACE_BOUND('',#583,.T.);
#379=FACE_BOUND('',#584,.T.);
#380=FACE_BOUND('',#585,.T.);
#381=FACE_BOUND('',#586,.T.);
#382=FACE_BOUND('',#588,.T.);
#383=FACE_BOUND('',#589,.T.);
#384=EDGE_LOOP('',(#590));
#385=EDGE_LOOP('',(#591));
#386=EDGE_LOOP('',(#592));
#387=EDGE_LOOP('',(#593));
#388=EDGE_LOOP('',(#594));
#389=EDGE_LOOP('',(#595));
#390=EDGE_LOOP('',(#596));
#391=EDGE_LOOP('',(#597));
#392=EDGE_LOOP('',(#598));
#393=EDGE_LOOP('',(#599));
#394=EDGE_LOOP('',(#600));
#395=EDGE_LOOP('',(#601));
#396=EDGE_LOOP('',(#602));
#397=EDGE_LOOP('',(#603));
#398=EDGE_LOOP('',(#604));
#399=EDGE_LOOP('',(#605));
#400=EDGE_LOOP('',(#606));
#401=EDGE_LOOP('',(#607));
#402=EDGE_LOOP('',(#608));
#403=EDGE_LOOP('',(#609));
#404=EDGE_LOOP('',(#610));
#405=EDGE_LOOP('',(#611));
#406=EDGE_LOOP('',(#612));
#407=EDGE_LOOP('',(#613));
#408=EDGE_LOOP('',(#614));
#409=EDGE_LOOP('',(#615));
#410=EDGE_LOOP('',(#616));
#411=EDGE_LOOP('',(#617));
#412=EDGE_LOOP('',(#618));
#413=EDGE_LOOP('',(#619));
#414=EDGE_LOOP('',(#620));
#415=EDGE_LOOP('',(#621));
#416=EDGE_LOOP('',(#622));
#417=EDGE_LOOP('',(#623));
#418=EDGE_LOOP('',(#624));
#419=EDGE_LOOP('',(#625));
#420=EDGE_LOOP('',(#626));
#421=EDGE_LOOP('',(#627));
#422=EDGE_LOOP('',(#628));
#423=EDGE_LOOP('',(#629));
#424=EDGE_LOOP('',(#630));
#425=EDGE_LOOP('',(#631));
#426=EDGE_LOOP('',(#632));
#427=EDGE_LOOP('',(#633));
#428=EDGE_LOOP('',(#634));
#429=EDGE_LOOP('',(#635));
#430=EDGE_LOOP('',(#636));
#431=EDGE_LOOP('',(#637));
#432=EDGE_LOOP('',(#638));
#433=EDGE_LOOP('',(#639));
#434=EDGE_LOOP('',(#640));
#435=EDGE_LOOP('',(#641));
#436=EDGE_LOOP('',(#642));
#437=EDGE_LOOP('',(#643));
#438=EDGE_LOOP('',(#644));
#439=EDGE_LOOP('',(#645));
#440=EDGE_LOOP('',(#646));
#441=EDGE_LOOP('',(#647));
#442=EDGE_LOOP('',(#648));
#443=EDGE_LOOP('',(#649));
#444=EDGE_LOOP('',(#650));
#445=EDGE_LOOP('',(#651));
#446=EDGE_LOOP('',(#652));
#447=EDGE_LOOP('',(#653));
#448=EDGE_LOOP('',(#654));
#449=EDGE_LOOP('',(#655));
#450=EDGE_LOOP('',(#656));
#451=EDGE_LOOP('',(#657));
#452=EDGE_LOOP('',(#658));
#453=EDGE_LOOP('',(#659));
#454=EDGE_LOOP('',(#660));
#455=EDGE_LOOP('',(#661));
#456=EDGE_LOOP('',(#662));
#457=EDGE_LOOP('',(#663));
#458=EDGE_LOOP('',(#664));
#459=EDGE_LOOP('',(#665));
#460=EDGE_LOOP('',(#666));
#461=EDGE_LOOP('',(#667));
#462=EDGE_LOOP('',(#668));
#463=EDGE_LOOP('',(#669));
#464=EDGE_LOOP('',(#670));
#465=EDGE_LOOP('',(#671));
#466=EDGE_LOOP('',(#672));
#467=EDGE_LOOP('',(#673));
#468=EDGE_LOOP('',(#674));
#469=EDGE_LOOP('',(#675));
#470=EDGE_LOOP('',(#676));
#471=EDGE_LOOP('',(#677));
#472=EDGE_LOOP('',(#678));
#473=EDGE_LOOP('',(#679));
#474=EDGE_LOOP('',(#680));
#475=EDGE_LOOP('',(#681));
#476=EDGE_LOOP('',(#682));
#477=EDGE_LOOP('',(#683));
#478=EDGE_LOOP('',(#684));
#479=EDGE_LOOP('',(#685));
#480=EDGE_LOOP('',(#686));
#481=EDGE_LOOP('',(#687));
#482=EDGE_LOOP('',(#688));
#483=EDGE_LOOP('',(#689));
#484=EDGE_LOOP('',(#690));
#485=EDGE_LOOP('',(#691));
#486=EDGE_LOOP('',(#692));
#487=EDGE_LOOP('',(#693));
#488=EDGE_LOOP('',(#694));
#489=EDGE_LOOP('',(#695));
#490=EDGE_LOOP('',(#696));
#491=EDGE_LOOP('',(#697));
#492=EDGE_LOOP('',(#698));
#493=EDGE_LOOP('',(#699));
#494=EDGE_LOOP('',(#700));
#495=EDGE_LOOP('',(#701));
#496=EDGE_LOOP('',(#702));
#497=EDGE_LOOP('',(#703));
#498=EDGE_LOOP('',(#704));
#499=EDGE_LOOP('',(#705));
#500=EDGE_LOOP('',(#706));
#501=EDGE_LOOP('',(#707));
#502=EDGE_LOOP('',(#708));
#503=EDGE_LOOP('',(#709));
#504=EDGE_LOOP('',(#710));
#505=EDGE_LOOP('',(#711));
#506=EDGE_LOOP('',(#712));
#507=EDGE_LOOP('',(#713));
#508=EDGE_LOOP('',(#714));
#509=EDGE_LOOP('',(#715));
#510=EDGE_LOOP('',(#716));
#511=EDGE_LOOP('',(#717));
#512=EDGE_LOOP('',(#718));
#513=EDGE_LOOP('',(#719));
#514=EDGE_LOOP('',(#720));
#515=EDGE_LOOP('',(#721));
#516=EDGE_LOOP('',(#722));
#517=EDGE_LOOP('',(#723));
#518=EDGE_LOOP('',(#724));
#519=EDGE_LOOP('',(#725));
#520=EDGE_LOOP('',(#726));
#521=EDGE_LOOP('',(#727));
#522=EDGE_LOOP('',(#728));
#523=EDGE_LOOP('',(#729));
#524=EDGE_LOOP('',(#730));
#525=EDGE_LOOP('',(#731));
#526=EDGE_LOOP('',(#732));
#527=EDGE_LOOP('',(#733));
#528=EDGE_LOOP('',(#734));
#529=EDGE_LOOP('',(#735));
#530=EDGE_LOOP('',(#736));
#531=EDGE_LOOP('',(#737));
#532=EDGE_LOOP('',(#738,#739,#740,#741));
#533=EDGE_LOOP('',(#742,#743,#744,#745));
#534=EDGE_LOOP('',(#746,#747,#748,#749));
#535=EDGE_LOOP('',(#750,#751,#752,#753));
#536=EDGE_LOOP('',(#754));
#537=EDGE_LOOP('',(#755));
#538=EDGE_LOOP('',(#756));
#539=EDGE_LOOP('',(#757));
#540=EDGE_LOOP('',(#758));
#541=EDGE_LOOP('',(#759));
#542=EDGE_LOOP('',(#760));
#543=EDGE_LOOP('',(#761));
#544=EDGE_LOOP('',(#762));
#545=EDGE_LOOP('',(#763));
#546=EDGE_LOOP('',(#764));
#547=EDGE_LOOP('',(#765));
#548=EDGE_LOOP('',(#766));
#549=EDGE_LOOP('',(#767));
#550=EDGE_LOOP('',(#768));
#551=EDGE_LOOP('',(#769));
#552=EDGE_LOOP('',(#770));
#553=EDGE_LOOP('',(#771));
#554=EDGE_LOOP('',(#772));
#555=EDGE_LOOP('',(#773));
#556=EDGE_LOOP('',(#774));
#557=EDGE_LOOP('',(#775));
#558=EDGE_LOOP('',(#776));
#559=EDGE_LOOP('',(#777));
#560=EDGE_LOOP('',(#778));
#561=EDGE_LOOP('',(#779));
#562=EDGE_LOOP('',(#780));
#563=EDGE_LOOP('',(#781));
#564=EDGE_LOOP('',(#782));
#565=EDGE_LOOP('',(#783));
#566=EDGE_LOOP('',(#784));
#567=EDGE_LOOP('',(#785));
#568=EDGE_LOOP('',(#786));
#569=EDGE_LOOP('',(#787));
#570=EDGE_LOOP('',(#788));
#571=EDGE_LOOP('',(#789));
#572=EDGE_LOOP('',(#790));
#573=EDGE_LOOP('',(#791));
#574=EDGE_LOOP('',(#792));
#575=EDGE_LOOP('',(#793));
#576=EDGE_LOOP('',(#794));
#577=EDGE_LOOP('',(#795));
#578=EDGE_LOOP('',(#796));
#579=EDGE_LOOP('',(#797));
#580=EDGE_LOOP('',(#798));
#581=EDGE_LOOP('',(#799));
#582=EDGE_LOOP('',(#800));
#583=EDGE_LOOP('',(#801));
#584=EDGE_LOOP('',(#802));
#585=EDGE_LOOP('',(#803));
#586=EDGE_LOOP('',(#804,#805,#806,#807));
#587=EDGE_LOOP('',(#808,#809,#810,#811));
#588=EDGE_LOOP('',(#812));
#589=EDGE_LOOP('',(#813));
#590=ORIENTED_EDGE('',*,*,#922,.T.);
#591=ORIENTED_EDGE('',*,*,#923,.F.);
#592=ORIENTED_EDGE('',*,*,#924,.T.);
#593=ORIENTED_EDGE('',*,*,#925,.F.);
#594=ORIENTED_EDGE('',*,*,#926,.T.);
#595=ORIENTED_EDGE('',*,*,#927,.F.);
#596=ORIENTED_EDGE('',*,*,#928,.T.);
#597=ORIENTED_EDGE('',*,*,#929,.F.);
#598=ORIENTED_EDGE('',*,*,#930,.T.);
#599=ORIENTED_EDGE('',*,*,#931,.F.);
#600=ORIENTED_EDGE('',*,*,#932,.T.);
#601=ORIENTED_EDGE('',*,*,#933,.F.);
#602=ORIENTED_EDGE('',*,*,#934,.T.);
#603=ORIENTED_EDGE('',*,*,#935,.F.);
#604=ORIENTED_EDGE('',*,*,#936,.T.);
#605=ORIENTED_EDGE('',*,*,#937,.F.);
#606=ORIENTED_EDGE('',*,*,#938,.T.);
#607=ORIENTED_EDGE('',*,*,#939,.F.);
#608=ORIENTED_EDGE('',*,*,#940,.T.);
#609=ORIENTED_EDGE('',*,*,#941,.F.);
#610=ORIENTED_EDGE('',*,*,#942,.T.);
#611=ORIENTED_EDGE('',*,*,#943,.F.);
#612=ORIENTED_EDGE('',*,*,#944,.T.);
#613=ORIENTED_EDGE('',*,*,#945,.F.);
#614=ORIENTED_EDGE('',*,*,#946,.T.);
#615=ORIENTED_EDGE('',*,*,#947,.F.);
#616=ORIENTED_EDGE('',*,*,#948,.T.);
#617=ORIENTED_EDGE('',*,*,#949,.F.);
#618=ORIENTED_EDGE('',*,*,#950,.T.);
#619=ORIENTED_EDGE('',*,*,#951,.F.);
#620=ORIENTED_EDGE('',*,*,#952,.T.);
#621=ORIENTED_EDGE('',*,*,#953,.F.);
#622=ORIENTED_EDGE('',*,*,#954,.T.);
#623=ORIENTED_EDGE('',*,*,#955,.F.);
#624=ORIENTED_EDGE('',*,*,#956,.T.);
#625=ORIENTED_EDGE('',*,*,#957,.F.);
#626=ORIENTED_EDGE('',*,*,#958,.T.);
#627=ORIENTED_EDGE('',*,*,#959,.F.);
#628=ORIENTED_EDGE('',*,*,#960,.T.);
#629=ORIENTED_EDGE('',*,*,#961,.F.);
#630=ORIENTED_EDGE('',*,*,#962,.T.);
#631=ORIENTED_EDGE('',*,*,#963,.F.);
#632=ORIENTED_EDGE('',*,*,#964,.T.);
#633=ORIENTED_EDGE('',*,*,#965,.F.);
#634=ORIENTED_EDGE('',*,*,#966,.T.);
#635=ORIENTED_EDGE('',*,*,#967,.F.);
#636=ORIENTED_EDGE('',*,*,#968,.T.);
#637=ORIENTED_EDGE('',*,*,#969,.F.);
#638=ORIENTED_EDGE('',*,*,#970,.T.);
#639=ORIENTED_EDGE('',*,*,#971,.F.);
#640=ORIENTED_EDGE('',*,*,#972,.T.);
#641=ORIENTED_EDGE('',*,*,#973,.F.);
#642=ORIENTED_EDGE('',*,*,#974,.T.);
#643=ORIENTED_EDGE('',*,*,#975,.F.);
#644=ORIENTED_EDGE('',*,*,#976,.T.);
#645=ORIENTED_EDGE('',*,*,#977,.F.);
#646=ORIENTED_EDGE('',*,*,#978,.T.);
#647=ORIENTED_EDGE('',*,*,#979,.F.);
#648=ORIENTED_EDGE('',*,*,#980,.T.);
#649=ORIENTED_EDGE('',*,*,#981,.F.);
#650=ORIENTED_EDGE('',*,*,#982,.T.);
#651=ORIENTED_EDGE('',*,*,#983,.F.);
#652=ORIENTED_EDGE('',*,*,#984,.T.);
#653=ORIENTED_EDGE('',*,*,#985,.F.);
#654=ORIENTED_EDGE('',*,*,#986,.T.);
#655=ORIENTED_EDGE('',*,*,#987,.F.);
#656=ORIENTED_EDGE('',*,*,#988,.T.);
#657=ORIENTED_EDGE('',*,*,#989,.F.);
#658=ORIENTED_EDGE('',*,*,#990,.T.);
#659=ORIENTED_EDGE('',*,*,#991,.F.);
#660=ORIENTED_EDGE('',*,*,#992,.T.);
#661=ORIENTED_EDGE('',*,*,#993,.F.);
#662=ORIENTED_EDGE('',*,*,#994,.T.);
#663=ORIENTED_EDGE('',*,*,#995,.F.);
#664=ORIENTED_EDGE('',*,*,#996,.T.);
#665=ORIENTED_EDGE('',*,*,#997,.F.);
#666=ORIENTED_EDGE('',*,*,#998,.T.);
#667=ORIENTED_EDGE('',*,*,#999,.F.);
#668=ORIENTED_EDGE('',*,*,#1000,.T.);
#669=ORIENTED_EDGE('',*,*,#1001,.F.);
#670=ORIENTED_EDGE('',*,*,#1002,.T.);
#671=ORIENTED_EDGE('',*,*,#1003,.F.);
#672=ORIENTED_EDGE('',*,*,#1004,.T.);
#673=ORIENTED_EDGE('',*,*,#1005,.F.);
#674=ORIENTED_EDGE('',*,*,#1006,.T.);
#675=ORIENTED_EDGE('',*,*,#1007,.F.);
#676=ORIENTED_EDGE('',*,*,#1008,.T.);
#677=ORIENTED_EDGE('',*,*,#1009,.F.);
#678=ORIENTED_EDGE('',*,*,#1010,.T.);
#679=ORIENTED_EDGE('',*,*,#1011,.F.);
#680=ORIENTED_EDGE('',*,*,#1012,.T.);
#681=ORIENTED_EDGE('',*,*,#1013,.F.);
#682=ORIENTED_EDGE('',*,*,#1014,.T.);
#683=ORIENTED_EDGE('',*,*,#1015,.F.);
#684=ORIENTED_EDGE('',*,*,#1016,.T.);
#685=ORIENTED_EDGE('',*,*,#1017,.F.);
#686=ORIENTED_EDGE('',*,*,#1018,.T.);
#687=ORIENTED_EDGE('',*,*,#1019,.F.);
#688=ORIENTED_EDGE('',*,*,#923,.T.);
#689=ORIENTED_EDGE('',*,*,#925,.T.);
#690=ORIENTED_EDGE('',*,*,#927,.T.);
#691=ORIENTED_EDGE('',*,*,#929,.T.);
#692=ORIENTED_EDGE('',*,*,#931,.T.);
#693=ORIENTED_EDGE('',*,*,#933,.T.);
#694=ORIENTED_EDGE('',*,*,#935,.T.);
#695=ORIENTED_EDGE('',*,*,#937,.T.);
#696=ORIENTED_EDGE('',*,*,#939,.T.);
#697=ORIENTED_EDGE('',*,*,#941,.T.);
#698=ORIENTED_EDGE('',*,*,#943,.T.);
#699=ORIENTED_EDGE('',*,*,#945,.T.);
#700=ORIENTED_EDGE('',*,*,#947,.T.);
#701=ORIENTED_EDGE('',*,*,#949,.T.);
#702=ORIENTED_EDGE('',*,*,#951,.T.);
#703=ORIENTED_EDGE('',*,*,#953,.T.);
#704=ORIENTED_EDGE('',*,*,#955,.T.);
#705=ORIENTED_EDGE('',*,*,#957,.T.);
#706=ORIENTED_EDGE('',*,*,#959,.T.);
#707=ORIENTED_EDGE('',*,*,#961,.T.);
#708=ORIENTED_EDGE('',*,*,#963,.T.);
#709=ORIENTED_EDGE('',*,*,#965,.T.);
#710=ORIENTED_EDGE('',*,*,#967,.T.);
#711=ORIENTED_EDGE('',*,*,#969,.T.);
#712=ORIENTED_EDGE('',*,*,#971,.T.);
#713=ORIENTED_EDGE('',*,*,#973,.T.);
#714=ORIENTED_EDGE('',*,*,#975,.T.);
#715=ORIENTED_EDGE('',*,*,#977,.T.);
#716=ORIENTED_EDGE('',*,*,#979,.T.);
#717=ORIENTED_EDGE('',*,*,#981,.T.);
#718=ORIENTED_EDGE('',*,*,#983,.T.);
#719=ORIENTED_EDGE('',*,*,#985,.T.);
#720=ORIENTED_EDGE('',*,*,#987,.T.);
#721=ORIENTED_EDGE('',*,*,#989,.T.);
#722=ORIENTED_EDGE('',*,*,#991,.T.);
#723=ORIENTED_EDGE('',*,*,#993,.T.);
#724=ORIENTED_EDGE('',*,*,#995,.T.);
#725=ORIENTED_EDGE('',*,*,#997,.T.);
#726=ORIENTED_EDGE('',*,*,#999,.T.);
#727=ORIENTED_EDGE('',*,*,#1001,.T.);
#728=ORIENTED_EDGE('',*,*,#1003,.T.);
#729=ORIENTED_EDGE('',*,*,#1005,.T.);
#730=ORIENTED_EDGE('',*,*,#1007,.T.);
#731=ORIENTED_EDGE('',*,*,#1009,.T.);
#732=ORIENTED_EDGE('',*,*,#1011,.T.);
#733=ORIENTED_EDGE('',*,*,#1013,.T.);
#734=ORIENTED_EDGE('',*,*,#1015,.T.);
#735=ORIENTED_EDGE('',*,*,#1017,.T.);
#736=ORIENTED_EDGE('',*,*,#1019,.T.);
#737=ORIENTED_EDGE('',*,*,#1020,.T.);
#738=ORIENTED_EDGE('',*,*,#1021,.F.);
#739=ORIENTED_EDGE('',*,*,#1022,.F.);
#740=ORIENTED_EDGE('',*,*,#1023,.F.);
#741=ORIENTED_EDGE('',*,*,#1024,.F.);
#742=ORIENTED_EDGE('',*,*,#1025,.T.);
#743=ORIENTED_EDGE('',*,*,#1021,.T.);
#744=ORIENTED_EDGE('',*,*,#1026,.F.);
#745=ORIENTED_EDGE('',*,*,#1027,.T.);
#746=ORIENTED_EDGE('',*,*,#1026,.T.);
#747=ORIENTED_EDGE('',*,*,#1024,.T.);
#748=ORIENTED_EDGE('',*,*,#1028,.F.);
#749=ORIENTED_EDGE('',*,*,#1029,.T.);
#750=ORIENTED_EDGE('',*,*,#1028,.T.);
#751=ORIENTED_EDGE('',*,*,#1023,.T.);
#752=ORIENTED_EDGE('',*,*,#1030,.F.);
#753=ORIENTED_EDGE('',*,*,#1031,.T.);
#754=ORIENTED_EDGE('',*,*,#922,.F.);
#755=ORIENTED_EDGE('',*,*,#924,.F.);
#756=ORIENTED_EDGE('',*,*,#926,.F.);
#757=ORIENTED_EDGE('',*,*,#928,.F.);
#758=ORIENTED_EDGE('',*,*,#930,.F.);
#759=ORIENTED_EDGE('',*,*,#932,.F.);
#760=ORIENTED_EDGE('',*,*,#934,.F.);
#761=ORIENTED_EDGE('',*,*,#936,.F.);
#762=ORIENTED_EDGE('',*,*,#938,.F.);
#763=ORIENTED_EDGE('',*,*,#940,.F.);
#764=ORIENTED_EDGE('',*,*,#942,.F.);
#765=ORIENTED_EDGE('',*,*,#944,.F.);
#766=ORIENTED_EDGE('',*,*,#946,.F.);
#767=ORIENTED_EDGE('',*,*,#948,.F.);
#768=ORIENTED_EDGE('',*,*,#950,.F.);
#769=ORIENTED_EDGE('',*,*,#952,.F.);
#770=ORIENTED_EDGE('',*,*,#954,.F.);
#771=ORIENTED_EDGE('',*,*,#956,.F.);
#772=ORIENTED_EDGE('',*,*,#958,.F.);
#773=ORIENTED_EDGE('',*,*,#960,.F.);
#774=ORIENTED_EDGE('',*,*,#962,.F.);
#775=ORIENTED_EDGE('',*,*,#964,.F.);
#776=ORIENTED_EDGE('',*,*,#966,.F.);
#777=ORIENTED_EDGE('',*,*,#968,.F.);
#778=ORIENTED_EDGE('',*,*,#970,.F.);
#779=ORIENTED_EDGE('',*,*,#972,.F.);
#780=ORIENTED_EDGE('',*,*,#974,.F.);
#781=ORIENTED_EDGE('',*,*,#976,.F.);
#782=ORIENTED_EDGE('',*,*,#978,.F.);
#783=ORIENTED_EDGE('',*,*,#980,.F.);
#784=ORIENTED_EDGE('',*,*,#982,.F.);
#785=ORIENTED_EDGE('',*,*,#984,.F.);
#786=ORIENTED_EDGE('',*,*,#986,.F.);
#787=ORIENTED_EDGE('',*,*,#988,.F.);
#788=ORIENTED_EDGE('',*,*,#990,.F.);
#789=ORIENTED_EDGE('',*,*,#992,.F.);
#790=ORIENTED_EDGE('',*,*,#994,.F.);
#791=ORIENTED_EDGE('',*,*,#996,.F.);
#792=ORIENTED_EDGE('',*,*,#998,.F.);
#793=ORIENTED_EDGE('',*,*,#1000,.F.);
#794=ORIENTED_EDGE('',*,*,#1002,.F.);
#795=ORIENTED_EDGE('',*,*,#1004,.F.);
#796=ORIENTED_EDGE('',*,*,#1006,.F.);
#797=ORIENTED_EDGE('',*,*,#1008,.F.);
#798=ORIENTED_EDGE('',*,*,#1010,.F.);
#799=ORIENTED_EDGE('',*,*,#1012,.F.);
#800=ORIENTED_EDGE('',*,*,#1014,.F.);
#801=ORIENTED_EDGE('',*,*,#1016,.F.);
#802=ORIENTED_EDGE('',*,*,#1018,.F.);
#803=ORIENTED_EDGE('',*,*,#1032,.F.);
#804=ORIENTED_EDGE('',*,*,#1033,.F.);
#805=ORIENTED_EDGE('',*,*,#1027,.F.);
#806=ORIENTED_EDGE('',*,*,#1029,.F.);
#807=ORIENTED_EDGE('',*,*,#1031,.F.);
#808=ORIENTED_EDGE('',*,*,#1033,.T.);
#809=ORIENTED_EDGE('',*,*,#1030,.T.);
#810=ORIENTED_EDGE('',*,*,#1022,.T.);
#811=ORIENTED_EDGE('',*,*,#1025,.F.);
#812=ORIENTED_EDGE('',*,*,#1032,.T.);
#813=ORIENTED_EDGE('',*,*,#1020,.F.);
#814=VERTEX_POINT('',#1619);
#815=VERTEX_POINT('',#1621);
#816=VERTEX_POINT('',#1624);
#817=VERTEX_POINT('',#1626);
#818=VERTEX_POINT('',#1629);
#819=VERTEX_POINT('',#1631);
#820=VERTEX_POINT('',#1634);
#821=VERTEX_POINT('',#1636);
#822=VERTEX_POINT('',#1639);
#823=VERTEX_POINT('',#1641);
#824=VERTEX_POINT('',#1644);
#825=VERTEX_POINT('',#1646);
#826=VERTEX_POINT('',#1649);
#827=VERTEX_POINT('',#1651);
#828=VERTEX_POINT('',#1654);
#829=VERTEX_POINT('',#1656);
#830=VERTEX_POINT('',#1659);
#831=VERTEX_POINT('',#1661);
#832=VERTEX_POINT('',#1664);
#833=VERTEX_POINT('',#1666);
#834=VERTEX_POINT('',#1669);
#835=VERTEX_POINT('',#1671);
#836=VERTEX_POINT('',#1674);
#837=VERTEX_POINT('',#1676);
#838=VERTEX_POINT('',#1679);
#839=VERTEX_POINT('',#1681);
#840=VERTEX_POINT('',#1684);
#841=VERTEX_POINT('',#1686);
#842=VERTEX_POINT('',#1689);
#843=VERTEX_POINT('',#1691);
#844=VERTEX_POINT('',#1694);
#845=VERTEX_POINT('',#1696);
#846=VERTEX_POINT('',#1699);
#847=VERTEX_POINT('',#1701);
#848=VERTEX_POINT('',#1704);
#849=VERTEX_POINT('',#1706);
#850=VERTEX_POINT('',#1709);
#851=VERTEX_POINT('',#1711);
#852=VERTEX_POINT('',#1714);
#853=VERTEX_POINT('',#1716);
#854=VERTEX_POINT('',#1719);
#855=VERTEX_POINT('',#1721);
#856=VERTEX_POINT('',#1724);
#857=VERTEX_POINT('',#1726);
#858=VERTEX_POINT('',#1729);
#859=VERTEX_POINT('',#1731);
#860=VERTEX_POINT('',#1734);
#861=VERTEX_POINT('',#1736);
#862=VERTEX_POINT('',#1739);
#863=VERTEX_POINT('',#1741);
#864=VERTEX_POINT('',#1744);
#865=VERTEX_POINT('',#1746);
#866=VERTEX_POINT('',#1749);
#867=VERTEX_POINT('',#1751);
#868=VERTEX_POINT('',#1754);
#869=VERTEX_POINT('',#1756);
#870=VERTEX_POINT('',#1759);
#871=VERTEX_POINT('',#1761);
#872=VERTEX_POINT('',#1764);
#873=VERTEX_POINT('',#1766);
#874=VERTEX_POINT('',#1769);
#875=VERTEX_POINT('',#1771);
#876=VERTEX_POINT('',#1774);
#877=VERTEX_POINT('',#1776);
#878=VERTEX_POINT('',#1779);
#879=VERTEX_POINT('',#1781);
#880=VERTEX_POINT('',#1784);
#881=VERTEX_POINT('',#1786);
#882=VERTEX_POINT('',#1789);
#883=VERTEX_POINT('',#1791);
#884=VERTEX_POINT('',#1794);
#885=VERTEX_POINT('',#1796);
#886=VERTEX_POINT('',#1799);
#887=VERTEX_POINT('',#1801);
#888=VERTEX_POINT('',#1804);
#889=VERTEX_POINT('',#1806);
#890=VERTEX_POINT('',#1809);
#891=VERTEX_POINT('',#1811);
#892=VERTEX_POINT('',#1814);
#893=VERTEX_POINT('',#1816);
#894=VERTEX_POINT('',#1819);
#895=VERTEX_POINT('',#1821);
#896=VERTEX_POINT('',#1824);
#897=VERTEX_POINT('',#1826);
#898=VERTEX_POINT('',#1829);
#899=VERTEX_POINT('',#1831);
#900=VERTEX_POINT('',#1834);
#901=VERTEX_POINT('',#1836);
#902=VERTEX_POINT('',#1839);
#903=VERTEX_POINT('',#1841);
#904=VERTEX_POINT('',#1844);
#905=VERTEX_POINT('',#1846);
#906=VERTEX_POINT('',#1849);
#907=VERTEX_POINT('',#1851);
#908=VERTEX_POINT('',#1854);
#909=VERTEX_POINT('',#1856);
#910=VERTEX_POINT('',#1859);
#911=VERTEX_POINT('',#1861);
#912=VERTEX_POINT('',#1864);
#913=VERTEX_POINT('',#1866);
#914=VERTEX_POINT('',#1867);
#915=VERTEX_POINT('',#1869);
#916=VERTEX_POINT('',#1871);
#917=VERTEX_POINT('',#1875);
#918=VERTEX_POINT('',#1877);
#919=VERTEX_POINT('',#1881);
#920=VERTEX_POINT('',#1885);
#921=VERTEX_POINT('',#1889);
#922=EDGE_CURVE('',#814,#814,#1034,.T.);
#923=EDGE_CURVE('',#815,#815,#1035,.T.);
#924=EDGE_CURVE('',#816,#816,#1036,.T.);
#925=EDGE_CURVE('',#817,#817,#1037,.T.);
#926=EDGE_CURVE('',#818,#818,#1038,.T.);
#927=EDGE_CURVE('',#819,#819,#1039,.T.);
#928=EDGE_CURVE('',#820,#820,#1040,.T.);
#929=EDGE_CURVE('',#821,#821,#1041,.T.);
#930=EDGE_CURVE('',#822,#822,#1042,.T.);
#931=EDGE_CURVE('',#823,#823,#1043,.T.);
#932=EDGE_CURVE('',#824,#824,#1044,.T.);
#933=EDGE_CURVE('',#825,#825,#1045,.T.);
#934=EDGE_CURVE('',#826,#826,#1046,.T.);
#935=EDGE_CURVE('',#827,#827,#1047,.T.);
#936=EDGE_CURVE('',#828,#828,#1048,.T.);
#937=EDGE_CURVE('',#829,#829,#1049,.T.);
#938=EDGE_CURVE('',#830,#830,#1050,.T.);
#939=EDGE_CURVE('',#831,#831,#1051,.T.);
#940=EDGE_CURVE('',#832,#832,#1052,.T.);
#941=EDGE_CURVE('',#833,#833,#1053,.T.);
#942=EDGE_CURVE('',#834,#834,#1054,.T.);
#943=EDGE_CURVE('',#835,#835,#1055,.T.);
#944=EDGE_CURVE('',#836,#836,#1056,.T.);
#945=EDGE_CURVE('',#837,#837,#1057,.T.);
#946=EDGE_CURVE('',#838,#838,#1058,.T.);
#947=EDGE_CURVE('',#839,#839,#1059,.T.);
#948=EDGE_CURVE('',#840,#840,#1060,.T.);
#949=EDGE_CURVE('',#841,#841,#1061,.T.);
#950=EDGE_CURVE('',#842,#842,#1062,.T.);
#951=EDGE_CURVE('',#843,#843,#1063,.T.);
#952=EDGE_CURVE('',#844,#844,#1064,.T.);
#953=EDGE_CURVE('',#845,#845,#1065,.T.);
#954=EDGE_CURVE('',#846,#846,#1066,.T.);
#955=EDGE_CURVE('',#847,#847,#1067,.T.);
#956=EDGE_CURVE('',#848,#848,#1068,.T.);
#957=EDGE_CURVE('',#849,#849,#1069,.T.);
#958=EDGE_CURVE('',#850,#850,#1070,.T.);
#959=EDGE_CURVE('',#851,#851,#1071,.T.);
#960=EDGE_CURVE('',#852,#852,#1072,.T.);
#961=EDGE_CURVE('',#853,#853,#1073,.T.);
#962=EDGE_CURVE('',#854,#854,#1074,.T.);
#963=EDGE_CURVE('',#855,#855,#1075,.T.);
#964=EDGE_CURVE('',#856,#856,#1076,.T.);
#965=EDGE_CURVE('',#857,#857,#1077,.T.);
#966=EDGE_CURVE('',#858,#858,#1078,.T.);
#967=EDGE_CURVE('',#859,#859,#1079,.T.);
#968=EDGE_CURVE('',#860,#860,#1080,.T.);
#969=EDGE_CURVE('',#861,#861,#1081,.T.);
#970=EDGE_CURVE('',#862,#862,#1082,.T.);
#971=EDGE_CURVE('',#863,#863,#1083,.T.);
#972=EDGE_CURVE('',#864,#864,#1084,.T.);
#973=EDGE_CURVE('',#865,#865,#1085,.T.);
#974=EDGE_CURVE('',#866,#866,#1086,.T.);
#975=EDGE_CURVE('',#867,#867,#1087,.T.);
#976=EDGE_CURVE('',#868,#868,#1088,.T.);
#977=EDGE_CURVE('',#869,#869,#1089,.T.);
#978=EDGE_CURVE('',#870,#870,#1090,.T.);
#979=EDGE_CURVE('',#871,#871,#1091,.T.);
#980=EDGE_CURVE('',#872,#872,#1092,.T.);
#981=EDGE_CURVE('',#873,#873,#1093,.T.);
#982=EDGE_CURVE('',#874,#874,#1094,.T.);
#983=EDGE_CURVE('',#875,#875,#1095,.T.);
#984=EDGE_CURVE('',#876,#876,#1096,.T.);
#985=EDGE_CURVE('',#877,#877,#1097,.T.);
#986=EDGE_CURVE('',#878,#878,#1098,.T.);
#987=EDGE_CURVE('',#879,#879,#1099,.T.);
#988=EDGE_CURVE('',#880,#880,#1100,.T.);
#989=EDGE_CURVE('',#881,#881,#1101,.T.);
#990=EDGE_CURVE('',#882,#882,#1102,.T.);
#991=EDGE_CURVE('',#883,#883,#1103,.T.);
#992=EDGE_CURVE('',#884,#884,#1104,.T.);
#993=EDGE_CURVE('',#885,#885,#1105,.T.);
#994=EDGE_CURVE('',#886,#886,#1106,.T.);
#995=EDGE_CURVE('',#887,#887,#1107,.T.);
#996=EDGE_CURVE('',#888,#888,#1108,.T.);
#997=EDGE_CURVE('',#889,#889,#1109,.T.);
#998=EDGE_CURVE('',#890,#890,#1110,.T.);
#999=EDGE_CURVE('',#891,#891,#1111,.T.);
#1000=EDGE_CURVE('',#892,#892,#1112,.T.);
#1001=EDGE_CURVE('',#893,#893,#1113,.T.);
#1002=EDGE_CURVE('',#894,#894,#1114,.T.);
#1003=EDGE_CURVE('',#895,#895,#1115,.T.);
#1004=EDGE_CURVE('',#896,#896,#1116,.T.);
#1005=EDGE_CURVE('',#897,#897,#1117,.T.);
#1006=EDGE_CURVE('',#898,#898,#1118,.T.);
#1007=EDGE_CURVE('',#899,#899,#1119,.T.);
#1008=EDGE_CURVE('',#900,#900,#1120,.T.);
#1009=EDGE_CURVE('',#901,#901,#1121,.T.);
#1010=EDGE_CURVE('',#902,#902,#1122,.T.);
#1011=EDGE_CURVE('',#903,#903,#1123,.T.);
#1012=EDGE_CURVE('',#904,#904,#1124,.T.);
#1013=EDGE_CURVE('',#905,#905,#1125,.T.);
#1014=EDGE_CURVE('',#906,#906,#1126,.T.);
#1015=EDGE_CURVE('',#907,#907,#1127,.T.);
#1016=EDGE_CURVE('',#908,#908,#1128,.T.);
#1017=EDGE_CURVE('',#909,#909,#1129,.T.);
#1018=EDGE_CURVE('',#910,#910,#1130,.T.);
#1019=EDGE_CURVE('',#911,#911,#1131,.T.);
#1020=EDGE_CURVE('',#912,#912,#1132,.T.);
#1021=EDGE_CURVE('',#913,#914,#52,.T.);
#1022=EDGE_CURVE('',#915,#913,#53,.T.);
#1023=EDGE_CURVE('',#916,#915,#54,.T.);
#1024=EDGE_CURVE('',#914,#916,#55,.T.);
#1025=EDGE_CURVE('',#917,#913,#56,.T.);
#1026=EDGE_CURVE('',#918,#914,#57,.T.);
#1027=EDGE_CURVE('',#918,#917,#58,.T.);
#1028=EDGE_CURVE('',#919,#916,#59,.T.);
#1029=EDGE_CURVE('',#919,#918,#60,.T.);
#1030=EDGE_CURVE('',#920,#915,#61,.T.);
#1031=EDGE_CURVE('',#920,#919,#62,.T.);
#1032=EDGE_CURVE('',#921,#921,#1133,.T.);
#1033=EDGE_CURVE('',#917,#920,#63,.T.);
#1034=CIRCLE('',#1135,7.8945);
#1035=CIRCLE('',#1136,7.8945);
#1036=CIRCLE('',#1138,7.8945);
#1037=CIRCLE('',#1139,7.8945);
#1038=CIRCLE('',#1141,6.5615);
#1039=CIRCLE('',#1142,6.5615);
#1040=CIRCLE('',#1144,7.8945);
#1041=CIRCLE('',#1145,7.8945);
#1042=CIRCLE('',#1147,7.8945);
#1043=CIRCLE('',#1148,7.8945);
#1044=CIRCLE('',#1150,6.5615);
#1045=CIRCLE('',#1151,6.5615);
#1046=CIRCLE('',#1153,7.8945);
#1047=CIRCLE('',#1154,7.8945);
#1048=CIRCLE('',#1156,7.8945);
#1049=CIRCLE('',#1157,7.8945);
#1050=CIRCLE('',#1159,6.5615);
#1051=CIRCLE('',#1160,6.5615);
#1052=CIRCLE('',#1162,6.5615);
#1053=CIRCLE('',#1163,6.5615);
#1054=CIRCLE('',#1165,6.5615);
#1055=CIRCLE('',#1166,6.5615);
#1056=CIRCLE('',#1168,6.5615);
#1057=CIRCLE('',#1169,6.5615);
#1058=CIRCLE('',#1171,6.5615);
#1059=CIRCLE('',#1172,6.5615);
#1060=CIRCLE('',#1174,6.5615);
#1061=CIRCLE('',#1175,6.5615);
#1062=CIRCLE('',#1177,6.5615);
#1063=CIRCLE('',#1178,6.5615);
#1064=CIRCLE('',#1180,6.5615);
#1065=CIRCLE('',#1181,6.5615);
#1066=CIRCLE('',#1183,6.5615);
#1067=CIRCLE('',#1184,6.5615);
#1068=CIRCLE('',#1186,6.5615);
#1069=CIRCLE('',#1187,6.5615);
#1070=CIRCLE('',#1189,6.5615);
#1071=CIRCLE('',#1190,6.5615);
#1072=CIRCLE('',#1192,3.673);
#1073=CIRCLE('',#1193,3.673);
#1074=CIRCLE('',#1195,3.673);
#1075=CIRCLE('',#1196,3.673);
#1076=CIRCLE('',#1198,6.5615);
#1077=CIRCLE('',#1199,6.5615);
#1078=CIRCLE('',#1201,3.673);
#1079=CIRCLE('',#1202,3.673);
#1080=CIRCLE('',#1204,3.673);
#1081=CIRCLE('',#1205,3.673);
#1082=CIRCLE('',#1207,6.5615);
#1083=CIRCLE('',#1208,6.5615);
#1084=CIRCLE('',#1210,6.5615);
#1085=CIRCLE('',#1211,6.5615);
#1086=CIRCLE('',#1213,6.5615);
#1087=CIRCLE('',#1214,6.5615);
#1088=CIRCLE('',#1216,6.5615);
#1089=CIRCLE('',#1217,6.5615);
#1090=CIRCLE('',#1219,6.5615);
#1091=CIRCLE('',#1220,6.5615);
#1092=CIRCLE('',#1222,6.5615);
#1093=CIRCLE('',#1223,6.5615);
#1094=CIRCLE('',#1225,6.5615);
#1095=CIRCLE('',#1226,6.5615);
#1096=CIRCLE('',#1228,3.67300000000001);
#1097=CIRCLE('',#1229,3.67300000000001);
#1098=CIRCLE('',#1231,3.67300000000001);
#1099=CIRCLE('',#1232,3.67300000000001);
#1100=CIRCLE('',#1234,6.5615);
#1101=CIRCLE('',#1235,6.5615);
#1102=CIRCLE('',#1237,6.5615);
#1103=CIRCLE('',#1238,6.5615);
#1104=CIRCLE('',#1240,6.5615);
#1105=CIRCLE('',#1241,6.5615);
#1106=CIRCLE('',#1243,6.5615);
#1107=CIRCLE('',#1244,6.5615);
#1108=CIRCLE('',#1246,6.5615);
#1109=CIRCLE('',#1247,6.5615);
#1110=CIRCLE('',#1249,6.5615);
#1111=CIRCLE('',#1250,6.5615);
#1112=CIRCLE('',#1252,7.8945);
#1113=CIRCLE('',#1253,7.8945);
#1114=CIRCLE('',#1255,6.5615);
#1115=CIRCLE('',#1256,6.5615);
#1116=CIRCLE('',#1258,3.67300000000001);
#1117=CIRCLE('',#1259,3.67300000000001);
#1118=CIRCLE('',#1261,3.67300000000001);
#1119=CIRCLE('',#1262,3.67300000000001);
#1120=CIRCLE('',#1264,6.5615);
#1121=CIRCLE('',#1265,6.5615);
#1122=CIRCLE('',#1267,6.5615);
#1123=CIRCLE('',#1268,6.5615);
#1124=CIRCLE('',#1270,6.5615);
#1125=CIRCLE('',#1271,6.5615);
#1126=CIRCLE('',#1273,6.5615);
#1127=CIRCLE('',#1274,6.5615);
#1128=CIRCLE('',#1276,6.5615);
#1129=CIRCLE('',#1277,6.5615);
#1130=CIRCLE('',#1279,6.5615);
#1131=CIRCLE('',#1280,6.5615);
#1132=CIRCLE('',#1282,6.5615);
#1133=CIRCLE('',#1287,6.5615);
#1134=AXIS2_PLACEMENT_3D('',#1617,#1291,#1292);
#1135=AXIS2_PLACEMENT_3D('',#1618,#1293,#1294);
#1136=AXIS2_PLACEMENT_3D('',#1620,#1295,#1296);
#1137=AXIS2_PLACEMENT_3D('',#1622,#1297,#1298);
#1138=AXIS2_PLACEMENT_3D('',#1623,#1299,#1300);
#1139=AXIS2_PLACEMENT_3D('',#1625,#1301,#1302);
#1140=AXIS2_PLACEMENT_3D('',#1627,#1303,#1304);
#1141=AXIS2_PLACEMENT_3D('',#1628,#1305,#1306);
#1142=AXIS2_PLACEMENT_3D('',#1630,#1307,#1308);
#1143=AXIS2_PLACEMENT_3D('',#1632,#1309,#1310);
#1144=AXIS2_PLACEMENT_3D('',#1633,#1311,#1312);
#1145=AXIS2_PLACEMENT_3D('',#1635,#1313,#1314);
#1146=AXIS2_PLACEMENT_3D('',#1637,#1315,#1316);
#1147=AXIS2_PLACEMENT_3D('',#1638,#1317,#1318);
#1148=AXIS2_PLACEMENT_3D('',#1640,#1319,#1320);
#1149=AXIS2_PLACEMENT_3D('',#1642,#1321,#1322);
#1150=AXIS2_PLACEMENT_3D('',#1643,#1323,#1324);
#1151=AXIS2_PLACEMENT_3D('',#1645,#1325,#1326);
#1152=AXIS2_PLACEMENT_3D('',#1647,#1327,#1328);
#1153=AXIS2_PLACEMENT_3D('',#1648,#1329,#1330);
#1154=AXIS2_PLACEMENT_3D('',#1650,#1331,#1332);
#1155=AXIS2_PLACEMENT_3D('',#1652,#1333,#1334);
#1156=AXIS2_PLACEMENT_3D('',#1653,#1335,#1336);
#1157=AXIS2_PLACEMENT_3D('',#1655,#1337,#1338);
#1158=AXIS2_PLACEMENT_3D('',#1657,#1339,#1340);
#1159=AXIS2_PLACEMENT_3D('',#1658,#1341,#1342);
#1160=AXIS2_PLACEMENT_3D('',#1660,#1343,#1344);
#1161=AXIS2_PLACEMENT_3D('',#1662,#1345,#1346);
#1162=AXIS2_PLACEMENT_3D('',#1663,#1347,#1348);
#1163=AXIS2_PLACEMENT_3D('',#1665,#1349,#1350);
#1164=AXIS2_PLACEMENT_3D('',#1667,#1351,#1352);
#1165=AXIS2_PLACEMENT_3D('',#1668,#1353,#1354);
#1166=AXIS2_PLACEMENT_3D('',#1670,#1355,#1356);
#1167=AXIS2_PLACEMENT_3D('',#1672,#1357,#1358);
#1168=AXIS2_PLACEMENT_3D('',#1673,#1359,#1360);
#1169=AXIS2_PLACEMENT_3D('',#1675,#1361,#1362);
#1170=AXIS2_PLACEMENT_3D('',#1677,#1363,#1364);
#1171=AXIS2_PLACEMENT_3D('',#1678,#1365,#1366);
#1172=AXIS2_PLACEMENT_3D('',#1680,#1367,#1368);
#1173=AXIS2_PLACEMENT_3D('',#1682,#1369,#1370);
#1174=AXIS2_PLACEMENT_3D('',#1683,#1371,#1372);
#1175=AXIS2_PLACEMENT_3D('',#1685,#1373,#1374);
#1176=AXIS2_PLACEMENT_3D('',#1687,#1375,#1376);
#1177=AXIS2_PLACEMENT_3D('',#1688,#1377,#1378);
#1178=AXIS2_PLACEMENT_3D('',#1690,#1379,#1380);
#1179=AXIS2_PLACEMENT_3D('',#1692,#1381,#1382);
#1180=AXIS2_PLACEMENT_3D('',#1693,#1383,#1384);
#1181=AXIS2_PLACEMENT_3D('',#1695,#1385,#1386);
#1182=AXIS2_PLACEMENT_3D('',#1697,#1387,#1388);
#1183=AXIS2_PLACEMENT_3D('',#1698,#1389,#1390);
#1184=AXIS2_PLACEMENT_3D('',#1700,#1391,#1392);
#1185=AXIS2_PLACEMENT_3D('',#1702,#1393,#1394);
#1186=AXIS2_PLACEMENT_3D('',#1703,#1395,#1396);
#1187=AXIS2_PLACEMENT_3D('',#1705,#1397,#1398);
#1188=AXIS2_PLACEMENT_3D('',#1707,#1399,#1400);
#1189=AXIS2_PLACEMENT_3D('',#1708,#1401,#1402);
#1190=AXIS2_PLACEMENT_3D('',#1710,#1403,#1404);
#1191=AXIS2_PLACEMENT_3D('',#1712,#1405,#1406);
#1192=AXIS2_PLACEMENT_3D('',#1713,#1407,#1408);
#1193=AXIS2_PLACEMENT_3D('',#1715,#1409,#1410);
#1194=AXIS2_PLACEMENT_3D('',#1717,#1411,#1412);
#1195=AXIS2_PLACEMENT_3D('',#1718,#1413,#1414);
#1196=AXIS2_PLACEMENT_3D('',#1720,#1415,#1416);
#1197=AXIS2_PLACEMENT_3D('',#1722,#1417,#1418);
#1198=AXIS2_PLACEMENT_3D('',#1723,#1419,#1420);
#1199=AXIS2_PLACEMENT_3D('',#1725,#1421,#1422);
#1200=AXIS2_PLACEMENT_3D('',#1727,#1423,#1424);
#1201=AXIS2_PLACEMENT_3D('',#1728,#1425,#1426);
#1202=AXIS2_PLACEMENT_3D('',#1730,#1427,#1428);
#1203=AXIS2_PLACEMENT_3D('',#1732,#1429,#1430);
#1204=AXIS2_PLACEMENT_3D('',#1733,#1431,#1432);
#1205=AXIS2_PLACEMENT_3D('',#1735,#1433,#1434);
#1206=AXIS2_PLACEMENT_3D('',#1737,#1435,#1436);
#1207=AXIS2_PLACEMENT_3D('',#1738,#1437,#1438);
#1208=AXIS2_PLACEMENT_3D('',#1740,#1439,#1440);
#1209=AXIS2_PLACEMENT_3D('',#1742,#1441,#1442);
#1210=AXIS2_PLACEMENT_3D('',#1743,#1443,#1444);
#1211=AXIS2_PLACEMENT_3D('',#1745,#1445,#1446);
#1212=AXIS2_PLACEMENT_3D('',#1747,#1447,#1448);
#1213=AXIS2_PLACEMENT_3D('',#1748,#1449,#1450);
#1214=AXIS2_PLACEMENT_3D('',#1750,#1451,#1452);
#1215=AXIS2_PLACEMENT_3D('',#1752,#1453,#1454);
#1216=AXIS2_PLACEMENT_3D('',#1753,#1455,#1456);
#1217=AXIS2_PLACEMENT_3D('',#1755,#1457,#1458);
#1218=AXIS2_PLACEMENT_3D('',#1757,#1459,#1460);
#1219=AXIS2_PLACEMENT_3D('',#1758,#1461,#1462);
#1220=AXIS2_PLACEMENT_3D('',#1760,#1463,#1464);
#1221=AXIS2_PLACEMENT_3D('',#1762,#1465,#1466);
#1222=AXIS2_PLACEMENT_3D('',#1763,#1467,#1468);
#1223=AXIS2_PLACEMENT_3D('',#1765,#1469,#1470);
#1224=AXIS2_PLACEMENT_3D('',#1767,#1471,#1472);
#1225=AXIS2_PLACEMENT_3D('',#1768,#1473,#1474);
#1226=AXIS2_PLACEMENT_3D('',#1770,#1475,#1476);
#1227=AXIS2_PLACEMENT_3D('',#1772,#1477,#1478);
#1228=AXIS2_PLACEMENT_3D('',#1773,#1479,#1480);
#1229=AXIS2_PLACEMENT_3D('',#1775,#1481,#1482);
#1230=AXIS2_PLACEMENT_3D('',#1777,#1483,#1484);
#1231=AXIS2_PLACEMENT_3D('',#1778,#1485,#1486);
#1232=AXIS2_PLACEMENT_3D('',#1780,#1487,#1488);
#1233=AXIS2_PLACEMENT_3D('',#1782,#1489,#1490);
#1234=AXIS2_PLACEMENT_3D('',#1783,#1491,#1492);
#1235=AXIS2_PLACEMENT_3D('',#1785,#1493,#1494);
#1236=AXIS2_PLACEMENT_3D('',#1787,#1495,#1496);
#1237=AXIS2_PLACEMENT_3D('',#1788,#1497,#1498);
#1238=AXIS2_PLACEMENT_3D('',#1790,#1499,#1500);
#1239=AXIS2_PLACEMENT_3D('',#1792,#1501,#1502);
#1240=AXIS2_PLACEMENT_3D('',#1793,#1503,#1504);
#1241=AXIS2_PLACEMENT_3D('',#1795,#1505,#1506);
#1242=AXIS2_PLACEMENT_3D('',#1797,#1507,#1508);
#1243=AXIS2_PLACEMENT_3D('',#1798,#1509,#1510);
#1244=AXIS2_PLACEMENT_3D('',#1800,#1511,#1512);
#1245=AXIS2_PLACEMENT_3D('',#1802,#1513,#1514);
#1246=AXIS2_PLACEMENT_3D('',#1803,#1515,#1516);
#1247=AXIS2_PLACEMENT_3D('',#1805,#1517,#1518);
#1248=AXIS2_PLACEMENT_3D('',#1807,#1519,#1520);
#1249=AXIS2_PLACEMENT_3D('',#1808,#1521,#1522);
#1250=AXIS2_PLACEMENT_3D('',#1810,#1523,#1524);
#1251=AXIS2_PLACEMENT_3D('',#1812,#1525,#1526);
#1252=AXIS2_PLACEMENT_3D('',#1813,#1527,#1528);
#1253=AXIS2_PLACEMENT_3D('',#1815,#1529,#1530);
#1254=AXIS2_PLACEMENT_3D('',#1817,#1531,#1532);
#1255=AXIS2_PLACEMENT_3D('',#1818,#1533,#1534);
#1256=AXIS2_PLACEMENT_3D('',#1820,#1535,#1536);
#1257=AXIS2_PLACEMENT_3D('',#1822,#1537,#1538);
#1258=AXIS2_PLACEMENT_3D('',#1823,#1539,#1540);
#1259=AXIS2_PLACEMENT_3D('',#1825,#1541,#1542);
#1260=AXIS2_PLACEMENT_3D('',#1827,#1543,#1544);
#1261=AXIS2_PLACEMENT_3D('',#1828,#1545,#1546);
#1262=AXIS2_PLACEMENT_3D('',#1830,#1547,#1548);
#1263=AXIS2_PLACEMENT_3D('',#1832,#1549,#1550);
#1264=AXIS2_PLACEMENT_3D('',#1833,#1551,#1552);
#1265=AXIS2_PLACEMENT_3D('',#1835,#1553,#1554);
#1266=AXIS2_PLACEMENT_3D('',#1837,#1555,#1556);
#1267=AXIS2_PLACEMENT_3D('',#1838,#1557,#1558);
#1268=AXIS2_PLACEMENT_3D('',#1840,#1559,#1560);
#1269=AXIS2_PLACEMENT_3D('',#1842,#1561,#1562);
#1270=AXIS2_PLACEMENT_3D('',#1843,#1563,#1564);
#1271=AXIS2_PLACEMENT_3D('',#1845,#1565,#1566);
#1272=AXIS2_PLACEMENT_3D('',#1847,#1567,#1568);
#1273=AXIS2_PLACEMENT_3D('',#1848,#1569,#1570);
#1274=AXIS2_PLACEMENT_3D('',#1850,#1571,#1572);
#1275=AXIS2_PLACEMENT_3D('',#1852,#1573,#1574);
#1276=AXIS2_PLACEMENT_3D('',#1853,#1575,#1576);
#1277=AXIS2_PLACEMENT_3D('',#1855,#1577,#1578);
#1278=AXIS2_PLACEMENT_3D('',#1857,#1579,#1580);
#1279=AXIS2_PLACEMENT_3D('',#1858,#1581,#1582);
#1280=AXIS2_PLACEMENT_3D('',#1860,#1583,#1584);
#1281=AXIS2_PLACEMENT_3D('',#1862,#1585,#1586);
#1282=AXIS2_PLACEMENT_3D('',#1863,#1587,#1588);
#1283=AXIS2_PLACEMENT_3D('',#1873,#1593,#1594);
#1284=AXIS2_PLACEMENT_3D('',#1879,#1598,#1599);
#1285=AXIS2_PLACEMENT_3D('',#1883,#1602,#1603);
#1286=AXIS2_PLACEMENT_3D('',#1887,#1606,#1607);
#1287=AXIS2_PLACEMENT_3D('',#1888,#1608,#1609);
#1288=AXIS2_PLACEMENT_3D('',#1891,#1611,#1612);
#1289=AXIS2_PLACEMENT_3D('',#1892,#1613,#1614);
#1290=AXIS2_PLACEMENT_3D('',#1893,#1615,#1616);
#1291=DIRECTION('',(0.,0.,1.));
#1292=DIRECTION('',(1.,0.,0.));
#1293=DIRECTION('',(0.,0.,-1.));
#1294=DIRECTION('',(-1.,0.,0.));
#1295=DIRECTION('',(0.,0.,-1.));
#1296=DIRECTION('',(1.,0.,0.));
#1297=DIRECTION('',(0.,0.,1.));
#1298=DIRECTION('',(1.,0.,0.));
#1299=DIRECTION('',(0.,0.,-1.));
#1300=DIRECTION('',(-1.,0.,0.));
#1301=DIRECTION('',(0.,0.,-1.));
#1302=DIRECTION('',(1.,0.,0.));
#1303=DIRECTION('',(0.,0.,1.));
#1304=DIRECTION('',(1.,0.,0.));
#1305=DIRECTION('',(0.,0.,-1.));
#1306=DIRECTION('',(-1.,0.,0.));
#1307=DIRECTION('',(0.,0.,-1.));
#1308=DIRECTION('',(-1.,0.,0.));
#1309=DIRECTION('',(0.,0.,-1.));
#1310=DIRECTION('',(-1.,0.,0.));
#1311=DIRECTION('',(0.,0.,-1.));
#1312=DIRECTION('',(-1.,0.,0.));
#1313=DIRECTION('',(0.,0.,-1.));
#1314=DIRECTION('',(1.,0.,0.));
#1315=DIRECTION('',(0.,0.,1.));
#1316=DIRECTION('',(1.,0.,0.));
#1317=DIRECTION('',(0.,0.,-1.));
#1318=DIRECTION('',(-1.,0.,0.));
#1319=DIRECTION('',(0.,0.,-1.));
#1320=DIRECTION('',(1.,0.,0.));
#1321=DIRECTION('',(0.,0.,1.));
#1322=DIRECTION('',(1.,0.,0.));
#1323=DIRECTION('',(0.,0.,-1.));
#1324=DIRECTION('',(-1.,0.,0.));
#1325=DIRECTION('',(0.,0.,-1.));
#1326=DIRECTION('',(-1.,0.,0.));
#1327=DIRECTION('',(0.,0.,-1.));
#1328=DIRECTION('',(-1.,0.,0.));
#1329=DIRECTION('',(0.,0.,-1.));
#1330=DIRECTION('',(-1.,0.,0.));
#1331=DIRECTION('',(0.,0.,-1.));
#1332=DIRECTION('',(1.,0.,0.));
#1333=DIRECTION('',(0.,0.,1.));
#1334=DIRECTION('',(1.,0.,0.));
#1335=DIRECTION('',(0.,0.,-1.));
#1336=DIRECTION('',(-1.,0.,0.));
#1337=DIRECTION('',(0.,0.,-1.));
#1338=DIRECTION('',(1.,0.,0.));
#1339=DIRECTION('',(0.,0.,1.));
#1340=DIRECTION('',(1.,0.,0.));
#1341=DIRECTION('',(0.,0.,-1.));
#1342=DIRECTION('',(-1.,0.,0.));
#1343=DIRECTION('',(0.,0.,-1.));
#1344=DIRECTION('',(-1.,0.,0.));
#1345=DIRECTION('',(0.,0.,-1.));
#1346=DIRECTION('',(-1.,0.,0.));
#1347=DIRECTION('',(0.,0.,-1.));
#1348=DIRECTION('',(-1.,0.,0.));
#1349=DIRECTION('',(0.,0.,-1.));
#1350=DIRECTION('',(-1.,0.,0.));
#1351=DIRECTION('',(0.,0.,-1.));
#1352=DIRECTION('',(-1.,0.,0.));
#1353=DIRECTION('',(0.,0.,-1.));
#1354=DIRECTION('',(-1.,0.,0.));
#1355=DIRECTION('',(0.,0.,-1.));
#1356=DIRECTION('',(-1.,0.,0.));
#1357=DIRECTION('',(0.,0.,-1.));
#1358=DIRECTION('',(-1.,0.,0.));
#1359=DIRECTION('',(0.,0.,-1.));
#1360=DIRECTION('',(-1.,0.,0.));
#1361=DIRECTION('',(0.,0.,-1.));
#1362=DIRECTION('',(-1.,0.,0.));
#1363=DIRECTION('',(0.,0.,-1.));
#1364=DIRECTION('',(-1.,0.,0.));
#1365=DIRECTION('',(0.,0.,-1.));
#1366=DIRECTION('',(-1.,0.,0.));
#1367=DIRECTION('',(0.,0.,-1.));
#1368=DIRECTION('',(-1.,0.,0.));
#1369=DIRECTION('',(0.,0.,-1.));
#1370=DIRECTION('',(-1.,0.,0.));
#1371=DIRECTION('',(0.,0.,-1.));
#1372=DIRECTION('',(-1.,0.,0.));
#1373=DIRECTION('',(0.,0.,-1.));
#1374=DIRECTION('',(-1.,0.,0.));
#1375=DIRECTION('',(0.,0.,-1.));
#1376=DIRECTION('',(-1.,0.,0.));
#1377=DIRECTION('',(0.,0.,-1.));
#1378=DIRECTION('',(-1.,0.,0.));
#1379=DIRECTION('',(0.,0.,-1.));
#1380=DIRECTION('',(-1.,0.,0.));
#1381=DIRECTION('',(0.,0.,-1.));
#1382=DIRECTION('',(-1.,0.,0.));
#1383=DIRECTION('',(0.,0.,-1.));
#1384=DIRECTION('',(-1.,0.,0.));
#1385=DIRECTION('',(0.,0.,-1.));
#1386=DIRECTION('',(-1.,0.,0.));
#1387=DIRECTION('',(0.,0.,-1.));
#1388=DIRECTION('',(-1.,0.,0.));
#1389=DIRECTION('',(0.,0.,-1.));
#1390=DIRECTION('',(-1.,0.,0.));
#1391=DIRECTION('',(0.,0.,-1.));
#1392=DIRECTION('',(-1.,0.,0.));
#1393=DIRECTION('',(0.,0.,-1.));
#1394=DIRECTION('',(-1.,0.,0.));
#1395=DIRECTION('',(0.,0.,-1.));
#1396=DIRECTION('',(-1.,0.,0.));
#1397=DIRECTION('',(0.,0.,-1.));
#1398=DIRECTION('',(-1.,0.,0.));
#1399=DIRECTION('',(0.,0.,-1.));
#1400=DIRECTION('',(-1.,0.,0.));
#1401=DIRECTION('',(0.,0.,-1.));
#1402=DIRECTION('',(-1.,0.,0.));
#1403=DIRECTION('',(0.,0.,-1.));
#1404=DIRECTION('',(-1.,0.,0.));
#1405=DIRECTION('',(0.,0.,-1.));
#1406=DIRECTION('',(-1.,0.,0.));
#1407=DIRECTION('',(0.,0.,-1.));
#1408=DIRECTION('',(-1.,0.,0.));
#1409=DIRECTION('',(0.,0.,-1.));
#1410=DIRECTION('',(1.,0.,0.));
#1411=DIRECTION('',(0.,0.,1.));
#1412=DIRECTION('',(1.,0.,0.));
#1413=DIRECTION('',(0.,0.,-1.));
#1414=DIRECTION('',(-1.,0.,0.));
#1415=DIRECTION('',(0.,0.,-1.));
#1416=DIRECTION('',(1.,0.,0.));
#1417=DIRECTION('',(0.,0.,1.));
#1418=DIRECTION('',(1.,0.,0.));
#1419=DIRECTION('',(0.,0.,-1.));
#1420=DIRECTION('',(-1.,0.,0.));
#1421=DIRECTION('',(0.,0.,-1.));
#1422=DIRECTION('',(-1.,0.,0.));
#1423=DIRECTION('',(0.,0.,-1.));
#1424=DIRECTION('',(-1.,0.,0.));
#1425=DIRECTION('',(0.,0.,-1.));
#1426=DIRECTION('',(-1.,0.,0.));
#1427=DIRECTION('',(0.,0.,-1.));
#1428=DIRECTION('',(1.,0.,0.));
#1429=DIRECTION('',(0.,0.,1.));
#1430=DIRECTION('',(1.,0.,0.));
#1431=DIRECTION('',(0.,0.,-1.));
#1432=DIRECTION('',(-1.,0.,0.));
#1433=DIRECTION('',(0.,0.,-1.));
#1434=DIRECTION('',(1.,0.,0.));
#1435=DIRECTION('',(0.,0.,1.));
#1436=DIRECTION('',(1.,0.,0.));
#1437=DIRECTION('',(0.,0.,-1.));
#1438=DIRECTION('',(-1.,0.,0.));
#1439=DIRECTION('',(0.,0.,-1.));
#1440=DIRECTION('',(-1.,0.,0.));
#1441=DIRECTION('',(0.,0.,-1.));
#1442=DIRECTION('',(-1.,0.,0.));
#1443=DIRECTION('',(0.,0.,-1.));
#1444=DIRECTION('',(-1.,0.,0.));
#1445=DIRECTION('',(0.,0.,-1.));
#1446=DIRECTION('',(-1.,0.,0.));
#1447=DIRECTION('',(0.,0.,-1.));
#1448=DIRECTION('',(-1.,0.,0.));
#1449=DIRECTION('',(0.,0.,-1.));
#1450=DIRECTION('',(-1.,0.,0.));
#1451=DIRECTION('',(0.,0.,-1.));
#1452=DIRECTION('',(-1.,0.,0.));
#1453=DIRECTION('',(0.,0.,-1.));
#1454=DIRECTION('',(-1.,0.,0.));
#1455=DIRECTION('',(0.,0.,-1.));
#1456=DIRECTION('',(-1.,0.,0.));
#1457=DIRECTION('',(0.,0.,-1.));
#1458=DIRECTION('',(-1.,0.,0.));
#1459=DIRECTION('',(0.,0.,-1.));
#1460=DIRECTION('',(-1.,0.,0.));
#1461=DIRECTION('',(0.,0.,-1.));
#1462=DIRECTION('',(-1.,0.,0.));
#1463=DIRECTION('',(0.,0.,-1.));
#1464=DIRECTION('',(-1.,0.,0.));
#1465=DIRECTION('',(0.,0.,-1.));
#1466=DIRECTION('',(-1.,0.,0.));
#1467=DIRECTION('',(0.,0.,-1.));
#1468=DIRECTION('',(-1.,0.,0.));
#1469=DIRECTION('',(0.,0.,-1.));
#1470=DIRECTION('',(-1.,0.,0.));
#1471=DIRECTION('',(0.,0.,-1.));
#1472=DIRECTION('',(-1.,0.,0.));
#1473=DIRECTION('',(0.,0.,-1.));
#1474=DIRECTION('',(-1.,0.,0.));
#1475=DIRECTION('',(0.,0.,-1.));
#1476=DIRECTION('',(-1.,0.,0.));
#1477=DIRECTION('',(0.,0.,-1.));
#1478=DIRECTION('',(-1.,0.,0.));
#1479=DIRECTION('',(0.,0.,-1.));
#1480=DIRECTION('',(-1.,0.,0.));
#1481=DIRECTION('',(0.,0.,-1.));
#1482=DIRECTION('',(1.,0.,0.));
#1483=DIRECTION('',(0.,0.,1.));
#1484=DIRECTION('',(1.,0.,0.));
#1485=DIRECTION('',(0.,0.,-1.));
#1486=DIRECTION('',(-1.,0.,0.));
#1487=DIRECTION('',(0.,0.,-1.));
#1488=DIRECTION('',(1.,0.,0.));
#1489=DIRECTION('',(0.,0.,1.));
#1490=DIRECTION('',(1.,0.,0.));
#1491=DIRECTION('',(0.,0.,-1.));
#1492=DIRECTION('',(-1.,0.,0.));
#1493=DIRECTION('',(0.,0.,-1.));
#1494=DIRECTION('',(-1.,0.,0.));
#1495=DIRECTION('',(0.,0.,-1.));
#1496=DIRECTION('',(-1.,0.,0.));
#1497=DIRECTION('',(0.,0.,-1.));
#1498=DIRECTION('',(-1.,0.,0.));
#1499=DIRECTION('',(0.,0.,-1.));
#1500=DIRECTION('',(-1.,0.,0.));
#1501=DIRECTION('',(0.,0.,-1.));
#1502=DIRECTION('',(-1.,0.,0.));
#1503=DIRECTION('',(0.,0.,-1.));
#1504=DIRECTION('',(-1.,0.,0.));
#1505=DIRECTION('',(0.,0.,-1.));
#1506=DIRECTION('',(-1.,0.,0.));
#1507=DIRECTION('',(0.,0.,-1.));
#1508=DIRECTION('',(-1.,0.,0.));
#1509=DIRECTION('',(0.,0.,-1.));
#1510=DIRECTION('',(-1.,0.,0.));
#1511=DIRECTION('',(0.,0.,-1.));
#1512=DIRECTION('',(-1.,0.,0.));
#1513=DIRECTION('',(0.,0.,-1.));
#1514=DIRECTION('',(-1.,0.,0.));
#1515=DIRECTION('',(0.,0.,-1.));
#1516=DIRECTION('',(-1.,0.,0.));
#1517=DIRECTION('',(0.,0.,-1.));
#1518=DIRECTION('',(-1.,0.,0.));
#1519=DIRECTION('',(0.,0.,-1.));
#1520=DIRECTION('',(-1.,0.,0.));
#1521=DIRECTION('',(0.,0.,-1.));
#1522=DIRECTION('',(-1.,0.,0.));
#1523=DIRECTION('',(0.,0.,-1.));
#1524=DIRECTION('',(-1.,0.,0.));
#1525=DIRECTION('',(0.,0.,-1.));
#1526=DIRECTION('',(-1.,0.,0.));
#1527=DIRECTION('',(0.,0.,-1.));
#1528=DIRECTION('',(-1.,0.,0.));
#1529=DIRECTION('',(0.,0.,-1.));
#1530=DIRECTION('',(1.,0.,0.));
#1531=DIRECTION('',(0.,0.,1.));
#1532=DIRECTION('',(1.,0.,0.));
#1533=DIRECTION('',(0.,0.,-1.));
#1534=DIRECTION('',(-1.,0.,0.));
#1535=DIRECTION('',(0.,0.,-1.));
#1536=DIRECTION('',(-1.,0.,0.));
#1537=DIRECTION('',(0.,0.,-1.));
#1538=DIRECTION('',(-1.,0.,0.));
#1539=DIRECTION('',(0.,0.,-1.));
#1540=DIRECTION('',(-1.,0.,0.));
#1541=DIRECTION('',(0.,0.,-1.));
#1542=DIRECTION('',(1.,0.,0.));
#1543=DIRECTION('',(0.,0.,1.));
#1544=DIRECTION('',(1.,0.,0.));
#1545=DIRECTION('',(0.,0.,-1.));
#1546=DIRECTION('',(-1.,0.,0.));
#1547=DIRECTION('',(0.,0.,-1.));
#1548=DIRECTION('',(1.,0.,0.));
#1549=DIRECTION('',(0.,0.,1.));
#1550=DIRECTION('',(1.,0.,0.));
#1551=DIRECTION('',(0.,0.,-1.));
#1552=DIRECTION('',(-1.,0.,0.));
#1553=DIRECTION('',(0.,0.,-1.));
#1554=DIRECTION('',(-1.,0.,0.));
#1555=DIRECTION('',(0.,0.,-1.));
#1556=DIRECTION('',(-1.,0.,0.));
#1557=DIRECTION('',(0.,0.,-1.));
#1558=DIRECTION('',(-1.,0.,0.));
#1559=DIRECTION('',(0.,0.,-1.));
#1560=DIRECTION('',(-1.,0.,0.));
#1561=DIRECTION('',(0.,0.,-1.));
#1562=DIRECTION('',(-1.,0.,0.));
#1563=DIRECTION('',(0.,0.,-1.));
#1564=DIRECTION('',(-1.,0.,0.));
#1565=DIRECTION('',(0.,0.,-1.));
#1566=DIRECTION('',(-1.,0.,0.));
#1567=DIRECTION('',(0.,0.,-1.));
#1568=DIRECTION('',(-1.,0.,0.));
#1569=DIRECTION('',(0.,0.,-1.));
#1570=DIRECTION('',(-1.,0.,0.));
#1571=DIRECTION('',(0.,0.,-1.));
#1572=DIRECTION('',(-1.,0.,0.));
#1573=DIRECTION('',(0.,0.,-1.));
#1574=DIRECTION('',(-1.,0.,0.));
#1575=DIRECTION('',(0.,0.,-1.));
#1576=DIRECTION('',(-1.,0.,0.));
#1577=DIRECTION('',(0.,0.,-1.));
#1578=DIRECTION('',(-1.,0.,0.));
#1579=DIRECTION('',(0.,0.,-1.));
#1580=DIRECTION('',(-1.,0.,0.));
#1581=DIRECTION('',(0.,0.,-1.));
#1582=DIRECTION('',(-1.,0.,0.));
#1583=DIRECTION('',(0.,0.,-1.));
#1584=DIRECTION('',(-1.,0.,0.));
#1585=DIRECTION('',(0.,0.,-1.));
#1586=DIRECTION('',(-1.,0.,0.));
#1587=DIRECTION('',(0.,0.,-1.));
#1588=DIRECTION('',(-1.,0.,0.));
#1589=DIRECTION('',(-1.,0.,0.));
#1590=DIRECTION('',(0.,-1.,0.));
#1591=DIRECTION('',(1.,0.,0.));
#1592=DIRECTION('',(0.,1.,0.));
#1593=DIRECTION('',(0.,0.,1.));
#1594=DIRECTION('',(1.,0.,0.));
#1595=DIRECTION('',(0.,0.,1.));
#1596=DIRECTION('',(0.,0.,1.));
#1597=DIRECTION('',(1.,0.,0.));
#1598=DIRECTION('',(0.,-1.,0.));
#1599=DIRECTION('',(0.,0.,-1.));
#1600=DIRECTION('',(0.,0.,1.));
#1601=DIRECTION('',(0.,-1.,0.));
#1602=DIRECTION('',(-1.,0.,0.));
#1603=DIRECTION('',(0.,0.,1.));
#1604=DIRECTION('',(0.,0.,1.));
#1605=DIRECTION('',(-1.,0.,0.));
#1606=DIRECTION('',(0.,1.,0.));
#1607=DIRECTION('',(0.,0.,1.));
#1608=DIRECTION('',(0.,0.,-1.));
#1609=DIRECTION('',(-1.,0.,0.));
#1610=DIRECTION('',(0.,1.,0.));
#1611=DIRECTION('',(0.,0.,-1.));
#1612=DIRECTION('',(-1.,0.,0.));
#1613=DIRECTION('',(1.,0.,0.));
#1614=DIRECTION('',(0.,0.,-1.));
#1615=DIRECTION('',(0.,0.,-1.));
#1616=DIRECTION('',(-1.,0.,0.));
#1617=CARTESIAN_POINT('',(0.,0.,0.));
#1618=CARTESIAN_POINT('',(204.06897741187,132.606607865095,0.));
#1619=CARTESIAN_POINT('',(196.17447741187,132.606607865095,0.));
#1620=CARTESIAN_POINT('',(204.06897741187,132.606607865095,30.));
#1621=CARTESIAN_POINT('',(211.96347741187,132.606607865095,30.));
#1622=CARTESIAN_POINT('',(204.06897741187,132.606607865095,30.));
#1623=CARTESIAN_POINT('',(204.06897741187,107.606607865095,0.));
#1624=CARTESIAN_POINT('',(196.17447741187,107.606607865095,0.));
#1625=CARTESIAN_POINT('',(204.06897741187,107.606607865095,30.));
#1626=CARTESIAN_POINT('',(211.96347741187,107.606607865095,30.));
#1627=CARTESIAN_POINT('',(204.06897741187,107.606607865095,30.));
#1628=CARTESIAN_POINT('',(204.06897741187,82.6066078650946,0.));
#1629=CARTESIAN_POINT('',(197.50747741187,82.6066078650946,0.));
#1630=CARTESIAN_POINT('',(204.06897741187,82.6066078650946,30.));
#1631=CARTESIAN_POINT('',(197.50747741187,82.6066078650946,30.));
#1632=CARTESIAN_POINT('',(204.06897741187,82.6066078650946,30.));
#1633=CARTESIAN_POINT('',(184.06897741187,132.606607865095,0.));
#1634=CARTESIAN_POINT('',(176.17447741187,132.606607865095,0.));
#1635=CARTESIAN_POINT('',(184.06897741187,132.606607865095,30.));
#1636=CARTESIAN_POINT('',(191.96347741187,132.606607865095,30.));
#1637=CARTESIAN_POINT('',(184.06897741187,132.606607865095,30.));
#1638=CARTESIAN_POINT('',(184.06897741187,107.606607865095,0.));
#1639=CARTESIAN_POINT('',(176.17447741187,107.606607865095,0.));
#1640=CARTESIAN_POINT('',(184.06897741187,107.606607865095,30.));
#1641=CARTESIAN_POINT('',(191.96347741187,107.606607865095,30.));
#1642=CARTESIAN_POINT('',(184.06897741187,107.606607865095,30.));
#1643=CARTESIAN_POINT('',(184.06897741187,82.6066078650946,0.));
#1644=CARTESIAN_POINT('',(177.50747741187,82.6066078650946,0.));
#1645=CARTESIAN_POINT('',(184.06897741187,82.6066078650946,30.));
#1646=CARTESIAN_POINT('',(177.50747741187,82.6066078650946,30.));
#1647=CARTESIAN_POINT('',(184.06897741187,82.6066078650946,30.));
#1648=CARTESIAN_POINT('',(164.06897741187,132.606607865095,0.));
#1649=CARTESIAN_POINT('',(156.17447741187,132.606607865095,0.));
#1650=CARTESIAN_POINT('',(164.06897741187,132.606607865095,30.));
#1651=CARTESIAN_POINT('',(171.96347741187,132.606607865095,30.));
#1652=CARTESIAN_POINT('',(164.06897741187,132.606607865095,30.));
#1653=CARTESIAN_POINT('',(164.06897741187,107.606607865095,0.));
#1654=CARTESIAN_POINT('',(156.17447741187,107.606607865095,0.));
#1655=CARTESIAN_POINT('',(164.06897741187,107.606607865095,30.));
#1656=CARTESIAN_POINT('',(171.96347741187,107.606607865095,30.));
#1657=CARTESIAN_POINT('',(164.06897741187,107.606607865095,30.));
#1658=CARTESIAN_POINT('',(164.06897741187,82.6066078650946,0.));
#1659=CARTESIAN_POINT('',(157.50747741187,82.6066078650946,0.));
#1660=CARTESIAN_POINT('',(164.06897741187,82.6066078650946,30.));
#1661=CARTESIAN_POINT('',(157.50747741187,82.6066078650946,30.));
#1662=CARTESIAN_POINT('',(164.06897741187,82.6066078650946,30.));
#1663=CARTESIAN_POINT('',(144.06897741187,132.606607865095,0.));
#1664=CARTESIAN_POINT('',(137.50747741187,132.606607865095,0.));
#1665=CARTESIAN_POINT('',(144.06897741187,132.606607865095,30.));
#1666=CARTESIAN_POINT('',(137.50747741187,132.606607865095,30.));
#1667=CARTESIAN_POINT('',(144.06897741187,132.606607865095,30.));
#1668=CARTESIAN_POINT('',(144.06897741187,107.606607865095,0.));
#1669=CARTESIAN_POINT('',(137.50747741187,107.606607865095,0.));
#1670=CARTESIAN_POINT('',(144.06897741187,107.606607865095,30.));
#1671=CARTESIAN_POINT('',(137.50747741187,107.606607865095,30.));
#1672=CARTESIAN_POINT('',(144.06897741187,107.606607865095,30.));
#1673=CARTESIAN_POINT('',(144.06897741187,82.6066078650946,0.));
#1674=CARTESIAN_POINT('',(137.50747741187,82.6066078650946,0.));
#1675=CARTESIAN_POINT('',(144.06897741187,82.6066078650946,30.));
#1676=CARTESIAN_POINT('',(137.50747741187,82.6066078650946,30.));
#1677=CARTESIAN_POINT('',(144.06897741187,82.6066078650946,30.));
#1678=CARTESIAN_POINT('',(124.06897741187,132.606607865095,0.));
#1679=CARTESIAN_POINT('',(117.50747741187,132.606607865095,0.));
#1680=CARTESIAN_POINT('',(124.06897741187,132.606607865095,30.));
#1681=CARTESIAN_POINT('',(117.50747741187,132.606607865095,30.));
#1682=CARTESIAN_POINT('',(124.06897741187,132.606607865095,30.));
#1683=CARTESIAN_POINT('',(124.06897741187,107.606607865095,0.));
#1684=CARTESIAN_POINT('',(117.50747741187,107.606607865095,0.));
#1685=CARTESIAN_POINT('',(124.06897741187,107.606607865095,30.));
#1686=CARTESIAN_POINT('',(117.50747741187,107.606607865095,30.));
#1687=CARTESIAN_POINT('',(124.06897741187,107.606607865095,30.));
#1688=CARTESIAN_POINT('',(124.06897741187,82.6066078650946,0.));
#1689=CARTESIAN_POINT('',(117.50747741187,82.6066078650946,0.));
#1690=CARTESIAN_POINT('',(124.06897741187,82.6066078650946,30.));
#1691=CARTESIAN_POINT('',(117.50747741187,82.6066078650946,30.));
#1692=CARTESIAN_POINT('',(124.06897741187,82.6066078650946,30.));
#1693=CARTESIAN_POINT('',(104.06897741187,132.606607865095,0.));
#1694=CARTESIAN_POINT('',(97.5074774118703,132.606607865095,0.));
#1695=CARTESIAN_POINT('',(104.06897741187,132.606607865095,30.));
#1696=CARTESIAN_POINT('',(97.5074774118703,132.606607865095,30.));
#1697=CARTESIAN_POINT('',(104.06897741187,132.606607865095,30.));
#1698=CARTESIAN_POINT('',(104.06897741187,107.606607865095,0.));
#1699=CARTESIAN_POINT('',(97.5074774118703,107.606607865095,0.));
#1700=CARTESIAN_POINT('',(104.06897741187,107.606607865095,30.));
#1701=CARTESIAN_POINT('',(97.5074774118703,107.606607865095,30.));
#1702=CARTESIAN_POINT('',(104.06897741187,107.606607865095,30.));
#1703=CARTESIAN_POINT('',(104.06897741187,82.6066078650946,0.));
#1704=CARTESIAN_POINT('',(97.5074774118703,82.6066078650946,0.));
#1705=CARTESIAN_POINT('',(104.06897741187,82.6066078650946,30.));
#1706=CARTESIAN_POINT('',(97.5074774118703,82.6066078650946,30.));
#1707=CARTESIAN_POINT('',(104.06897741187,82.6066078650946,30.));
#1708=CARTESIAN_POINT('',(84.0689774118703,132.606607865095,0.));
#1709=CARTESIAN_POINT('',(77.5074774118703,132.606607865095,0.));
#1710=CARTESIAN_POINT('',(84.0689774118703,132.606607865095,30.));
#1711=CARTESIAN_POINT('',(77.5074774118703,132.606607865095,30.));
#1712=CARTESIAN_POINT('',(84.0689774118703,132.606607865095,30.));
#1713=CARTESIAN_POINT('',(84.0689774118703,107.606607865095,0.));
#1714=CARTESIAN_POINT('',(80.3959774118703,107.606607865095,0.));
#1715=CARTESIAN_POINT('',(84.0689774118703,107.606607865095,30.));
#1716=CARTESIAN_POINT('',(87.7419774118703,107.606607865095,30.));
#1717=CARTESIAN_POINT('',(84.0689774118703,107.606607865095,30.));
#1718=CARTESIAN_POINT('',(84.0689774118703,82.6066078650946,0.));
#1719=CARTESIAN_POINT('',(80.3959774118703,82.6066078650946,0.));
#1720=CARTESIAN_POINT('',(84.0689774118703,82.6066078650946,30.));
#1721=CARTESIAN_POINT('',(87.7419774118703,82.6066078650946,30.));
#1722=CARTESIAN_POINT('',(84.0689774118703,82.6066078650946,30.));
#1723=CARTESIAN_POINT('',(64.0689774118703,132.606607865095,0.));
#1724=CARTESIAN_POINT('',(57.5074774118703,132.606607865095,0.));
#1725=CARTESIAN_POINT('',(64.0689774118703,132.606607865095,30.));
#1726=CARTESIAN_POINT('',(57.5074774118703,132.606607865095,30.));
#1727=CARTESIAN_POINT('',(64.0689774118703,132.606607865095,30.));
#1728=CARTESIAN_POINT('',(64.0689774118703,107.606607865095,0.));
#1729=CARTESIAN_POINT('',(60.3959774118703,107.606607865095,0.));
#1730=CARTESIAN_POINT('',(64.0689774118703,107.606607865095,30.));
#1731=CARTESIAN_POINT('',(67.7419774118703,107.606607865095,30.));
#1732=CARTESIAN_POINT('',(64.0689774118703,107.606607865095,30.));
#1733=CARTESIAN_POINT('',(64.0689774118703,82.6066078650946,0.));
#1734=CARTESIAN_POINT('',(60.3959774118703,82.6066078650946,0.));
#1735=CARTESIAN_POINT('',(64.0689774118703,82.6066078650946,30.));
#1736=CARTESIAN_POINT('',(67.7419774118703,82.6066078650946,30.));
#1737=CARTESIAN_POINT('',(64.0689774118703,82.6066078650946,30.));
#1738=CARTESIAN_POINT('',(44.0689774118703,132.606607865095,0.));
#1739=CARTESIAN_POINT('',(37.5074774118703,132.606607865095,0.));
#1740=CARTESIAN_POINT('',(44.0689774118703,132.606607865095,30.));
#1741=CARTESIAN_POINT('',(37.5074774118703,132.606607865095,30.));
#1742=CARTESIAN_POINT('',(44.0689774118703,132.606607865095,30.));
#1743=CARTESIAN_POINT('',(44.0689774118703,107.606607865095,0.));
#1744=CARTESIAN_POINT('',(37.5074774118703,107.606607865095,0.));
#1745=CARTESIAN_POINT('',(44.0689774118703,107.606607865095,30.));
#1746=CARTESIAN_POINT('',(37.5074774118703,107.606607865095,30.));
#1747=CARTESIAN_POINT('',(44.0689774118703,107.606607865095,30.));
#1748=CARTESIAN_POINT('',(44.0689774118703,82.6066078650946,0.));
#1749=CARTESIAN_POINT('',(37.5074774118703,82.6066078650946,0.));
#1750=CARTESIAN_POINT('',(44.0689774118703,82.6066078650946,30.));
#1751=CARTESIAN_POINT('',(37.5074774118703,82.6066078650946,30.));
#1752=CARTESIAN_POINT('',(44.0689774118703,82.6066078650946,30.));
#1753=CARTESIAN_POINT('',(24.0689774118703,132.606607865095,0.));
#1754=CARTESIAN_POINT('',(17.5074774118703,132.606607865095,0.));
#1755=CARTESIAN_POINT('',(24.0689774118703,132.606607865095,30.));
#1756=CARTESIAN_POINT('',(17.5074774118703,132.606607865095,30.));
#1757=CARTESIAN_POINT('',(24.0689774118703,132.606607865095,30.));
#1758=CARTESIAN_POINT('',(24.0689774118703,107.606607865095,0.));
#1759=CARTESIAN_POINT('',(17.5074774118703,107.606607865095,0.));
#1760=CARTESIAN_POINT('',(24.0689774118703,107.606607865095,30.));
#1761=CARTESIAN_POINT('',(17.5074774118703,107.606607865095,30.));
#1762=CARTESIAN_POINT('',(24.0689774118703,107.606607865095,30.));
#1763=CARTESIAN_POINT('',(24.0689774118703,82.6066078650946,0.));
#1764=CARTESIAN_POINT('',(17.5074774118703,82.6066078650946,0.));
#1765=CARTESIAN_POINT('',(24.0689774118703,82.6066078650946,30.));
#1766=CARTESIAN_POINT('',(17.5074774118703,82.6066078650946,30.));
#1767=CARTESIAN_POINT('',(24.0689774118703,82.6066078650946,30.));
#1768=CARTESIAN_POINT('',(204.06897741187,57.6066078650946,0.));
#1769=CARTESIAN_POINT('',(197.50747741187,57.6066078650946,0.));
#1770=CARTESIAN_POINT('',(204.06897741187,57.6066078650946,30.));
#1771=CARTESIAN_POINT('',(197.50747741187,57.6066078650946,30.));
#1772=CARTESIAN_POINT('',(204.06897741187,57.6066078650946,30.));
#1773=CARTESIAN_POINT('',(184.06897741187,57.6066078650946,0.));
#1774=CARTESIAN_POINT('',(180.39597741187,57.6066078650946,0.));
#1775=CARTESIAN_POINT('',(184.06897741187,57.6066078650946,30.));
#1776=CARTESIAN_POINT('',(187.74197741187,57.6066078650946,30.));
#1777=CARTESIAN_POINT('',(184.06897741187,57.6066078650946,30.));
#1778=CARTESIAN_POINT('',(164.06897741187,57.6066078650946,0.));
#1779=CARTESIAN_POINT('',(160.39597741187,57.6066078650946,0.));
#1780=CARTESIAN_POINT('',(164.06897741187,57.6066078650946,30.));
#1781=CARTESIAN_POINT('',(167.74197741187,57.6066078650946,30.));
#1782=CARTESIAN_POINT('',(164.06897741187,57.6066078650946,30.));
#1783=CARTESIAN_POINT('',(144.06897741187,57.6066078650946,0.));
#1784=CARTESIAN_POINT('',(137.50747741187,57.6066078650946,0.));
#1785=CARTESIAN_POINT('',(144.06897741187,57.6066078650946,30.));
#1786=CARTESIAN_POINT('',(137.50747741187,57.6066078650946,30.));
#1787=CARTESIAN_POINT('',(144.06897741187,57.6066078650946,30.));
#1788=CARTESIAN_POINT('',(124.06897741187,57.6066078650946,0.));
#1789=CARTESIAN_POINT('',(117.50747741187,57.6066078650946,0.));
#1790=CARTESIAN_POINT('',(124.06897741187,57.6066078650946,30.));
#1791=CARTESIAN_POINT('',(117.50747741187,57.6066078650946,30.));
#1792=CARTESIAN_POINT('',(124.06897741187,57.6066078650946,30.));
#1793=CARTESIAN_POINT('',(104.06897741187,57.6066078650946,0.));
#1794=CARTESIAN_POINT('',(97.5074774118703,57.6066078650946,0.));
#1795=CARTESIAN_POINT('',(104.06897741187,57.6066078650946,30.));
#1796=CARTESIAN_POINT('',(97.5074774118703,57.6066078650946,30.));
#1797=CARTESIAN_POINT('',(104.06897741187,57.6066078650946,30.));
#1798=CARTESIAN_POINT('',(84.0689774118703,57.6066078650946,0.));
#1799=CARTESIAN_POINT('',(77.5074774118703,57.6066078650946,0.));
#1800=CARTESIAN_POINT('',(84.0689774118703,57.6066078650946,30.));
#1801=CARTESIAN_POINT('',(77.5074774118703,57.6066078650946,30.));
#1802=CARTESIAN_POINT('',(84.0689774118703,57.6066078650946,30.));
#1803=CARTESIAN_POINT('',(64.0689774118703,57.6066078650946,0.));
#1804=CARTESIAN_POINT('',(57.5074774118703,57.6066078650946,0.));
#1805=CARTESIAN_POINT('',(64.0689774118703,57.6066078650946,30.));
#1806=CARTESIAN_POINT('',(57.5074774118703,57.6066078650946,30.));
#1807=CARTESIAN_POINT('',(64.0689774118703,57.6066078650946,30.));
#1808=CARTESIAN_POINT('',(44.0689774118703,57.6066078650946,0.));
#1809=CARTESIAN_POINT('',(37.5074774118703,57.6066078650946,0.));
#1810=CARTESIAN_POINT('',(44.0689774118703,57.6066078650946,30.));
#1811=CARTESIAN_POINT('',(37.5074774118703,57.6066078650946,30.));
#1812=CARTESIAN_POINT('',(44.0689774118703,57.6066078650946,30.));
#1813=CARTESIAN_POINT('',(24.0689774118703,57.6066078650946,0.));
#1814=CARTESIAN_POINT('',(16.1744774118703,57.6066078650946,0.));
#1815=CARTESIAN_POINT('',(24.0689774118703,57.6066078650946,30.));
#1816=CARTESIAN_POINT('',(31.9634774118703,57.6066078650946,30.));
#1817=CARTESIAN_POINT('',(24.0689774118703,57.6066078650946,30.));
#1818=CARTESIAN_POINT('',(204.06897741187,32.6066078650946,0.));
#1819=CARTESIAN_POINT('',(197.50747741187,32.6066078650946,0.));
#1820=CARTESIAN_POINT('',(204.06897741187,32.6066078650946,30.));
#1821=CARTESIAN_POINT('',(197.50747741187,32.6066078650946,30.));
#1822=CARTESIAN_POINT('',(204.06897741187,32.6066078650946,30.));
#1823=CARTESIAN_POINT('',(184.06897741187,32.6066078650946,0.));
#1824=CARTESIAN_POINT('',(180.39597741187,32.6066078650946,0.));
#1825=CARTESIAN_POINT('',(184.06897741187,32.6066078650946,30.));
#1826=CARTESIAN_POINT('',(187.74197741187,32.6066078650946,30.));
#1827=CARTESIAN_POINT('',(184.06897741187,32.6066078650946,30.));
#1828=CARTESIAN_POINT('',(164.06897741187,32.6066078650946,0.));
#1829=CARTESIAN_POINT('',(160.39597741187,32.6066078650946,0.));
#1830=CARTESIAN_POINT('',(164.06897741187,32.6066078650946,30.));
#1831=CARTESIAN_POINT('',(167.74197741187,32.6066078650946,30.));
#1832=CARTESIAN_POINT('',(164.06897741187,32.6066078650946,30.));
#1833=CARTESIAN_POINT('',(144.06897741187,32.6066078650946,0.));
#1834=CARTESIAN_POINT('',(137.50747741187,32.6066078650946,0.));
#1835=CARTESIAN_POINT('',(144.06897741187,32.6066078650946,30.));
#1836=CARTESIAN_POINT('',(137.50747741187,32.6066078650946,30.));
#1837=CARTESIAN_POINT('',(144.06897741187,32.6066078650946,30.));
#1838=CARTESIAN_POINT('',(124.06897741187,32.6066078650946,0.));
#1839=CARTESIAN_POINT('',(117.50747741187,32.6066078650946,0.));
#1840=CARTESIAN_POINT('',(124.06897741187,32.6066078650946,30.));
#1841=CARTESIAN_POINT('',(117.50747741187,32.6066078650946,30.));
#1842=CARTESIAN_POINT('',(124.06897741187,32.6066078650946,30.));
#1843=CARTESIAN_POINT('',(104.06897741187,32.6066078650946,0.));
#1844=CARTESIAN_POINT('',(97.5074774118703,32.6066078650946,0.));
#1845=CARTESIAN_POINT('',(104.06897741187,32.6066078650946,30.));
#1846=CARTESIAN_POINT('',(97.5074774118703,32.6066078650946,30.));
#1847=CARTESIAN_POINT('',(104.06897741187,32.6066078650946,30.));
#1848=CARTESIAN_POINT('',(84.0689774118703,32.6066078650946,0.));
#1849=CARTESIAN_POINT('',(77.5074774118703,32.6066078650946,0.));
#1850=CARTESIAN_POINT('',(84.0689774118703,32.6066078650946,30.));
#1851=CARTESIAN_POINT('',(77.5074774118703,32.6066078650946,30.));
#1852=CARTESIAN_POINT('',(84.0689774118703,32.6066078650946,30.));
#1853=CARTESIAN_POINT('',(64.0689774118703,32.6066078650946,0.));
#1854=CARTESIAN_POINT('',(57.5074774118703,32.6066078650946,0.));
#1855=CARTESIAN_POINT('',(64.0689774118703,32.6066078650946,30.));
#1856=CARTESIAN_POINT('',(57.5074774118703,32.6066078650946,30.));
#1857=CARTESIAN_POINT('',(64.0689774118703,32.6066078650946,30.));
#1858=CARTESIAN_POINT('',(44.0689774118703,32.6066078650946,0.));
#1859=CARTESIAN_POINT('',(37.5074774118703,32.6066078650946,0.));
#1860=CARTESIAN_POINT('',(44.0689774118703,32.6066078650946,30.));
#1861=CARTESIAN_POINT('',(37.5074774118703,32.6066078650946,30.));
#1862=CARTESIAN_POINT('',(44.0689774118703,32.6066078650946,30.));
#1863=CARTESIAN_POINT('',(24.0689774118703,32.6066078650946,30.));
#1864=CARTESIAN_POINT('',(17.5074774118703,32.6066078650946,30.));
#1865=CARTESIAN_POINT('',(125.,0.,30.));
#1866=CARTESIAN_POINT('',(250.,0.,30.));
#1867=CARTESIAN_POINT('',(0.,0.,30.));
#1868=CARTESIAN_POINT('',(250.,75.,30.));
#1869=CARTESIAN_POINT('',(250.,150.,30.));
#1870=CARTESIAN_POINT('',(125.,150.,30.));
#1871=CARTESIAN_POINT('',(0.,150.,30.));
#1872=CARTESIAN_POINT('',(0.,75.,30.));
#1873=CARTESIAN_POINT('',(125.,75.,30.));
#1874=CARTESIAN_POINT('',(250.,0.,0.));
#1875=CARTESIAN_POINT('',(250.,0.,0.));
#1876=CARTESIAN_POINT('',(0.,0.,0.));
#1877=CARTESIAN_POINT('',(0.,0.,0.));
#1878=CARTESIAN_POINT('',(125.,0.,0.));
#1879=CARTESIAN_POINT('',(125.,0.,0.));
#1880=CARTESIAN_POINT('',(0.,150.,0.));
#1881=CARTESIAN_POINT('',(0.,150.,0.));
#1882=CARTESIAN_POINT('',(0.,75.,0.));
#1883=CARTESIAN_POINT('',(0.,75.,0.));
#1884=CARTESIAN_POINT('',(250.,150.,0.));
#1885=CARTESIAN_POINT('',(250.,150.,0.));
#1886=CARTESIAN_POINT('',(125.,150.,0.));
#1887=CARTESIAN_POINT('',(125.,150.,0.));
#1888=CARTESIAN_POINT('',(24.0689774118703,32.6066078650946,0.));
#1889=CARTESIAN_POINT('',(17.5074774118703,32.6066078650946,0.));
#1890=CARTESIAN_POINT('',(250.,75.,0.));
#1891=CARTESIAN_POINT('',(125.,75.,0.));
#1892=CARTESIAN_POINT('',(250.,75.,0.));
#1893=CARTESIAN_POINT('',(24.0689774118703,32.6066078650946,30.));
#1894=MECHANICAL_DESIGN_GEOMETRIC_PRESENTATION_REPRESENTATION('',(#32),
#1895);
#1895=(
GEOMETRIC_REPRESENTATION_CONTEXT(3)
GLOBAL_UNCERTAINTY_ASSIGNED_CONTEXT((#1896))
GLOBAL_UNIT_ASSIGNED_CONTEXT((#1902,#1898,#1897))
REPRESENTATION_CONTEXT('004 - HOLES_MULTI','TOP_LEVEL_ASSEMBLY_PART')
);
#1896=UNCERTAINTY_MEASURE_WITH_UNIT(LENGTH_MEASURE(2.E-5),#1902,
'DISTANCE_ACCURACY_VALUE','Maximum Tolerance applied to model');
#1897=(
NAMED_UNIT(*)
SI_UNIT($,.STERADIAN.)
SOLID_ANGLE_UNIT()
);
#1898=(
CONVERSION_BASED_UNIT('DEGREE',#1900)
NAMED_UNIT(#1899)
PLANE_ANGLE_UNIT()
);
#1899=DIMENSIONAL_EXPONENTS(0.,0.,0.,0.,0.,0.,0.);
#1900=PLANE_ANGLE_MEASURE_WITH_UNIT(PLANE_ANGLE_MEASURE(0.0174532925),#1901);
#1901=(
NAMED_UNIT(*)
PLANE_ANGLE_UNIT()
SI_UNIT($,.RADIAN.)
);
#1902=(
LENGTH_UNIT()
NAMED_UNIT(*)
SI_UNIT(.MILLI.,.METRE.)
);
ENDSEC;
END-ISO-10303-21;
