ISO-10303-21;
HEADER;
/* Generated by software containing ST-Developer
 * from STEP Tools, Inc. (www.steptools.com) 
 */
/* OPTION: using custom schema-name function */

FILE_DESCRIPTION(
/* description */ (''),
/* implementation_level */ '2;1');

FILE_NAME(
/* name */ '005 - OPEN_POCKET.stp',
/* time_stamp */ '2026-08-06T14:12:29+08:00',
/* author */ (''),
/* organization */ (''),
/* preprocessor_version */ 'ST-DEVELOPER v20.1',
/* originating_system */ 'SIEMENS PLM Software NX2512.5000',
/* authorisation */ '');

FILE_SCHEMA (('AUTOMOTIVE_DESIGN { 1 0 10303 214 3 1 1 1 }'));
ENDSEC;

DATA;
#10=PROPERTY_DEFINITION_REPRESENTATION(#14,#12);
#11=PROPERTY_DEFINITION_REPRESENTATION(#15,#13);
#12=REPRESENTATION('',(#16),#471);
#13=REPRESENTATION('',(#17),#471);
#14=PROPERTY_DEFINITION('pmi validation property','',#21);
#15=PROPERTY_DEFINITION('pmi validation property','',#21);
#16=VALUE_REPRESENTATION_ITEM('number of annotations',COUNT_MEASURE(0.));
#17=VALUE_REPRESENTATION_ITEM('number of views',COUNT_MEASURE(0.));
#18=SHAPE_REPRESENTATION_RELATIONSHIP('None',
'relationship between 005 - OPEN_POCKET_objects-None and 005 - OPEN_PO
CKET_objects-None',#30,#19);
#19=ADVANCED_BREP_SHAPE_REPRESENTATION('005 - OPEN_POCKET_objects-None',
(#40),#471);
#20=SHAPE_DEFINITION_REPRESENTATION(#21,#30);
#21=PRODUCT_DEFINITION_SHAPE('','',#22);
#22=PRODUCT_DEFINITION(' ','',#24,#23);
#23=PRODUCT_DEFINITION_CONTEXT('part definition',#29,'design');
#24=PRODUCT_DEFINITION_FORMATION_WITH_SPECIFIED_SOURCE(' ',' ',#26,
 .NOT_KNOWN.);
#25=PRODUCT_RELATED_PRODUCT_CATEGORY('part','',(#26));
#26=PRODUCT('005 - OPEN_POCKET_objects','005 - OPEN_POCKET_objects',' ',
(#27));
#27=PRODUCT_CONTEXT(' ',#29,'mechanical');
#28=APPLICATION_PROTOCOL_DEFINITION('international standard',
'automotive_design',2010,#29);
#29=APPLICATION_CONTEXT(
'core data for automotive mechanical design processes');
#30=SHAPE_REPRESENTATION('005 - OPEN_POCKET_objects-None',(#298),#471);
#31=PRESENTATION_LAYER_ASSIGNMENT('90','Layer 90',(#40));
#32=STYLED_ITEM('',(#33),#40);
#33=PRESENTATION_STYLE_ASSIGNMENT((#34));
#34=SURFACE_STYLE_USAGE(.BOTH.,#35);
#35=SURFACE_SIDE_STYLE('',(#36));
#36=SURFACE_STYLE_FILL_AREA(#37);
#37=FILL_AREA_STYLE('',(#38));
#38=FILL_AREA_STYLE_COLOUR('',#39);
#39=COLOUR_RGB('medium steel',0.611764705882353,0.658823529411765,0.670588235294118);
#40=MANIFOLD_SOLID_BREP('',#41);
#41=CLOSED_SHELL('',(#58,#59,#60,#61,#62,#63,#64,#65,#66,#67,#68,#69,#70,
#71));
#42=CYLINDRICAL_SURFACE('',#317,10.);
#43=CYLINDRICAL_SURFACE('',#318,10.);
#44=CYLINDRICAL_SURFACE('',#319,10.);
#45=CYLINDRICAL_SURFACE('',#320,10.);
#46=FACE_OUTER_BOUND('',#98,.T.);
#47=FACE_OUTER_BOUND('',#99,.T.);
#48=FACE_OUTER_BOUND('',#100,.T.);
#49=FACE_OUTER_BOUND('',#101,.T.);
#50=FACE_OUTER_BOUND('',#102,.T.);
#51=FACE_OUTER_BOUND('',#103,.T.);
#52=FACE_OUTER_BOUND('',#104,.T.);
#53=FACE_OUTER_BOUND('',#105,.T.);
#54=FACE_OUTER_BOUND('',#106,.T.);
#55=FACE_OUTER_BOUND('',#107,.T.);
#56=FACE_OUTER_BOUND('',#108,.T.);
#57=FACE_OUTER_BOUND('',#109,.T.);
#58=ADVANCED_FACE('',(#90,#91),#72,.T.);
#59=ADVANCED_FACE('',(#92,#93),#73,.T.);
#60=ADVANCED_FACE('',(#46),#74,.T.);
#61=ADVANCED_FACE('',(#47),#75,.T.);
#62=ADVANCED_FACE('',(#48),#76,.T.);
#63=ADVANCED_FACE('',(#49),#77,.T.);
#64=ADVANCED_FACE('',(#50),#78,.F.);
#65=ADVANCED_FACE('',(#51),#79,.F.);
#66=ADVANCED_FACE('',(#52),#80,.F.);
#67=ADVANCED_FACE('',(#53),#81,.F.);
#68=ADVANCED_FACE('',(#54),#42,.F.);
#69=ADVANCED_FACE('',(#55),#43,.F.);
#70=ADVANCED_FACE('',(#56),#44,.F.);
#71=ADVANCED_FACE('',(#57),#45,.F.);
#72=PLANE('',#303);
#73=PLANE('',#308);
#74=PLANE('',#309);
#75=PLANE('',#310);
#76=PLANE('',#311);
#77=PLANE('',#312);
#78=PLANE('',#313);
#79=PLANE('',#314);
#80=PLANE('',#315);
#81=PLANE('',#316);
#82=CIRCLE('',#299,10.);
#83=CIRCLE('',#300,10.);
#84=CIRCLE('',#301,10.);
#85=CIRCLE('',#302,10.);
#86=CIRCLE('',#304,10.);
#87=CIRCLE('',#305,10.);
#88=CIRCLE('',#306,10.);
#89=CIRCLE('',#307,10.);
#90=FACE_BOUND('',#94,.T.);
#91=FACE_BOUND('',#95,.T.);
#92=FACE_BOUND('',#96,.T.);
#93=FACE_BOUND('',#97,.T.);
#94=EDGE_LOOP('',(#110,#111,#112,#113));
#95=EDGE_LOOP('',(#114,#115,#116,#117,#118,#119,#120,#121));
#96=EDGE_LOOP('',(#122,#123,#124,#125));
#97=EDGE_LOOP('',(#126,#127,#128,#129,#130,#131,#132,#133));
#98=EDGE_LOOP('',(#134,#135,#136,#137));
#99=EDGE_LOOP('',(#138,#139,#140,#141));
#100=EDGE_LOOP('',(#142,#143,#144,#145));
#101=EDGE_LOOP('',(#146,#147,#148,#149));
#102=EDGE_LOOP('',(#150,#151,#152,#153));
#103=EDGE_LOOP('',(#154,#155,#156,#157));
#104=EDGE_LOOP('',(#158,#159,#160,#161));
#105=EDGE_LOOP('',(#162,#163,#164,#165));
#106=EDGE_LOOP('',(#166,#167,#168,#169));
#107=EDGE_LOOP('',(#170,#171,#172,#173));
#108=EDGE_LOOP('',(#174,#175,#176,#177));
#109=EDGE_LOOP('',(#178,#179,#180,#181));
#110=ORIENTED_EDGE('',*,*,#206,.F.);
#111=ORIENTED_EDGE('',*,*,#207,.F.);
#112=ORIENTED_EDGE('',*,*,#208,.F.);
#113=ORIENTED_EDGE('',*,*,#209,.F.);
#114=ORIENTED_EDGE('',*,*,#210,.T.);
#115=ORIENTED_EDGE('',*,*,#211,.T.);
#116=ORIENTED_EDGE('',*,*,#212,.T.);
#117=ORIENTED_EDGE('',*,*,#213,.T.);
#118=ORIENTED_EDGE('',*,*,#214,.T.);
#119=ORIENTED_EDGE('',*,*,#215,.T.);
#120=ORIENTED_EDGE('',*,*,#216,.T.);
#121=ORIENTED_EDGE('',*,*,#217,.T.);
#122=ORIENTED_EDGE('',*,*,#218,.F.);
#123=ORIENTED_EDGE('',*,*,#219,.F.);
#124=ORIENTED_EDGE('',*,*,#220,.F.);
#125=ORIENTED_EDGE('',*,*,#221,.F.);
#126=ORIENTED_EDGE('',*,*,#222,.T.);
#127=ORIENTED_EDGE('',*,*,#223,.T.);
#128=ORIENTED_EDGE('',*,*,#224,.T.);
#129=ORIENTED_EDGE('',*,*,#225,.T.);
#130=ORIENTED_EDGE('',*,*,#226,.T.);
#131=ORIENTED_EDGE('',*,*,#227,.T.);
#132=ORIENTED_EDGE('',*,*,#228,.T.);
#133=ORIENTED_EDGE('',*,*,#229,.T.);
#134=ORIENTED_EDGE('',*,*,#230,.T.);
#135=ORIENTED_EDGE('',*,*,#218,.T.);
#136=ORIENTED_EDGE('',*,*,#231,.F.);
#137=ORIENTED_EDGE('',*,*,#207,.T.);
#138=ORIENTED_EDGE('',*,*,#231,.T.);
#139=ORIENTED_EDGE('',*,*,#221,.T.);
#140=ORIENTED_EDGE('',*,*,#232,.F.);
#141=ORIENTED_EDGE('',*,*,#208,.T.);
#142=ORIENTED_EDGE('',*,*,#232,.T.);
#143=ORIENTED_EDGE('',*,*,#220,.T.);
#144=ORIENTED_EDGE('',*,*,#233,.F.);
#145=ORIENTED_EDGE('',*,*,#209,.T.);
#146=ORIENTED_EDGE('',*,*,#206,.T.);
#147=ORIENTED_EDGE('',*,*,#233,.T.);
#148=ORIENTED_EDGE('',*,*,#219,.T.);
#149=ORIENTED_EDGE('',*,*,#230,.F.);
#150=ORIENTED_EDGE('',*,*,#226,.F.);
#151=ORIENTED_EDGE('',*,*,#234,.T.);
#152=ORIENTED_EDGE('',*,*,#212,.F.);
#153=ORIENTED_EDGE('',*,*,#235,.T.);
#154=ORIENTED_EDGE('',*,*,#228,.F.);
#155=ORIENTED_EDGE('',*,*,#236,.T.);
#156=ORIENTED_EDGE('',*,*,#210,.F.);
#157=ORIENTED_EDGE('',*,*,#237,.T.);
#158=ORIENTED_EDGE('',*,*,#216,.F.);
#159=ORIENTED_EDGE('',*,*,#238,.T.);
#160=ORIENTED_EDGE('',*,*,#222,.F.);
#161=ORIENTED_EDGE('',*,*,#239,.T.);
#162=ORIENTED_EDGE('',*,*,#214,.F.);
#163=ORIENTED_EDGE('',*,*,#240,.T.);
#164=ORIENTED_EDGE('',*,*,#224,.F.);
#165=ORIENTED_EDGE('',*,*,#241,.T.);
#166=ORIENTED_EDGE('',*,*,#213,.F.);
#167=ORIENTED_EDGE('',*,*,#234,.F.);
#168=ORIENTED_EDGE('',*,*,#225,.F.);
#169=ORIENTED_EDGE('',*,*,#240,.F.);
#170=ORIENTED_EDGE('',*,*,#215,.F.);
#171=ORIENTED_EDGE('',*,*,#241,.F.);
#172=ORIENTED_EDGE('',*,*,#223,.F.);
#173=ORIENTED_EDGE('',*,*,#238,.F.);
#174=ORIENTED_EDGE('',*,*,#211,.F.);
#175=ORIENTED_EDGE('',*,*,#236,.F.);
#176=ORIENTED_EDGE('',*,*,#227,.F.);
#177=ORIENTED_EDGE('',*,*,#235,.F.);
#178=ORIENTED_EDGE('',*,*,#217,.F.);
#179=ORIENTED_EDGE('',*,*,#239,.F.);
#180=ORIENTED_EDGE('',*,*,#229,.F.);
#181=ORIENTED_EDGE('',*,*,#237,.F.);
#182=VERTEX_POINT('',#397);
#183=VERTEX_POINT('',#398);
#184=VERTEX_POINT('',#400);
#185=VERTEX_POINT('',#402);
#186=VERTEX_POINT('',#405);
#187=VERTEX_POINT('',#406);
#188=VERTEX_POINT('',#408);
#189=VERTEX_POINT('',#410);
#190=VERTEX_POINT('',#412);
#191=VERTEX_POINT('',#414);
#192=VERTEX_POINT('',#416);
#193=VERTEX_POINT('',#418);
#194=VERTEX_POINT('',#422);
#195=VERTEX_POINT('',#423);
#196=VERTEX_POINT('',#425);
#197=VERTEX_POINT('',#427);
#198=VERTEX_POINT('',#430);
#199=VERTEX_POINT('',#431);
#200=VERTEX_POINT('',#433);
#201=VERTEX_POINT('',#435);
#202=VERTEX_POINT('',#437);
#203=VERTEX_POINT('',#439);
#204=VERTEX_POINT('',#441);
#205=VERTEX_POINT('',#443);
#206=EDGE_CURVE('',#182,#183,#242,.T.);
#207=EDGE_CURVE('',#184,#182,#243,.T.);
#208=EDGE_CURVE('',#185,#184,#244,.T.);
#209=EDGE_CURVE('',#183,#185,#245,.T.);
#210=EDGE_CURVE('',#186,#187,#246,.T.);
#211=EDGE_CURVE('',#187,#188,#82,.T.);
#212=EDGE_CURVE('',#188,#189,#247,.T.);
#213=EDGE_CURVE('',#189,#190,#83,.T.);
#214=EDGE_CURVE('',#190,#191,#248,.T.);
#215=EDGE_CURVE('',#191,#192,#84,.T.);
#216=EDGE_CURVE('',#192,#193,#249,.T.);
#217=EDGE_CURVE('',#193,#186,#85,.T.);
#218=EDGE_CURVE('',#194,#195,#250,.T.);
#219=EDGE_CURVE('',#196,#194,#251,.T.);
#220=EDGE_CURVE('',#197,#196,#252,.T.);
#221=EDGE_CURVE('',#195,#197,#253,.T.);
#222=EDGE_CURVE('',#198,#199,#254,.T.);
#223=EDGE_CURVE('',#199,#200,#86,.T.);
#224=EDGE_CURVE('',#200,#201,#255,.T.);
#225=EDGE_CURVE('',#201,#202,#87,.T.);
#226=EDGE_CURVE('',#202,#203,#256,.T.);
#227=EDGE_CURVE('',#203,#204,#88,.T.);
#228=EDGE_CURVE('',#204,#205,#257,.T.);
#229=EDGE_CURVE('',#205,#198,#89,.T.);
#230=EDGE_CURVE('',#182,#194,#258,.T.);
#231=EDGE_CURVE('',#184,#195,#259,.T.);
#232=EDGE_CURVE('',#185,#197,#260,.T.);
#233=EDGE_CURVE('',#183,#196,#261,.T.);
#234=EDGE_CURVE('',#202,#189,#262,.T.);
#235=EDGE_CURVE('',#188,#203,#263,.T.);
#236=EDGE_CURVE('',#204,#187,#264,.T.);
#237=EDGE_CURVE('',#186,#205,#265,.T.);
#238=EDGE_CURVE('',#192,#199,#266,.T.);
#239=EDGE_CURVE('',#198,#193,#267,.T.);
#240=EDGE_CURVE('',#190,#201,#268,.T.);
#241=EDGE_CURVE('',#200,#191,#269,.T.);
#242=LINE('',#396,#270);
#243=LINE('',#399,#271);
#244=LINE('',#401,#272);
#245=LINE('',#403,#273);
#246=LINE('',#404,#274);
#247=LINE('',#409,#275);
#248=LINE('',#413,#276);
#249=LINE('',#417,#277);
#250=LINE('',#421,#278);
#251=LINE('',#424,#279);
#252=LINE('',#426,#280);
#253=LINE('',#428,#281);
#254=LINE('',#429,#282);
#255=LINE('',#434,#283);
#256=LINE('',#438,#284);
#257=LINE('',#442,#285);
#258=LINE('',#446,#286);
#259=LINE('',#447,#287);
#260=LINE('',#449,#288);
#261=LINE('',#451,#289);
#262=LINE('',#454,#290);
#263=LINE('',#455,#291);
#264=LINE('',#457,#292);
#265=LINE('',#458,#293);
#266=LINE('',#460,#294);
#267=LINE('',#461,#295);
#268=LINE('',#463,#296);
#269=LINE('',#464,#297);
#270=VECTOR('',#323,1.);
#271=VECTOR('',#324,1.);
#272=VECTOR('',#325,1.);
#273=VECTOR('',#326,1.);
#274=VECTOR('',#327,1.);
#275=VECTOR('',#330,1.);
#276=VECTOR('',#333,1.);
#277=VECTOR('',#336,1.);
#278=VECTOR('',#341,1.);
#279=VECTOR('',#342,1.);
#280=VECTOR('',#343,1.);
#281=VECTOR('',#344,1.);
#282=VECTOR('',#345,1.);
#283=VECTOR('',#348,1.);
#284=VECTOR('',#351,1.);
#285=VECTOR('',#354,1.);
#286=VECTOR('',#359,1.);
#287=VECTOR('',#360,1.);
#288=VECTOR('',#363,1.);
#289=VECTOR('',#366,1.);
#290=VECTOR('',#371,1.);
#291=VECTOR('',#372,1.);
#292=VECTOR('',#375,1.);
#293=VECTOR('',#376,1.);
#294=VECTOR('',#379,1.);
#295=VECTOR('',#380,1.);
#296=VECTOR('',#383,1.);
#297=VECTOR('',#384,1.);
#298=AXIS2_PLACEMENT_3D('',#395,#321,#322);
#299=AXIS2_PLACEMENT_3D('',#407,#328,#329);
#300=AXIS2_PLACEMENT_3D('',#411,#331,#332);
#301=AXIS2_PLACEMENT_3D('',#415,#334,#335);
#302=AXIS2_PLACEMENT_3D('',#419,#337,#338);
#303=AXIS2_PLACEMENT_3D('',#420,#339,#340);
#304=AXIS2_PLACEMENT_3D('',#432,#346,#347);
#305=AXIS2_PLACEMENT_3D('',#436,#349,#350);
#306=AXIS2_PLACEMENT_3D('',#440,#352,#353);
#307=AXIS2_PLACEMENT_3D('',#444,#355,#356);
#308=AXIS2_PLACEMENT_3D('',#445,#357,#358);
#309=AXIS2_PLACEMENT_3D('',#448,#361,#362);
#310=AXIS2_PLACEMENT_3D('',#450,#364,#365);
#311=AXIS2_PLACEMENT_3D('',#452,#367,#368);
#312=AXIS2_PLACEMENT_3D('',#453,#369,#370);
#313=AXIS2_PLACEMENT_3D('',#456,#373,#374);
#314=AXIS2_PLACEMENT_3D('',#459,#377,#378);
#315=AXIS2_PLACEMENT_3D('',#462,#381,#382);
#316=AXIS2_PLACEMENT_3D('',#465,#385,#386);
#317=AXIS2_PLACEMENT_3D('',#466,#387,#388);
#318=AXIS2_PLACEMENT_3D('',#467,#389,#390);
#319=AXIS2_PLACEMENT_3D('',#468,#391,#392);
#320=AXIS2_PLACEMENT_3D('',#469,#393,#394);
#321=DIRECTION('',(0.,0.,1.));
#322=DIRECTION('',(1.,0.,0.));
#323=DIRECTION('',(0.,1.,0.));
#324=DIRECTION('',(1.,0.,0.));
#325=DIRECTION('',(0.,-1.,0.));
#326=DIRECTION('',(-1.,0.,0.));
#327=DIRECTION('',(0.,-1.,0.));
#328=DIRECTION('',(0.,0.,1.));
#329=DIRECTION('',(-1.,0.,0.));
#330=DIRECTION('',(1.,0.,0.));
#331=DIRECTION('',(0.,0.,1.));
#332=DIRECTION('',(-1.,0.,0.));
#333=DIRECTION('',(0.,1.,0.));
#334=DIRECTION('',(0.,0.,1.));
#335=DIRECTION('',(-1.,0.,0.));
#336=DIRECTION('',(-1.,0.,0.));
#337=DIRECTION('',(0.,0.,1.));
#338=DIRECTION('',(-1.,0.,0.));
#339=DIRECTION('',(0.,0.,-1.));
#340=DIRECTION('',(-1.,0.,0.));
#341=DIRECTION('',(-1.,0.,0.));
#342=DIRECTION('',(0.,-1.,0.));
#343=DIRECTION('',(1.,0.,0.));
#344=DIRECTION('',(0.,1.,0.));
#345=DIRECTION('',(1.,0.,0.));
#346=DIRECTION('',(0.,0.,-1.));
#347=DIRECTION('',(1.,0.,0.));
#348=DIRECTION('',(0.,-1.,0.));
#349=DIRECTION('',(0.,0.,-1.));
#350=DIRECTION('',(1.,0.,0.));
#351=DIRECTION('',(-1.,0.,0.));
#352=DIRECTION('',(0.,0.,-1.));
#353=DIRECTION('',(1.,0.,0.));
#354=DIRECTION('',(0.,1.,0.));
#355=DIRECTION('',(0.,0.,-1.));
#356=DIRECTION('',(1.,0.,0.));
#357=DIRECTION('',(0.,0.,1.));
#358=DIRECTION('',(1.,0.,0.));
#359=DIRECTION('',(0.,0.,1.));
#360=DIRECTION('',(0.,0.,1.));
#361=DIRECTION('',(0.,-1.,0.));
#362=DIRECTION('',(0.,0.,-1.));
#363=DIRECTION('',(0.,0.,1.));
#364=DIRECTION('',(-1.,0.,0.));
#365=DIRECTION('',(0.,0.,1.));
#366=DIRECTION('',(0.,0.,1.));
#367=DIRECTION('',(0.,1.,0.));
#368=DIRECTION('',(0.,0.,1.));
#369=DIRECTION('',(1.,0.,0.));
#370=DIRECTION('',(0.,0.,-1.));
#371=DIRECTION('',(0.,0.,-1.));
#372=DIRECTION('',(0.,0.,1.));
#373=DIRECTION('',(0.,-1.,0.));
#374=DIRECTION('',(0.,0.,-1.));
#375=DIRECTION('',(0.,0.,-1.));
#376=DIRECTION('',(0.,0.,1.));
#377=DIRECTION('',(-1.,0.,0.));
#378=DIRECTION('',(0.,0.,1.));
#379=DIRECTION('',(0.,0.,1.));
#380=DIRECTION('',(0.,0.,-1.));
#381=DIRECTION('',(0.,1.,0.));
#382=DIRECTION('',(0.,0.,1.));
#383=DIRECTION('',(0.,0.,1.));
#384=DIRECTION('',(0.,0.,-1.));
#385=DIRECTION('',(1.,0.,0.));
#386=DIRECTION('',(0.,0.,-1.));
#387=DIRECTION('',(0.,0.,-1.));
#388=DIRECTION('',(-1.,0.,0.));
#389=DIRECTION('',(0.,0.,-1.));
#390=DIRECTION('',(-1.,0.,0.));
#391=DIRECTION('',(0.,0.,-1.));
#392=DIRECTION('',(-1.,0.,0.));
#393=DIRECTION('',(0.,0.,-1.));
#394=DIRECTION('',(-1.,0.,0.));
#395=CARTESIAN_POINT('',(0.,0.,0.));
#396=CARTESIAN_POINT('',(250.,75.,0.));
#397=CARTESIAN_POINT('',(250.,0.,0.));
#398=CARTESIAN_POINT('',(250.,150.,0.));
#399=CARTESIAN_POINT('',(125.,0.,0.));
#400=CARTESIAN_POINT('',(0.,0.,0.));
#401=CARTESIAN_POINT('',(0.,75.,0.));
#402=CARTESIAN_POINT('',(0.,150.,0.));
#403=CARTESIAN_POINT('',(125.,150.,0.));
#404=CARTESIAN_POINT('',(20.,75.,0.));
#405=CARTESIAN_POINT('',(20.,120.,0.));
#406=CARTESIAN_POINT('',(20.,30.,0.));
#407=CARTESIAN_POINT('',(30.,30.,0.));
#408=CARTESIAN_POINT('',(30.,20.,0.));
#409=CARTESIAN_POINT('',(125.,20.,0.));
#410=CARTESIAN_POINT('',(220.,20.,0.));
#411=CARTESIAN_POINT('',(220.,30.,0.));
#412=CARTESIAN_POINT('',(230.,30.,0.));
#413=CARTESIAN_POINT('',(230.,75.,0.));
#414=CARTESIAN_POINT('',(230.,120.,0.));
#415=CARTESIAN_POINT('',(220.,120.,0.));
#416=CARTESIAN_POINT('',(220.,130.,0.));
#417=CARTESIAN_POINT('',(125.,130.,0.));
#418=CARTESIAN_POINT('',(30.,130.,0.));
#419=CARTESIAN_POINT('',(30.,120.,0.));
#420=CARTESIAN_POINT('',(125.,75.,0.));
#421=CARTESIAN_POINT('',(125.,0.,30.));
#422=CARTESIAN_POINT('',(250.,0.,30.));
#423=CARTESIAN_POINT('',(0.,0.,30.));
#424=CARTESIAN_POINT('',(250.,75.,30.));
#425=CARTESIAN_POINT('',(250.,150.,30.));
#426=CARTESIAN_POINT('',(125.,150.,30.));
#427=CARTESIAN_POINT('',(0.,150.,30.));
#428=CARTESIAN_POINT('',(0.,75.,30.));
#429=CARTESIAN_POINT('',(125.,130.,30.));
#430=CARTESIAN_POINT('',(30.,130.,30.));
#431=CARTESIAN_POINT('',(220.,130.,30.));
#432=CARTESIAN_POINT('',(220.,120.,30.));
#433=CARTESIAN_POINT('',(230.,120.,30.));
#434=CARTESIAN_POINT('',(230.,75.,30.));
#435=CARTESIAN_POINT('',(230.,30.,30.));
#436=CARTESIAN_POINT('',(220.,30.,30.));
#437=CARTESIAN_POINT('',(220.,20.,30.));
#438=CARTESIAN_POINT('',(125.,20.,30.));
#439=CARTESIAN_POINT('',(30.,20.,30.));
#440=CARTESIAN_POINT('',(30.,30.,30.));
#441=CARTESIAN_POINT('',(20.,30.,30.));
#442=CARTESIAN_POINT('',(20.,75.,30.));
#443=CARTESIAN_POINT('',(20.,120.,30.));
#444=CARTESIAN_POINT('',(30.,120.,30.));
#445=CARTESIAN_POINT('',(125.,75.,30.));
#446=CARTESIAN_POINT('',(250.,0.,0.));
#447=CARTESIAN_POINT('',(0.,0.,0.));
#448=CARTESIAN_POINT('',(125.,0.,0.));
#449=CARTESIAN_POINT('',(0.,150.,0.));
#450=CARTESIAN_POINT('',(0.,75.,0.));
#451=CARTESIAN_POINT('',(250.,150.,0.));
#452=CARTESIAN_POINT('',(125.,150.,0.));
#453=CARTESIAN_POINT('',(250.,75.,0.));
#454=CARTESIAN_POINT('',(220.,20.,20.));
#455=CARTESIAN_POINT('',(30.,20.,30.));
#456=CARTESIAN_POINT('',(125.,20.,0.));
#457=CARTESIAN_POINT('',(20.,30.,20.));
#458=CARTESIAN_POINT('',(20.,120.,30.));
#459=CARTESIAN_POINT('',(20.,75.,0.));
#460=CARTESIAN_POINT('',(220.,130.,30.));
#461=CARTESIAN_POINT('',(30.,130.,20.));
#462=CARTESIAN_POINT('',(125.,130.,0.));
#463=CARTESIAN_POINT('',(230.,30.,30.));
#464=CARTESIAN_POINT('',(230.,120.,20.));
#465=CARTESIAN_POINT('',(230.,75.,0.));
#466=CARTESIAN_POINT('',(220.,30.,0.));
#467=CARTESIAN_POINT('',(220.,120.,0.));
#468=CARTESIAN_POINT('',(30.,30.,0.));
#469=CARTESIAN_POINT('',(30.,120.,0.));
#470=MECHANICAL_DESIGN_GEOMETRIC_PRESENTATION_REPRESENTATION('',(#32),#471);
#471=(
GEOMETRIC_REPRESENTATION_CONTEXT(3)
GLOBAL_UNCERTAINTY_ASSIGNED_CONTEXT((#472))
GLOBAL_UNIT_ASSIGNED_CONTEXT((#478,#474,#473))
REPRESENTATION_CONTEXT('005 - OPEN_POCKET','TOP_LEVEL_ASSEMBLY_PART')
);
#472=UNCERTAINTY_MEASURE_WITH_UNIT(LENGTH_MEASURE(2.E-5),#478,
'DISTANCE_ACCURACY_VALUE','Maximum Tolerance applied to model');
#473=(
NAMED_UNIT(*)
SI_UNIT($,.STERADIAN.)
SOLID_ANGLE_UNIT()
);
#474=(
CONVERSION_BASED_UNIT('DEGREE',#476)
NAMED_UNIT(#475)
PLANE_ANGLE_UNIT()
);
#475=DIMENSIONAL_EXPONENTS(0.,0.,0.,0.,0.,0.,0.);
#476=PLANE_ANGLE_MEASURE_WITH_UNIT(PLANE_ANGLE_MEASURE(0.0174532925),#477);
#477=(
NAMED_UNIT(*)
PLANE_ANGLE_UNIT()
SI_UNIT($,.RADIAN.)
);
#478=(
LENGTH_UNIT()
NAMED_UNIT(*)
SI_UNIT(.MILLI.,.METRE.)
);
ENDSEC;
END-ISO-10303-21;
