ISO-10303-21;
HEADER;
/* Generated by software containing ST-Developer
 * from STEP Tools, Inc. (www.steptools.com) 
 */
/* OPTION: using custom schema-name function */

FILE_DESCRIPTION(
/* description */ (''),
/* implementation_level */ '2;1');

FILE_NAME(
/* name */ '006 - OPEN_CLOSE_POCKET.stp',
/* time_stamp */ '2026-08-06T14:36:03+08:00',
/* author */ (''),
/* organization */ (''),
/* preprocessor_version */ 'ST-DEVELOPER v20.1',
/* originating_system */ 'SIEMENS PLM Software NX2512.5000',
/* authorisation */ '');

FILE_SCHEMA (('AUTOMOTIVE_DESIGN { 1 0 10303 214 3 1 1 1 }'));
ENDSEC;

DATA;
#10=PROPERTY_DEFINITION_REPRESENTATION(#14,#12);
#11=PROPERTY_DEFINITION_REPRESENTATION(#15,#13);
#12=REPRESENTATION('',(#16),#753);
#13=REPRESENTATION('',(#17),#753);
#14=PROPERTY_DEFINITION('pmi validation property','',#21);
#15=PROPERTY_DEFINITION('pmi validation property','',#21);
#16=VALUE_REPRESENTATION_ITEM('number of annotations',COUNT_MEASURE(0.));
#17=VALUE_REPRESENTATION_ITEM('number of views',COUNT_MEASURE(0.));
#18=SHAPE_REPRESENTATION_RELATIONSHIP('None',
'relationship between 006 - OPEN_CLOSE_POCKET_objects-None and 006 - O
PEN_CLOSE_POCKET_objects-None',#30,#19);
#19=ADVANCED_BREP_SHAPE_REPRESENTATION(
'006 - OPEN_CLOSE_POCKET_objects-None',(#40),#753);
#20=SHAPE_DEFINITION_REPRESENTATION(#21,#30);
#21=PRODUCT_DEFINITION_SHAPE('','',#22);
#22=PRODUCT_DEFINITION(' ','',#24,#23);
#23=PRODUCT_DEFINITION_CONTEXT('part definition',#29,'design');
#24=PRODUCT_DEFINITION_FORMATION_WITH_SPECIFIED_SOURCE(' ',' ',#26,
 .NOT_KNOWN.);
#25=PRODUCT_RELATED_PRODUCT_CATEGORY('part','',(#26));
#26=PRODUCT('006 - OPEN_CLOSE_POCKET_objects',
'006 - OPEN_CLOSE_POCKET_objects',' ',(#27));
#27=PRODUCT_CONTEXT(' ',#29,'mechanical');
#28=APPLICATION_PROTOCOL_DEFINITION('international standard',
'automotive_design',2010,#29);
#29=APPLICATION_CONTEXT(
'core data for automotive mechanical design processes');
#30=SHAPE_REPRESENTATION('006 - OPEN_CLOSE_POCKET_objects-None',(#464),
#753);
#31=PRESENTATION_LAYER_ASSIGNMENT('90','Layer 90',(#40));
#32=STYLED_ITEM('',(#33),#40);
#33=PRESENTATION_STYLE_ASSIGNMENT((#34));
#34=SURFACE_STYLE_USAGE(.BOTH.,#35);
#35=SURFACE_SIDE_STYLE('',(#36));
#36=SURFACE_STYLE_FILL_AREA(#37);
#37=FILL_AREA_STYLE('',(#38));
#38=FILL_AREA_STYLE_COLOUR('',#39);
#39=COLOUR_RGB('medium steel',0.611764705882353,0.658823529411765,0.670588235294118);
#40=MANIFOLD_SOLID_BREP('',#41);
#41=CLOSED_SHELL('',(#72,#73,#74,#75,#76,#77,#78,#79,#80,#81,#82,#83,#84,
#85,#86,#87,#88,#89,#90,#91,#92,#93,#94));
#42=FACE_BOUND('',#142,.T.);
#43=FACE_BOUND('',#143,.T.);
#44=FACE_BOUND('',#144,.T.);
#45=FACE_BOUND('',#145,.T.);
#46=FACE_BOUND('',#150,.T.);
#47=FACE_BOUND('',#151,.T.);
#48=CYLINDRICAL_SURFACE('',#475,10.);
#49=CYLINDRICAL_SURFACE('',#478,10.);
#50=CYLINDRICAL_SURFACE('',#481,10.);
#51=CYLINDRICAL_SURFACE('',#484,10.);
#52=CYLINDRICAL_SURFACE('',#500,10.);
#53=CYLINDRICAL_SURFACE('',#501,10.);
#54=CYLINDRICAL_SURFACE('',#502,10.);
#55=CYLINDRICAL_SURFACE('',#503,10.);
#56=CIRCLE('',#473,10.);
#57=CIRCLE('',#474,10.);
#58=CIRCLE('',#476,10.);
#59=CIRCLE('',#477,10.);
#60=CIRCLE('',#479,10.);
#61=CIRCLE('',#480,10.);
#62=CIRCLE('',#482,10.);
#63=CIRCLE('',#483,10.);
#64=CIRCLE('',#486,10.);
#65=CIRCLE('',#487,10.);
#66=CIRCLE('',#488,10.);
#67=CIRCLE('',#489,10.);
#68=CIRCLE('',#495,10.);
#69=CIRCLE('',#496,10.);
#70=CIRCLE('',#497,10.);
#71=CIRCLE('',#498,10.);
#72=ADVANCED_FACE('',(#110),#95,.T.);
#73=ADVANCED_FACE('',(#111),#96,.T.);
#74=ADVANCED_FACE('',(#112),#97,.T.);
#75=ADVANCED_FACE('',(#113),#98,.T.);
#76=ADVANCED_FACE('',(#114),#99,.F.);
#77=ADVANCED_FACE('',(#115),#100,.F.);
#78=ADVANCED_FACE('',(#116),#101,.F.);
#79=ADVANCED_FACE('',(#117),#102,.F.);
#80=ADVANCED_FACE('',(#118),#48,.F.);
#81=ADVANCED_FACE('',(#119),#49,.F.);
#82=ADVANCED_FACE('',(#120),#50,.F.);
#83=ADVANCED_FACE('',(#121),#51,.F.);
#84=ADVANCED_FACE('',(#42,#43),#103,.T.);
#85=ADVANCED_FACE('',(#44,#45),#104,.T.);
#86=ADVANCED_FACE('',(#122),#105,.F.);
#87=ADVANCED_FACE('',(#123),#106,.F.);
#88=ADVANCED_FACE('',(#124),#107,.F.);
#89=ADVANCED_FACE('',(#125),#108,.F.);
#90=ADVANCED_FACE('',(#46,#47),#109,.F.);
#91=ADVANCED_FACE('',(#126),#52,.F.);
#92=ADVANCED_FACE('',(#127),#53,.F.);
#93=ADVANCED_FACE('',(#128),#54,.F.);
#94=ADVANCED_FACE('',(#129),#55,.F.);
#95=PLANE('',#465);
#96=PLANE('',#466);
#97=PLANE('',#467);
#98=PLANE('',#468);
#99=PLANE('',#469);
#100=PLANE('',#470);
#101=PLANE('',#471);
#102=PLANE('',#472);
#103=PLANE('',#485);
#104=PLANE('',#490);
#105=PLANE('',#491);
#106=PLANE('',#492);
#107=PLANE('',#493);
#108=PLANE('',#494);
#109=PLANE('',#499);
#110=FACE_OUTER_BOUND('',#130,.T.);
#111=FACE_OUTER_BOUND('',#131,.T.);
#112=FACE_OUTER_BOUND('',#132,.T.);
#113=FACE_OUTER_BOUND('',#133,.T.);
#114=FACE_OUTER_BOUND('',#134,.T.);
#115=FACE_OUTER_BOUND('',#135,.T.);
#116=FACE_OUTER_BOUND('',#136,.T.);
#117=FACE_OUTER_BOUND('',#137,.T.);
#118=FACE_OUTER_BOUND('',#138,.T.);
#119=FACE_OUTER_BOUND('',#139,.T.);
#120=FACE_OUTER_BOUND('',#140,.T.);
#121=FACE_OUTER_BOUND('',#141,.T.);
#122=FACE_OUTER_BOUND('',#146,.T.);
#123=FACE_OUTER_BOUND('',#147,.T.);
#124=FACE_OUTER_BOUND('',#148,.T.);
#125=FACE_OUTER_BOUND('',#149,.T.);
#126=FACE_OUTER_BOUND('',#152,.T.);
#127=FACE_OUTER_BOUND('',#153,.T.);
#128=FACE_OUTER_BOUND('',#154,.T.);
#129=FACE_OUTER_BOUND('',#155,.T.);
#130=EDGE_LOOP('',(#156,#157,#158,#159));
#131=EDGE_LOOP('',(#160,#161,#162,#163));
#132=EDGE_LOOP('',(#164,#165,#166,#167));
#133=EDGE_LOOP('',(#168,#169,#170,#171));
#134=EDGE_LOOP('',(#172,#173,#174,#175));
#135=EDGE_LOOP('',(#176,#177,#178,#179));
#136=EDGE_LOOP('',(#180,#181,#182,#183));
#137=EDGE_LOOP('',(#184,#185,#186,#187));
#138=EDGE_LOOP('',(#188,#189,#190,#191));
#139=EDGE_LOOP('',(#192,#193,#194,#195));
#140=EDGE_LOOP('',(#196,#197,#198,#199));
#141=EDGE_LOOP('',(#200,#201,#202,#203));
#142=EDGE_LOOP('',(#204,#205,#206,#207));
#143=EDGE_LOOP('',(#208,#209,#210,#211,#212,#213,#214,#215));
#144=EDGE_LOOP('',(#216,#217,#218,#219));
#145=EDGE_LOOP('',(#220,#221,#222,#223,#224,#225,#226,#227));
#146=EDGE_LOOP('',(#228,#229,#230,#231));
#147=EDGE_LOOP('',(#232,#233,#234,#235));
#148=EDGE_LOOP('',(#236,#237,#238,#239));
#149=EDGE_LOOP('',(#240,#241,#242,#243));
#150=EDGE_LOOP('',(#244,#245,#246,#247,#248,#249,#250,#251));
#151=EDGE_LOOP('',(#252,#253,#254,#255,#256,#257,#258,#259));
#152=EDGE_LOOP('',(#260,#261,#262,#263));
#153=EDGE_LOOP('',(#264,#265,#266,#267));
#154=EDGE_LOOP('',(#268,#269,#270,#271));
#155=EDGE_LOOP('',(#272,#273,#274,#275));
#156=ORIENTED_EDGE('',*,*,#316,.F.);
#157=ORIENTED_EDGE('',*,*,#317,.T.);
#158=ORIENTED_EDGE('',*,*,#318,.T.);
#159=ORIENTED_EDGE('',*,*,#319,.T.);
#160=ORIENTED_EDGE('',*,*,#320,.F.);
#161=ORIENTED_EDGE('',*,*,#321,.T.);
#162=ORIENTED_EDGE('',*,*,#316,.T.);
#163=ORIENTED_EDGE('',*,*,#322,.T.);
#164=ORIENTED_EDGE('',*,*,#323,.F.);
#165=ORIENTED_EDGE('',*,*,#324,.T.);
#166=ORIENTED_EDGE('',*,*,#320,.T.);
#167=ORIENTED_EDGE('',*,*,#325,.T.);
#168=ORIENTED_EDGE('',*,*,#318,.F.);
#169=ORIENTED_EDGE('',*,*,#326,.T.);
#170=ORIENTED_EDGE('',*,*,#323,.T.);
#171=ORIENTED_EDGE('',*,*,#327,.T.);
#172=ORIENTED_EDGE('',*,*,#328,.F.);
#173=ORIENTED_EDGE('',*,*,#329,.T.);
#174=ORIENTED_EDGE('',*,*,#330,.F.);
#175=ORIENTED_EDGE('',*,*,#331,.T.);
#176=ORIENTED_EDGE('',*,*,#332,.T.);
#177=ORIENTED_EDGE('',*,*,#333,.T.);
#178=ORIENTED_EDGE('',*,*,#334,.F.);
#179=ORIENTED_EDGE('',*,*,#335,.T.);
#180=ORIENTED_EDGE('',*,*,#336,.T.);
#181=ORIENTED_EDGE('',*,*,#337,.T.);
#182=ORIENTED_EDGE('',*,*,#338,.F.);
#183=ORIENTED_EDGE('',*,*,#339,.T.);
#184=ORIENTED_EDGE('',*,*,#340,.F.);
#185=ORIENTED_EDGE('',*,*,#341,.T.);
#186=ORIENTED_EDGE('',*,*,#342,.F.);
#187=ORIENTED_EDGE('',*,*,#343,.T.);
#188=ORIENTED_EDGE('',*,*,#344,.T.);
#189=ORIENTED_EDGE('',*,*,#331,.F.);
#190=ORIENTED_EDGE('',*,*,#345,.F.);
#191=ORIENTED_EDGE('',*,*,#341,.F.);
#192=ORIENTED_EDGE('',*,*,#346,.F.);
#193=ORIENTED_EDGE('',*,*,#343,.F.);
#194=ORIENTED_EDGE('',*,*,#347,.F.);
#195=ORIENTED_EDGE('',*,*,#337,.F.);
#196=ORIENTED_EDGE('',*,*,#348,.T.);
#197=ORIENTED_EDGE('',*,*,#335,.F.);
#198=ORIENTED_EDGE('',*,*,#349,.F.);
#199=ORIENTED_EDGE('',*,*,#329,.F.);
#200=ORIENTED_EDGE('',*,*,#350,.T.);
#201=ORIENTED_EDGE('',*,*,#339,.F.);
#202=ORIENTED_EDGE('',*,*,#351,.F.);
#203=ORIENTED_EDGE('',*,*,#333,.F.);
#204=ORIENTED_EDGE('',*,*,#319,.F.);
#205=ORIENTED_EDGE('',*,*,#327,.F.);
#206=ORIENTED_EDGE('',*,*,#325,.F.);
#207=ORIENTED_EDGE('',*,*,#322,.F.);
#208=ORIENTED_EDGE('',*,*,#338,.T.);
#209=ORIENTED_EDGE('',*,*,#347,.T.);
#210=ORIENTED_EDGE('',*,*,#342,.T.);
#211=ORIENTED_EDGE('',*,*,#345,.T.);
#212=ORIENTED_EDGE('',*,*,#330,.T.);
#213=ORIENTED_EDGE('',*,*,#349,.T.);
#214=ORIENTED_EDGE('',*,*,#334,.T.);
#215=ORIENTED_EDGE('',*,*,#351,.T.);
#216=ORIENTED_EDGE('',*,*,#326,.F.);
#217=ORIENTED_EDGE('',*,*,#317,.F.);
#218=ORIENTED_EDGE('',*,*,#321,.F.);
#219=ORIENTED_EDGE('',*,*,#324,.F.);
#220=ORIENTED_EDGE('',*,*,#352,.T.);
#221=ORIENTED_EDGE('',*,*,#353,.T.);
#222=ORIENTED_EDGE('',*,*,#354,.T.);
#223=ORIENTED_EDGE('',*,*,#355,.T.);
#224=ORIENTED_EDGE('',*,*,#356,.T.);
#225=ORIENTED_EDGE('',*,*,#357,.T.);
#226=ORIENTED_EDGE('',*,*,#358,.T.);
#227=ORIENTED_EDGE('',*,*,#359,.T.);
#228=ORIENTED_EDGE('',*,*,#358,.F.);
#229=ORIENTED_EDGE('',*,*,#360,.T.);
#230=ORIENTED_EDGE('',*,*,#361,.F.);
#231=ORIENTED_EDGE('',*,*,#362,.T.);
#232=ORIENTED_EDGE('',*,*,#352,.F.);
#233=ORIENTED_EDGE('',*,*,#363,.T.);
#234=ORIENTED_EDGE('',*,*,#364,.T.);
#235=ORIENTED_EDGE('',*,*,#365,.T.);
#236=ORIENTED_EDGE('',*,*,#366,.T.);
#237=ORIENTED_EDGE('',*,*,#367,.T.);
#238=ORIENTED_EDGE('',*,*,#354,.F.);
#239=ORIENTED_EDGE('',*,*,#368,.T.);
#240=ORIENTED_EDGE('',*,*,#369,.F.);
#241=ORIENTED_EDGE('',*,*,#370,.T.);
#242=ORIENTED_EDGE('',*,*,#356,.F.);
#243=ORIENTED_EDGE('',*,*,#371,.T.);
#244=ORIENTED_EDGE('',*,*,#348,.F.);
#245=ORIENTED_EDGE('',*,*,#328,.T.);
#246=ORIENTED_EDGE('',*,*,#344,.F.);
#247=ORIENTED_EDGE('',*,*,#340,.T.);
#248=ORIENTED_EDGE('',*,*,#346,.T.);
#249=ORIENTED_EDGE('',*,*,#336,.F.);
#250=ORIENTED_EDGE('',*,*,#350,.F.);
#251=ORIENTED_EDGE('',*,*,#332,.F.);
#252=ORIENTED_EDGE('',*,*,#361,.T.);
#253=ORIENTED_EDGE('',*,*,#372,.T.);
#254=ORIENTED_EDGE('',*,*,#369,.T.);
#255=ORIENTED_EDGE('',*,*,#373,.T.);
#256=ORIENTED_EDGE('',*,*,#366,.F.);
#257=ORIENTED_EDGE('',*,*,#374,.T.);
#258=ORIENTED_EDGE('',*,*,#364,.F.);
#259=ORIENTED_EDGE('',*,*,#375,.T.);
#260=ORIENTED_EDGE('',*,*,#357,.F.);
#261=ORIENTED_EDGE('',*,*,#370,.F.);
#262=ORIENTED_EDGE('',*,*,#372,.F.);
#263=ORIENTED_EDGE('',*,*,#360,.F.);
#264=ORIENTED_EDGE('',*,*,#359,.F.);
#265=ORIENTED_EDGE('',*,*,#362,.F.);
#266=ORIENTED_EDGE('',*,*,#375,.F.);
#267=ORIENTED_EDGE('',*,*,#363,.F.);
#268=ORIENTED_EDGE('',*,*,#355,.F.);
#269=ORIENTED_EDGE('',*,*,#367,.F.);
#270=ORIENTED_EDGE('',*,*,#373,.F.);
#271=ORIENTED_EDGE('',*,*,#371,.F.);
#272=ORIENTED_EDGE('',*,*,#353,.F.);
#273=ORIENTED_EDGE('',*,*,#365,.F.);
#274=ORIENTED_EDGE('',*,*,#374,.F.);
#275=ORIENTED_EDGE('',*,*,#368,.F.);
#276=VERTEX_POINT('',#630);
#277=VERTEX_POINT('',#631);
#278=VERTEX_POINT('',#633);
#279=VERTEX_POINT('',#635);
#280=VERTEX_POINT('',#639);
#281=VERTEX_POINT('',#640);
#282=VERTEX_POINT('',#645);
#283=VERTEX_POINT('',#646);
#284=VERTEX_POINT('',#654);
#285=VERTEX_POINT('',#655);
#286=VERTEX_POINT('',#657);
#287=VERTEX_POINT('',#659);
#288=VERTEX_POINT('',#663);
#289=VERTEX_POINT('',#664);
#290=VERTEX_POINT('',#666);
#291=VERTEX_POINT('',#668);
#292=VERTEX_POINT('',#672);
#293=VERTEX_POINT('',#673);
#294=VERTEX_POINT('',#675);
#295=VERTEX_POINT('',#677);
#296=VERTEX_POINT('',#681);
#297=VERTEX_POINT('',#682);
#298=VERTEX_POINT('',#684);
#299=VERTEX_POINT('',#686);
#300=VERTEX_POINT('',#703);
#301=VERTEX_POINT('',#704);
#302=VERTEX_POINT('',#706);
#303=VERTEX_POINT('',#708);
#304=VERTEX_POINT('',#710);
#305=VERTEX_POINT('',#712);
#306=VERTEX_POINT('',#714);
#307=VERTEX_POINT('',#716);
#308=VERTEX_POINT('',#720);
#309=VERTEX_POINT('',#722);
#310=VERTEX_POINT('',#726);
#311=VERTEX_POINT('',#728);
#312=VERTEX_POINT('',#732);
#313=VERTEX_POINT('',#733);
#314=VERTEX_POINT('',#738);
#315=VERTEX_POINT('',#739);
#316=EDGE_CURVE('',#276,#277,#376,.T.);
#317=EDGE_CURVE('',#276,#278,#377,.T.);
#318=EDGE_CURVE('',#278,#279,#378,.T.);
#319=EDGE_CURVE('',#279,#277,#379,.T.);
#320=EDGE_CURVE('',#280,#281,#380,.T.);
#321=EDGE_CURVE('',#280,#276,#381,.T.);
#322=EDGE_CURVE('',#277,#281,#382,.T.);
#323=EDGE_CURVE('',#282,#283,#383,.T.);
#324=EDGE_CURVE('',#282,#280,#384,.T.);
#325=EDGE_CURVE('',#281,#283,#385,.T.);
#326=EDGE_CURVE('',#278,#282,#386,.T.);
#327=EDGE_CURVE('',#283,#279,#387,.T.);
#328=EDGE_CURVE('',#284,#285,#388,.T.);
#329=EDGE_CURVE('',#284,#286,#389,.T.);
#330=EDGE_CURVE('',#287,#286,#390,.T.);
#331=EDGE_CURVE('',#287,#285,#391,.T.);
#332=EDGE_CURVE('',#288,#289,#392,.T.);
#333=EDGE_CURVE('',#289,#290,#393,.T.);
#334=EDGE_CURVE('',#291,#290,#394,.T.);
#335=EDGE_CURVE('',#291,#288,#395,.T.);
#336=EDGE_CURVE('',#292,#293,#396,.T.);
#337=EDGE_CURVE('',#293,#294,#397,.T.);
#338=EDGE_CURVE('',#295,#294,#398,.T.);
#339=EDGE_CURVE('',#295,#292,#399,.T.);
#340=EDGE_CURVE('',#296,#297,#400,.T.);
#341=EDGE_CURVE('',#296,#298,#401,.T.);
#342=EDGE_CURVE('',#299,#298,#402,.T.);
#343=EDGE_CURVE('',#299,#297,#403,.T.);
#344=EDGE_CURVE('',#296,#285,#56,.T.);
#345=EDGE_CURVE('',#298,#287,#57,.T.);
#346=EDGE_CURVE('',#297,#293,#58,.T.);
#347=EDGE_CURVE('',#294,#299,#59,.T.);
#348=EDGE_CURVE('',#284,#288,#60,.T.);
#349=EDGE_CURVE('',#286,#291,#61,.T.);
#350=EDGE_CURVE('',#289,#292,#62,.T.);
#351=EDGE_CURVE('',#290,#295,#63,.T.);
#352=EDGE_CURVE('',#300,#301,#404,.T.);
#353=EDGE_CURVE('',#301,#302,#64,.T.);
#354=EDGE_CURVE('',#302,#303,#405,.T.);
#355=EDGE_CURVE('',#303,#304,#65,.T.);
#356=EDGE_CURVE('',#304,#305,#406,.T.);
#357=EDGE_CURVE('',#305,#306,#66,.T.);
#358=EDGE_CURVE('',#306,#307,#407,.T.);
#359=EDGE_CURVE('',#307,#300,#67,.T.);
#360=EDGE_CURVE('',#306,#308,#408,.T.);
#361=EDGE_CURVE('',#309,#308,#409,.T.);
#362=EDGE_CURVE('',#309,#307,#410,.T.);
#363=EDGE_CURVE('',#300,#310,#411,.T.);
#364=EDGE_CURVE('',#310,#311,#412,.T.);
#365=EDGE_CURVE('',#311,#301,#413,.T.);
#366=EDGE_CURVE('',#312,#313,#414,.T.);
#367=EDGE_CURVE('',#313,#303,#415,.T.);
#368=EDGE_CURVE('',#302,#312,#416,.T.);
#369=EDGE_CURVE('',#314,#315,#417,.T.);
#370=EDGE_CURVE('',#314,#305,#418,.T.);
#371=EDGE_CURVE('',#304,#315,#419,.T.);
#372=EDGE_CURVE('',#308,#314,#68,.T.);
#373=EDGE_CURVE('',#315,#313,#69,.T.);
#374=EDGE_CURVE('',#312,#311,#70,.T.);
#375=EDGE_CURVE('',#310,#309,#71,.T.);
#376=LINE('',#629,#420);
#377=LINE('',#632,#421);
#378=LINE('',#634,#422);
#379=LINE('',#636,#423);
#380=LINE('',#638,#424);
#381=LINE('',#641,#425);
#382=LINE('',#642,#426);
#383=LINE('',#644,#427);
#384=LINE('',#647,#428);
#385=LINE('',#648,#429);
#386=LINE('',#650,#430);
#387=LINE('',#651,#431);
#388=LINE('',#653,#432);
#389=LINE('',#656,#433);
#390=LINE('',#658,#434);
#391=LINE('',#660,#435);
#392=LINE('',#662,#436);
#393=LINE('',#665,#437);
#394=LINE('',#667,#438);
#395=LINE('',#669,#439);
#396=LINE('',#671,#440);
#397=LINE('',#674,#441);
#398=LINE('',#676,#442);
#399=LINE('',#678,#443);
#400=LINE('',#680,#444);
#401=LINE('',#683,#445);
#402=LINE('',#685,#446);
#403=LINE('',#687,#447);
#404=LINE('',#702,#448);
#405=LINE('',#707,#449);
#406=LINE('',#711,#450);
#407=LINE('',#715,#451);
#408=LINE('',#719,#452);
#409=LINE('',#721,#453);
#410=LINE('',#723,#454);
#411=LINE('',#725,#455);
#412=LINE('',#727,#456);
#413=LINE('',#729,#457);
#414=LINE('',#731,#458);
#415=LINE('',#734,#459);
#416=LINE('',#735,#460);
#417=LINE('',#737,#461);
#418=LINE('',#740,#462);
#419=LINE('',#741,#463);
#420=VECTOR('',#506,1.);
#421=VECTOR('',#507,1.);
#422=VECTOR('',#508,1.);
#423=VECTOR('',#509,1.);
#424=VECTOR('',#512,1.);
#425=VECTOR('',#513,1.);
#426=VECTOR('',#514,1.);
#427=VECTOR('',#517,1.);
#428=VECTOR('',#518,1.);
#429=VECTOR('',#519,1.);
#430=VECTOR('',#522,1.);
#431=VECTOR('',#523,1.);
#432=VECTOR('',#526,1.);
#433=VECTOR('',#527,1.);
#434=VECTOR('',#528,1.);
#435=VECTOR('',#529,1.);
#436=VECTOR('',#532,1.);
#437=VECTOR('',#533,1.);
#438=VECTOR('',#534,1.);
#439=VECTOR('',#535,1.);
#440=VECTOR('',#538,1.);
#441=VECTOR('',#539,1.);
#442=VECTOR('',#540,1.);
#443=VECTOR('',#541,1.);
#444=VECTOR('',#544,1.);
#445=VECTOR('',#545,1.);
#446=VECTOR('',#546,1.);
#447=VECTOR('',#547,1.);
#448=VECTOR('',#576,1.);
#449=VECTOR('',#579,1.);
#450=VECTOR('',#582,1.);
#451=VECTOR('',#585,1.);
#452=VECTOR('',#590,1.);
#453=VECTOR('',#591,1.);
#454=VECTOR('',#592,1.);
#455=VECTOR('',#595,1.);
#456=VECTOR('',#596,1.);
#457=VECTOR('',#597,1.);
#458=VECTOR('',#600,1.);
#459=VECTOR('',#601,1.);
#460=VECTOR('',#602,1.);
#461=VECTOR('',#605,1.);
#462=VECTOR('',#606,1.);
#463=VECTOR('',#607,1.);
#464=AXIS2_PLACEMENT_3D('',#628,#504,#505);
#465=AXIS2_PLACEMENT_3D('',#637,#510,#511);
#466=AXIS2_PLACEMENT_3D('',#643,#515,#516);
#467=AXIS2_PLACEMENT_3D('',#649,#520,#521);
#468=AXIS2_PLACEMENT_3D('',#652,#524,#525);
#469=AXIS2_PLACEMENT_3D('',#661,#530,#531);
#470=AXIS2_PLACEMENT_3D('',#670,#536,#537);
#471=AXIS2_PLACEMENT_3D('',#679,#542,#543);
#472=AXIS2_PLACEMENT_3D('',#688,#548,#549);
#473=AXIS2_PLACEMENT_3D('',#689,#550,#551);
#474=AXIS2_PLACEMENT_3D('',#690,#552,#553);
#475=AXIS2_PLACEMENT_3D('',#691,#554,#555);
#476=AXIS2_PLACEMENT_3D('',#692,#556,#557);
#477=AXIS2_PLACEMENT_3D('',#693,#558,#559);
#478=AXIS2_PLACEMENT_3D('',#694,#560,#561);
#479=AXIS2_PLACEMENT_3D('',#695,#562,#563);
#480=AXIS2_PLACEMENT_3D('',#696,#564,#565);
#481=AXIS2_PLACEMENT_3D('',#697,#566,#567);
#482=AXIS2_PLACEMENT_3D('',#698,#568,#569);
#483=AXIS2_PLACEMENT_3D('',#699,#570,#571);
#484=AXIS2_PLACEMENT_3D('',#700,#572,#573);
#485=AXIS2_PLACEMENT_3D('',#701,#574,#575);
#486=AXIS2_PLACEMENT_3D('',#705,#577,#578);
#487=AXIS2_PLACEMENT_3D('',#709,#580,#581);
#488=AXIS2_PLACEMENT_3D('',#713,#583,#584);
#489=AXIS2_PLACEMENT_3D('',#717,#586,#587);
#490=AXIS2_PLACEMENT_3D('',#718,#588,#589);
#491=AXIS2_PLACEMENT_3D('',#724,#593,#594);
#492=AXIS2_PLACEMENT_3D('',#730,#598,#599);
#493=AXIS2_PLACEMENT_3D('',#736,#603,#604);
#494=AXIS2_PLACEMENT_3D('',#742,#608,#609);
#495=AXIS2_PLACEMENT_3D('',#743,#610,#611);
#496=AXIS2_PLACEMENT_3D('',#744,#612,#613);
#497=AXIS2_PLACEMENT_3D('',#745,#614,#615);
#498=AXIS2_PLACEMENT_3D('',#746,#616,#617);
#499=AXIS2_PLACEMENT_3D('',#747,#618,#619);
#500=AXIS2_PLACEMENT_3D('',#748,#620,#621);
#501=AXIS2_PLACEMENT_3D('',#749,#622,#623);
#502=AXIS2_PLACEMENT_3D('',#750,#624,#625);
#503=AXIS2_PLACEMENT_3D('',#751,#626,#627);
#504=DIRECTION('',(0.,0.,1.));
#505=DIRECTION('',(1.,0.,0.));
#506=DIRECTION('',(0.,0.,1.));
#507=DIRECTION('',(1.,0.,0.));
#508=DIRECTION('',(0.,0.,1.));
#509=DIRECTION('',(-1.,0.,0.));
#510=DIRECTION('',(0.,-1.,0.));
#511=DIRECTION('',(0.,0.,-1.));
#512=DIRECTION('',(0.,0.,1.));
#513=DIRECTION('',(0.,-1.,0.));
#514=DIRECTION('',(0.,1.,0.));
#515=DIRECTION('',(-1.,0.,0.));
#516=DIRECTION('',(0.,0.,1.));
#517=DIRECTION('',(0.,0.,1.));
#518=DIRECTION('',(-1.,0.,0.));
#519=DIRECTION('',(1.,0.,0.));
#520=DIRECTION('',(0.,1.,0.));
#521=DIRECTION('',(0.,0.,1.));
#522=DIRECTION('',(0.,1.,0.));
#523=DIRECTION('',(0.,-1.,0.));
#524=DIRECTION('',(1.,0.,0.));
#525=DIRECTION('',(0.,0.,-1.));
#526=DIRECTION('',(1.,0.,0.));
#527=DIRECTION('',(0.,0.,1.));
#528=DIRECTION('',(-1.,0.,0.));
#529=DIRECTION('',(0.,0.,-1.));
#530=DIRECTION('',(0.,-1.,0.));
#531=DIRECTION('',(0.,0.,-1.));
#532=DIRECTION('',(0.,1.,0.));
#533=DIRECTION('',(0.,0.,1.));
#534=DIRECTION('',(0.,1.,0.));
#535=DIRECTION('',(0.,0.,-1.));
#536=DIRECTION('',(-1.,0.,0.));
#537=DIRECTION('',(0.,0.,1.));
#538=DIRECTION('',(1.,0.,0.));
#539=DIRECTION('',(0.,0.,1.));
#540=DIRECTION('',(1.,0.,0.));
#541=DIRECTION('',(0.,0.,-1.));
#542=DIRECTION('',(0.,1.,0.));
#543=DIRECTION('',(0.,0.,1.));
#544=DIRECTION('',(0.,1.,0.));
#545=DIRECTION('',(0.,0.,1.));
#546=DIRECTION('',(0.,-1.,0.));
#547=DIRECTION('',(0.,0.,-1.));
#548=DIRECTION('',(1.,0.,0.));
#549=DIRECTION('',(0.,0.,-1.));
#550=DIRECTION('',(0.,0.,-1.));
#551=DIRECTION('',(-1.,0.,0.));
#552=DIRECTION('',(0.,0.,-1.));
#553=DIRECTION('',(1.,0.,0.));
#554=DIRECTION('',(0.,0.,-1.));
#555=DIRECTION('',(-1.,0.,0.));
#556=DIRECTION('',(0.,0.,1.));
#557=DIRECTION('',(-1.,0.,0.));
#558=DIRECTION('',(0.,0.,-1.));
#559=DIRECTION('',(1.,0.,0.));
#560=DIRECTION('',(0.,0.,-1.));
#561=DIRECTION('',(-1.,0.,0.));
#562=DIRECTION('',(0.,0.,-1.));
#563=DIRECTION('',(-1.,0.,0.));
#564=DIRECTION('',(0.,0.,-1.));
#565=DIRECTION('',(1.,0.,0.));
#566=DIRECTION('',(0.,0.,-1.));
#567=DIRECTION('',(-1.,0.,0.));
#568=DIRECTION('',(0.,0.,-1.));
#569=DIRECTION('',(-1.,0.,0.));
#570=DIRECTION('',(0.,0.,-1.));
#571=DIRECTION('',(1.,0.,0.));
#572=DIRECTION('',(0.,0.,-1.));
#573=DIRECTION('',(-1.,0.,0.));
#574=DIRECTION('',(0.,0.,1.));
#575=DIRECTION('',(1.,0.,0.));
#576=DIRECTION('',(-1.,0.,0.));
#577=DIRECTION('',(0.,0.,1.));
#578=DIRECTION('',(-1.,0.,0.));
#579=DIRECTION('',(0.,-1.,0.));
#580=DIRECTION('',(0.,0.,1.));
#581=DIRECTION('',(-1.,0.,0.));
#582=DIRECTION('',(1.,0.,0.));
#583=DIRECTION('',(0.,0.,1.));
#584=DIRECTION('',(-1.,0.,0.));
#585=DIRECTION('',(0.,1.,0.));
#586=DIRECTION('',(0.,0.,1.));
#587=DIRECTION('',(-1.,0.,0.));
#588=DIRECTION('',(0.,0.,-1.));
#589=DIRECTION('',(-1.,0.,0.));
#590=DIRECTION('',(0.,0.,1.));
#591=DIRECTION('',(0.,-1.,0.));
#592=DIRECTION('',(0.,0.,-1.));
#593=DIRECTION('',(1.,0.,0.));
#594=DIRECTION('',(0.,0.,-1.));
#595=DIRECTION('',(0.,0.,1.));
#596=DIRECTION('',(-1.,0.,0.));
#597=DIRECTION('',(0.,0.,-1.));
#598=DIRECTION('',(0.,1.,0.));
#599=DIRECTION('',(0.,0.,1.));
#600=DIRECTION('',(0.,-1.,0.));
#601=DIRECTION('',(0.,0.,-1.));
#602=DIRECTION('',(0.,0.,1.));
#603=DIRECTION('',(-1.,0.,0.));
#604=DIRECTION('',(0.,0.,1.));
#605=DIRECTION('',(-1.,0.,0.));
#606=DIRECTION('',(0.,0.,-1.));
#607=DIRECTION('',(0.,0.,1.));
#608=DIRECTION('',(0.,-1.,0.));
#609=DIRECTION('',(0.,0.,-1.));
#610=DIRECTION('',(0.,0.,-1.));
#611=DIRECTION('',(-1.,0.,0.));
#612=DIRECTION('',(0.,0.,-1.));
#613=DIRECTION('',(-1.,0.,0.));
#614=DIRECTION('',(0.,0.,-1.));
#615=DIRECTION('',(-1.,0.,0.));
#616=DIRECTION('',(0.,0.,-1.));
#617=DIRECTION('',(-1.,0.,0.));
#618=DIRECTION('',(0.,0.,-1.));
#619=DIRECTION('',(-1.,0.,0.));
#620=DIRECTION('',(0.,0.,-1.));
#621=DIRECTION('',(-1.,0.,0.));
#622=DIRECTION('',(0.,0.,-1.));
#623=DIRECTION('',(-1.,0.,0.));
#624=DIRECTION('',(0.,0.,-1.));
#625=DIRECTION('',(-1.,0.,0.));
#626=DIRECTION('',(0.,0.,-1.));
#627=DIRECTION('',(-1.,0.,0.));
#628=CARTESIAN_POINT('',(0.,0.,0.));
#629=CARTESIAN_POINT('',(0.,0.,0.));
#630=CARTESIAN_POINT('',(0.,0.,0.));
#631=CARTESIAN_POINT('',(0.,0.,30.));
#632=CARTESIAN_POINT('',(125.,0.,0.));
#633=CARTESIAN_POINT('',(250.,0.,0.));
#634=CARTESIAN_POINT('',(250.,0.,0.));
#635=CARTESIAN_POINT('',(250.,0.,30.));
#636=CARTESIAN_POINT('',(125.,0.,30.));
#637=CARTESIAN_POINT('',(125.,0.,0.));
#638=CARTESIAN_POINT('',(0.,150.,0.));
#639=CARTESIAN_POINT('',(0.,150.,0.));
#640=CARTESIAN_POINT('',(0.,150.,30.));
#641=CARTESIAN_POINT('',(0.,75.,0.));
#642=CARTESIAN_POINT('',(0.,75.,30.));
#643=CARTESIAN_POINT('',(0.,75.,0.));
#644=CARTESIAN_POINT('',(250.,150.,0.));
#645=CARTESIAN_POINT('',(250.,150.,0.));
#646=CARTESIAN_POINT('',(250.,150.,30.));
#647=CARTESIAN_POINT('',(125.,150.,0.));
#648=CARTESIAN_POINT('',(125.,150.,30.));
#649=CARTESIAN_POINT('',(125.,150.,0.));
#650=CARTESIAN_POINT('',(250.,75.,0.));
#651=CARTESIAN_POINT('',(250.,75.,30.));
#652=CARTESIAN_POINT('',(250.,75.,0.));
#653=CARTESIAN_POINT('',(125.,20.,10.));
#654=CARTESIAN_POINT('',(30.,20.,10.));
#655=CARTESIAN_POINT('',(220.,20.,10.));
#656=CARTESIAN_POINT('',(30.,20.,30.));
#657=CARTESIAN_POINT('',(30.,20.,30.));
#658=CARTESIAN_POINT('',(125.,20.,30.));
#659=CARTESIAN_POINT('',(220.,20.,30.));
#660=CARTESIAN_POINT('',(220.,20.,20.));
#661=CARTESIAN_POINT('',(125.,20.,0.));
#662=CARTESIAN_POINT('',(20.,75.,10.));
#663=CARTESIAN_POINT('',(20.,30.,10.));
#664=CARTESIAN_POINT('',(20.,120.,10.));
#665=CARTESIAN_POINT('',(20.,120.,30.));
#666=CARTESIAN_POINT('',(20.,120.,30.));
#667=CARTESIAN_POINT('',(20.,75.,30.));
#668=CARTESIAN_POINT('',(20.,30.,30.));
#669=CARTESIAN_POINT('',(20.,30.,20.));
#670=CARTESIAN_POINT('',(20.,75.,0.));
#671=CARTESIAN_POINT('',(125.,130.,10.));
#672=CARTESIAN_POINT('',(30.,130.,10.));
#673=CARTESIAN_POINT('',(220.,130.,10.));
#674=CARTESIAN_POINT('',(220.,130.,30.));
#675=CARTESIAN_POINT('',(220.,130.,30.));
#676=CARTESIAN_POINT('',(125.,130.,30.));
#677=CARTESIAN_POINT('',(30.,130.,30.));
#678=CARTESIAN_POINT('',(30.,130.,20.));
#679=CARTESIAN_POINT('',(125.,130.,0.));
#680=CARTESIAN_POINT('',(230.,75.,10.));
#681=CARTESIAN_POINT('',(230.,30.,10.));
#682=CARTESIAN_POINT('',(230.,120.,10.));
#683=CARTESIAN_POINT('',(230.,30.,30.));
#684=CARTESIAN_POINT('',(230.,30.,30.));
#685=CARTESIAN_POINT('',(230.,75.,30.));
#686=CARTESIAN_POINT('',(230.,120.,30.));
#687=CARTESIAN_POINT('',(230.,120.,20.));
#688=CARTESIAN_POINT('',(230.,75.,0.));
#689=CARTESIAN_POINT('',(220.,30.,10.));
#690=CARTESIAN_POINT('',(220.,30.,30.));
#691=CARTESIAN_POINT('',(220.,30.,0.));
#692=CARTESIAN_POINT('',(220.,120.,10.));
#693=CARTESIAN_POINT('',(220.,120.,30.));
#694=CARTESIAN_POINT('',(220.,120.,0.));
#695=CARTESIAN_POINT('',(30.,30.,10.));
#696=CARTESIAN_POINT('',(30.,30.,30.));
#697=CARTESIAN_POINT('',(30.,30.,0.));
#698=CARTESIAN_POINT('',(30.,120.,10.));
#699=CARTESIAN_POINT('',(30.,120.,30.));
#700=CARTESIAN_POINT('',(30.,120.,0.));
#701=CARTESIAN_POINT('',(125.,75.,30.));
#702=CARTESIAN_POINT('',(125.,100.,0.));
#703=CARTESIAN_POINT('',(190.,100.,0.));
#704=CARTESIAN_POINT('',(60.,100.,0.));
#705=CARTESIAN_POINT('',(60.,90.,0.));
#706=CARTESIAN_POINT('',(50.,90.,0.));
#707=CARTESIAN_POINT('',(50.,75.,0.));
#708=CARTESIAN_POINT('',(50.,60.,0.));
#709=CARTESIAN_POINT('',(60.,60.,0.));
#710=CARTESIAN_POINT('',(60.,50.,0.));
#711=CARTESIAN_POINT('',(125.,50.,0.));
#712=CARTESIAN_POINT('',(190.,50.,0.));
#713=CARTESIAN_POINT('',(190.,60.,0.));
#714=CARTESIAN_POINT('',(200.,60.,0.));
#715=CARTESIAN_POINT('',(200.,75.,0.));
#716=CARTESIAN_POINT('',(200.,90.,0.));
#717=CARTESIAN_POINT('',(190.,90.,0.));
#718=CARTESIAN_POINT('',(125.,75.,0.));
#719=CARTESIAN_POINT('',(200.,60.,10.));
#720=CARTESIAN_POINT('',(200.,60.,10.));
#721=CARTESIAN_POINT('',(200.,75.,10.));
#722=CARTESIAN_POINT('',(200.,90.,10.));
#723=CARTESIAN_POINT('',(200.,90.,0.));
#724=CARTESIAN_POINT('',(200.,75.,0.));
#725=CARTESIAN_POINT('',(190.,100.,10.));
#726=CARTESIAN_POINT('',(190.,100.,10.));
#727=CARTESIAN_POINT('',(125.,100.,10.));
#728=CARTESIAN_POINT('',(60.,100.,10.));
#729=CARTESIAN_POINT('',(60.,100.,0.));
#730=CARTESIAN_POINT('',(125.,100.,0.));
#731=CARTESIAN_POINT('',(50.,75.,10.));
#732=CARTESIAN_POINT('',(50.,90.,10.));
#733=CARTESIAN_POINT('',(50.,60.,10.));
#734=CARTESIAN_POINT('',(50.,60.,0.));
#735=CARTESIAN_POINT('',(50.,90.,10.));
#736=CARTESIAN_POINT('',(50.,75.,0.));
#737=CARTESIAN_POINT('',(125.,50.,10.));
#738=CARTESIAN_POINT('',(190.,50.,10.));
#739=CARTESIAN_POINT('',(60.,50.,10.));
#740=CARTESIAN_POINT('',(190.,50.,0.));
#741=CARTESIAN_POINT('',(60.,50.,10.));
#742=CARTESIAN_POINT('',(125.,50.,0.));
#743=CARTESIAN_POINT('',(190.,60.,10.));
#744=CARTESIAN_POINT('',(60.,60.,10.));
#745=CARTESIAN_POINT('',(60.,90.,10.));
#746=CARTESIAN_POINT('',(190.,90.,10.));
#747=CARTESIAN_POINT('',(125.,75.,10.));
#748=CARTESIAN_POINT('',(190.,60.,0.));
#749=CARTESIAN_POINT('',(190.,90.,0.));
#750=CARTESIAN_POINT('',(60.,60.,0.));
#751=CARTESIAN_POINT('',(60.,90.,0.));
#752=MECHANICAL_DESIGN_GEOMETRIC_PRESENTATION_REPRESENTATION('',(#32),#753);
#753=(
GEOMETRIC_REPRESENTATION_CONTEXT(3)
GLOBAL_UNCERTAINTY_ASSIGNED_CONTEXT((#754))
GLOBAL_UNIT_ASSIGNED_CONTEXT((#760,#756,#755))
REPRESENTATION_CONTEXT('006 - OPEN_CLOSE_POCKET',
'TOP_LEVEL_ASSEMBLY_PART')
);
#754=UNCERTAINTY_MEASURE_WITH_UNIT(LENGTH_MEASURE(2.E-5),#760,
'DISTANCE_ACCURACY_VALUE','Maximum Tolerance applied to model');
#755=(
NAMED_UNIT(*)
SI_UNIT($,.STERADIAN.)
SOLID_ANGLE_UNIT()
);
#756=(
CONVERSION_BASED_UNIT('DEGREE',#758)
NAMED_UNIT(#757)
PLANE_ANGLE_UNIT()
);
#757=DIMENSIONAL_EXPONENTS(0.,0.,0.,0.,0.,0.,0.);
#758=PLANE_ANGLE_MEASURE_WITH_UNIT(PLANE_ANGLE_MEASURE(0.0174532925),#759);
#759=(
NAMED_UNIT(*)
PLANE_ANGLE_UNIT()
SI_UNIT($,.RADIAN.)
);
#760=(
LENGTH_UNIT()
NAMED_UNIT(*)
SI_UNIT(.MILLI.,.METRE.)
);
ENDSEC;
END-ISO-10303-21;
