ISO-10303-21;
HEADER;
/* Generated by software containing ST-Developer
 * from STEP Tools, Inc. (www.steptools.com) 
 */
/* OPTION: using custom schema-name function */

FILE_DESCRIPTION(
/* description */ (''),
/* implementation_level */ '2;1');

FILE_NAME(
/* name */ '007 - OPEN_CLOSE_POCKET_HOLE.stp',
/* time_stamp */ '2026-08-06T15:23:54+08:00',
/* author */ (''),
/* organization */ (''),
/* preprocessor_version */ 'ST-DEVELOPER v20.1',
/* originating_system */ 'SIEMENS PLM Software NX2512.5000',
/* authorisation */ '');

FILE_SCHEMA (('AUTOMOTIVE_DESIGN { 1 0 10303 214 3 1 1 1 }'));
ENDSEC;

DATA;
#10=PROPERTY_DEFINITION_REPRESENTATION(#14,#12);
#11=PROPERTY_DEFINITION_REPRESENTATION(#15,#13);
#12=REPRESENTATION('',(#16),#1025);
#13=REPRESENTATION('',(#17),#1025);
#14=PROPERTY_DEFINITION('pmi validation property','',#21);
#15=PROPERTY_DEFINITION('pmi validation property','',#21);
#16=VALUE_REPRESENTATION_ITEM('number of annotations',COUNT_MEASURE(0.));
#17=VALUE_REPRESENTATION_ITEM('number of views',COUNT_MEASURE(0.));
#18=SHAPE_REPRESENTATION_RELATIONSHIP('None',
'relationship between 007 - OPEN_CLOSE_POCKET_HOLE_objects-None and 00
7 - OPEN_CLOSE_POCKET_HOLE_objects-None',#30,#19);
#19=ADVANCED_BREP_SHAPE_REPRESENTATION(
'007 - OPEN_CLOSE_POCKET_HOLE_objects-None',(#40),#1025);
#20=SHAPE_DEFINITION_REPRESENTATION(#21,#30);
#21=PRODUCT_DEFINITION_SHAPE('','',#22);
#22=PRODUCT_DEFINITION(' ','',#24,#23);
#23=PRODUCT_DEFINITION_CONTEXT('part definition',#29,'design');
#24=PRODUCT_DEFINITION_FORMATION_WITH_SPECIFIED_SOURCE(' ',' ',#26,
 .NOT_KNOWN.);
#25=PRODUCT_RELATED_PRODUCT_CATEGORY('part','',(#26));
#26=PRODUCT('007 - OPEN_CLOSE_POCKET_HOLE_objects',
'007 - OPEN_CLOSE_POCKET_HOLE_objects',' ',(#27));
#27=PRODUCT_CONTEXT(' ',#29,'mechanical');
#28=APPLICATION_PROTOCOL_DEFINITION('international standard',
'automotive_design',2010,#29);
#29=APPLICATION_CONTEXT(
'core data for automotive mechanical design processes');
#30=SHAPE_REPRESENTATION('007 - OPEN_CLOSE_POCKET_HOLE_objects-None',(#624),
#1025);
#31=PRESENTATION_LAYER_ASSIGNMENT('90','Layer 90',(#40));
#32=STYLED_ITEM('',(#33),#40);
#33=PRESENTATION_STYLE_ASSIGNMENT((#34));
#34=SURFACE_STYLE_USAGE(.BOTH.,#35);
#35=SURFACE_SIDE_STYLE('',(#36));
#36=SURFACE_STYLE_FILL_AREA(#37);
#37=FILL_AREA_STYLE('',(#38));
#38=FILL_AREA_STYLE_COLOUR('',#39);
#39=COLOUR_RGB('medium steel',0.611764705882353,0.658823529411765,0.670588235294118);
#40=MANIFOLD_SOLID_BREP('',#41);
#41=CLOSED_SHELL('',(#165,#166,#167,#168,#169,#170,#171,#172,#173,#174,
#175,#176,#177,#178,#179,#180,#181,#182,#183,#184,#185,#186,#187,#188,#189,
#190,#191,#192,#193,#194,#195));
#42=PLANE('',#646);
#43=PLANE('',#647);
#44=PLANE('',#648);
#45=PLANE('',#649);
#46=PLANE('',#650);
#47=PLANE('',#651);
#48=PLANE('',#652);
#49=PLANE('',#653);
#50=PLANE('',#666);
#51=PLANE('',#672);
#52=PLANE('',#673);
#53=PLANE('',#674);
#54=PLANE('',#675);
#55=PLANE('',#676);
#56=PLANE('',#682);
#57=FACE_OUTER_BOUND('',#264,.T.);
#58=FACE_OUTER_BOUND('',#265,.T.);
#59=FACE_OUTER_BOUND('',#266,.T.);
#60=FACE_OUTER_BOUND('',#267,.T.);
#61=FACE_OUTER_BOUND('',#268,.T.);
#62=FACE_OUTER_BOUND('',#269,.T.);
#63=FACE_OUTER_BOUND('',#270,.T.);
#64=FACE_OUTER_BOUND('',#271,.T.);
#65=FACE_OUTER_BOUND('',#272,.T.);
#66=FACE_OUTER_BOUND('',#273,.T.);
#67=FACE_OUTER_BOUND('',#274,.T.);
#68=FACE_OUTER_BOUND('',#275,.T.);
#69=FACE_OUTER_BOUND('',#288,.T.);
#70=FACE_OUTER_BOUND('',#289,.T.);
#71=FACE_OUTER_BOUND('',#290,.T.);
#72=FACE_OUTER_BOUND('',#291,.T.);
#73=FACE_OUTER_BOUND('',#302,.T.);
#74=FACE_OUTER_BOUND('',#303,.T.);
#75=FACE_OUTER_BOUND('',#304,.T.);
#76=FACE_OUTER_BOUND('',#305,.T.);
#77=LINE('',#896,#121);
#78=LINE('',#899,#122);
#79=LINE('',#901,#123);
#80=LINE('',#903,#124);
#81=LINE('',#905,#125);
#82=LINE('',#908,#126);
#83=LINE('',#909,#127);
#84=LINE('',#911,#128);
#85=LINE('',#914,#129);
#86=LINE('',#915,#130);
#87=LINE('',#917,#131);
#88=LINE('',#918,#132);
#89=LINE('',#920,#133);
#90=LINE('',#923,#134);
#91=LINE('',#925,#135);
#92=LINE('',#927,#136);
#93=LINE('',#929,#137);
#94=LINE('',#932,#138);
#95=LINE('',#934,#139);
#96=LINE('',#936,#140);
#97=LINE('',#938,#141);
#98=LINE('',#941,#142);
#99=LINE('',#943,#143);
#100=LINE('',#945,#144);
#101=LINE('',#947,#145);
#102=LINE('',#950,#146);
#103=LINE('',#952,#147);
#104=LINE('',#954,#148);
#105=LINE('',#971,#149);
#106=LINE('',#976,#150);
#107=LINE('',#980,#151);
#108=LINE('',#984,#152);
#109=LINE('',#988,#153);
#110=LINE('',#990,#154);
#111=LINE('',#992,#155);
#112=LINE('',#994,#156);
#113=LINE('',#996,#157);
#114=LINE('',#998,#158);
#115=LINE('',#1000,#159);
#116=LINE('',#1003,#160);
#117=LINE('',#1004,#161);
#118=LINE('',#1006,#162);
#119=LINE('',#1009,#163);
#120=LINE('',#1010,#164);
#121=VECTOR('',#732,1.);
#122=VECTOR('',#733,1.);
#123=VECTOR('',#734,1.);
#124=VECTOR('',#735,1.);
#125=VECTOR('',#738,1.);
#126=VECTOR('',#739,1.);
#127=VECTOR('',#740,1.);
#128=VECTOR('',#743,1.);
#129=VECTOR('',#744,1.);
#130=VECTOR('',#745,1.);
#131=VECTOR('',#748,1.);
#132=VECTOR('',#749,1.);
#133=VECTOR('',#752,1.);
#134=VECTOR('',#753,1.);
#135=VECTOR('',#754,1.);
#136=VECTOR('',#755,1.);
#137=VECTOR('',#758,1.);
#138=VECTOR('',#759,1.);
#139=VECTOR('',#760,1.);
#140=VECTOR('',#761,1.);
#141=VECTOR('',#764,1.);
#142=VECTOR('',#765,1.);
#143=VECTOR('',#766,1.);
#144=VECTOR('',#767,1.);
#145=VECTOR('',#770,1.);
#146=VECTOR('',#771,1.);
#147=VECTOR('',#772,1.);
#148=VECTOR('',#773,1.);
#149=VECTOR('',#804,1.);
#150=VECTOR('',#807,1.);
#151=VECTOR('',#810,1.);
#152=VECTOR('',#813,1.);
#153=VECTOR('',#818,1.);
#154=VECTOR('',#819,1.);
#155=VECTOR('',#820,1.);
#156=VECTOR('',#823,1.);
#157=VECTOR('',#824,1.);
#158=VECTOR('',#825,1.);
#159=VECTOR('',#828,1.);
#160=VECTOR('',#829,1.);
#161=VECTOR('',#830,1.);
#162=VECTOR('',#833,1.);
#163=VECTOR('',#834,1.);
#164=VECTOR('',#835,1.);
#165=ADVANCED_FACE('',(#212,#213),#196,.F.);
#166=ADVANCED_FACE('',(#214,#215),#197,.F.);
#167=ADVANCED_FACE('',(#216,#217),#198,.F.);
#168=ADVANCED_FACE('',(#218,#219),#199,.F.);
#169=ADVANCED_FACE('',(#220,#221),#200,.F.);
#170=ADVANCED_FACE('',(#222,#223),#201,.F.);
#171=ADVANCED_FACE('',(#224,#225),#202,.F.);
#172=ADVANCED_FACE('',(#57),#42,.T.);
#173=ADVANCED_FACE('',(#58),#43,.T.);
#174=ADVANCED_FACE('',(#59),#44,.T.);
#175=ADVANCED_FACE('',(#60),#45,.T.);
#176=ADVANCED_FACE('',(#61),#46,.F.);
#177=ADVANCED_FACE('',(#62),#47,.F.);
#178=ADVANCED_FACE('',(#63),#48,.F.);
#179=ADVANCED_FACE('',(#64),#49,.F.);
#180=ADVANCED_FACE('',(#65),#203,.F.);
#181=ADVANCED_FACE('',(#66),#204,.F.);
#182=ADVANCED_FACE('',(#67),#205,.F.);
#183=ADVANCED_FACE('',(#68),#206,.F.);
#184=ADVANCED_FACE('',(#226,#227),#50,.T.);
#185=ADVANCED_FACE('',(#228,#229,#230,#231,#232,#233,#234,#235,#236,#237),
#51,.T.);
#186=ADVANCED_FACE('',(#69),#52,.F.);
#187=ADVANCED_FACE('',(#70),#53,.F.);
#188=ADVANCED_FACE('',(#71),#54,.F.);
#189=ADVANCED_FACE('',(#72),#55,.F.);
#190=ADVANCED_FACE('',(#238,#239,#240,#241,#242,#243,#244,#245,#246,#247),
#56,.F.);
#191=ADVANCED_FACE('',(#73),#207,.F.);
#192=ADVANCED_FACE('',(#74),#208,.F.);
#193=ADVANCED_FACE('',(#75),#209,.F.);
#194=ADVANCED_FACE('',(#76),#210,.F.);
#195=ADVANCED_FACE('',(#248,#249),#211,.F.);
#196=CYLINDRICAL_SURFACE('',#627,7.2235);
#197=CYLINDRICAL_SURFACE('',#630,7.2235);
#198=CYLINDRICAL_SURFACE('',#633,7.2235);
#199=CYLINDRICAL_SURFACE('',#636,7.2235);
#200=CYLINDRICAL_SURFACE('',#639,7.2235);
#201=CYLINDRICAL_SURFACE('',#642,7.2235);
#202=CYLINDRICAL_SURFACE('',#645,7.2235);
#203=CYLINDRICAL_SURFACE('',#656,10.);
#204=CYLINDRICAL_SURFACE('',#659,10.);
#205=CYLINDRICAL_SURFACE('',#662,10.);
#206=CYLINDRICAL_SURFACE('',#665,10.);
#207=CYLINDRICAL_SURFACE('',#683,10.);
#208=CYLINDRICAL_SURFACE('',#684,10.);
#209=CYLINDRICAL_SURFACE('',#685,10.);
#210=CYLINDRICAL_SURFACE('',#686,10.);
#211=CYLINDRICAL_SURFACE('',#687,7.2235);
#212=FACE_BOUND('',#250,.T.);
#213=FACE_BOUND('',#251,.T.);
#214=FACE_BOUND('',#252,.T.);
#215=FACE_BOUND('',#253,.T.);
#216=FACE_BOUND('',#254,.T.);
#217=FACE_BOUND('',#255,.T.);
#218=FACE_BOUND('',#256,.T.);
#219=FACE_BOUND('',#257,.T.);
#220=FACE_BOUND('',#258,.T.);
#221=FACE_BOUND('',#259,.T.);
#222=FACE_BOUND('',#260,.T.);
#223=FACE_BOUND('',#261,.T.);
#224=FACE_BOUND('',#262,.T.);
#225=FACE_BOUND('',#263,.T.);
#226=FACE_BOUND('',#276,.T.);
#227=FACE_BOUND('',#277,.T.);
#228=FACE_BOUND('',#278,.T.);
#229=FACE_BOUND('',#279,.T.);
#230=FACE_BOUND('',#280,.T.);
#231=FACE_BOUND('',#281,.T.);
#232=FACE_BOUND('',#282,.T.);
#233=FACE_BOUND('',#283,.T.);
#234=FACE_BOUND('',#284,.T.);
#235=FACE_BOUND('',#285,.T.);
#236=FACE_BOUND('',#286,.T.);
#237=FACE_BOUND('',#287,.T.);
#238=FACE_BOUND('',#292,.T.);
#239=FACE_BOUND('',#293,.T.);
#240=FACE_BOUND('',#294,.T.);
#241=FACE_BOUND('',#295,.T.);
#242=FACE_BOUND('',#296,.T.);
#243=FACE_BOUND('',#297,.T.);
#244=FACE_BOUND('',#298,.T.);
#245=FACE_BOUND('',#299,.T.);
#246=FACE_BOUND('',#300,.T.);
#247=FACE_BOUND('',#301,.T.);
#248=FACE_BOUND('',#306,.T.);
#249=FACE_BOUND('',#307,.T.);
#250=EDGE_LOOP('',(#308));
#251=EDGE_LOOP('',(#309));
#252=EDGE_LOOP('',(#310));
#253=EDGE_LOOP('',(#311));
#254=EDGE_LOOP('',(#312));
#255=EDGE_LOOP('',(#313));
#256=EDGE_LOOP('',(#314));
#257=EDGE_LOOP('',(#315));
#258=EDGE_LOOP('',(#316));
#259=EDGE_LOOP('',(#317));
#260=EDGE_LOOP('',(#318));
#261=EDGE_LOOP('',(#319));
#262=EDGE_LOOP('',(#320));
#263=EDGE_LOOP('',(#321));
#264=EDGE_LOOP('',(#322,#323,#324,#325));
#265=EDGE_LOOP('',(#326,#327,#328,#329));
#266=EDGE_LOOP('',(#330,#331,#332,#333));
#267=EDGE_LOOP('',(#334,#335,#336,#337));
#268=EDGE_LOOP('',(#338,#339,#340,#341));
#269=EDGE_LOOP('',(#342,#343,#344,#345));
#270=EDGE_LOOP('',(#346,#347,#348,#349));
#271=EDGE_LOOP('',(#350,#351,#352,#353));
#272=EDGE_LOOP('',(#354,#355,#356,#357));
#273=EDGE_LOOP('',(#358,#359,#360,#361));
#274=EDGE_LOOP('',(#362,#363,#364,#365));
#275=EDGE_LOOP('',(#366,#367,#368,#369));
#276=EDGE_LOOP('',(#370,#371,#372,#373));
#277=EDGE_LOOP('',(#374,#375,#376,#377,#378,#379,#380,#381));
#278=EDGE_LOOP('',(#382));
#279=EDGE_LOOP('',(#383));
#280=EDGE_LOOP('',(#384));
#281=EDGE_LOOP('',(#385));
#282=EDGE_LOOP('',(#386));
#283=EDGE_LOOP('',(#387));
#284=EDGE_LOOP('',(#388));
#285=EDGE_LOOP('',(#389));
#286=EDGE_LOOP('',(#390,#391,#392,#393));
#287=EDGE_LOOP('',(#394,#395,#396,#397,#398,#399,#400,#401));
#288=EDGE_LOOP('',(#402,#403,#404,#405));
#289=EDGE_LOOP('',(#406,#407,#408,#409));
#290=EDGE_LOOP('',(#410,#411,#412,#413));
#291=EDGE_LOOP('',(#414,#415,#416,#417));
#292=EDGE_LOOP('',(#418));
#293=EDGE_LOOP('',(#419));
#294=EDGE_LOOP('',(#420));
#295=EDGE_LOOP('',(#421));
#296=EDGE_LOOP('',(#422));
#297=EDGE_LOOP('',(#423));
#298=EDGE_LOOP('',(#424));
#299=EDGE_LOOP('',(#425));
#300=EDGE_LOOP('',(#426,#427,#428,#429,#430,#431,#432,#433));
#301=EDGE_LOOP('',(#434,#435,#436,#437,#438,#439,#440,#441));
#302=EDGE_LOOP('',(#442,#443,#444,#445));
#303=EDGE_LOOP('',(#446,#447,#448,#449));
#304=EDGE_LOOP('',(#450,#451,#452,#453));
#305=EDGE_LOOP('',(#454,#455,#456,#457));
#306=EDGE_LOOP('',(#458));
#307=EDGE_LOOP('',(#459));
#308=ORIENTED_EDGE('',*,*,#516,.T.);
#309=ORIENTED_EDGE('',*,*,#517,.F.);
#310=ORIENTED_EDGE('',*,*,#518,.T.);
#311=ORIENTED_EDGE('',*,*,#519,.F.);
#312=ORIENTED_EDGE('',*,*,#520,.T.);
#313=ORIENTED_EDGE('',*,*,#521,.F.);
#314=ORIENTED_EDGE('',*,*,#522,.T.);
#315=ORIENTED_EDGE('',*,*,#523,.F.);
#316=ORIENTED_EDGE('',*,*,#524,.T.);
#317=ORIENTED_EDGE('',*,*,#525,.F.);
#318=ORIENTED_EDGE('',*,*,#526,.T.);
#319=ORIENTED_EDGE('',*,*,#527,.F.);
#320=ORIENTED_EDGE('',*,*,#528,.T.);
#321=ORIENTED_EDGE('',*,*,#529,.F.);
#322=ORIENTED_EDGE('',*,*,#530,.F.);
#323=ORIENTED_EDGE('',*,*,#531,.T.);
#324=ORIENTED_EDGE('',*,*,#532,.T.);
#325=ORIENTED_EDGE('',*,*,#533,.T.);
#326=ORIENTED_EDGE('',*,*,#534,.F.);
#327=ORIENTED_EDGE('',*,*,#535,.T.);
#328=ORIENTED_EDGE('',*,*,#530,.T.);
#329=ORIENTED_EDGE('',*,*,#536,.T.);
#330=ORIENTED_EDGE('',*,*,#537,.F.);
#331=ORIENTED_EDGE('',*,*,#538,.T.);
#332=ORIENTED_EDGE('',*,*,#534,.T.);
#333=ORIENTED_EDGE('',*,*,#539,.T.);
#334=ORIENTED_EDGE('',*,*,#532,.F.);
#335=ORIENTED_EDGE('',*,*,#540,.T.);
#336=ORIENTED_EDGE('',*,*,#537,.T.);
#337=ORIENTED_EDGE('',*,*,#541,.T.);
#338=ORIENTED_EDGE('',*,*,#542,.F.);
#339=ORIENTED_EDGE('',*,*,#543,.T.);
#340=ORIENTED_EDGE('',*,*,#544,.F.);
#341=ORIENTED_EDGE('',*,*,#545,.T.);
#342=ORIENTED_EDGE('',*,*,#546,.T.);
#343=ORIENTED_EDGE('',*,*,#547,.T.);
#344=ORIENTED_EDGE('',*,*,#548,.F.);
#345=ORIENTED_EDGE('',*,*,#549,.T.);
#346=ORIENTED_EDGE('',*,*,#550,.T.);
#347=ORIENTED_EDGE('',*,*,#551,.T.);
#348=ORIENTED_EDGE('',*,*,#552,.F.);
#349=ORIENTED_EDGE('',*,*,#553,.T.);
#350=ORIENTED_EDGE('',*,*,#554,.F.);
#351=ORIENTED_EDGE('',*,*,#555,.T.);
#352=ORIENTED_EDGE('',*,*,#556,.F.);
#353=ORIENTED_EDGE('',*,*,#557,.T.);
#354=ORIENTED_EDGE('',*,*,#558,.T.);
#355=ORIENTED_EDGE('',*,*,#545,.F.);
#356=ORIENTED_EDGE('',*,*,#559,.F.);
#357=ORIENTED_EDGE('',*,*,#555,.F.);
#358=ORIENTED_EDGE('',*,*,#560,.F.);
#359=ORIENTED_EDGE('',*,*,#557,.F.);
#360=ORIENTED_EDGE('',*,*,#561,.F.);
#361=ORIENTED_EDGE('',*,*,#551,.F.);
#362=ORIENTED_EDGE('',*,*,#562,.T.);
#363=ORIENTED_EDGE('',*,*,#549,.F.);
#364=ORIENTED_EDGE('',*,*,#563,.F.);
#365=ORIENTED_EDGE('',*,*,#543,.F.);
#366=ORIENTED_EDGE('',*,*,#564,.T.);
#367=ORIENTED_EDGE('',*,*,#553,.F.);
#368=ORIENTED_EDGE('',*,*,#565,.F.);
#369=ORIENTED_EDGE('',*,*,#547,.F.);
#370=ORIENTED_EDGE('',*,*,#533,.F.);
#371=ORIENTED_EDGE('',*,*,#541,.F.);
#372=ORIENTED_EDGE('',*,*,#539,.F.);
#373=ORIENTED_EDGE('',*,*,#536,.F.);
#374=ORIENTED_EDGE('',*,*,#552,.T.);
#375=ORIENTED_EDGE('',*,*,#561,.T.);
#376=ORIENTED_EDGE('',*,*,#556,.T.);
#377=ORIENTED_EDGE('',*,*,#559,.T.);
#378=ORIENTED_EDGE('',*,*,#544,.T.);
#379=ORIENTED_EDGE('',*,*,#563,.T.);
#380=ORIENTED_EDGE('',*,*,#548,.T.);
#381=ORIENTED_EDGE('',*,*,#565,.T.);
#382=ORIENTED_EDGE('',*,*,#516,.F.);
#383=ORIENTED_EDGE('',*,*,#518,.F.);
#384=ORIENTED_EDGE('',*,*,#520,.F.);
#385=ORIENTED_EDGE('',*,*,#522,.F.);
#386=ORIENTED_EDGE('',*,*,#524,.F.);
#387=ORIENTED_EDGE('',*,*,#526,.F.);
#388=ORIENTED_EDGE('',*,*,#528,.F.);
#389=ORIENTED_EDGE('',*,*,#566,.F.);
#390=ORIENTED_EDGE('',*,*,#540,.F.);
#391=ORIENTED_EDGE('',*,*,#531,.F.);
#392=ORIENTED_EDGE('',*,*,#535,.F.);
#393=ORIENTED_EDGE('',*,*,#538,.F.);
#394=ORIENTED_EDGE('',*,*,#567,.T.);
#395=ORIENTED_EDGE('',*,*,#568,.T.);
#396=ORIENTED_EDGE('',*,*,#569,.T.);
#397=ORIENTED_EDGE('',*,*,#570,.T.);
#398=ORIENTED_EDGE('',*,*,#571,.T.);
#399=ORIENTED_EDGE('',*,*,#572,.T.);
#400=ORIENTED_EDGE('',*,*,#573,.T.);
#401=ORIENTED_EDGE('',*,*,#574,.T.);
#402=ORIENTED_EDGE('',*,*,#573,.F.);
#403=ORIENTED_EDGE('',*,*,#575,.T.);
#404=ORIENTED_EDGE('',*,*,#576,.F.);
#405=ORIENTED_EDGE('',*,*,#577,.T.);
#406=ORIENTED_EDGE('',*,*,#567,.F.);
#407=ORIENTED_EDGE('',*,*,#578,.T.);
#408=ORIENTED_EDGE('',*,*,#579,.T.);
#409=ORIENTED_EDGE('',*,*,#580,.T.);
#410=ORIENTED_EDGE('',*,*,#581,.T.);
#411=ORIENTED_EDGE('',*,*,#582,.T.);
#412=ORIENTED_EDGE('',*,*,#569,.F.);
#413=ORIENTED_EDGE('',*,*,#583,.T.);
#414=ORIENTED_EDGE('',*,*,#584,.F.);
#415=ORIENTED_EDGE('',*,*,#585,.T.);
#416=ORIENTED_EDGE('',*,*,#571,.F.);
#417=ORIENTED_EDGE('',*,*,#586,.T.);
#418=ORIENTED_EDGE('',*,*,#517,.T.);
#419=ORIENTED_EDGE('',*,*,#519,.T.);
#420=ORIENTED_EDGE('',*,*,#521,.T.);
#421=ORIENTED_EDGE('',*,*,#523,.T.);
#422=ORIENTED_EDGE('',*,*,#525,.T.);
#423=ORIENTED_EDGE('',*,*,#527,.T.);
#424=ORIENTED_EDGE('',*,*,#529,.T.);
#425=ORIENTED_EDGE('',*,*,#587,.T.);
#426=ORIENTED_EDGE('',*,*,#562,.F.);
#427=ORIENTED_EDGE('',*,*,#542,.T.);
#428=ORIENTED_EDGE('',*,*,#558,.F.);
#429=ORIENTED_EDGE('',*,*,#554,.T.);
#430=ORIENTED_EDGE('',*,*,#560,.T.);
#431=ORIENTED_EDGE('',*,*,#550,.F.);
#432=ORIENTED_EDGE('',*,*,#564,.F.);
#433=ORIENTED_EDGE('',*,*,#546,.F.);
#434=ORIENTED_EDGE('',*,*,#576,.T.);
#435=ORIENTED_EDGE('',*,*,#588,.T.);
#436=ORIENTED_EDGE('',*,*,#584,.T.);
#437=ORIENTED_EDGE('',*,*,#589,.T.);
#438=ORIENTED_EDGE('',*,*,#581,.F.);
#439=ORIENTED_EDGE('',*,*,#590,.T.);
#440=ORIENTED_EDGE('',*,*,#579,.F.);
#441=ORIENTED_EDGE('',*,*,#591,.T.);
#442=ORIENTED_EDGE('',*,*,#572,.F.);
#443=ORIENTED_EDGE('',*,*,#585,.F.);
#444=ORIENTED_EDGE('',*,*,#588,.F.);
#445=ORIENTED_EDGE('',*,*,#575,.F.);
#446=ORIENTED_EDGE('',*,*,#574,.F.);
#447=ORIENTED_EDGE('',*,*,#577,.F.);
#448=ORIENTED_EDGE('',*,*,#591,.F.);
#449=ORIENTED_EDGE('',*,*,#578,.F.);
#450=ORIENTED_EDGE('',*,*,#570,.F.);
#451=ORIENTED_EDGE('',*,*,#582,.F.);
#452=ORIENTED_EDGE('',*,*,#589,.F.);
#453=ORIENTED_EDGE('',*,*,#586,.F.);
#454=ORIENTED_EDGE('',*,*,#568,.F.);
#455=ORIENTED_EDGE('',*,*,#580,.F.);
#456=ORIENTED_EDGE('',*,*,#590,.F.);
#457=ORIENTED_EDGE('',*,*,#583,.F.);
#458=ORIENTED_EDGE('',*,*,#566,.T.);
#459=ORIENTED_EDGE('',*,*,#587,.F.);
#460=VERTEX_POINT('',#862);
#461=VERTEX_POINT('',#864);
#462=VERTEX_POINT('',#867);
#463=VERTEX_POINT('',#869);
#464=VERTEX_POINT('',#872);
#465=VERTEX_POINT('',#874);
#466=VERTEX_POINT('',#877);
#467=VERTEX_POINT('',#879);
#468=VERTEX_POINT('',#882);
#469=VERTEX_POINT('',#884);
#470=VERTEX_POINT('',#887);
#471=VERTEX_POINT('',#889);
#472=VERTEX_POINT('',#892);
#473=VERTEX_POINT('',#894);
#474=VERTEX_POINT('',#897);
#475=VERTEX_POINT('',#898);
#476=VERTEX_POINT('',#900);
#477=VERTEX_POINT('',#902);
#478=VERTEX_POINT('',#906);
#479=VERTEX_POINT('',#907);
#480=VERTEX_POINT('',#912);
#481=VERTEX_POINT('',#913);
#482=VERTEX_POINT('',#921);
#483=VERTEX_POINT('',#922);
#484=VERTEX_POINT('',#924);
#485=VERTEX_POINT('',#926);
#486=VERTEX_POINT('',#930);
#487=VERTEX_POINT('',#931);
#488=VERTEX_POINT('',#933);
#489=VERTEX_POINT('',#935);
#490=VERTEX_POINT('',#939);
#491=VERTEX_POINT('',#940);
#492=VERTEX_POINT('',#942);
#493=VERTEX_POINT('',#944);
#494=VERTEX_POINT('',#948);
#495=VERTEX_POINT('',#949);
#496=VERTEX_POINT('',#951);
#497=VERTEX_POINT('',#953);
#498=VERTEX_POINT('',#970);
#499=VERTEX_POINT('',#972);
#500=VERTEX_POINT('',#973);
#501=VERTEX_POINT('',#975);
#502=VERTEX_POINT('',#977);
#503=VERTEX_POINT('',#979);
#504=VERTEX_POINT('',#981);
#505=VERTEX_POINT('',#983);
#506=VERTEX_POINT('',#985);
#507=VERTEX_POINT('',#989);
#508=VERTEX_POINT('',#991);
#509=VERTEX_POINT('',#995);
#510=VERTEX_POINT('',#997);
#511=VERTEX_POINT('',#1001);
#512=VERTEX_POINT('',#1002);
#513=VERTEX_POINT('',#1007);
#514=VERTEX_POINT('',#1008);
#515=VERTEX_POINT('',#1013);
#516=EDGE_CURVE('',#460,#460,#592,.T.);
#517=EDGE_CURVE('',#461,#461,#593,.T.);
#518=EDGE_CURVE('',#462,#462,#594,.T.);
#519=EDGE_CURVE('',#463,#463,#595,.T.);
#520=EDGE_CURVE('',#464,#464,#596,.T.);
#521=EDGE_CURVE('',#465,#465,#597,.T.);
#522=EDGE_CURVE('',#466,#466,#598,.T.);
#523=EDGE_CURVE('',#467,#467,#599,.T.);
#524=EDGE_CURVE('',#468,#468,#600,.T.);
#525=EDGE_CURVE('',#469,#469,#601,.T.);
#526=EDGE_CURVE('',#470,#470,#602,.T.);
#527=EDGE_CURVE('',#471,#471,#603,.T.);
#528=EDGE_CURVE('',#472,#472,#604,.T.);
#529=EDGE_CURVE('',#473,#473,#605,.T.);
#530=EDGE_CURVE('',#474,#475,#77,.T.);
#531=EDGE_CURVE('',#474,#476,#78,.T.);
#532=EDGE_CURVE('',#476,#477,#79,.T.);
#533=EDGE_CURVE('',#477,#475,#80,.T.);
#534=EDGE_CURVE('',#478,#479,#81,.T.);
#535=EDGE_CURVE('',#478,#474,#82,.T.);
#536=EDGE_CURVE('',#475,#479,#83,.T.);
#537=EDGE_CURVE('',#480,#481,#84,.T.);
#538=EDGE_CURVE('',#480,#478,#85,.T.);
#539=EDGE_CURVE('',#479,#481,#86,.T.);
#540=EDGE_CURVE('',#476,#480,#87,.T.);
#541=EDGE_CURVE('',#481,#477,#88,.T.);
#542=EDGE_CURVE('',#482,#483,#89,.T.);
#543=EDGE_CURVE('',#482,#484,#90,.T.);
#544=EDGE_CURVE('',#485,#484,#91,.T.);
#545=EDGE_CURVE('',#485,#483,#92,.T.);
#546=EDGE_CURVE('',#486,#487,#93,.T.);
#547=EDGE_CURVE('',#487,#488,#94,.T.);
#548=EDGE_CURVE('',#489,#488,#95,.T.);
#549=EDGE_CURVE('',#489,#486,#96,.T.);
#550=EDGE_CURVE('',#490,#491,#97,.T.);
#551=EDGE_CURVE('',#491,#492,#98,.T.);
#552=EDGE_CURVE('',#493,#492,#99,.T.);
#553=EDGE_CURVE('',#493,#490,#100,.T.);
#554=EDGE_CURVE('',#494,#495,#101,.T.);
#555=EDGE_CURVE('',#494,#496,#102,.T.);
#556=EDGE_CURVE('',#497,#496,#103,.T.);
#557=EDGE_CURVE('',#497,#495,#104,.T.);
#558=EDGE_CURVE('',#494,#483,#606,.T.);
#559=EDGE_CURVE('',#496,#485,#607,.T.);
#560=EDGE_CURVE('',#495,#491,#608,.T.);
#561=EDGE_CURVE('',#492,#497,#609,.T.);
#562=EDGE_CURVE('',#482,#486,#610,.T.);
#563=EDGE_CURVE('',#484,#489,#611,.T.);
#564=EDGE_CURVE('',#487,#490,#612,.T.);
#565=EDGE_CURVE('',#488,#493,#613,.T.);
#566=EDGE_CURVE('',#498,#498,#614,.T.);
#567=EDGE_CURVE('',#499,#500,#105,.T.);
#568=EDGE_CURVE('',#500,#501,#615,.T.);
#569=EDGE_CURVE('',#501,#502,#106,.T.);
#570=EDGE_CURVE('',#502,#503,#616,.T.);
#571=EDGE_CURVE('',#503,#504,#107,.T.);
#572=EDGE_CURVE('',#504,#505,#617,.T.);
#573=EDGE_CURVE('',#505,#506,#108,.T.);
#574=EDGE_CURVE('',#506,#499,#618,.T.);
#575=EDGE_CURVE('',#505,#507,#109,.T.);
#576=EDGE_CURVE('',#508,#507,#110,.T.);
#577=EDGE_CURVE('',#508,#506,#111,.T.);
#578=EDGE_CURVE('',#499,#509,#112,.T.);
#579=EDGE_CURVE('',#509,#510,#113,.T.);
#580=EDGE_CURVE('',#510,#500,#114,.T.);
#581=EDGE_CURVE('',#511,#512,#115,.T.);
#582=EDGE_CURVE('',#512,#502,#116,.T.);
#583=EDGE_CURVE('',#501,#511,#117,.T.);
#584=EDGE_CURVE('',#513,#514,#118,.T.);
#585=EDGE_CURVE('',#513,#504,#119,.T.);
#586=EDGE_CURVE('',#503,#514,#120,.T.);
#587=EDGE_CURVE('',#515,#515,#619,.T.);
#588=EDGE_CURVE('',#507,#513,#620,.T.);
#589=EDGE_CURVE('',#514,#512,#621,.T.);
#590=EDGE_CURVE('',#511,#510,#622,.T.);
#591=EDGE_CURVE('',#509,#508,#623,.T.);
#592=CIRCLE('',#625,7.2235);
#593=CIRCLE('',#626,7.2235);
#594=CIRCLE('',#628,7.2235);
#595=CIRCLE('',#629,7.2235);
#596=CIRCLE('',#631,7.2235);
#597=CIRCLE('',#632,7.2235);
#598=CIRCLE('',#634,7.2235);
#599=CIRCLE('',#635,7.2235);
#600=CIRCLE('',#637,7.2235);
#601=CIRCLE('',#638,7.2235);
#602=CIRCLE('',#640,7.2235);
#603=CIRCLE('',#641,7.2235);
#604=CIRCLE('',#643,7.2235);
#605=CIRCLE('',#644,7.2235);
#606=CIRCLE('',#654,10.);
#607=CIRCLE('',#655,10.);
#608=CIRCLE('',#657,10.);
#609=CIRCLE('',#658,10.);
#610=CIRCLE('',#660,10.);
#611=CIRCLE('',#661,10.);
#612=CIRCLE('',#663,10.);
#613=CIRCLE('',#664,10.);
#614=CIRCLE('',#667,7.2235);
#615=CIRCLE('',#668,10.);
#616=CIRCLE('',#669,10.);
#617=CIRCLE('',#670,10.);
#618=CIRCLE('',#671,10.);
#619=CIRCLE('',#677,7.2235);
#620=CIRCLE('',#678,10.);
#621=CIRCLE('',#679,10.);
#622=CIRCLE('',#680,10.);
#623=CIRCLE('',#681,10.);
#624=AXIS2_PLACEMENT_3D('',#860,#688,#689);
#625=AXIS2_PLACEMENT_3D('',#861,#690,#691);
#626=AXIS2_PLACEMENT_3D('',#863,#692,#693);
#627=AXIS2_PLACEMENT_3D('',#865,#694,#695);
#628=AXIS2_PLACEMENT_3D('',#866,#696,#697);
#629=AXIS2_PLACEMENT_3D('',#868,#698,#699);
#630=AXIS2_PLACEMENT_3D('',#870,#700,#701);
#631=AXIS2_PLACEMENT_3D('',#871,#702,#703);
#632=AXIS2_PLACEMENT_3D('',#873,#704,#705);
#633=AXIS2_PLACEMENT_3D('',#875,#706,#707);
#634=AXIS2_PLACEMENT_3D('',#876,#708,#709);
#635=AXIS2_PLACEMENT_3D('',#878,#710,#711);
#636=AXIS2_PLACEMENT_3D('',#880,#712,#713);
#637=AXIS2_PLACEMENT_3D('',#881,#714,#715);
#638=AXIS2_PLACEMENT_3D('',#883,#716,#717);
#639=AXIS2_PLACEMENT_3D('',#885,#718,#719);
#640=AXIS2_PLACEMENT_3D('',#886,#720,#721);
#641=AXIS2_PLACEMENT_3D('',#888,#722,#723);
#642=AXIS2_PLACEMENT_3D('',#890,#724,#725);
#643=AXIS2_PLACEMENT_3D('',#891,#726,#727);
#644=AXIS2_PLACEMENT_3D('',#893,#728,#729);
#645=AXIS2_PLACEMENT_3D('',#895,#730,#731);
#646=AXIS2_PLACEMENT_3D('',#904,#736,#737);
#647=AXIS2_PLACEMENT_3D('',#910,#741,#742);
#648=AXIS2_PLACEMENT_3D('',#916,#746,#747);
#649=AXIS2_PLACEMENT_3D('',#919,#750,#751);
#650=AXIS2_PLACEMENT_3D('',#928,#756,#757);
#651=AXIS2_PLACEMENT_3D('',#937,#762,#763);
#652=AXIS2_PLACEMENT_3D('',#946,#768,#769);
#653=AXIS2_PLACEMENT_3D('',#955,#774,#775);
#654=AXIS2_PLACEMENT_3D('',#956,#776,#777);
#655=AXIS2_PLACEMENT_3D('',#957,#778,#779);
#656=AXIS2_PLACEMENT_3D('',#958,#780,#781);
#657=AXIS2_PLACEMENT_3D('',#959,#782,#783);
#658=AXIS2_PLACEMENT_3D('',#960,#784,#785);
#659=AXIS2_PLACEMENT_3D('',#961,#786,#787);
#660=AXIS2_PLACEMENT_3D('',#962,#788,#789);
#661=AXIS2_PLACEMENT_3D('',#963,#790,#791);
#662=AXIS2_PLACEMENT_3D('',#964,#792,#793);
#663=AXIS2_PLACEMENT_3D('',#965,#794,#795);
#664=AXIS2_PLACEMENT_3D('',#966,#796,#797);
#665=AXIS2_PLACEMENT_3D('',#967,#798,#799);
#666=AXIS2_PLACEMENT_3D('',#968,#800,#801);
#667=AXIS2_PLACEMENT_3D('',#969,#802,#803);
#668=AXIS2_PLACEMENT_3D('',#974,#805,#806);
#669=AXIS2_PLACEMENT_3D('',#978,#808,#809);
#670=AXIS2_PLACEMENT_3D('',#982,#811,#812);
#671=AXIS2_PLACEMENT_3D('',#986,#814,#815);
#672=AXIS2_PLACEMENT_3D('',#987,#816,#817);
#673=AXIS2_PLACEMENT_3D('',#993,#821,#822);
#674=AXIS2_PLACEMENT_3D('',#999,#826,#827);
#675=AXIS2_PLACEMENT_3D('',#1005,#831,#832);
#676=AXIS2_PLACEMENT_3D('',#1011,#836,#837);
#677=AXIS2_PLACEMENT_3D('',#1012,#838,#839);
#678=AXIS2_PLACEMENT_3D('',#1014,#840,#841);
#679=AXIS2_PLACEMENT_3D('',#1015,#842,#843);
#680=AXIS2_PLACEMENT_3D('',#1016,#844,#845);
#681=AXIS2_PLACEMENT_3D('',#1017,#846,#847);
#682=AXIS2_PLACEMENT_3D('',#1018,#848,#849);
#683=AXIS2_PLACEMENT_3D('',#1019,#850,#851);
#684=AXIS2_PLACEMENT_3D('',#1020,#852,#853);
#685=AXIS2_PLACEMENT_3D('',#1021,#854,#855);
#686=AXIS2_PLACEMENT_3D('',#1022,#856,#857);
#687=AXIS2_PLACEMENT_3D('',#1023,#858,#859);
#688=DIRECTION('',(0.,0.,1.));
#689=DIRECTION('',(1.,0.,0.));
#690=DIRECTION('',(0.,0.,-1.));
#691=DIRECTION('',(-0.999999999999999,0.,0.));
#692=DIRECTION('',(0.,0.,-1.));
#693=DIRECTION('',(-0.999999999999999,0.,0.));
#694=DIRECTION('',(0.,0.,-1.));
#695=DIRECTION('',(-0.999999999999999,0.,0.));
#696=DIRECTION('',(0.,0.,-1.));
#697=DIRECTION('',(-0.999999999999999,0.,0.));
#698=DIRECTION('',(0.,0.,-1.));
#699=DIRECTION('',(-0.999999999999999,0.,0.));
#700=DIRECTION('',(0.,0.,-1.));
#701=DIRECTION('',(-0.999999999999999,0.,0.));
#702=DIRECTION('',(0.,0.,-1.));
#703=DIRECTION('',(-0.999999999999999,0.,0.));
#704=DIRECTION('',(0.,0.,-1.));
#705=DIRECTION('',(-0.999999999999999,0.,0.));
#706=DIRECTION('',(0.,0.,-1.));
#707=DIRECTION('',(-0.999999999999999,0.,0.));
#708=DIRECTION('',(0.,0.,-1.));
#709=DIRECTION('',(-0.999999999999999,0.,0.));
#710=DIRECTION('',(0.,0.,-1.));
#711=DIRECTION('',(-0.999999999999999,0.,0.));
#712=DIRECTION('',(0.,0.,-1.));
#713=DIRECTION('',(-0.999999999999999,0.,0.));
#714=DIRECTION('',(0.,0.,-1.));
#715=DIRECTION('',(-0.999999999999999,0.,0.));
#716=DIRECTION('',(0.,0.,-1.));
#717=DIRECTION('',(-0.999999999999999,0.,0.));
#718=DIRECTION('',(0.,0.,-1.));
#719=DIRECTION('',(-0.999999999999999,0.,0.));
#720=DIRECTION('',(0.,0.,-1.));
#721=DIRECTION('',(-0.999999999999999,0.,0.));
#722=DIRECTION('',(0.,0.,-1.));
#723=DIRECTION('',(-0.999999999999999,0.,0.));
#724=DIRECTION('',(0.,0.,-1.));
#725=DIRECTION('',(-0.999999999999999,0.,0.));
#726=DIRECTION('',(0.,0.,-1.));
#727=DIRECTION('',(-1.,0.,0.));
#728=DIRECTION('',(0.,0.,-1.));
#729=DIRECTION('',(-1.,0.,0.));
#730=DIRECTION('',(0.,0.,-1.));
#731=DIRECTION('',(-1.,0.,0.));
#732=DIRECTION('',(0.,0.,1.));
#733=DIRECTION('',(1.,0.,0.));
#734=DIRECTION('',(0.,0.,1.));
#735=DIRECTION('',(-1.,0.,0.));
#736=DIRECTION('',(0.,-1.,0.));
#737=DIRECTION('',(0.,0.,-1.));
#738=DIRECTION('',(0.,0.,1.));
#739=DIRECTION('',(0.,-1.,0.));
#740=DIRECTION('',(0.,1.,0.));
#741=DIRECTION('',(-1.,0.,0.));
#742=DIRECTION('',(0.,0.,1.));
#743=DIRECTION('',(0.,0.,1.));
#744=DIRECTION('',(-1.,0.,0.));
#745=DIRECTION('',(1.,0.,0.));
#746=DIRECTION('',(0.,1.,0.));
#747=DIRECTION('',(0.,0.,1.));
#748=DIRECTION('',(0.,1.,0.));
#749=DIRECTION('',(0.,-1.,0.));
#750=DIRECTION('',(1.,0.,0.));
#751=DIRECTION('',(0.,0.,-1.));
#752=DIRECTION('',(1.,0.,0.));
#753=DIRECTION('',(0.,0.,1.));
#754=DIRECTION('',(-1.,0.,0.));
#755=DIRECTION('',(0.,0.,-1.));
#756=DIRECTION('',(0.,-1.,0.));
#757=DIRECTION('',(0.,0.,-1.));
#758=DIRECTION('',(0.,1.,0.));
#759=DIRECTION('',(0.,0.,1.));
#760=DIRECTION('',(0.,1.,0.));
#761=DIRECTION('',(0.,0.,-1.));
#762=DIRECTION('',(-1.,0.,0.));
#763=DIRECTION('',(0.,0.,1.));
#764=DIRECTION('',(1.,0.,0.));
#765=DIRECTION('',(0.,0.,1.));
#766=DIRECTION('',(1.,0.,0.));
#767=DIRECTION('',(0.,0.,-1.));
#768=DIRECTION('',(0.,1.,0.));
#769=DIRECTION('',(0.,0.,1.));
#770=DIRECTION('',(0.,1.,0.));
#771=DIRECTION('',(0.,0.,1.));
#772=DIRECTION('',(0.,-1.,0.));
#773=DIRECTION('',(0.,0.,-1.));
#774=DIRECTION('',(1.,0.,0.));
#775=DIRECTION('',(0.,0.,-1.));
#776=DIRECTION('',(0.,0.,-1.));
#777=DIRECTION('',(-1.,0.,0.));
#778=DIRECTION('',(0.,0.,-1.));
#779=DIRECTION('',(1.,0.,0.));
#780=DIRECTION('',(0.,0.,-1.));
#781=DIRECTION('',(-1.,0.,0.));
#782=DIRECTION('',(0.,0.,1.));
#783=DIRECTION('',(-1.,0.,0.));
#784=DIRECTION('',(0.,0.,-1.));
#785=DIRECTION('',(1.,0.,0.));
#786=DIRECTION('',(0.,0.,-1.));
#787=DIRECTION('',(-1.,0.,0.));
#788=DIRECTION('',(0.,0.,-1.));
#789=DIRECTION('',(-1.,0.,0.));
#790=DIRECTION('',(0.,0.,-1.));
#791=DIRECTION('',(1.,0.,0.));
#792=DIRECTION('',(0.,0.,-1.));
#793=DIRECTION('',(-1.,0.,0.));
#794=DIRECTION('',(0.,0.,-1.));
#795=DIRECTION('',(-1.,0.,0.));
#796=DIRECTION('',(0.,0.,-1.));
#797=DIRECTION('',(1.,0.,0.));
#798=DIRECTION('',(0.,0.,-1.));
#799=DIRECTION('',(-1.,0.,0.));
#800=DIRECTION('',(0.,0.,1.));
#801=DIRECTION('',(1.,0.,0.));
#802=DIRECTION('',(0.,0.,-1.));
#803=DIRECTION('',(-1.,0.,0.));
#804=DIRECTION('',(-1.,0.,0.));
#805=DIRECTION('',(0.,0.,1.));
#806=DIRECTION('',(-1.,0.,0.));
#807=DIRECTION('',(0.,-1.,0.));
#808=DIRECTION('',(0.,0.,1.));
#809=DIRECTION('',(-1.,0.,0.));
#810=DIRECTION('',(1.,0.,0.));
#811=DIRECTION('',(0.,0.,1.));
#812=DIRECTION('',(-1.,0.,0.));
#813=DIRECTION('',(0.,1.,0.));
#814=DIRECTION('',(0.,0.,1.));
#815=DIRECTION('',(-1.,0.,0.));
#816=DIRECTION('',(0.,0.,-1.));
#817=DIRECTION('',(-1.,0.,0.));
#818=DIRECTION('',(0.,0.,1.));
#819=DIRECTION('',(0.,-1.,0.));
#820=DIRECTION('',(0.,0.,-1.));
#821=DIRECTION('',(1.,0.,0.));
#822=DIRECTION('',(0.,0.,-1.));
#823=DIRECTION('',(0.,0.,1.));
#824=DIRECTION('',(-1.,0.,0.));
#825=DIRECTION('',(0.,0.,-1.));
#826=DIRECTION('',(0.,1.,0.));
#827=DIRECTION('',(0.,0.,1.));
#828=DIRECTION('',(0.,-1.,0.));
#829=DIRECTION('',(0.,0.,-1.));
#830=DIRECTION('',(0.,0.,1.));
#831=DIRECTION('',(-1.,0.,0.));
#832=DIRECTION('',(0.,0.,1.));
#833=DIRECTION('',(-1.,0.,0.));
#834=DIRECTION('',(0.,0.,-1.));
#835=DIRECTION('',(0.,0.,1.));
#836=DIRECTION('',(0.,-1.,0.));
#837=DIRECTION('',(0.,0.,-1.));
#838=DIRECTION('',(0.,0.,-1.));
#839=DIRECTION('',(-1.,0.,0.));
#840=DIRECTION('',(0.,0.,-1.));
#841=DIRECTION('',(-1.,0.,0.));
#842=DIRECTION('',(0.,0.,-1.));
#843=DIRECTION('',(-1.,0.,0.));
#844=DIRECTION('',(0.,0.,-1.));
#845=DIRECTION('',(-1.,0.,0.));
#846=DIRECTION('',(0.,0.,-1.));
#847=DIRECTION('',(-1.,0.,0.));
#848=DIRECTION('',(0.,0.,-1.));
#849=DIRECTION('',(-1.,0.,0.));
#850=DIRECTION('',(0.,0.,-1.));
#851=DIRECTION('',(-1.,0.,0.));
#852=DIRECTION('',(0.,0.,-1.));
#853=DIRECTION('',(-1.,0.,0.));
#854=DIRECTION('',(0.,0.,-1.));
#855=DIRECTION('',(-1.,0.,0.));
#856=DIRECTION('',(0.,0.,-1.));
#857=DIRECTION('',(-1.,0.,0.));
#858=DIRECTION('',(0.,0.,-1.));
#859=DIRECTION('',(-1.,0.,0.));
#860=CARTESIAN_POINT('',(0.,0.,0.));
#861=CARTESIAN_POINT('',(180.,110.,0.));
#862=CARTESIAN_POINT('',(172.7765,110.,0.));
#863=CARTESIAN_POINT('',(180.,110.,10.));
#864=CARTESIAN_POINT('',(172.7765,110.,10.));
#865=CARTESIAN_POINT('',(180.,110.,10.));
#866=CARTESIAN_POINT('',(160.,110.,0.));
#867=CARTESIAN_POINT('',(152.7765,110.,0.));
#868=CARTESIAN_POINT('',(160.,110.,10.));
#869=CARTESIAN_POINT('',(152.7765,110.,10.));
#870=CARTESIAN_POINT('',(160.,110.,10.));
#871=CARTESIAN_POINT('',(140.,110.,0.));
#872=CARTESIAN_POINT('',(132.7765,110.,0.));
#873=CARTESIAN_POINT('',(140.,110.,10.));
#874=CARTESIAN_POINT('',(132.7765,110.,10.));
#875=CARTESIAN_POINT('',(140.,110.,10.));
#876=CARTESIAN_POINT('',(120.,110.,0.));
#877=CARTESIAN_POINT('',(112.7765,110.,0.));
#878=CARTESIAN_POINT('',(120.,110.,10.));
#879=CARTESIAN_POINT('',(112.7765,110.,10.));
#880=CARTESIAN_POINT('',(120.,110.,10.));
#881=CARTESIAN_POINT('',(100.,110.,0.));
#882=CARTESIAN_POINT('',(92.7765,110.,0.));
#883=CARTESIAN_POINT('',(100.,110.,10.));
#884=CARTESIAN_POINT('',(92.7765,110.,10.));
#885=CARTESIAN_POINT('',(100.,110.,10.));
#886=CARTESIAN_POINT('',(80.,110.,0.));
#887=CARTESIAN_POINT('',(72.7765,110.,0.));
#888=CARTESIAN_POINT('',(80.,110.,10.));
#889=CARTESIAN_POINT('',(72.7765,110.,10.));
#890=CARTESIAN_POINT('',(80.,110.,10.));
#891=CARTESIAN_POINT('',(60.,110.,0.));
#892=CARTESIAN_POINT('',(52.7765,110.,0.));
#893=CARTESIAN_POINT('',(60.,110.,10.));
#894=CARTESIAN_POINT('',(52.7765,110.,10.));
#895=CARTESIAN_POINT('',(60.,110.,10.));
#896=CARTESIAN_POINT('',(0.,0.,0.));
#897=CARTESIAN_POINT('',(0.,0.,0.));
#898=CARTESIAN_POINT('',(0.,0.,30.));
#899=CARTESIAN_POINT('',(125.,0.,0.));
#900=CARTESIAN_POINT('',(250.,0.,0.));
#901=CARTESIAN_POINT('',(250.,0.,0.));
#902=CARTESIAN_POINT('',(250.,0.,30.));
#903=CARTESIAN_POINT('',(125.,0.,30.));
#904=CARTESIAN_POINT('',(125.,0.,0.));
#905=CARTESIAN_POINT('',(0.,150.,0.));
#906=CARTESIAN_POINT('',(0.,150.,0.));
#907=CARTESIAN_POINT('',(0.,150.,30.));
#908=CARTESIAN_POINT('',(0.,75.,0.));
#909=CARTESIAN_POINT('',(0.,75.,30.));
#910=CARTESIAN_POINT('',(0.,75.,0.));
#911=CARTESIAN_POINT('',(250.,150.,0.));
#912=CARTESIAN_POINT('',(250.,150.,0.));
#913=CARTESIAN_POINT('',(250.,150.,30.));
#914=CARTESIAN_POINT('',(125.,150.,0.));
#915=CARTESIAN_POINT('',(125.,150.,30.));
#916=CARTESIAN_POINT('',(125.,150.,0.));
#917=CARTESIAN_POINT('',(250.,75.,0.));
#918=CARTESIAN_POINT('',(250.,75.,30.));
#919=CARTESIAN_POINT('',(250.,75.,0.));
#920=CARTESIAN_POINT('',(125.,20.,10.));
#921=CARTESIAN_POINT('',(30.,20.,10.));
#922=CARTESIAN_POINT('',(220.,20.,10.));
#923=CARTESIAN_POINT('',(30.,20.,30.));
#924=CARTESIAN_POINT('',(30.,20.,30.));
#925=CARTESIAN_POINT('',(125.,20.,30.));
#926=CARTESIAN_POINT('',(220.,20.,30.));
#927=CARTESIAN_POINT('',(220.,20.,20.));
#928=CARTESIAN_POINT('',(125.,20.,0.));
#929=CARTESIAN_POINT('',(20.,75.,10.));
#930=CARTESIAN_POINT('',(20.,30.,10.));
#931=CARTESIAN_POINT('',(20.,120.,10.));
#932=CARTESIAN_POINT('',(20.,120.,30.));
#933=CARTESIAN_POINT('',(20.,120.,30.));
#934=CARTESIAN_POINT('',(20.,75.,30.));
#935=CARTESIAN_POINT('',(20.,30.,30.));
#936=CARTESIAN_POINT('',(20.,30.,20.));
#937=CARTESIAN_POINT('',(20.,75.,0.));
#938=CARTESIAN_POINT('',(125.,130.,10.));
#939=CARTESIAN_POINT('',(30.,130.,10.));
#940=CARTESIAN_POINT('',(220.,130.,10.));
#941=CARTESIAN_POINT('',(220.,130.,30.));
#942=CARTESIAN_POINT('',(220.,130.,30.));
#943=CARTESIAN_POINT('',(125.,130.,30.));
#944=CARTESIAN_POINT('',(30.,130.,30.));
#945=CARTESIAN_POINT('',(30.,130.,20.));
#946=CARTESIAN_POINT('',(125.,130.,0.));
#947=CARTESIAN_POINT('',(230.,75.,10.));
#948=CARTESIAN_POINT('',(230.,30.,10.));
#949=CARTESIAN_POINT('',(230.,120.,10.));
#950=CARTESIAN_POINT('',(230.,30.,30.));
#951=CARTESIAN_POINT('',(230.,30.,30.));
#952=CARTESIAN_POINT('',(230.,75.,30.));
#953=CARTESIAN_POINT('',(230.,120.,30.));
#954=CARTESIAN_POINT('',(230.,120.,20.));
#955=CARTESIAN_POINT('',(230.,75.,0.));
#956=CARTESIAN_POINT('',(220.,30.,10.));
#957=CARTESIAN_POINT('',(220.,30.,30.));
#958=CARTESIAN_POINT('',(220.,30.,0.));
#959=CARTESIAN_POINT('',(220.,120.,10.));
#960=CARTESIAN_POINT('',(220.,120.,30.));
#961=CARTESIAN_POINT('',(220.,120.,0.));
#962=CARTESIAN_POINT('',(30.,30.,10.));
#963=CARTESIAN_POINT('',(30.,30.,30.));
#964=CARTESIAN_POINT('',(30.,30.,0.));
#965=CARTESIAN_POINT('',(30.,120.,10.));
#966=CARTESIAN_POINT('',(30.,120.,30.));
#967=CARTESIAN_POINT('',(30.,120.,0.));
#968=CARTESIAN_POINT('',(125.,75.,30.));
#969=CARTESIAN_POINT('',(40.,110.,0.));
#970=CARTESIAN_POINT('',(32.7765,110.,0.));
#971=CARTESIAN_POINT('',(125.,100.,0.));
#972=CARTESIAN_POINT('',(190.,100.,0.));
#973=CARTESIAN_POINT('',(60.,100.,0.));
#974=CARTESIAN_POINT('',(60.,90.,0.));
#975=CARTESIAN_POINT('',(50.,90.,0.));
#976=CARTESIAN_POINT('',(50.,75.,0.));
#977=CARTESIAN_POINT('',(50.,60.,0.));
#978=CARTESIAN_POINT('',(60.,60.,0.));
#979=CARTESIAN_POINT('',(60.,50.,0.));
#980=CARTESIAN_POINT('',(125.,50.,0.));
#981=CARTESIAN_POINT('',(190.,50.,0.));
#982=CARTESIAN_POINT('',(190.,60.,0.));
#983=CARTESIAN_POINT('',(200.,60.,0.));
#984=CARTESIAN_POINT('',(200.,75.,0.));
#985=CARTESIAN_POINT('',(200.,90.,0.));
#986=CARTESIAN_POINT('',(190.,90.,0.));
#987=CARTESIAN_POINT('',(125.,75.,0.));
#988=CARTESIAN_POINT('',(200.,60.,10.));
#989=CARTESIAN_POINT('',(200.,60.,10.));
#990=CARTESIAN_POINT('',(200.,75.,10.));
#991=CARTESIAN_POINT('',(200.,90.,10.));
#992=CARTESIAN_POINT('',(200.,90.,0.));
#993=CARTESIAN_POINT('',(200.,75.,0.));
#994=CARTESIAN_POINT('',(190.,100.,10.));
#995=CARTESIAN_POINT('',(190.,100.,10.));
#996=CARTESIAN_POINT('',(125.,100.,10.));
#997=CARTESIAN_POINT('',(60.,100.,10.));
#998=CARTESIAN_POINT('',(60.,100.,0.));
#999=CARTESIAN_POINT('',(125.,100.,0.));
#1000=CARTESIAN_POINT('',(50.,75.,10.));
#1001=CARTESIAN_POINT('',(50.,90.,10.));
#1002=CARTESIAN_POINT('',(50.,60.,10.));
#1003=CARTESIAN_POINT('',(50.,60.,0.));
#1004=CARTESIAN_POINT('',(50.,90.,10.));
#1005=CARTESIAN_POINT('',(50.,75.,0.));
#1006=CARTESIAN_POINT('',(125.,50.,10.));
#1007=CARTESIAN_POINT('',(190.,50.,10.));
#1008=CARTESIAN_POINT('',(60.,50.,10.));
#1009=CARTESIAN_POINT('',(190.,50.,0.));
#1010=CARTESIAN_POINT('',(60.,50.,10.));
#1011=CARTESIAN_POINT('',(125.,50.,0.));
#1012=CARTESIAN_POINT('',(40.,110.,10.));
#1013=CARTESIAN_POINT('',(32.7765,110.,10.));
#1014=CARTESIAN_POINT('',(190.,60.,10.));
#1015=CARTESIAN_POINT('',(60.,60.,10.));
#1016=CARTESIAN_POINT('',(60.,90.,10.));
#1017=CARTESIAN_POINT('',(190.,90.,10.));
#1018=CARTESIAN_POINT('',(125.,75.,10.));
#1019=CARTESIAN_POINT('',(190.,60.,0.));
#1020=CARTESIAN_POINT('',(190.,90.,0.));
#1021=CARTESIAN_POINT('',(60.,60.,0.));
#1022=CARTESIAN_POINT('',(60.,90.,0.));
#1023=CARTESIAN_POINT('',(40.,110.,10.));
#1024=MECHANICAL_DESIGN_GEOMETRIC_PRESENTATION_REPRESENTATION('',(#32),
#1025);
#1025=(
GEOMETRIC_REPRESENTATION_CONTEXT(3)
GLOBAL_UNCERTAINTY_ASSIGNED_CONTEXT((#1026))
GLOBAL_UNIT_ASSIGNED_CONTEXT((#1032,#1028,#1027))
REPRESENTATION_CONTEXT('007 - OPEN_CLOSE_POCKET_HOLE',
'TOP_LEVEL_ASSEMBLY_PART')
);
#1026=UNCERTAINTY_MEASURE_WITH_UNIT(LENGTH_MEASURE(2.E-5),#1032,
'DISTANCE_ACCURACY_VALUE','Maximum Tolerance applied to model');
#1027=(
NAMED_UNIT(*)
SI_UNIT($,.STERADIAN.)
SOLID_ANGLE_UNIT()
);
#1028=(
CONVERSION_BASED_UNIT('DEGREE',#1030)
NAMED_UNIT(#1029)
PLANE_ANGLE_UNIT()
);
#1029=DIMENSIONAL_EXPONENTS(0.,0.,0.,0.,0.,0.,0.);
#1030=PLANE_ANGLE_MEASURE_WITH_UNIT(PLANE_ANGLE_MEASURE(0.0174532925),#1031);
#1031=(
NAMED_UNIT(*)
PLANE_ANGLE_UNIT()
SI_UNIT($,.RADIAN.)
);
#1032=(
LENGTH_UNIT()
NAMED_UNIT(*)
SI_UNIT(.MILLI.,.METRE.)
);
ENDSEC;
END-ISO-10303-21;
