ISO-10303-21;
HEADER;
/* Generated by software containing ST-Developer
 * from STEP Tools, Inc. (www.steptools.com) 
 */
/* OPTION: using custom schema-name function */

FILE_DESCRIPTION(
/* description */ (''),
/* implementation_level */ '2;1');

FILE_NAME(
/* name */ '008 - MORE_POCKETS.stp',
/* time_stamp */ '2026-08-06T15:26:53+08:00',
/* author */ (''),
/* organization */ (''),
/* preprocessor_version */ 'ST-DEVELOPER v20.1',
/* originating_system */ 'SIEMENS PLM Software NX2512.5000',
/* authorisation */ '');

FILE_SCHEMA (('AUTOMOTIVE_DESIGN { 1 0 10303 214 3 1 1 1 }'));
ENDSEC;

DATA;
#10=PROPERTY_DEFINITION_REPRESENTATION(#14,#12);
#11=PROPERTY_DEFINITION_REPRESENTATION(#15,#13);
#12=REPRESENTATION('',(#16),#1307);
#13=REPRESENTATION('',(#17),#1307);
#14=PROPERTY_DEFINITION('pmi validation property','',#21);
#15=PROPERTY_DEFINITION('pmi validation property','',#21);
#16=VALUE_REPRESENTATION_ITEM('number of annotations',COUNT_MEASURE(0.));
#17=VALUE_REPRESENTATION_ITEM('number of views',COUNT_MEASURE(0.));
#18=SHAPE_REPRESENTATION_RELATIONSHIP('None',
'relationship between 008 - MORE_POCKETS_objects-None and 008 - MORE_P
OCKETS_objects-None',#30,#19);
#19=ADVANCED_BREP_SHAPE_REPRESENTATION(
'008 - MORE_POCKETS_objects-None',(#40),#1307);
#20=SHAPE_DEFINITION_REPRESENTATION(#21,#30);
#21=PRODUCT_DEFINITION_SHAPE('','',#22);
#22=PRODUCT_DEFINITION(' ','',#24,#23);
#23=PRODUCT_DEFINITION_CONTEXT('part definition',#29,'design');
#24=PRODUCT_DEFINITION_FORMATION_WITH_SPECIFIED_SOURCE(' ',' ',#26,
 .NOT_KNOWN.);
#25=PRODUCT_RELATED_PRODUCT_CATEGORY('part','',(#26));
#26=PRODUCT('008 - MORE_POCKETS_objects','008 - MORE_POCKETS_objects',
' ',(#27));
#27=PRODUCT_CONTEXT(' ',#29,'mechanical');
#28=APPLICATION_PROTOCOL_DEFINITION('international standard',
'automotive_design',2010,#29);
#29=APPLICATION_CONTEXT(
'core data for automotive mechanical design processes');
#30=SHAPE_REPRESENTATION('008 - MORE_POCKETS_objects-None',(#790),#1307);
#31=PRESENTATION_LAYER_ASSIGNMENT('90','Layer 90',(#40));
#32=STYLED_ITEM('',(#33),#40);
#33=PRESENTATION_STYLE_ASSIGNMENT((#34));
#34=SURFACE_STYLE_USAGE(.BOTH.,#35);
#35=SURFACE_SIDE_STYLE('',(#36));
#36=SURFACE_STYLE_FILL_AREA(#37);
#37=FILL_AREA_STYLE('',(#38));
#38=FILL_AREA_STYLE_COLOUR('',#39);
#39=COLOUR_RGB('medium steel',0.611764705882353,0.658823529411765,0.670588235294118);
#40=MANIFOLD_SOLID_BREP('',#41);
#41=CLOSED_SHELL('',(#90,#91,#92,#93,#94,#95,#96,#97,#98,#99,#100,#101,
#102,#103,#104,#105,#106,#107,#108,#109,#110,#111,#112,#113,#114,#115,#116,
#117,#118,#119,#120,#121,#122,#123,#124,#125,#126,#127,#128,#129));
#42=FACE_OUTER_BOUND('',#206,.T.);
#43=FACE_OUTER_BOUND('',#207,.T.);
#44=FACE_OUTER_BOUND('',#208,.T.);
#45=FACE_OUTER_BOUND('',#209,.T.);
#46=FACE_OUTER_BOUND('',#210,.T.);
#47=FACE_OUTER_BOUND('',#211,.T.);
#48=FACE_OUTER_BOUND('',#212,.T.);
#49=FACE_OUTER_BOUND('',#213,.T.);
#50=FACE_OUTER_BOUND('',#214,.T.);
#51=FACE_OUTER_BOUND('',#215,.T.);
#52=FACE_OUTER_BOUND('',#216,.T.);
#53=FACE_OUTER_BOUND('',#217,.T.);
#54=FACE_OUTER_BOUND('',#228,.T.);
#55=FACE_OUTER_BOUND('',#229,.T.);
#56=FACE_OUTER_BOUND('',#230,.T.);
#57=FACE_OUTER_BOUND('',#231,.T.);
#58=FACE_OUTER_BOUND('',#242,.T.);
#59=FACE_OUTER_BOUND('',#243,.T.);
#60=FACE_OUTER_BOUND('',#244,.T.);
#61=FACE_OUTER_BOUND('',#245,.T.);
#62=FACE_OUTER_BOUND('',#248,.T.);
#63=FACE_OUTER_BOUND('',#249,.T.);
#64=FACE_OUTER_BOUND('',#250,.T.);
#65=FACE_OUTER_BOUND('',#251,.T.);
#66=FACE_OUTER_BOUND('',#252,.T.);
#67=FACE_OUTER_BOUND('',#253,.T.);
#68=FACE_OUTER_BOUND('',#254,.T.);
#69=FACE_OUTER_BOUND('',#255,.T.);
#70=CYLINDRICAL_SURFACE('',#802,7.2235);
#71=CYLINDRICAL_SURFACE('',#805,7.2235);
#72=CYLINDRICAL_SURFACE('',#808,7.2235);
#73=CYLINDRICAL_SURFACE('',#811,7.2235);
#74=CYLINDRICAL_SURFACE('',#814,7.2235);
#75=CYLINDRICAL_SURFACE('',#817,7.2235);
#76=CYLINDRICAL_SURFACE('',#820,7.2235);
#77=CYLINDRICAL_SURFACE('',#830,10.);
#78=CYLINDRICAL_SURFACE('',#832,10.);
#79=CYLINDRICAL_SURFACE('',#834,10.);
#80=CYLINDRICAL_SURFACE('',#836,10.);
#81=CYLINDRICAL_SURFACE('',#853,10.);
#82=CYLINDRICAL_SURFACE('',#854,10.);
#83=CYLINDRICAL_SURFACE('',#855,10.);
#84=CYLINDRICAL_SURFACE('',#856,10.);
#85=CYLINDRICAL_SURFACE('',#857,7.2235);
#86=CYLINDRICAL_SURFACE('',#860,20.);
#87=CYLINDRICAL_SURFACE('',#863,20.);
#88=CYLINDRICAL_SURFACE('',#866,20.);
#89=CYLINDRICAL_SURFACE('',#869,20.);
#90=ADVANCED_FACE('',(#150,#151),#130,.T.);
#91=ADVANCED_FACE('',(#152,#153),#70,.F.);
#92=ADVANCED_FACE('',(#154,#155),#71,.F.);
#93=ADVANCED_FACE('',(#156,#157),#72,.F.);
#94=ADVANCED_FACE('',(#158,#159),#73,.F.);
#95=ADVANCED_FACE('',(#160,#161),#74,.F.);
#96=ADVANCED_FACE('',(#162,#163),#75,.F.);
#97=ADVANCED_FACE('',(#164,#165),#76,.F.);
#98=ADVANCED_FACE('',(#42),#131,.T.);
#99=ADVANCED_FACE('',(#43),#132,.T.);
#100=ADVANCED_FACE('',(#44),#133,.T.);
#101=ADVANCED_FACE('',(#45),#134,.T.);
#102=ADVANCED_FACE('',(#46),#135,.F.);
#103=ADVANCED_FACE('',(#47),#136,.F.);
#104=ADVANCED_FACE('',(#48),#137,.F.);
#105=ADVANCED_FACE('',(#49),#138,.F.);
#106=ADVANCED_FACE('',(#50),#77,.F.);
#107=ADVANCED_FACE('',(#51),#78,.F.);
#108=ADVANCED_FACE('',(#52),#79,.F.);
#109=ADVANCED_FACE('',(#53),#80,.F.);
#110=ADVANCED_FACE('',(#166,#167,#168,#169,#170,#171,#172,#173,#174,#175),
#139,.T.);
#111=ADVANCED_FACE('',(#54),#140,.F.);
#112=ADVANCED_FACE('',(#55),#141,.F.);
#113=ADVANCED_FACE('',(#56),#142,.F.);
#114=ADVANCED_FACE('',(#57),#143,.F.);
#115=ADVANCED_FACE('',(#176,#177,#178,#179,#180,#181,#182,#183,#184,#185),
#144,.F.);
#116=ADVANCED_FACE('',(#58),#81,.F.);
#117=ADVANCED_FACE('',(#59),#82,.F.);
#118=ADVANCED_FACE('',(#60),#83,.F.);
#119=ADVANCED_FACE('',(#61),#84,.F.);
#120=ADVANCED_FACE('',(#186,#187),#85,.F.);
#121=ADVANCED_FACE('',(#62),#145,.T.);
#122=ADVANCED_FACE('',(#63),#86,.F.);
#123=ADVANCED_FACE('',(#64),#146,.T.);
#124=ADVANCED_FACE('',(#65),#87,.F.);
#125=ADVANCED_FACE('',(#66),#147,.T.);
#126=ADVANCED_FACE('',(#67),#88,.F.);
#127=ADVANCED_FACE('',(#68),#148,.T.);
#128=ADVANCED_FACE('',(#69),#89,.F.);
#129=ADVANCED_FACE('',(#188,#189),#149,.T.);
#130=PLANE('',#799);
#131=PLANE('',#821);
#132=PLANE('',#822);
#133=PLANE('',#823);
#134=PLANE('',#824);
#135=PLANE('',#825);
#136=PLANE('',#826);
#137=PLANE('',#827);
#138=PLANE('',#828);
#139=PLANE('',#842);
#140=PLANE('',#843);
#141=PLANE('',#844);
#142=PLANE('',#845);
#143=PLANE('',#846);
#144=PLANE('',#852);
#145=PLANE('',#858);
#146=PLANE('',#861);
#147=PLANE('',#864);
#148=PLANE('',#867);
#149=PLANE('',#870);
#150=FACE_BOUND('',#190,.T.);
#151=FACE_BOUND('',#191,.T.);
#152=FACE_BOUND('',#192,.T.);
#153=FACE_BOUND('',#193,.T.);
#154=FACE_BOUND('',#194,.T.);
#155=FACE_BOUND('',#195,.T.);
#156=FACE_BOUND('',#196,.T.);
#157=FACE_BOUND('',#197,.T.);
#158=FACE_BOUND('',#198,.T.);
#159=FACE_BOUND('',#199,.T.);
#160=FACE_BOUND('',#200,.T.);
#161=FACE_BOUND('',#201,.T.);
#162=FACE_BOUND('',#202,.T.);
#163=FACE_BOUND('',#203,.T.);
#164=FACE_BOUND('',#204,.T.);
#165=FACE_BOUND('',#205,.T.);
#166=FACE_BOUND('',#218,.T.);
#167=FACE_BOUND('',#219,.T.);
#168=FACE_BOUND('',#220,.T.);
#169=FACE_BOUND('',#221,.T.);
#170=FACE_BOUND('',#222,.T.);
#171=FACE_BOUND('',#223,.T.);
#172=FACE_BOUND('',#224,.T.);
#173=FACE_BOUND('',#225,.T.);
#174=FACE_BOUND('',#226,.T.);
#175=FACE_BOUND('',#227,.T.);
#176=FACE_BOUND('',#232,.T.);
#177=FACE_BOUND('',#233,.T.);
#178=FACE_BOUND('',#234,.T.);
#179=FACE_BOUND('',#235,.T.);
#180=FACE_BOUND('',#236,.T.);
#181=FACE_BOUND('',#237,.T.);
#182=FACE_BOUND('',#238,.T.);
#183=FACE_BOUND('',#239,.T.);
#184=FACE_BOUND('',#240,.T.);
#185=FACE_BOUND('',#241,.T.);
#186=FACE_BOUND('',#246,.T.);
#187=FACE_BOUND('',#247,.T.);
#188=FACE_BOUND('',#256,.T.);
#189=FACE_BOUND('',#257,.T.);
#190=EDGE_LOOP('',(#298,#299,#300,#301,#302,#303,#304,#305));
#191=EDGE_LOOP('',(#306,#307,#308,#309,#310,#311,#312,#313));
#192=EDGE_LOOP('',(#314));
#193=EDGE_LOOP('',(#315));
#194=EDGE_LOOP('',(#316));
#195=EDGE_LOOP('',(#317));
#196=EDGE_LOOP('',(#318));
#197=EDGE_LOOP('',(#319));
#198=EDGE_LOOP('',(#320));
#199=EDGE_LOOP('',(#321));
#200=EDGE_LOOP('',(#322));
#201=EDGE_LOOP('',(#323));
#202=EDGE_LOOP('',(#324));
#203=EDGE_LOOP('',(#325));
#204=EDGE_LOOP('',(#326));
#205=EDGE_LOOP('',(#327));
#206=EDGE_LOOP('',(#328,#329,#330,#331));
#207=EDGE_LOOP('',(#332,#333,#334,#335));
#208=EDGE_LOOP('',(#336,#337,#338,#339));
#209=EDGE_LOOP('',(#340,#341,#342,#343));
#210=EDGE_LOOP('',(#344,#345,#346,#347));
#211=EDGE_LOOP('',(#348,#349,#350,#351));
#212=EDGE_LOOP('',(#352,#353,#354,#355));
#213=EDGE_LOOP('',(#356,#357,#358,#359));
#214=EDGE_LOOP('',(#360,#361,#362,#363));
#215=EDGE_LOOP('',(#364,#365,#366,#367));
#216=EDGE_LOOP('',(#368,#369,#370,#371));
#217=EDGE_LOOP('',(#372,#373,#374,#375));
#218=EDGE_LOOP('',(#376));
#219=EDGE_LOOP('',(#377));
#220=EDGE_LOOP('',(#378));
#221=EDGE_LOOP('',(#379));
#222=EDGE_LOOP('',(#380));
#223=EDGE_LOOP('',(#381));
#224=EDGE_LOOP('',(#382));
#225=EDGE_LOOP('',(#383));
#226=EDGE_LOOP('',(#384,#385,#386,#387));
#227=EDGE_LOOP('',(#388,#389,#390,#391,#392,#393,#394,#395));
#228=EDGE_LOOP('',(#396,#397,#398,#399));
#229=EDGE_LOOP('',(#400,#401,#402,#403));
#230=EDGE_LOOP('',(#404,#405,#406,#407));
#231=EDGE_LOOP('',(#408,#409,#410,#411));
#232=EDGE_LOOP('',(#412));
#233=EDGE_LOOP('',(#413));
#234=EDGE_LOOP('',(#414));
#235=EDGE_LOOP('',(#415));
#236=EDGE_LOOP('',(#416));
#237=EDGE_LOOP('',(#417));
#238=EDGE_LOOP('',(#418));
#239=EDGE_LOOP('',(#419));
#240=EDGE_LOOP('',(#420,#421,#422,#423,#424,#425,#426,#427));
#241=EDGE_LOOP('',(#428,#429,#430,#431,#432,#433,#434,#435));
#242=EDGE_LOOP('',(#436,#437,#438,#439));
#243=EDGE_LOOP('',(#440,#441,#442,#443));
#244=EDGE_LOOP('',(#444,#445,#446,#447));
#245=EDGE_LOOP('',(#448,#449,#450,#451));
#246=EDGE_LOOP('',(#452));
#247=EDGE_LOOP('',(#453));
#248=EDGE_LOOP('',(#454,#455,#456,#457));
#249=EDGE_LOOP('',(#458,#459,#460,#461));
#250=EDGE_LOOP('',(#462,#463,#464,#465));
#251=EDGE_LOOP('',(#466,#467,#468,#469));
#252=EDGE_LOOP('',(#470,#471,#472,#473));
#253=EDGE_LOOP('',(#474,#475,#476,#477));
#254=EDGE_LOOP('',(#478,#479,#480,#481));
#255=EDGE_LOOP('',(#482,#483,#484,#485));
#256=EDGE_LOOP('',(#486,#487,#488,#489));
#257=EDGE_LOOP('',(#490,#491,#492,#493,#494,#495,#496,#497));
#258=CIRCLE('',#791,10.);
#259=CIRCLE('',#792,10.);
#260=CIRCLE('',#793,10.);
#261=CIRCLE('',#794,10.);
#262=CIRCLE('',#795,20.);
#263=CIRCLE('',#796,20.);
#264=CIRCLE('',#797,20.);
#265=CIRCLE('',#798,20.);
#266=CIRCLE('',#800,7.2235);
#267=CIRCLE('',#801,7.2235);
#268=CIRCLE('',#803,7.2235);
#269=CIRCLE('',#804,7.2235);
#270=CIRCLE('',#806,7.2235);
#271=CIRCLE('',#807,7.2235);
#272=CIRCLE('',#809,7.2235);
#273=CIRCLE('',#810,7.2235);
#274=CIRCLE('',#812,7.2235);
#275=CIRCLE('',#813,7.2235);
#276=CIRCLE('',#815,7.2235);
#277=CIRCLE('',#816,7.2235);
#278=CIRCLE('',#818,7.2235);
#279=CIRCLE('',#819,7.2235);
#280=CIRCLE('',#829,10.);
#281=CIRCLE('',#831,10.);
#282=CIRCLE('',#833,10.);
#283=CIRCLE('',#835,10.);
#284=CIRCLE('',#837,7.2235);
#285=CIRCLE('',#838,10.);
#286=CIRCLE('',#839,10.);
#287=CIRCLE('',#840,10.);
#288=CIRCLE('',#841,10.);
#289=CIRCLE('',#847,7.2235);
#290=CIRCLE('',#848,10.);
#291=CIRCLE('',#849,10.);
#292=CIRCLE('',#850,10.);
#293=CIRCLE('',#851,10.);
#294=CIRCLE('',#859,20.);
#295=CIRCLE('',#862,20.);
#296=CIRCLE('',#865,20.);
#297=CIRCLE('',#868,20.);
#298=ORIENTED_EDGE('',*,*,#570,.T.);
#299=ORIENTED_EDGE('',*,*,#571,.T.);
#300=ORIENTED_EDGE('',*,*,#572,.T.);
#301=ORIENTED_EDGE('',*,*,#573,.T.);
#302=ORIENTED_EDGE('',*,*,#574,.T.);
#303=ORIENTED_EDGE('',*,*,#575,.T.);
#304=ORIENTED_EDGE('',*,*,#576,.T.);
#305=ORIENTED_EDGE('',*,*,#577,.T.);
#306=ORIENTED_EDGE('',*,*,#578,.F.);
#307=ORIENTED_EDGE('',*,*,#579,.F.);
#308=ORIENTED_EDGE('',*,*,#580,.F.);
#309=ORIENTED_EDGE('',*,*,#581,.F.);
#310=ORIENTED_EDGE('',*,*,#582,.F.);
#311=ORIENTED_EDGE('',*,*,#583,.F.);
#312=ORIENTED_EDGE('',*,*,#584,.F.);
#313=ORIENTED_EDGE('',*,*,#585,.F.);
#314=ORIENTED_EDGE('',*,*,#586,.T.);
#315=ORIENTED_EDGE('',*,*,#587,.F.);
#316=ORIENTED_EDGE('',*,*,#588,.T.);
#317=ORIENTED_EDGE('',*,*,#589,.F.);
#318=ORIENTED_EDGE('',*,*,#590,.T.);
#319=ORIENTED_EDGE('',*,*,#591,.F.);
#320=ORIENTED_EDGE('',*,*,#592,.T.);
#321=ORIENTED_EDGE('',*,*,#593,.F.);
#322=ORIENTED_EDGE('',*,*,#594,.T.);
#323=ORIENTED_EDGE('',*,*,#595,.F.);
#324=ORIENTED_EDGE('',*,*,#596,.T.);
#325=ORIENTED_EDGE('',*,*,#597,.F.);
#326=ORIENTED_EDGE('',*,*,#598,.T.);
#327=ORIENTED_EDGE('',*,*,#599,.F.);
#328=ORIENTED_EDGE('',*,*,#600,.F.);
#329=ORIENTED_EDGE('',*,*,#601,.T.);
#330=ORIENTED_EDGE('',*,*,#602,.T.);
#331=ORIENTED_EDGE('',*,*,#603,.T.);
#332=ORIENTED_EDGE('',*,*,#604,.F.);
#333=ORIENTED_EDGE('',*,*,#605,.T.);
#334=ORIENTED_EDGE('',*,*,#600,.T.);
#335=ORIENTED_EDGE('',*,*,#606,.T.);
#336=ORIENTED_EDGE('',*,*,#607,.F.);
#337=ORIENTED_EDGE('',*,*,#608,.T.);
#338=ORIENTED_EDGE('',*,*,#604,.T.);
#339=ORIENTED_EDGE('',*,*,#609,.T.);
#340=ORIENTED_EDGE('',*,*,#602,.F.);
#341=ORIENTED_EDGE('',*,*,#610,.T.);
#342=ORIENTED_EDGE('',*,*,#607,.T.);
#343=ORIENTED_EDGE('',*,*,#611,.T.);
#344=ORIENTED_EDGE('',*,*,#612,.F.);
#345=ORIENTED_EDGE('',*,*,#613,.T.);
#346=ORIENTED_EDGE('',*,*,#574,.F.);
#347=ORIENTED_EDGE('',*,*,#614,.T.);
#348=ORIENTED_EDGE('',*,*,#615,.T.);
#349=ORIENTED_EDGE('',*,*,#616,.T.);
#350=ORIENTED_EDGE('',*,*,#576,.F.);
#351=ORIENTED_EDGE('',*,*,#617,.T.);
#352=ORIENTED_EDGE('',*,*,#618,.T.);
#353=ORIENTED_EDGE('',*,*,#619,.T.);
#354=ORIENTED_EDGE('',*,*,#570,.F.);
#355=ORIENTED_EDGE('',*,*,#620,.T.);
#356=ORIENTED_EDGE('',*,*,#621,.F.);
#357=ORIENTED_EDGE('',*,*,#622,.T.);
#358=ORIENTED_EDGE('',*,*,#572,.F.);
#359=ORIENTED_EDGE('',*,*,#623,.T.);
#360=ORIENTED_EDGE('',*,*,#624,.T.);
#361=ORIENTED_EDGE('',*,*,#614,.F.);
#362=ORIENTED_EDGE('',*,*,#573,.F.);
#363=ORIENTED_EDGE('',*,*,#622,.F.);
#364=ORIENTED_EDGE('',*,*,#625,.F.);
#365=ORIENTED_EDGE('',*,*,#623,.F.);
#366=ORIENTED_EDGE('',*,*,#571,.F.);
#367=ORIENTED_EDGE('',*,*,#619,.F.);
#368=ORIENTED_EDGE('',*,*,#626,.T.);
#369=ORIENTED_EDGE('',*,*,#617,.F.);
#370=ORIENTED_EDGE('',*,*,#575,.F.);
#371=ORIENTED_EDGE('',*,*,#613,.F.);
#372=ORIENTED_EDGE('',*,*,#627,.T.);
#373=ORIENTED_EDGE('',*,*,#620,.F.);
#374=ORIENTED_EDGE('',*,*,#577,.F.);
#375=ORIENTED_EDGE('',*,*,#616,.F.);
#376=ORIENTED_EDGE('',*,*,#586,.F.);
#377=ORIENTED_EDGE('',*,*,#588,.F.);
#378=ORIENTED_EDGE('',*,*,#590,.F.);
#379=ORIENTED_EDGE('',*,*,#592,.F.);
#380=ORIENTED_EDGE('',*,*,#594,.F.);
#381=ORIENTED_EDGE('',*,*,#596,.F.);
#382=ORIENTED_EDGE('',*,*,#598,.F.);
#383=ORIENTED_EDGE('',*,*,#628,.F.);
#384=ORIENTED_EDGE('',*,*,#610,.F.);
#385=ORIENTED_EDGE('',*,*,#601,.F.);
#386=ORIENTED_EDGE('',*,*,#605,.F.);
#387=ORIENTED_EDGE('',*,*,#608,.F.);
#388=ORIENTED_EDGE('',*,*,#629,.T.);
#389=ORIENTED_EDGE('',*,*,#630,.T.);
#390=ORIENTED_EDGE('',*,*,#631,.T.);
#391=ORIENTED_EDGE('',*,*,#632,.T.);
#392=ORIENTED_EDGE('',*,*,#633,.T.);
#393=ORIENTED_EDGE('',*,*,#634,.T.);
#394=ORIENTED_EDGE('',*,*,#635,.T.);
#395=ORIENTED_EDGE('',*,*,#636,.T.);
#396=ORIENTED_EDGE('',*,*,#635,.F.);
#397=ORIENTED_EDGE('',*,*,#637,.T.);
#398=ORIENTED_EDGE('',*,*,#638,.F.);
#399=ORIENTED_EDGE('',*,*,#639,.T.);
#400=ORIENTED_EDGE('',*,*,#629,.F.);
#401=ORIENTED_EDGE('',*,*,#640,.T.);
#402=ORIENTED_EDGE('',*,*,#641,.T.);
#403=ORIENTED_EDGE('',*,*,#642,.T.);
#404=ORIENTED_EDGE('',*,*,#643,.T.);
#405=ORIENTED_EDGE('',*,*,#644,.T.);
#406=ORIENTED_EDGE('',*,*,#631,.F.);
#407=ORIENTED_EDGE('',*,*,#645,.T.);
#408=ORIENTED_EDGE('',*,*,#646,.F.);
#409=ORIENTED_EDGE('',*,*,#647,.T.);
#410=ORIENTED_EDGE('',*,*,#633,.F.);
#411=ORIENTED_EDGE('',*,*,#648,.T.);
#412=ORIENTED_EDGE('',*,*,#587,.T.);
#413=ORIENTED_EDGE('',*,*,#589,.T.);
#414=ORIENTED_EDGE('',*,*,#591,.T.);
#415=ORIENTED_EDGE('',*,*,#593,.T.);
#416=ORIENTED_EDGE('',*,*,#595,.T.);
#417=ORIENTED_EDGE('',*,*,#597,.T.);
#418=ORIENTED_EDGE('',*,*,#599,.T.);
#419=ORIENTED_EDGE('',*,*,#649,.T.);
#420=ORIENTED_EDGE('',*,*,#626,.F.);
#421=ORIENTED_EDGE('',*,*,#612,.T.);
#422=ORIENTED_EDGE('',*,*,#624,.F.);
#423=ORIENTED_EDGE('',*,*,#621,.T.);
#424=ORIENTED_EDGE('',*,*,#625,.T.);
#425=ORIENTED_EDGE('',*,*,#618,.F.);
#426=ORIENTED_EDGE('',*,*,#627,.F.);
#427=ORIENTED_EDGE('',*,*,#615,.F.);
#428=ORIENTED_EDGE('',*,*,#638,.T.);
#429=ORIENTED_EDGE('',*,*,#650,.T.);
#430=ORIENTED_EDGE('',*,*,#646,.T.);
#431=ORIENTED_EDGE('',*,*,#651,.T.);
#432=ORIENTED_EDGE('',*,*,#643,.F.);
#433=ORIENTED_EDGE('',*,*,#652,.T.);
#434=ORIENTED_EDGE('',*,*,#641,.F.);
#435=ORIENTED_EDGE('',*,*,#653,.T.);
#436=ORIENTED_EDGE('',*,*,#634,.F.);
#437=ORIENTED_EDGE('',*,*,#647,.F.);
#438=ORIENTED_EDGE('',*,*,#650,.F.);
#439=ORIENTED_EDGE('',*,*,#637,.F.);
#440=ORIENTED_EDGE('',*,*,#636,.F.);
#441=ORIENTED_EDGE('',*,*,#639,.F.);
#442=ORIENTED_EDGE('',*,*,#653,.F.);
#443=ORIENTED_EDGE('',*,*,#640,.F.);
#444=ORIENTED_EDGE('',*,*,#632,.F.);
#445=ORIENTED_EDGE('',*,*,#644,.F.);
#446=ORIENTED_EDGE('',*,*,#651,.F.);
#447=ORIENTED_EDGE('',*,*,#648,.F.);
#448=ORIENTED_EDGE('',*,*,#630,.F.);
#449=ORIENTED_EDGE('',*,*,#642,.F.);
#450=ORIENTED_EDGE('',*,*,#652,.F.);
#451=ORIENTED_EDGE('',*,*,#645,.F.);
#452=ORIENTED_EDGE('',*,*,#628,.T.);
#453=ORIENTED_EDGE('',*,*,#649,.F.);
#454=ORIENTED_EDGE('',*,*,#654,.F.);
#455=ORIENTED_EDGE('',*,*,#584,.T.);
#456=ORIENTED_EDGE('',*,*,#655,.T.);
#457=ORIENTED_EDGE('',*,*,#656,.F.);
#458=ORIENTED_EDGE('',*,*,#655,.F.);
#459=ORIENTED_EDGE('',*,*,#583,.T.);
#460=ORIENTED_EDGE('',*,*,#657,.T.);
#461=ORIENTED_EDGE('',*,*,#658,.F.);
#462=ORIENTED_EDGE('',*,*,#657,.F.);
#463=ORIENTED_EDGE('',*,*,#582,.T.);
#464=ORIENTED_EDGE('',*,*,#659,.T.);
#465=ORIENTED_EDGE('',*,*,#660,.F.);
#466=ORIENTED_EDGE('',*,*,#659,.F.);
#467=ORIENTED_EDGE('',*,*,#581,.T.);
#468=ORIENTED_EDGE('',*,*,#661,.T.);
#469=ORIENTED_EDGE('',*,*,#662,.F.);
#470=ORIENTED_EDGE('',*,*,#661,.F.);
#471=ORIENTED_EDGE('',*,*,#580,.T.);
#472=ORIENTED_EDGE('',*,*,#663,.T.);
#473=ORIENTED_EDGE('',*,*,#664,.F.);
#474=ORIENTED_EDGE('',*,*,#663,.F.);
#475=ORIENTED_EDGE('',*,*,#579,.T.);
#476=ORIENTED_EDGE('',*,*,#665,.T.);
#477=ORIENTED_EDGE('',*,*,#666,.F.);
#478=ORIENTED_EDGE('',*,*,#665,.F.);
#479=ORIENTED_EDGE('',*,*,#578,.T.);
#480=ORIENTED_EDGE('',*,*,#667,.T.);
#481=ORIENTED_EDGE('',*,*,#668,.F.);
#482=ORIENTED_EDGE('',*,*,#585,.T.);
#483=ORIENTED_EDGE('',*,*,#654,.T.);
#484=ORIENTED_EDGE('',*,*,#669,.F.);
#485=ORIENTED_EDGE('',*,*,#667,.F.);
#486=ORIENTED_EDGE('',*,*,#603,.F.);
#487=ORIENTED_EDGE('',*,*,#611,.F.);
#488=ORIENTED_EDGE('',*,*,#609,.F.);
#489=ORIENTED_EDGE('',*,*,#606,.F.);
#490=ORIENTED_EDGE('',*,*,#668,.T.);
#491=ORIENTED_EDGE('',*,*,#669,.T.);
#492=ORIENTED_EDGE('',*,*,#656,.T.);
#493=ORIENTED_EDGE('',*,*,#658,.T.);
#494=ORIENTED_EDGE('',*,*,#660,.T.);
#495=ORIENTED_EDGE('',*,*,#662,.T.);
#496=ORIENTED_EDGE('',*,*,#664,.T.);
#497=ORIENTED_EDGE('',*,*,#666,.T.);
#498=VERTEX_POINT('',#1095);
#499=VERTEX_POINT('',#1096);
#500=VERTEX_POINT('',#1098);
#501=VERTEX_POINT('',#1100);
#502=VERTEX_POINT('',#1102);
#503=VERTEX_POINT('',#1104);
#504=VERTEX_POINT('',#1106);
#505=VERTEX_POINT('',#1108);
#506=VERTEX_POINT('',#1111);
#507=VERTEX_POINT('',#1112);
#508=VERTEX_POINT('',#1114);
#509=VERTEX_POINT('',#1116);
#510=VERTEX_POINT('',#1118);
#511=VERTEX_POINT('',#1120);
#512=VERTEX_POINT('',#1122);
#513=VERTEX_POINT('',#1124);
#514=VERTEX_POINT('',#1128);
#515=VERTEX_POINT('',#1130);
#516=VERTEX_POINT('',#1133);
#517=VERTEX_POINT('',#1135);
#518=VERTEX_POINT('',#1138);
#519=VERTEX_POINT('',#1140);
#520=VERTEX_POINT('',#1143);
#521=VERTEX_POINT('',#1145);
#522=VERTEX_POINT('',#1148);
#523=VERTEX_POINT('',#1150);
#524=VERTEX_POINT('',#1153);
#525=VERTEX_POINT('',#1155);
#526=VERTEX_POINT('',#1158);
#527=VERTEX_POINT('',#1160);
#528=VERTEX_POINT('',#1163);
#529=VERTEX_POINT('',#1164);
#530=VERTEX_POINT('',#1166);
#531=VERTEX_POINT('',#1168);
#532=VERTEX_POINT('',#1172);
#533=VERTEX_POINT('',#1173);
#534=VERTEX_POINT('',#1178);
#535=VERTEX_POINT('',#1179);
#536=VERTEX_POINT('',#1187);
#537=VERTEX_POINT('',#1188);
#538=VERTEX_POINT('',#1193);
#539=VERTEX_POINT('',#1194);
#540=VERTEX_POINT('',#1199);
#541=VERTEX_POINT('',#1200);
#542=VERTEX_POINT('',#1205);
#543=VERTEX_POINT('',#1206);
#544=VERTEX_POINT('',#1219);
#545=VERTEX_POINT('',#1221);
#546=VERTEX_POINT('',#1222);
#547=VERTEX_POINT('',#1224);
#548=VERTEX_POINT('',#1226);
#549=VERTEX_POINT('',#1228);
#550=VERTEX_POINT('',#1230);
#551=VERTEX_POINT('',#1232);
#552=VERTEX_POINT('',#1234);
#553=VERTEX_POINT('',#1238);
#554=VERTEX_POINT('',#1240);
#555=VERTEX_POINT('',#1244);
#556=VERTEX_POINT('',#1246);
#557=VERTEX_POINT('',#1250);
#558=VERTEX_POINT('',#1251);
#559=VERTEX_POINT('',#1256);
#560=VERTEX_POINT('',#1257);
#561=VERTEX_POINT('',#1262);
#562=VERTEX_POINT('',#1274);
#563=VERTEX_POINT('',#1276);
#564=VERTEX_POINT('',#1280);
#565=VERTEX_POINT('',#1284);
#566=VERTEX_POINT('',#1288);
#567=VERTEX_POINT('',#1292);
#568=VERTEX_POINT('',#1296);
#569=VERTEX_POINT('',#1300);
#570=EDGE_CURVE('',#498,#499,#670,.T.);
#571=EDGE_CURVE('',#499,#500,#258,.T.);
#572=EDGE_CURVE('',#500,#501,#671,.T.);
#573=EDGE_CURVE('',#501,#502,#259,.T.);
#574=EDGE_CURVE('',#502,#503,#672,.T.);
#575=EDGE_CURVE('',#503,#504,#260,.T.);
#576=EDGE_CURVE('',#504,#505,#673,.T.);
#577=EDGE_CURVE('',#505,#498,#261,.T.);
#578=EDGE_CURVE('',#506,#507,#674,.T.);
#579=EDGE_CURVE('',#508,#506,#262,.T.);
#580=EDGE_CURVE('',#509,#508,#675,.T.);
#581=EDGE_CURVE('',#510,#509,#263,.T.);
#582=EDGE_CURVE('',#511,#510,#676,.T.);
#583=EDGE_CURVE('',#512,#511,#264,.T.);
#584=EDGE_CURVE('',#513,#512,#677,.T.);
#585=EDGE_CURVE('',#507,#513,#265,.T.);
#586=EDGE_CURVE('',#514,#514,#266,.T.);
#587=EDGE_CURVE('',#515,#515,#267,.T.);
#588=EDGE_CURVE('',#516,#516,#268,.T.);
#589=EDGE_CURVE('',#517,#517,#269,.T.);
#590=EDGE_CURVE('',#518,#518,#270,.T.);
#591=EDGE_CURVE('',#519,#519,#271,.T.);
#592=EDGE_CURVE('',#520,#520,#272,.T.);
#593=EDGE_CURVE('',#521,#521,#273,.T.);
#594=EDGE_CURVE('',#522,#522,#274,.T.);
#595=EDGE_CURVE('',#523,#523,#275,.T.);
#596=EDGE_CURVE('',#524,#524,#276,.T.);
#597=EDGE_CURVE('',#525,#525,#277,.T.);
#598=EDGE_CURVE('',#526,#526,#278,.T.);
#599=EDGE_CURVE('',#527,#527,#279,.T.);
#600=EDGE_CURVE('',#528,#529,#678,.T.);
#601=EDGE_CURVE('',#528,#530,#679,.T.);
#602=EDGE_CURVE('',#530,#531,#680,.T.);
#603=EDGE_CURVE('',#531,#529,#681,.T.);
#604=EDGE_CURVE('',#532,#533,#682,.T.);
#605=EDGE_CURVE('',#532,#528,#683,.T.);
#606=EDGE_CURVE('',#529,#533,#684,.T.);
#607=EDGE_CURVE('',#534,#535,#685,.T.);
#608=EDGE_CURVE('',#534,#532,#686,.T.);
#609=EDGE_CURVE('',#533,#535,#687,.T.);
#610=EDGE_CURVE('',#530,#534,#688,.T.);
#611=EDGE_CURVE('',#535,#531,#689,.T.);
#612=EDGE_CURVE('',#536,#537,#690,.T.);
#613=EDGE_CURVE('',#536,#503,#691,.T.);
#614=EDGE_CURVE('',#502,#537,#692,.T.);
#615=EDGE_CURVE('',#538,#539,#693,.T.);
#616=EDGE_CURVE('',#539,#505,#694,.T.);
#617=EDGE_CURVE('',#504,#538,#695,.T.);
#618=EDGE_CURVE('',#540,#541,#696,.T.);
#619=EDGE_CURVE('',#541,#499,#697,.T.);
#620=EDGE_CURVE('',#498,#540,#698,.T.);
#621=EDGE_CURVE('',#542,#543,#699,.T.);
#622=EDGE_CURVE('',#542,#501,#700,.T.);
#623=EDGE_CURVE('',#500,#543,#701,.T.);
#624=EDGE_CURVE('',#542,#537,#280,.T.);
#625=EDGE_CURVE('',#543,#541,#281,.T.);
#626=EDGE_CURVE('',#536,#538,#282,.T.);
#627=EDGE_CURVE('',#539,#540,#283,.T.);
#628=EDGE_CURVE('',#544,#544,#284,.T.);
#629=EDGE_CURVE('',#545,#546,#702,.T.);
#630=EDGE_CURVE('',#546,#547,#285,.T.);
#631=EDGE_CURVE('',#547,#548,#703,.T.);
#632=EDGE_CURVE('',#548,#549,#286,.T.);
#633=EDGE_CURVE('',#549,#550,#704,.T.);
#634=EDGE_CURVE('',#550,#551,#287,.T.);
#635=EDGE_CURVE('',#551,#552,#705,.T.);
#636=EDGE_CURVE('',#552,#545,#288,.T.);
#637=EDGE_CURVE('',#551,#553,#706,.T.);
#638=EDGE_CURVE('',#554,#553,#707,.T.);
#639=EDGE_CURVE('',#554,#552,#708,.T.);
#640=EDGE_CURVE('',#545,#555,#709,.T.);
#641=EDGE_CURVE('',#555,#556,#710,.T.);
#642=EDGE_CURVE('',#556,#546,#711,.T.);
#643=EDGE_CURVE('',#557,#558,#712,.T.);
#644=EDGE_CURVE('',#558,#548,#713,.T.);
#645=EDGE_CURVE('',#547,#557,#714,.T.);
#646=EDGE_CURVE('',#559,#560,#715,.T.);
#647=EDGE_CURVE('',#559,#550,#716,.T.);
#648=EDGE_CURVE('',#549,#560,#717,.T.);
#649=EDGE_CURVE('',#561,#561,#289,.T.);
#650=EDGE_CURVE('',#553,#559,#290,.T.);
#651=EDGE_CURVE('',#560,#558,#291,.T.);
#652=EDGE_CURVE('',#557,#556,#292,.T.);
#653=EDGE_CURVE('',#555,#554,#293,.T.);
#654=EDGE_CURVE('',#513,#562,#718,.T.);
#655=EDGE_CURVE('',#512,#563,#719,.T.);
#656=EDGE_CURVE('',#562,#563,#720,.T.);
#657=EDGE_CURVE('',#511,#564,#721,.T.);
#658=EDGE_CURVE('',#563,#564,#294,.T.);
#659=EDGE_CURVE('',#510,#565,#722,.T.);
#660=EDGE_CURVE('',#564,#565,#723,.T.);
#661=EDGE_CURVE('',#509,#566,#724,.T.);
#662=EDGE_CURVE('',#565,#566,#295,.T.);
#663=EDGE_CURVE('',#508,#567,#725,.T.);
#664=EDGE_CURVE('',#566,#567,#726,.T.);
#665=EDGE_CURVE('',#506,#568,#727,.T.);
#666=EDGE_CURVE('',#567,#568,#296,.T.);
#667=EDGE_CURVE('',#507,#569,#728,.T.);
#668=EDGE_CURVE('',#568,#569,#729,.T.);
#669=EDGE_CURVE('',#569,#562,#297,.T.);
#670=LINE('',#1094,#730);
#671=LINE('',#1099,#731);
#672=LINE('',#1103,#732);
#673=LINE('',#1107,#733);
#674=LINE('',#1110,#734);
#675=LINE('',#1115,#735);
#676=LINE('',#1119,#736);
#677=LINE('',#1123,#737);
#678=LINE('',#1162,#738);
#679=LINE('',#1165,#739);
#680=LINE('',#1167,#740);
#681=LINE('',#1169,#741);
#682=LINE('',#1171,#742);
#683=LINE('',#1174,#743);
#684=LINE('',#1175,#744);
#685=LINE('',#1177,#745);
#686=LINE('',#1180,#746);
#687=LINE('',#1181,#747);
#688=LINE('',#1183,#748);
#689=LINE('',#1184,#749);
#690=LINE('',#1186,#750);
#691=LINE('',#1189,#751);
#692=LINE('',#1190,#752);
#693=LINE('',#1192,#753);
#694=LINE('',#1195,#754);
#695=LINE('',#1196,#755);
#696=LINE('',#1198,#756);
#697=LINE('',#1201,#757);
#698=LINE('',#1202,#758);
#699=LINE('',#1204,#759);
#700=LINE('',#1207,#760);
#701=LINE('',#1208,#761);
#702=LINE('',#1220,#762);
#703=LINE('',#1225,#763);
#704=LINE('',#1229,#764);
#705=LINE('',#1233,#765);
#706=LINE('',#1237,#766);
#707=LINE('',#1239,#767);
#708=LINE('',#1241,#768);
#709=LINE('',#1243,#769);
#710=LINE('',#1245,#770);
#711=LINE('',#1247,#771);
#712=LINE('',#1249,#772);
#713=LINE('',#1252,#773);
#714=LINE('',#1253,#774);
#715=LINE('',#1255,#775);
#716=LINE('',#1258,#776);
#717=LINE('',#1259,#777);
#718=LINE('',#1273,#778);
#719=LINE('',#1275,#779);
#720=LINE('',#1277,#780);
#721=LINE('',#1279,#781);
#722=LINE('',#1283,#782);
#723=LINE('',#1285,#783);
#724=LINE('',#1287,#784);
#725=LINE('',#1291,#785);
#726=LINE('',#1293,#786);
#727=LINE('',#1295,#787);
#728=LINE('',#1299,#788);
#729=LINE('',#1301,#789);
#730=VECTOR('',#873,1.);
#731=VECTOR('',#876,1.);
#732=VECTOR('',#879,1.);
#733=VECTOR('',#882,1.);
#734=VECTOR('',#885,1.);
#735=VECTOR('',#888,1.);
#736=VECTOR('',#891,1.);
#737=VECTOR('',#894,1.);
#738=VECTOR('',#941,1.);
#739=VECTOR('',#942,1.);
#740=VECTOR('',#943,1.);
#741=VECTOR('',#944,1.);
#742=VECTOR('',#947,1.);
#743=VECTOR('',#948,1.);
#744=VECTOR('',#949,1.);
#745=VECTOR('',#952,1.);
#746=VECTOR('',#953,1.);
#747=VECTOR('',#954,1.);
#748=VECTOR('',#957,1.);
#749=VECTOR('',#958,1.);
#750=VECTOR('',#961,1.);
#751=VECTOR('',#962,1.);
#752=VECTOR('',#963,1.);
#753=VECTOR('',#966,1.);
#754=VECTOR('',#967,1.);
#755=VECTOR('',#968,1.);
#756=VECTOR('',#971,1.);
#757=VECTOR('',#972,1.);
#758=VECTOR('',#973,1.);
#759=VECTOR('',#976,1.);
#760=VECTOR('',#977,1.);
#761=VECTOR('',#978,1.);
#762=VECTOR('',#999,1.);
#763=VECTOR('',#1002,1.);
#764=VECTOR('',#1005,1.);
#765=VECTOR('',#1008,1.);
#766=VECTOR('',#1013,1.);
#767=VECTOR('',#1014,1.);
#768=VECTOR('',#1015,1.);
#769=VECTOR('',#1018,1.);
#770=VECTOR('',#1019,1.);
#771=VECTOR('',#1020,1.);
#772=VECTOR('',#1023,1.);
#773=VECTOR('',#1024,1.);
#774=VECTOR('',#1025,1.);
#775=VECTOR('',#1028,1.);
#776=VECTOR('',#1029,1.);
#777=VECTOR('',#1030,1.);
#778=VECTOR('',#1055,1.);
#779=VECTOR('',#1056,1.);
#780=VECTOR('',#1057,1.);
#781=VECTOR('',#1060,1.);
#782=VECTOR('',#1065,1.);
#783=VECTOR('',#1066,1.);
#784=VECTOR('',#1069,1.);
#785=VECTOR('',#1074,1.);
#786=VECTOR('',#1075,1.);
#787=VECTOR('',#1078,1.);
#788=VECTOR('',#1083,1.);
#789=VECTOR('',#1084,1.);
#790=AXIS2_PLACEMENT_3D('',#1093,#871,#872);
#791=AXIS2_PLACEMENT_3D('',#1097,#874,#875);
#792=AXIS2_PLACEMENT_3D('',#1101,#877,#878);
#793=AXIS2_PLACEMENT_3D('',#1105,#880,#881);
#794=AXIS2_PLACEMENT_3D('',#1109,#883,#884);
#795=AXIS2_PLACEMENT_3D('',#1113,#886,#887);
#796=AXIS2_PLACEMENT_3D('',#1117,#889,#890);
#797=AXIS2_PLACEMENT_3D('',#1121,#892,#893);
#798=AXIS2_PLACEMENT_3D('',#1125,#895,#896);
#799=AXIS2_PLACEMENT_3D('',#1126,#897,#898);
#800=AXIS2_PLACEMENT_3D('',#1127,#899,#900);
#801=AXIS2_PLACEMENT_3D('',#1129,#901,#902);
#802=AXIS2_PLACEMENT_3D('',#1131,#903,#904);
#803=AXIS2_PLACEMENT_3D('',#1132,#905,#906);
#804=AXIS2_PLACEMENT_3D('',#1134,#907,#908);
#805=AXIS2_PLACEMENT_3D('',#1136,#909,#910);
#806=AXIS2_PLACEMENT_3D('',#1137,#911,#912);
#807=AXIS2_PLACEMENT_3D('',#1139,#913,#914);
#808=AXIS2_PLACEMENT_3D('',#1141,#915,#916);
#809=AXIS2_PLACEMENT_3D('',#1142,#917,#918);
#810=AXIS2_PLACEMENT_3D('',#1144,#919,#920);
#811=AXIS2_PLACEMENT_3D('',#1146,#921,#922);
#812=AXIS2_PLACEMENT_3D('',#1147,#923,#924);
#813=AXIS2_PLACEMENT_3D('',#1149,#925,#926);
#814=AXIS2_PLACEMENT_3D('',#1151,#927,#928);
#815=AXIS2_PLACEMENT_3D('',#1152,#929,#930);
#816=AXIS2_PLACEMENT_3D('',#1154,#931,#932);
#817=AXIS2_PLACEMENT_3D('',#1156,#933,#934);
#818=AXIS2_PLACEMENT_3D('',#1157,#935,#936);
#819=AXIS2_PLACEMENT_3D('',#1159,#937,#938);
#820=AXIS2_PLACEMENT_3D('',#1161,#939,#940);
#821=AXIS2_PLACEMENT_3D('',#1170,#945,#946);
#822=AXIS2_PLACEMENT_3D('',#1176,#950,#951);
#823=AXIS2_PLACEMENT_3D('',#1182,#955,#956);
#824=AXIS2_PLACEMENT_3D('',#1185,#959,#960);
#825=AXIS2_PLACEMENT_3D('',#1191,#964,#965);
#826=AXIS2_PLACEMENT_3D('',#1197,#969,#970);
#827=AXIS2_PLACEMENT_3D('',#1203,#974,#975);
#828=AXIS2_PLACEMENT_3D('',#1209,#979,#980);
#829=AXIS2_PLACEMENT_3D('',#1210,#981,#982);
#830=AXIS2_PLACEMENT_3D('',#1211,#983,#984);
#831=AXIS2_PLACEMENT_3D('',#1212,#985,#986);
#832=AXIS2_PLACEMENT_3D('',#1213,#987,#988);
#833=AXIS2_PLACEMENT_3D('',#1214,#989,#990);
#834=AXIS2_PLACEMENT_3D('',#1215,#991,#992);
#835=AXIS2_PLACEMENT_3D('',#1216,#993,#994);
#836=AXIS2_PLACEMENT_3D('',#1217,#995,#996);
#837=AXIS2_PLACEMENT_3D('',#1218,#997,#998);
#838=AXIS2_PLACEMENT_3D('',#1223,#1000,#1001);
#839=AXIS2_PLACEMENT_3D('',#1227,#1003,#1004);
#840=AXIS2_PLACEMENT_3D('',#1231,#1006,#1007);
#841=AXIS2_PLACEMENT_3D('',#1235,#1009,#1010);
#842=AXIS2_PLACEMENT_3D('',#1236,#1011,#1012);
#843=AXIS2_PLACEMENT_3D('',#1242,#1016,#1017);
#844=AXIS2_PLACEMENT_3D('',#1248,#1021,#1022);
#845=AXIS2_PLACEMENT_3D('',#1254,#1026,#1027);
#846=AXIS2_PLACEMENT_3D('',#1260,#1031,#1032);
#847=AXIS2_PLACEMENT_3D('',#1261,#1033,#1034);
#848=AXIS2_PLACEMENT_3D('',#1263,#1035,#1036);
#849=AXIS2_PLACEMENT_3D('',#1264,#1037,#1038);
#850=AXIS2_PLACEMENT_3D('',#1265,#1039,#1040);
#851=AXIS2_PLACEMENT_3D('',#1266,#1041,#1042);
#852=AXIS2_PLACEMENT_3D('',#1267,#1043,#1044);
#853=AXIS2_PLACEMENT_3D('',#1268,#1045,#1046);
#854=AXIS2_PLACEMENT_3D('',#1269,#1047,#1048);
#855=AXIS2_PLACEMENT_3D('',#1270,#1049,#1050);
#856=AXIS2_PLACEMENT_3D('',#1271,#1051,#1052);
#857=AXIS2_PLACEMENT_3D('',#1272,#1053,#1054);
#858=AXIS2_PLACEMENT_3D('',#1278,#1058,#1059);
#859=AXIS2_PLACEMENT_3D('',#1281,#1061,#1062);
#860=AXIS2_PLACEMENT_3D('',#1282,#1063,#1064);
#861=AXIS2_PLACEMENT_3D('',#1286,#1067,#1068);
#862=AXIS2_PLACEMENT_3D('',#1289,#1070,#1071);
#863=AXIS2_PLACEMENT_3D('',#1290,#1072,#1073);
#864=AXIS2_PLACEMENT_3D('',#1294,#1076,#1077);
#865=AXIS2_PLACEMENT_3D('',#1297,#1079,#1080);
#866=AXIS2_PLACEMENT_3D('',#1298,#1081,#1082);
#867=AXIS2_PLACEMENT_3D('',#1302,#1085,#1086);
#868=AXIS2_PLACEMENT_3D('',#1303,#1087,#1088);
#869=AXIS2_PLACEMENT_3D('',#1304,#1089,#1090);
#870=AXIS2_PLACEMENT_3D('',#1305,#1091,#1092);
#871=DIRECTION('',(0.,0.,1.));
#872=DIRECTION('',(1.,0.,0.));
#873=DIRECTION('',(1.,0.,0.));
#874=DIRECTION('',(0.,0.,-1.));
#875=DIRECTION('',(1.,0.,0.));
#876=DIRECTION('',(0.,-1.,0.));
#877=DIRECTION('',(0.,0.,-1.));
#878=DIRECTION('',(1.,0.,0.));
#879=DIRECTION('',(-1.,0.,0.));
#880=DIRECTION('',(0.,0.,-1.));
#881=DIRECTION('',(1.,0.,0.));
#882=DIRECTION('',(0.,1.,0.));
#883=DIRECTION('',(0.,0.,-1.));
#884=DIRECTION('',(1.,0.,0.));
#885=DIRECTION('',(1.,0.,0.));
#886=DIRECTION('',(0.,0.,-1.));
#887=DIRECTION('',(1.,0.,0.));
#888=DIRECTION('',(0.,1.,0.));
#889=DIRECTION('',(0.,0.,-1.));
#890=DIRECTION('',(1.,0.,0.));
#891=DIRECTION('',(-1.,0.,0.));
#892=DIRECTION('',(0.,0.,-1.));
#893=DIRECTION('',(0.999999999999999,0.,0.));
#894=DIRECTION('',(0.,-1.,0.));
#895=DIRECTION('',(0.,0.,-1.));
#896=DIRECTION('',(0.999999999999999,0.,0.));
#897=DIRECTION('',(0.,0.,1.));
#898=DIRECTION('',(1.,0.,0.));
#899=DIRECTION('',(0.,0.,-1.));
#900=DIRECTION('',(-0.999999999999999,0.,0.));
#901=DIRECTION('',(0.,0.,-1.));
#902=DIRECTION('',(-0.999999999999999,0.,0.));
#903=DIRECTION('',(0.,0.,-1.));
#904=DIRECTION('',(-0.999999999999999,0.,0.));
#905=DIRECTION('',(0.,0.,-1.));
#906=DIRECTION('',(-0.999999999999999,0.,0.));
#907=DIRECTION('',(0.,0.,-1.));
#908=DIRECTION('',(-0.999999999999999,0.,0.));
#909=DIRECTION('',(0.,0.,-1.));
#910=DIRECTION('',(-0.999999999999999,0.,0.));
#911=DIRECTION('',(0.,0.,-1.));
#912=DIRECTION('',(-0.999999999999999,0.,0.));
#913=DIRECTION('',(0.,0.,-1.));
#914=DIRECTION('',(-0.999999999999999,0.,0.));
#915=DIRECTION('',(0.,0.,-1.));
#916=DIRECTION('',(-0.999999999999999,0.,0.));
#917=DIRECTION('',(0.,0.,-1.));
#918=DIRECTION('',(-0.999999999999999,0.,0.));
#919=DIRECTION('',(0.,0.,-1.));
#920=DIRECTION('',(-0.999999999999999,0.,0.));
#921=DIRECTION('',(0.,0.,-1.));
#922=DIRECTION('',(-0.999999999999999,0.,0.));
#923=DIRECTION('',(0.,0.,-1.));
#924=DIRECTION('',(-0.999999999999999,0.,0.));
#925=DIRECTION('',(0.,0.,-1.));
#926=DIRECTION('',(-0.999999999999999,0.,0.));
#927=DIRECTION('',(0.,0.,-1.));
#928=DIRECTION('',(-0.999999999999999,0.,0.));
#929=DIRECTION('',(0.,0.,-1.));
#930=DIRECTION('',(-0.999999999999999,0.,0.));
#931=DIRECTION('',(0.,0.,-1.));
#932=DIRECTION('',(-0.999999999999999,0.,0.));
#933=DIRECTION('',(0.,0.,-1.));
#934=DIRECTION('',(-0.999999999999999,0.,0.));
#935=DIRECTION('',(0.,0.,-1.));
#936=DIRECTION('',(-1.,0.,0.));
#937=DIRECTION('',(0.,0.,-1.));
#938=DIRECTION('',(-1.,0.,0.));
#939=DIRECTION('',(0.,0.,-1.));
#940=DIRECTION('',(-1.,0.,0.));
#941=DIRECTION('',(0.,0.,1.));
#942=DIRECTION('',(1.,0.,0.));
#943=DIRECTION('',(0.,0.,1.));
#944=DIRECTION('',(-1.,0.,0.));
#945=DIRECTION('',(0.,-1.,0.));
#946=DIRECTION('',(0.,0.,-1.));
#947=DIRECTION('',(0.,0.,1.));
#948=DIRECTION('',(0.,-1.,0.));
#949=DIRECTION('',(0.,1.,0.));
#950=DIRECTION('',(-1.,0.,0.));
#951=DIRECTION('',(0.,0.,1.));
#952=DIRECTION('',(0.,0.,1.));
#953=DIRECTION('',(-1.,0.,0.));
#954=DIRECTION('',(1.,0.,0.));
#955=DIRECTION('',(0.,1.,0.));
#956=DIRECTION('',(0.,0.,1.));
#957=DIRECTION('',(0.,1.,0.));
#958=DIRECTION('',(0.,-1.,0.));
#959=DIRECTION('',(1.,0.,0.));
#960=DIRECTION('',(0.,0.,-1.));
#961=DIRECTION('',(1.,0.,0.));
#962=DIRECTION('',(0.,0.,1.));
#963=DIRECTION('',(0.,0.,-1.));
#964=DIRECTION('',(0.,-1.,0.));
#965=DIRECTION('',(0.,0.,-1.));
#966=DIRECTION('',(0.,1.,0.));
#967=DIRECTION('',(0.,0.,1.));
#968=DIRECTION('',(0.,0.,-1.));
#969=DIRECTION('',(-1.,0.,0.));
#970=DIRECTION('',(0.,0.,1.));
#971=DIRECTION('',(1.,0.,0.));
#972=DIRECTION('',(0.,0.,1.));
#973=DIRECTION('',(0.,0.,-1.));
#974=DIRECTION('',(0.,1.,0.));
#975=DIRECTION('',(0.,0.,1.));
#976=DIRECTION('',(0.,1.,0.));
#977=DIRECTION('',(0.,0.,1.));
#978=DIRECTION('',(0.,0.,-1.));
#979=DIRECTION('',(1.,0.,0.));
#980=DIRECTION('',(0.,0.,-1.));
#981=DIRECTION('',(0.,0.,-1.));
#982=DIRECTION('',(-1.,0.,0.));
#983=DIRECTION('',(0.,0.,-1.));
#984=DIRECTION('',(-1.,0.,0.));
#985=DIRECTION('',(0.,0.,1.));
#986=DIRECTION('',(-1.,0.,0.));
#987=DIRECTION('',(0.,0.,-1.));
#988=DIRECTION('',(-1.,0.,0.));
#989=DIRECTION('',(0.,0.,-1.));
#990=DIRECTION('',(-1.,0.,0.));
#991=DIRECTION('',(0.,0.,-1.));
#992=DIRECTION('',(-1.,0.,0.));
#993=DIRECTION('',(0.,0.,-1.));
#994=DIRECTION('',(-1.,0.,0.));
#995=DIRECTION('',(0.,0.,-1.));
#996=DIRECTION('',(-1.,0.,0.));
#997=DIRECTION('',(0.,0.,-1.));
#998=DIRECTION('',(-1.,0.,0.));
#999=DIRECTION('',(-1.,0.,0.));
#1000=DIRECTION('',(0.,0.,1.));
#1001=DIRECTION('',(-1.,0.,0.));
#1002=DIRECTION('',(0.,-1.,0.));
#1003=DIRECTION('',(0.,0.,1.));
#1004=DIRECTION('',(-1.,0.,0.));
#1005=DIRECTION('',(1.,0.,0.));
#1006=DIRECTION('',(0.,0.,1.));
#1007=DIRECTION('',(-1.,0.,0.));
#1008=DIRECTION('',(0.,1.,0.));
#1009=DIRECTION('',(0.,0.,1.));
#1010=DIRECTION('',(-1.,0.,0.));
#1011=DIRECTION('',(0.,0.,-1.));
#1012=DIRECTION('',(-1.,0.,0.));
#1013=DIRECTION('',(0.,0.,1.));
#1014=DIRECTION('',(0.,-1.,0.));
#1015=DIRECTION('',(0.,0.,-1.));
#1016=DIRECTION('',(1.,0.,0.));
#1017=DIRECTION('',(0.,0.,-1.));
#1018=DIRECTION('',(0.,0.,1.));
#1019=DIRECTION('',(-1.,0.,0.));
#1020=DIRECTION('',(0.,0.,-1.));
#1021=DIRECTION('',(0.,1.,0.));
#1022=DIRECTION('',(0.,0.,1.));
#1023=DIRECTION('',(0.,-1.,0.));
#1024=DIRECTION('',(0.,0.,-1.));
#1025=DIRECTION('',(0.,0.,1.));
#1026=DIRECTION('',(-1.,0.,0.));
#1027=DIRECTION('',(0.,0.,1.));
#1028=DIRECTION('',(-1.,0.,0.));
#1029=DIRECTION('',(0.,0.,-1.));
#1030=DIRECTION('',(0.,0.,1.));
#1031=DIRECTION('',(0.,-1.,0.));
#1032=DIRECTION('',(0.,0.,-1.));
#1033=DIRECTION('',(0.,0.,-1.));
#1034=DIRECTION('',(-1.,0.,0.));
#1035=DIRECTION('',(0.,0.,-1.));
#1036=DIRECTION('',(-1.,0.,0.));
#1037=DIRECTION('',(0.,0.,-1.));
#1038=DIRECTION('',(-1.,0.,0.));
#1039=DIRECTION('',(0.,0.,-1.));
#1040=DIRECTION('',(-1.,0.,0.));
#1041=DIRECTION('',(0.,0.,-1.));
#1042=DIRECTION('',(-1.,0.,0.));
#1043=DIRECTION('',(0.,0.,-1.));
#1044=DIRECTION('',(-1.,0.,0.));
#1045=DIRECTION('',(0.,0.,-1.));
#1046=DIRECTION('',(-1.,0.,0.));
#1047=DIRECTION('',(0.,0.,-1.));
#1048=DIRECTION('',(-1.,0.,0.));
#1049=DIRECTION('',(0.,0.,-1.));
#1050=DIRECTION('',(-1.,0.,0.));
#1051=DIRECTION('',(0.,0.,-1.));
#1052=DIRECTION('',(-1.,0.,0.));
#1053=DIRECTION('',(0.,0.,-1.));
#1054=DIRECTION('',(-1.,0.,0.));
#1055=DIRECTION('',(0.,0.,1.));
#1056=DIRECTION('',(0.,0.,1.));
#1057=DIRECTION('',(0.,-1.,0.));
#1058=DIRECTION('',(-1.,0.,0.));
#1059=DIRECTION('',(0.,-1.,0.));
#1060=DIRECTION('',(0.,0.,1.));
#1061=DIRECTION('',(0.,0.,-1.));
#1062=DIRECTION('',(0.999999999999999,0.,0.));
#1063=DIRECTION('',(0.,0.,1.));
#1064=DIRECTION('',(0.999999999999999,0.,0.));
#1065=DIRECTION('',(0.,0.,1.));
#1066=DIRECTION('',(-1.,0.,0.));
#1067=DIRECTION('',(0.,1.,0.));
#1068=DIRECTION('',(-1.,0.,0.));
#1069=DIRECTION('',(0.,0.,1.));
#1070=DIRECTION('',(0.,0.,-1.));
#1071=DIRECTION('',(1.,0.,0.));
#1072=DIRECTION('',(0.,0.,1.));
#1073=DIRECTION('',(1.,0.,0.));
#1074=DIRECTION('',(0.,0.,1.));
#1075=DIRECTION('',(0.,1.,0.));
#1076=DIRECTION('',(1.,0.,0.));
#1077=DIRECTION('',(0.,1.,0.));
#1078=DIRECTION('',(0.,0.,1.));
#1079=DIRECTION('',(0.,0.,-1.));
#1080=DIRECTION('',(1.,0.,0.));
#1081=DIRECTION('',(0.,0.,1.));
#1082=DIRECTION('',(1.,0.,0.));
#1083=DIRECTION('',(0.,0.,1.));
#1084=DIRECTION('',(1.,0.,0.));
#1085=DIRECTION('',(0.,-1.,0.));
#1086=DIRECTION('',(1.,0.,0.));
#1087=DIRECTION('',(0.,0.,-1.));
#1088=DIRECTION('',(0.999999999999999,0.,0.));
#1089=DIRECTION('',(0.,0.,1.));
#1090=DIRECTION('',(0.999999999999999,0.,0.));
#1091=DIRECTION('',(0.,0.,1.));
#1092=DIRECTION('',(1.,0.,0.));
#1093=CARTESIAN_POINT('',(0.,0.,0.));
#1094=CARTESIAN_POINT('',(125.,130.,30.));
#1095=CARTESIAN_POINT('',(30.,130.,30.));
#1096=CARTESIAN_POINT('',(220.,130.,30.));
#1097=CARTESIAN_POINT('',(220.,120.,30.));
#1098=CARTESIAN_POINT('',(230.,120.,30.));
#1099=CARTESIAN_POINT('',(230.,75.,30.));
#1100=CARTESIAN_POINT('',(230.,30.,30.));
#1101=CARTESIAN_POINT('',(220.,30.,30.));
#1102=CARTESIAN_POINT('',(220.,20.,30.));
#1103=CARTESIAN_POINT('',(125.,20.,30.));
#1104=CARTESIAN_POINT('',(30.,20.,30.));
#1105=CARTESIAN_POINT('',(30.,30.,30.));
#1106=CARTESIAN_POINT('',(20.,30.,30.));
#1107=CARTESIAN_POINT('',(20.,75.,30.));
#1108=CARTESIAN_POINT('',(20.,120.,30.));
#1109=CARTESIAN_POINT('',(30.,120.,30.));
#1110=CARTESIAN_POINT('',(125.,140.,30.));
#1111=CARTESIAN_POINT('',(30.,140.,30.));
#1112=CARTESIAN_POINT('',(220.,140.,30.));
#1113=CARTESIAN_POINT('',(30.,120.,30.));
#1114=CARTESIAN_POINT('',(10.,120.,30.));
#1115=CARTESIAN_POINT('',(9.99999999999999,75.,30.));
#1116=CARTESIAN_POINT('',(10.,30.,30.));
#1117=CARTESIAN_POINT('',(30.,30.,30.));
#1118=CARTESIAN_POINT('',(30.,10.,30.));
#1119=CARTESIAN_POINT('',(125.,9.99999999999999,30.));
#1120=CARTESIAN_POINT('',(220.,10.,30.));
#1121=CARTESIAN_POINT('',(220.,30.,30.));
#1122=CARTESIAN_POINT('',(240.,30.,30.));
#1123=CARTESIAN_POINT('',(240.,75.,30.));
#1124=CARTESIAN_POINT('',(240.,120.,30.));
#1125=CARTESIAN_POINT('',(220.,120.,30.));
#1126=CARTESIAN_POINT('',(125.,75.,30.));
#1127=CARTESIAN_POINT('',(180.,110.,0.));
#1128=CARTESIAN_POINT('',(172.7765,110.,0.));
#1129=CARTESIAN_POINT('',(180.,110.,10.));
#1130=CARTESIAN_POINT('',(172.7765,110.,10.));
#1131=CARTESIAN_POINT('',(180.,110.,10.));
#1132=CARTESIAN_POINT('',(160.,110.,0.));
#1133=CARTESIAN_POINT('',(152.7765,110.,0.));
#1134=CARTESIAN_POINT('',(160.,110.,10.));
#1135=CARTESIAN_POINT('',(152.7765,110.,10.));
#1136=CARTESIAN_POINT('',(160.,110.,10.));
#1137=CARTESIAN_POINT('',(140.,110.,0.));
#1138=CARTESIAN_POINT('',(132.7765,110.,0.));
#1139=CARTESIAN_POINT('',(140.,110.,10.));
#1140=CARTESIAN_POINT('',(132.7765,110.,10.));
#1141=CARTESIAN_POINT('',(140.,110.,10.));
#1142=CARTESIAN_POINT('',(120.,110.,0.));
#1143=CARTESIAN_POINT('',(112.7765,110.,0.));
#1144=CARTESIAN_POINT('',(120.,110.,10.));
#1145=CARTESIAN_POINT('',(112.7765,110.,10.));
#1146=CARTESIAN_POINT('',(120.,110.,10.));
#1147=CARTESIAN_POINT('',(100.,110.,0.));
#1148=CARTESIAN_POINT('',(92.7765,110.,0.));
#1149=CARTESIAN_POINT('',(100.,110.,10.));
#1150=CARTESIAN_POINT('',(92.7765,110.,10.));
#1151=CARTESIAN_POINT('',(100.,110.,10.));
#1152=CARTESIAN_POINT('',(80.,110.,0.));
#1153=CARTESIAN_POINT('',(72.7765,110.,0.));
#1154=CARTESIAN_POINT('',(80.,110.,10.));
#1155=CARTESIAN_POINT('',(72.7765,110.,10.));
#1156=CARTESIAN_POINT('',(80.,110.,10.));
#1157=CARTESIAN_POINT('',(60.,110.,0.));
#1158=CARTESIAN_POINT('',(52.7765,110.,0.));
#1159=CARTESIAN_POINT('',(60.,110.,10.));
#1160=CARTESIAN_POINT('',(52.7765,110.,10.));
#1161=CARTESIAN_POINT('',(60.,110.,10.));
#1162=CARTESIAN_POINT('',(0.,0.,0.));
#1163=CARTESIAN_POINT('',(0.,0.,0.));
#1164=CARTESIAN_POINT('',(0.,0.,50.));
#1165=CARTESIAN_POINT('',(125.,0.,0.));
#1166=CARTESIAN_POINT('',(250.,0.,0.));
#1167=CARTESIAN_POINT('',(250.,0.,0.));
#1168=CARTESIAN_POINT('',(250.,0.,50.));
#1169=CARTESIAN_POINT('',(125.,0.,50.));
#1170=CARTESIAN_POINT('',(125.,0.,0.));
#1171=CARTESIAN_POINT('',(0.,150.,0.));
#1172=CARTESIAN_POINT('',(0.,150.,0.));
#1173=CARTESIAN_POINT('',(0.,150.,50.));
#1174=CARTESIAN_POINT('',(0.,75.,0.));
#1175=CARTESIAN_POINT('',(0.,75.,50.));
#1176=CARTESIAN_POINT('',(0.,75.,0.));
#1177=CARTESIAN_POINT('',(250.,150.,0.));
#1178=CARTESIAN_POINT('',(250.,150.,0.));
#1179=CARTESIAN_POINT('',(250.,150.,50.));
#1180=CARTESIAN_POINT('',(125.,150.,0.));
#1181=CARTESIAN_POINT('',(125.,150.,50.));
#1182=CARTESIAN_POINT('',(125.,150.,0.));
#1183=CARTESIAN_POINT('',(250.,75.,0.));
#1184=CARTESIAN_POINT('',(250.,75.,50.));
#1185=CARTESIAN_POINT('',(250.,75.,0.));
#1186=CARTESIAN_POINT('',(125.,20.,10.));
#1187=CARTESIAN_POINT('',(30.,20.,10.));
#1188=CARTESIAN_POINT('',(220.,20.,10.));
#1189=CARTESIAN_POINT('',(30.,20.,30.));
#1190=CARTESIAN_POINT('',(220.,20.,20.));
#1191=CARTESIAN_POINT('',(125.,20.,0.));
#1192=CARTESIAN_POINT('',(20.,75.,10.));
#1193=CARTESIAN_POINT('',(20.,30.,10.));
#1194=CARTESIAN_POINT('',(20.,120.,10.));
#1195=CARTESIAN_POINT('',(20.,120.,30.));
#1196=CARTESIAN_POINT('',(20.,30.,20.));
#1197=CARTESIAN_POINT('',(20.,75.,0.));
#1198=CARTESIAN_POINT('',(125.,130.,10.));
#1199=CARTESIAN_POINT('',(30.,130.,10.));
#1200=CARTESIAN_POINT('',(220.,130.,10.));
#1201=CARTESIAN_POINT('',(220.,130.,30.));
#1202=CARTESIAN_POINT('',(30.,130.,20.));
#1203=CARTESIAN_POINT('',(125.,130.,0.));
#1204=CARTESIAN_POINT('',(230.,75.,10.));
#1205=CARTESIAN_POINT('',(230.,30.,10.));
#1206=CARTESIAN_POINT('',(230.,120.,10.));
#1207=CARTESIAN_POINT('',(230.,30.,30.));
#1208=CARTESIAN_POINT('',(230.,120.,20.));
#1209=CARTESIAN_POINT('',(230.,75.,0.));
#1210=CARTESIAN_POINT('',(220.,30.,10.));
#1211=CARTESIAN_POINT('',(220.,30.,0.));
#1212=CARTESIAN_POINT('',(220.,120.,10.));
#1213=CARTESIAN_POINT('',(220.,120.,0.));
#1214=CARTESIAN_POINT('',(30.,30.,10.));
#1215=CARTESIAN_POINT('',(30.,30.,0.));
#1216=CARTESIAN_POINT('',(30.,120.,10.));
#1217=CARTESIAN_POINT('',(30.,120.,0.));
#1218=CARTESIAN_POINT('',(40.,110.,0.));
#1219=CARTESIAN_POINT('',(32.7765,110.,0.));
#1220=CARTESIAN_POINT('',(125.,100.,0.));
#1221=CARTESIAN_POINT('',(190.,100.,0.));
#1222=CARTESIAN_POINT('',(60.,100.,0.));
#1223=CARTESIAN_POINT('',(60.,90.,0.));
#1224=CARTESIAN_POINT('',(50.,90.,0.));
#1225=CARTESIAN_POINT('',(50.,75.,0.));
#1226=CARTESIAN_POINT('',(50.,60.,0.));
#1227=CARTESIAN_POINT('',(60.,60.,0.));
#1228=CARTESIAN_POINT('',(60.,50.,0.));
#1229=CARTESIAN_POINT('',(125.,50.,0.));
#1230=CARTESIAN_POINT('',(190.,50.,0.));
#1231=CARTESIAN_POINT('',(190.,60.,0.));
#1232=CARTESIAN_POINT('',(200.,60.,0.));
#1233=CARTESIAN_POINT('',(200.,75.,0.));
#1234=CARTESIAN_POINT('',(200.,90.,0.));
#1235=CARTESIAN_POINT('',(190.,90.,0.));
#1236=CARTESIAN_POINT('',(125.,75.,0.));
#1237=CARTESIAN_POINT('',(200.,60.,10.));
#1238=CARTESIAN_POINT('',(200.,60.,10.));
#1239=CARTESIAN_POINT('',(200.,75.,10.));
#1240=CARTESIAN_POINT('',(200.,90.,10.));
#1241=CARTESIAN_POINT('',(200.,90.,0.));
#1242=CARTESIAN_POINT('',(200.,75.,0.));
#1243=CARTESIAN_POINT('',(190.,100.,10.));
#1244=CARTESIAN_POINT('',(190.,100.,10.));
#1245=CARTESIAN_POINT('',(125.,100.,10.));
#1246=CARTESIAN_POINT('',(60.,100.,10.));
#1247=CARTESIAN_POINT('',(60.,100.,0.));
#1248=CARTESIAN_POINT('',(125.,100.,0.));
#1249=CARTESIAN_POINT('',(50.,75.,10.));
#1250=CARTESIAN_POINT('',(50.,90.,10.));
#1251=CARTESIAN_POINT('',(50.,60.,10.));
#1252=CARTESIAN_POINT('',(50.,60.,0.));
#1253=CARTESIAN_POINT('',(50.,90.,10.));
#1254=CARTESIAN_POINT('',(50.,75.,0.));
#1255=CARTESIAN_POINT('',(125.,50.,10.));
#1256=CARTESIAN_POINT('',(190.,50.,10.));
#1257=CARTESIAN_POINT('',(60.,50.,10.));
#1258=CARTESIAN_POINT('',(190.,50.,0.));
#1259=CARTESIAN_POINT('',(60.,50.,10.));
#1260=CARTESIAN_POINT('',(125.,50.,0.));
#1261=CARTESIAN_POINT('',(40.,110.,10.));
#1262=CARTESIAN_POINT('',(32.7765,110.,10.));
#1263=CARTESIAN_POINT('',(190.,60.,10.));
#1264=CARTESIAN_POINT('',(60.,60.,10.));
#1265=CARTESIAN_POINT('',(60.,90.,10.));
#1266=CARTESIAN_POINT('',(190.,90.,10.));
#1267=CARTESIAN_POINT('',(125.,75.,10.));
#1268=CARTESIAN_POINT('',(190.,60.,0.));
#1269=CARTESIAN_POINT('',(190.,90.,0.));
#1270=CARTESIAN_POINT('',(60.,60.,0.));
#1271=CARTESIAN_POINT('',(60.,90.,0.));
#1272=CARTESIAN_POINT('',(40.,110.,10.));
#1273=CARTESIAN_POINT('',(240.,120.,30.));
#1274=CARTESIAN_POINT('',(240.,120.,50.));
#1275=CARTESIAN_POINT('',(240.,30.,30.));
#1276=CARTESIAN_POINT('',(240.,30.,50.));
#1277=CARTESIAN_POINT('',(240.,75.,50.));
#1278=CARTESIAN_POINT('',(240.,75.,30.));
#1279=CARTESIAN_POINT('',(220.,10.,30.));
#1280=CARTESIAN_POINT('',(220.,10.,50.));
#1281=CARTESIAN_POINT('',(220.,30.,50.));
#1282=CARTESIAN_POINT('',(220.,30.,30.));
#1283=CARTESIAN_POINT('',(30.,10.,30.));
#1284=CARTESIAN_POINT('',(30.,10.,50.));
#1285=CARTESIAN_POINT('',(125.,9.99999999999999,50.));
#1286=CARTESIAN_POINT('',(125.,10.,30.));
#1287=CARTESIAN_POINT('',(10.,30.,30.));
#1288=CARTESIAN_POINT('',(10.,30.,50.));
#1289=CARTESIAN_POINT('',(30.,30.,50.));
#1290=CARTESIAN_POINT('',(30.,30.,30.));
#1291=CARTESIAN_POINT('',(10.,120.,30.));
#1292=CARTESIAN_POINT('',(10.,120.,50.));
#1293=CARTESIAN_POINT('',(9.99999999999999,75.,50.));
#1294=CARTESIAN_POINT('',(10.,75.,30.));
#1295=CARTESIAN_POINT('',(30.,140.,30.));
#1296=CARTESIAN_POINT('',(30.,140.,50.));
#1297=CARTESIAN_POINT('',(30.,120.,50.));
#1298=CARTESIAN_POINT('',(30.,120.,30.));
#1299=CARTESIAN_POINT('',(220.,140.,30.));
#1300=CARTESIAN_POINT('',(220.,140.,50.));
#1301=CARTESIAN_POINT('',(125.,140.,50.));
#1302=CARTESIAN_POINT('',(125.,140.,30.));
#1303=CARTESIAN_POINT('',(220.,120.,50.));
#1304=CARTESIAN_POINT('',(220.,120.,30.));
#1305=CARTESIAN_POINT('',(125.,75.,50.));
#1306=MECHANICAL_DESIGN_GEOMETRIC_PRESENTATION_REPRESENTATION('',(#32),
#1307);
#1307=(
GEOMETRIC_REPRESENTATION_CONTEXT(3)
GLOBAL_UNCERTAINTY_ASSIGNED_CONTEXT((#1308))
GLOBAL_UNIT_ASSIGNED_CONTEXT((#1314,#1310,#1309))
REPRESENTATION_CONTEXT('008 - MORE_POCKETS','TOP_LEVEL_ASSEMBLY_PART')
);
#1308=UNCERTAINTY_MEASURE_WITH_UNIT(LENGTH_MEASURE(2.E-5),#1314,
'DISTANCE_ACCURACY_VALUE','Maximum Tolerance applied to model');
#1309=(
NAMED_UNIT(*)
SI_UNIT($,.STERADIAN.)
SOLID_ANGLE_UNIT()
);
#1310=(
CONVERSION_BASED_UNIT('DEGREE',#1312)
NAMED_UNIT(#1311)
PLANE_ANGLE_UNIT()
);
#1311=DIMENSIONAL_EXPONENTS(0.,0.,0.,0.,0.,0.,0.);
#1312=PLANE_ANGLE_MEASURE_WITH_UNIT(PLANE_ANGLE_MEASURE(0.0174532925),#1313);
#1313=(
NAMED_UNIT(*)
PLANE_ANGLE_UNIT()
SI_UNIT($,.RADIAN.)
);
#1314=(
LENGTH_UNIT()
NAMED_UNIT(*)
SI_UNIT(.MILLI.,.METRE.)
);
ENDSEC;
END-ISO-10303-21;
