ISO-10303-21;
HEADER;
/* Generated by software containing ST-Developer
 * from STEP Tools, Inc. (www.steptools.com) 
 */
/* OPTION: using custom schema-name function */

FILE_DESCRIPTION(
/* description */ (''),
/* implementation_level */ '2;1');

FILE_NAME(
/* name */ '009 - MORE_POCKETS_RADIUS.stp',
/* time_stamp */ '2026-08-06T15:33:12+08:00',
/* author */ (''),
/* organization */ (''),
/* preprocessor_version */ 'ST-DEVELOPER v20.1',
/* originating_system */ 'SIEMENS PLM Software NX2512.5000',
/* authorisation */ '');

FILE_SCHEMA (('AUTOMOTIVE_DESIGN { 1 0 10303 214 3 1 1 1 }'));
ENDSEC;

DATA;
#10=PROPERTY_DEFINITION_REPRESENTATION(#14,#12);
#11=PROPERTY_DEFINITION_REPRESENTATION(#15,#13);
#12=REPRESENTATION('',(#16),#1715);
#13=REPRESENTATION('',(#17),#1715);
#14=PROPERTY_DEFINITION('pmi validation property','',#21);
#15=PROPERTY_DEFINITION('pmi validation property','',#21);
#16=VALUE_REPRESENTATION_ITEM('number of annotations',COUNT_MEASURE(0.));
#17=VALUE_REPRESENTATION_ITEM('number of views',COUNT_MEASURE(0.));
#18=SHAPE_REPRESENTATION_RELATIONSHIP('None',
'relationship between 009 - MORE_POCKETS_RADIUS_objects-None and 009 -
 MORE_POCKETS_RADIUS_objects-None',#30,#19);
#19=ADVANCED_BREP_SHAPE_REPRESENTATION(
'009 - MORE_POCKETS_RADIUS_objects-None',(#40),#1715);
#20=SHAPE_DEFINITION_REPRESENTATION(#21,#30);
#21=PRODUCT_DEFINITION_SHAPE('','',#22);
#22=PRODUCT_DEFINITION(' ','',#24,#23);
#23=PRODUCT_DEFINITION_CONTEXT('part definition',#29,'design');
#24=PRODUCT_DEFINITION_FORMATION_WITH_SPECIFIED_SOURCE(' ',' ',#26,
 .NOT_KNOWN.);
#25=PRODUCT_RELATED_PRODUCT_CATEGORY('part','',(#26));
#26=PRODUCT('009 - MORE_POCKETS_RADIUS_objects',
'009 - MORE_POCKETS_RADIUS_objects',' ',(#27));
#27=PRODUCT_CONTEXT(' ',#29,'mechanical');
#28=APPLICATION_PROTOCOL_DEFINITION('international standard',
'automotive_design',2010,#29);
#29=APPLICATION_CONTEXT(
'core data for automotive mechanical design processes');
#30=SHAPE_REPRESENTATION('009 - MORE_POCKETS_RADIUS_objects-None',(#1006),
#1715);
#31=PRESENTATION_LAYER_ASSIGNMENT('90','Layer 90',(#40));
#32=STYLED_ITEM('',(#33),#40);
#33=PRESENTATION_STYLE_ASSIGNMENT((#34));
#34=SURFACE_STYLE_USAGE(.BOTH.,#35);
#35=SURFACE_SIDE_STYLE('',(#36));
#36=SURFACE_STYLE_FILL_AREA(#37);
#37=FILL_AREA_STYLE('',(#38));
#38=FILL_AREA_STYLE_COLOUR('',#39);
#39=COLOUR_RGB('medium steel',0.611764705882353,0.658823529411765,0.670588235294118);
#40=MANIFOLD_SOLID_BREP('',#41);
#41=CLOSED_SHELL('',(#122,#123,#124,#125,#126,#127,#128,#129,#130,#131,
#132,#133,#134,#135,#136,#137,#138,#139,#140,#141,#142,#143,#144,#145,#146,
#147,#148,#149,#150,#151,#152,#153,#154,#155,#156,#157,#158,#159,#160,#161,
#162,#163,#164,#165,#166,#167,#168,#169,#170,#171,#172,#173,#174,#175,#176,
#177));
#42=TOROIDAL_SURFACE('',#1099,17.,3.);
#43=TOROIDAL_SURFACE('',#1101,17.,3.);
#44=TOROIDAL_SURFACE('',#1107,17.,3.);
#45=TOROIDAL_SURFACE('',#1109,17.,3.);
#46=TOROIDAL_SURFACE('',#1115,7.,3.);
#47=TOROIDAL_SURFACE('',#1117,7.,3.);
#48=TOROIDAL_SURFACE('',#1123,7.,3.);
#49=TOROIDAL_SURFACE('',#1125,7.,3.);
#50=FACE_OUTER_BOUND('',#254,.T.);
#51=FACE_OUTER_BOUND('',#255,.T.);
#52=FACE_OUTER_BOUND('',#256,.T.);
#53=FACE_OUTER_BOUND('',#257,.T.);
#54=FACE_OUTER_BOUND('',#258,.T.);
#55=FACE_OUTER_BOUND('',#259,.T.);
#56=FACE_OUTER_BOUND('',#260,.T.);
#57=FACE_OUTER_BOUND('',#261,.T.);
#58=FACE_OUTER_BOUND('',#262,.T.);
#59=FACE_OUTER_BOUND('',#263,.T.);
#60=FACE_OUTER_BOUND('',#264,.T.);
#61=FACE_OUTER_BOUND('',#265,.T.);
#62=FACE_OUTER_BOUND('',#276,.T.);
#63=FACE_OUTER_BOUND('',#277,.T.);
#64=FACE_OUTER_BOUND('',#278,.T.);
#65=FACE_OUTER_BOUND('',#279,.T.);
#66=FACE_OUTER_BOUND('',#290,.T.);
#67=FACE_OUTER_BOUND('',#291,.T.);
#68=FACE_OUTER_BOUND('',#292,.T.);
#69=FACE_OUTER_BOUND('',#293,.T.);
#70=FACE_OUTER_BOUND('',#296,.T.);
#71=FACE_OUTER_BOUND('',#297,.T.);
#72=FACE_OUTER_BOUND('',#298,.T.);
#73=FACE_OUTER_BOUND('',#299,.T.);
#74=FACE_OUTER_BOUND('',#300,.T.);
#75=FACE_OUTER_BOUND('',#301,.T.);
#76=FACE_OUTER_BOUND('',#302,.T.);
#77=FACE_OUTER_BOUND('',#303,.T.);
#78=FACE_OUTER_BOUND('',#306,.T.);
#79=FACE_OUTER_BOUND('',#307,.T.);
#80=FACE_OUTER_BOUND('',#308,.T.);
#81=FACE_OUTER_BOUND('',#309,.T.);
#82=FACE_OUTER_BOUND('',#310,.T.);
#83=FACE_OUTER_BOUND('',#311,.T.);
#84=FACE_OUTER_BOUND('',#312,.T.);
#85=FACE_OUTER_BOUND('',#313,.T.);
#86=FACE_OUTER_BOUND('',#314,.T.);
#87=FACE_OUTER_BOUND('',#315,.T.);
#88=FACE_OUTER_BOUND('',#316,.T.);
#89=FACE_OUTER_BOUND('',#317,.T.);
#90=FACE_OUTER_BOUND('',#318,.T.);
#91=FACE_OUTER_BOUND('',#319,.T.);
#92=FACE_OUTER_BOUND('',#320,.T.);
#93=FACE_OUTER_BOUND('',#321,.T.);
#94=CYLINDRICAL_SURFACE('',#1018,7.2235);
#95=CYLINDRICAL_SURFACE('',#1021,7.2235);
#96=CYLINDRICAL_SURFACE('',#1024,7.2235);
#97=CYLINDRICAL_SURFACE('',#1027,7.2235);
#98=CYLINDRICAL_SURFACE('',#1030,7.2235);
#99=CYLINDRICAL_SURFACE('',#1033,7.2235);
#100=CYLINDRICAL_SURFACE('',#1036,7.2235);
#101=CYLINDRICAL_SURFACE('',#1046,10.);
#102=CYLINDRICAL_SURFACE('',#1048,10.);
#103=CYLINDRICAL_SURFACE('',#1050,10.);
#104=CYLINDRICAL_SURFACE('',#1052,10.);
#105=CYLINDRICAL_SURFACE('',#1073,10.);
#106=CYLINDRICAL_SURFACE('',#1074,10.);
#107=CYLINDRICAL_SURFACE('',#1075,10.);
#108=CYLINDRICAL_SURFACE('',#1076,10.);
#109=CYLINDRICAL_SURFACE('',#1077,7.2235);
#110=CYLINDRICAL_SURFACE('',#1081,20.);
#111=CYLINDRICAL_SURFACE('',#1085,20.);
#112=CYLINDRICAL_SURFACE('',#1089,20.);
#113=CYLINDRICAL_SURFACE('',#1093,20.);
#114=CYLINDRICAL_SURFACE('',#1097,3.);
#115=CYLINDRICAL_SURFACE('',#1103,3.);
#116=CYLINDRICAL_SURFACE('',#1105,3.);
#117=CYLINDRICAL_SURFACE('',#1110,3.);
#118=CYLINDRICAL_SURFACE('',#1113,3.);
#119=CYLINDRICAL_SURFACE('',#1119,3.);
#120=CYLINDRICAL_SURFACE('',#1121,3.);
#121=CYLINDRICAL_SURFACE('',#1126,3.);
#122=ADVANCED_FACE('',(#198,#199),#178,.T.);
#123=ADVANCED_FACE('',(#200,#201),#94,.F.);
#124=ADVANCED_FACE('',(#202,#203),#95,.F.);
#125=ADVANCED_FACE('',(#204,#205),#96,.F.);
#126=ADVANCED_FACE('',(#206,#207),#97,.F.);
#127=ADVANCED_FACE('',(#208,#209),#98,.F.);
#128=ADVANCED_FACE('',(#210,#211),#99,.F.);
#129=ADVANCED_FACE('',(#212,#213),#100,.F.);
#130=ADVANCED_FACE('',(#50),#179,.T.);
#131=ADVANCED_FACE('',(#51),#180,.T.);
#132=ADVANCED_FACE('',(#52),#181,.T.);
#133=ADVANCED_FACE('',(#53),#182,.T.);
#134=ADVANCED_FACE('',(#54),#183,.F.);
#135=ADVANCED_FACE('',(#55),#184,.F.);
#136=ADVANCED_FACE('',(#56),#185,.F.);
#137=ADVANCED_FACE('',(#57),#186,.F.);
#138=ADVANCED_FACE('',(#58),#101,.F.);
#139=ADVANCED_FACE('',(#59),#102,.F.);
#140=ADVANCED_FACE('',(#60),#103,.F.);
#141=ADVANCED_FACE('',(#61),#104,.F.);
#142=ADVANCED_FACE('',(#214,#215,#216,#217,#218,#219,#220,#221,#222,#223),
#187,.T.);
#143=ADVANCED_FACE('',(#62),#188,.F.);
#144=ADVANCED_FACE('',(#63),#189,.F.);
#145=ADVANCED_FACE('',(#64),#190,.F.);
#146=ADVANCED_FACE('',(#65),#191,.F.);
#147=ADVANCED_FACE('',(#224,#225,#226,#227,#228,#229,#230,#231,#232,#233),
#192,.F.);
#148=ADVANCED_FACE('',(#66),#105,.F.);
#149=ADVANCED_FACE('',(#67),#106,.F.);
#150=ADVANCED_FACE('',(#68),#107,.F.);
#151=ADVANCED_FACE('',(#69),#108,.F.);
#152=ADVANCED_FACE('',(#234,#235),#109,.F.);
#153=ADVANCED_FACE('',(#70),#193,.T.);
#154=ADVANCED_FACE('',(#71),#110,.F.);
#155=ADVANCED_FACE('',(#72),#194,.T.);
#156=ADVANCED_FACE('',(#73),#111,.F.);
#157=ADVANCED_FACE('',(#74),#195,.T.);
#158=ADVANCED_FACE('',(#75),#112,.F.);
#159=ADVANCED_FACE('',(#76),#196,.T.);
#160=ADVANCED_FACE('',(#77),#113,.F.);
#161=ADVANCED_FACE('',(#236,#237),#197,.T.);
#162=ADVANCED_FACE('',(#78),#114,.F.);
#163=ADVANCED_FACE('',(#79),#42,.F.);
#164=ADVANCED_FACE('',(#80),#43,.F.);
#165=ADVANCED_FACE('',(#81),#115,.F.);
#166=ADVANCED_FACE('',(#82),#116,.F.);
#167=ADVANCED_FACE('',(#83),#44,.F.);
#168=ADVANCED_FACE('',(#84),#45,.F.);
#169=ADVANCED_FACE('',(#85),#117,.F.);
#170=ADVANCED_FACE('',(#86),#118,.F.);
#171=ADVANCED_FACE('',(#87),#46,.F.);
#172=ADVANCED_FACE('',(#88),#47,.F.);
#173=ADVANCED_FACE('',(#89),#119,.F.);
#174=ADVANCED_FACE('',(#90),#120,.F.);
#175=ADVANCED_FACE('',(#91),#48,.F.);
#176=ADVANCED_FACE('',(#92),#49,.F.);
#177=ADVANCED_FACE('',(#93),#121,.F.);
#178=PLANE('',#1015);
#179=PLANE('',#1037);
#180=PLANE('',#1038);
#181=PLANE('',#1039);
#182=PLANE('',#1040);
#183=PLANE('',#1041);
#184=PLANE('',#1042);
#185=PLANE('',#1043);
#186=PLANE('',#1044);
#187=PLANE('',#1058);
#188=PLANE('',#1059);
#189=PLANE('',#1060);
#190=PLANE('',#1061);
#191=PLANE('',#1062);
#192=PLANE('',#1072);
#193=PLANE('',#1078);
#194=PLANE('',#1082);
#195=PLANE('',#1086);
#196=PLANE('',#1090);
#197=PLANE('',#1094);
#198=FACE_BOUND('',#238,.T.);
#199=FACE_BOUND('',#239,.T.);
#200=FACE_BOUND('',#240,.T.);
#201=FACE_BOUND('',#241,.T.);
#202=FACE_BOUND('',#242,.T.);
#203=FACE_BOUND('',#243,.T.);
#204=FACE_BOUND('',#244,.T.);
#205=FACE_BOUND('',#245,.T.);
#206=FACE_BOUND('',#246,.T.);
#207=FACE_BOUND('',#247,.T.);
#208=FACE_BOUND('',#248,.T.);
#209=FACE_BOUND('',#249,.T.);
#210=FACE_BOUND('',#250,.T.);
#211=FACE_BOUND('',#251,.T.);
#212=FACE_BOUND('',#252,.T.);
#213=FACE_BOUND('',#253,.T.);
#214=FACE_BOUND('',#266,.T.);
#215=FACE_BOUND('',#267,.T.);
#216=FACE_BOUND('',#268,.T.);
#217=FACE_BOUND('',#269,.T.);
#218=FACE_BOUND('',#270,.T.);
#219=FACE_BOUND('',#271,.T.);
#220=FACE_BOUND('',#272,.T.);
#221=FACE_BOUND('',#273,.T.);
#222=FACE_BOUND('',#274,.T.);
#223=FACE_BOUND('',#275,.T.);
#224=FACE_BOUND('',#280,.T.);
#225=FACE_BOUND('',#281,.T.);
#226=FACE_BOUND('',#282,.T.);
#227=FACE_BOUND('',#283,.T.);
#228=FACE_BOUND('',#284,.T.);
#229=FACE_BOUND('',#285,.T.);
#230=FACE_BOUND('',#286,.T.);
#231=FACE_BOUND('',#287,.T.);
#232=FACE_BOUND('',#288,.T.);
#233=FACE_BOUND('',#289,.T.);
#234=FACE_BOUND('',#294,.T.);
#235=FACE_BOUND('',#295,.T.);
#236=FACE_BOUND('',#304,.T.);
#237=FACE_BOUND('',#305,.T.);
#238=EDGE_LOOP('',(#458,#459,#460,#461,#462,#463,#464,#465));
#239=EDGE_LOOP('',(#466,#467,#468,#469,#470,#471,#472,#473));
#240=EDGE_LOOP('',(#474));
#241=EDGE_LOOP('',(#475));
#242=EDGE_LOOP('',(#476));
#243=EDGE_LOOP('',(#477));
#244=EDGE_LOOP('',(#478));
#245=EDGE_LOOP('',(#479));
#246=EDGE_LOOP('',(#480));
#247=EDGE_LOOP('',(#481));
#248=EDGE_LOOP('',(#482));
#249=EDGE_LOOP('',(#483));
#250=EDGE_LOOP('',(#484));
#251=EDGE_LOOP('',(#485));
#252=EDGE_LOOP('',(#486));
#253=EDGE_LOOP('',(#487));
#254=EDGE_LOOP('',(#488,#489,#490,#491));
#255=EDGE_LOOP('',(#492,#493,#494,#495));
#256=EDGE_LOOP('',(#496,#497,#498,#499));
#257=EDGE_LOOP('',(#500,#501,#502,#503));
#258=EDGE_LOOP('',(#504,#505,#506,#507));
#259=EDGE_LOOP('',(#508,#509,#510,#511));
#260=EDGE_LOOP('',(#512,#513,#514,#515));
#261=EDGE_LOOP('',(#516,#517,#518,#519));
#262=EDGE_LOOP('',(#520,#521,#522,#523));
#263=EDGE_LOOP('',(#524,#525,#526,#527));
#264=EDGE_LOOP('',(#528,#529,#530,#531));
#265=EDGE_LOOP('',(#532,#533,#534,#535));
#266=EDGE_LOOP('',(#536));
#267=EDGE_LOOP('',(#537));
#268=EDGE_LOOP('',(#538));
#269=EDGE_LOOP('',(#539));
#270=EDGE_LOOP('',(#540));
#271=EDGE_LOOP('',(#541));
#272=EDGE_LOOP('',(#542));
#273=EDGE_LOOP('',(#543));
#274=EDGE_LOOP('',(#544,#545,#546,#547));
#275=EDGE_LOOP('',(#548,#549,#550,#551,#552,#553,#554,#555));
#276=EDGE_LOOP('',(#556,#557,#558,#559));
#277=EDGE_LOOP('',(#560,#561,#562,#563));
#278=EDGE_LOOP('',(#564,#565,#566,#567));
#279=EDGE_LOOP('',(#568,#569,#570,#571));
#280=EDGE_LOOP('',(#572,#573,#574,#575,#576,#577,#578,#579));
#281=EDGE_LOOP('',(#580));
#282=EDGE_LOOP('',(#581));
#283=EDGE_LOOP('',(#582));
#284=EDGE_LOOP('',(#583));
#285=EDGE_LOOP('',(#584));
#286=EDGE_LOOP('',(#585));
#287=EDGE_LOOP('',(#586));
#288=EDGE_LOOP('',(#587));
#289=EDGE_LOOP('',(#588,#589,#590,#591,#592,#593,#594,#595));
#290=EDGE_LOOP('',(#596,#597,#598,#599));
#291=EDGE_LOOP('',(#600,#601,#602,#603));
#292=EDGE_LOOP('',(#604,#605,#606,#607));
#293=EDGE_LOOP('',(#608,#609,#610,#611));
#294=EDGE_LOOP('',(#612));
#295=EDGE_LOOP('',(#613));
#296=EDGE_LOOP('',(#614,#615,#616,#617));
#297=EDGE_LOOP('',(#618,#619,#620,#621));
#298=EDGE_LOOP('',(#622,#623,#624,#625));
#299=EDGE_LOOP('',(#626,#627,#628,#629));
#300=EDGE_LOOP('',(#630,#631,#632,#633));
#301=EDGE_LOOP('',(#634,#635,#636,#637));
#302=EDGE_LOOP('',(#638,#639,#640,#641));
#303=EDGE_LOOP('',(#642,#643,#644,#645));
#304=EDGE_LOOP('',(#646,#647,#648,#649));
#305=EDGE_LOOP('',(#650,#651,#652,#653,#654,#655,#656,#657));
#306=EDGE_LOOP('',(#658,#659,#660,#661));
#307=EDGE_LOOP('',(#662,#663,#664,#665));
#308=EDGE_LOOP('',(#666,#667,#668,#669));
#309=EDGE_LOOP('',(#670,#671,#672,#673));
#310=EDGE_LOOP('',(#674,#675,#676,#677));
#311=EDGE_LOOP('',(#678,#679,#680,#681));
#312=EDGE_LOOP('',(#682,#683,#684,#685));
#313=EDGE_LOOP('',(#686,#687,#688,#689));
#314=EDGE_LOOP('',(#690,#691,#692,#693));
#315=EDGE_LOOP('',(#694,#695,#696,#697));
#316=EDGE_LOOP('',(#698,#699,#700,#701));
#317=EDGE_LOOP('',(#702,#703,#704,#705));
#318=EDGE_LOOP('',(#706,#707,#708,#709));
#319=EDGE_LOOP('',(#710,#711,#712,#713));
#320=EDGE_LOOP('',(#714,#715,#716,#717));
#321=EDGE_LOOP('',(#718,#719,#720,#721));
#322=LINE('',#1441,#390);
#323=LINE('',#1445,#391);
#324=LINE('',#1449,#392);
#325=LINE('',#1453,#393);
#326=LINE('',#1454,#394);
#327=LINE('',#1459,#395);
#328=LINE('',#1463,#396);
#329=LINE('',#1467,#397);
#330=LINE('',#1506,#398);
#331=LINE('',#1509,#399);
#332=LINE('',#1511,#400);
#333=LINE('',#1513,#401);
#334=LINE('',#1515,#402);
#335=LINE('',#1518,#403);
#336=LINE('',#1519,#404);
#337=LINE('',#1521,#405);
#338=LINE('',#1524,#406);
#339=LINE('',#1525,#407);
#340=LINE('',#1527,#408);
#341=LINE('',#1528,#409);
#342=LINE('',#1530,#410);
#343=LINE('',#1532,#411);
#344=LINE('',#1534,#412);
#345=LINE('',#1536,#413);
#346=LINE('',#1538,#414);
#347=LINE('',#1540,#415);
#348=LINE('',#1542,#416);
#349=LINE('',#1544,#417);
#350=LINE('',#1546,#418);
#351=LINE('',#1548,#419);
#352=LINE('',#1550,#420);
#353=LINE('',#1552,#421);
#354=LINE('',#1564,#422);
#355=LINE('',#1569,#423);
#356=LINE('',#1573,#424);
#357=LINE('',#1577,#425);
#358=LINE('',#1581,#426);
#359=LINE('',#1583,#427);
#360=LINE('',#1585,#428);
#361=LINE('',#1587,#429);
#362=LINE('',#1589,#430);
#363=LINE('',#1591,#431);
#364=LINE('',#1593,#432);
#365=LINE('',#1596,#433);
#366=LINE('',#1597,#434);
#367=LINE('',#1599,#435);
#368=LINE('',#1602,#436);
#369=LINE('',#1603,#437);
#370=LINE('',#1608,#438);
#371=LINE('',#1612,#439);
#372=LINE('',#1616,#440);
#373=LINE('',#1620,#441);
#374=LINE('',#1633,#442);
#375=LINE('',#1636,#443);
#376=LINE('',#1638,#444);
#377=LINE('',#1640,#445);
#378=LINE('',#1644,#446);
#379=LINE('',#1648,#447);
#380=LINE('',#1650,#448);
#381=LINE('',#1652,#449);
#382=LINE('',#1656,#450);
#383=LINE('',#1660,#451);
#384=LINE('',#1662,#452);
#385=LINE('',#1664,#453);
#386=LINE('',#1668,#454);
#387=LINE('',#1672,#455);
#388=LINE('',#1674,#456);
#389=LINE('',#1676,#457);
#390=VECTOR('',#1131,1.);
#391=VECTOR('',#1134,1.);
#392=VECTOR('',#1137,1.);
#393=VECTOR('',#1140,1.);
#394=VECTOR('',#1141,1.);
#395=VECTOR('',#1144,1.);
#396=VECTOR('',#1147,1.);
#397=VECTOR('',#1150,1.);
#398=VECTOR('',#1197,1.);
#399=VECTOR('',#1198,1.);
#400=VECTOR('',#1199,1.);
#401=VECTOR('',#1200,1.);
#402=VECTOR('',#1203,1.);
#403=VECTOR('',#1204,1.);
#404=VECTOR('',#1205,1.);
#405=VECTOR('',#1208,1.);
#406=VECTOR('',#1209,1.);
#407=VECTOR('',#1210,1.);
#408=VECTOR('',#1213,1.);
#409=VECTOR('',#1214,1.);
#410=VECTOR('',#1217,1.);
#411=VECTOR('',#1218,1.);
#412=VECTOR('',#1219,1.);
#413=VECTOR('',#1222,1.);
#414=VECTOR('',#1223,1.);
#415=VECTOR('',#1224,1.);
#416=VECTOR('',#1227,1.);
#417=VECTOR('',#1228,1.);
#418=VECTOR('',#1229,1.);
#419=VECTOR('',#1232,1.);
#420=VECTOR('',#1233,1.);
#421=VECTOR('',#1234,1.);
#422=VECTOR('',#1255,1.);
#423=VECTOR('',#1258,1.);
#424=VECTOR('',#1261,1.);
#425=VECTOR('',#1264,1.);
#426=VECTOR('',#1269,1.);
#427=VECTOR('',#1270,1.);
#428=VECTOR('',#1271,1.);
#429=VECTOR('',#1274,1.);
#430=VECTOR('',#1275,1.);
#431=VECTOR('',#1276,1.);
#432=VECTOR('',#1279,1.);
#433=VECTOR('',#1280,1.);
#434=VECTOR('',#1281,1.);
#435=VECTOR('',#1284,1.);
#436=VECTOR('',#1285,1.);
#437=VECTOR('',#1286,1.);
#438=VECTOR('',#1291,1.);
#439=VECTOR('',#1294,1.);
#440=VECTOR('',#1297,1.);
#441=VECTOR('',#1300,1.);
#442=VECTOR('',#1323,1.);
#443=VECTOR('',#1324,1.);
#444=VECTOR('',#1325,1.);
#445=VECTOR('',#1326,1.);
#446=VECTOR('',#1331,1.);
#447=VECTOR('',#1336,1.);
#448=VECTOR('',#1337,1.);
#449=VECTOR('',#1338,1.);
#450=VECTOR('',#1343,1.);
#451=VECTOR('',#1348,1.);
#452=VECTOR('',#1349,1.);
#453=VECTOR('',#1350,1.);
#454=VECTOR('',#1355,1.);
#455=VECTOR('',#1360,1.);
#456=VECTOR('',#1361,1.);
#457=VECTOR('',#1362,1.);
#458=ORIENTED_EDGE('',*,*,#810,.T.);
#459=ORIENTED_EDGE('',*,*,#811,.T.);
#460=ORIENTED_EDGE('',*,*,#812,.T.);
#461=ORIENTED_EDGE('',*,*,#813,.T.);
#462=ORIENTED_EDGE('',*,*,#814,.T.);
#463=ORIENTED_EDGE('',*,*,#815,.T.);
#464=ORIENTED_EDGE('',*,*,#816,.T.);
#465=ORIENTED_EDGE('',*,*,#817,.T.);
#466=ORIENTED_EDGE('',*,*,#818,.T.);
#467=ORIENTED_EDGE('',*,*,#819,.T.);
#468=ORIENTED_EDGE('',*,*,#820,.T.);
#469=ORIENTED_EDGE('',*,*,#821,.T.);
#470=ORIENTED_EDGE('',*,*,#822,.T.);
#471=ORIENTED_EDGE('',*,*,#823,.T.);
#472=ORIENTED_EDGE('',*,*,#824,.T.);
#473=ORIENTED_EDGE('',*,*,#825,.T.);
#474=ORIENTED_EDGE('',*,*,#826,.T.);
#475=ORIENTED_EDGE('',*,*,#827,.F.);
#476=ORIENTED_EDGE('',*,*,#828,.T.);
#477=ORIENTED_EDGE('',*,*,#829,.F.);
#478=ORIENTED_EDGE('',*,*,#830,.T.);
#479=ORIENTED_EDGE('',*,*,#831,.F.);
#480=ORIENTED_EDGE('',*,*,#832,.T.);
#481=ORIENTED_EDGE('',*,*,#833,.F.);
#482=ORIENTED_EDGE('',*,*,#834,.T.);
#483=ORIENTED_EDGE('',*,*,#835,.F.);
#484=ORIENTED_EDGE('',*,*,#836,.T.);
#485=ORIENTED_EDGE('',*,*,#837,.F.);
#486=ORIENTED_EDGE('',*,*,#838,.T.);
#487=ORIENTED_EDGE('',*,*,#839,.F.);
#488=ORIENTED_EDGE('',*,*,#840,.F.);
#489=ORIENTED_EDGE('',*,*,#841,.T.);
#490=ORIENTED_EDGE('',*,*,#842,.T.);
#491=ORIENTED_EDGE('',*,*,#843,.T.);
#492=ORIENTED_EDGE('',*,*,#844,.F.);
#493=ORIENTED_EDGE('',*,*,#845,.T.);
#494=ORIENTED_EDGE('',*,*,#840,.T.);
#495=ORIENTED_EDGE('',*,*,#846,.T.);
#496=ORIENTED_EDGE('',*,*,#847,.F.);
#497=ORIENTED_EDGE('',*,*,#848,.T.);
#498=ORIENTED_EDGE('',*,*,#844,.T.);
#499=ORIENTED_EDGE('',*,*,#849,.T.);
#500=ORIENTED_EDGE('',*,*,#842,.F.);
#501=ORIENTED_EDGE('',*,*,#850,.T.);
#502=ORIENTED_EDGE('',*,*,#847,.T.);
#503=ORIENTED_EDGE('',*,*,#851,.T.);
#504=ORIENTED_EDGE('',*,*,#852,.T.);
#505=ORIENTED_EDGE('',*,*,#853,.T.);
#506=ORIENTED_EDGE('',*,*,#854,.T.);
#507=ORIENTED_EDGE('',*,*,#822,.F.);
#508=ORIENTED_EDGE('',*,*,#855,.T.);
#509=ORIENTED_EDGE('',*,*,#856,.T.);
#510=ORIENTED_EDGE('',*,*,#857,.T.);
#511=ORIENTED_EDGE('',*,*,#824,.F.);
#512=ORIENTED_EDGE('',*,*,#858,.T.);
#513=ORIENTED_EDGE('',*,*,#859,.T.);
#514=ORIENTED_EDGE('',*,*,#860,.T.);
#515=ORIENTED_EDGE('',*,*,#818,.F.);
#516=ORIENTED_EDGE('',*,*,#861,.T.);
#517=ORIENTED_EDGE('',*,*,#862,.T.);
#518=ORIENTED_EDGE('',*,*,#863,.T.);
#519=ORIENTED_EDGE('',*,*,#820,.F.);
#520=ORIENTED_EDGE('',*,*,#863,.F.);
#521=ORIENTED_EDGE('',*,*,#864,.T.);
#522=ORIENTED_EDGE('',*,*,#852,.F.);
#523=ORIENTED_EDGE('',*,*,#821,.F.);
#524=ORIENTED_EDGE('',*,*,#860,.F.);
#525=ORIENTED_EDGE('',*,*,#865,.T.);
#526=ORIENTED_EDGE('',*,*,#861,.F.);
#527=ORIENTED_EDGE('',*,*,#819,.F.);
#528=ORIENTED_EDGE('',*,*,#854,.F.);
#529=ORIENTED_EDGE('',*,*,#866,.T.);
#530=ORIENTED_EDGE('',*,*,#855,.F.);
#531=ORIENTED_EDGE('',*,*,#823,.F.);
#532=ORIENTED_EDGE('',*,*,#857,.F.);
#533=ORIENTED_EDGE('',*,*,#867,.T.);
#534=ORIENTED_EDGE('',*,*,#858,.F.);
#535=ORIENTED_EDGE('',*,*,#825,.F.);
#536=ORIENTED_EDGE('',*,*,#826,.F.);
#537=ORIENTED_EDGE('',*,*,#828,.F.);
#538=ORIENTED_EDGE('',*,*,#830,.F.);
#539=ORIENTED_EDGE('',*,*,#832,.F.);
#540=ORIENTED_EDGE('',*,*,#834,.F.);
#541=ORIENTED_EDGE('',*,*,#836,.F.);
#542=ORIENTED_EDGE('',*,*,#838,.F.);
#543=ORIENTED_EDGE('',*,*,#868,.F.);
#544=ORIENTED_EDGE('',*,*,#850,.F.);
#545=ORIENTED_EDGE('',*,*,#841,.F.);
#546=ORIENTED_EDGE('',*,*,#845,.F.);
#547=ORIENTED_EDGE('',*,*,#848,.F.);
#548=ORIENTED_EDGE('',*,*,#869,.T.);
#549=ORIENTED_EDGE('',*,*,#870,.T.);
#550=ORIENTED_EDGE('',*,*,#871,.T.);
#551=ORIENTED_EDGE('',*,*,#872,.T.);
#552=ORIENTED_EDGE('',*,*,#873,.T.);
#553=ORIENTED_EDGE('',*,*,#874,.T.);
#554=ORIENTED_EDGE('',*,*,#875,.T.);
#555=ORIENTED_EDGE('',*,*,#876,.T.);
#556=ORIENTED_EDGE('',*,*,#875,.F.);
#557=ORIENTED_EDGE('',*,*,#877,.T.);
#558=ORIENTED_EDGE('',*,*,#878,.F.);
#559=ORIENTED_EDGE('',*,*,#879,.T.);
#560=ORIENTED_EDGE('',*,*,#869,.F.);
#561=ORIENTED_EDGE('',*,*,#880,.T.);
#562=ORIENTED_EDGE('',*,*,#881,.T.);
#563=ORIENTED_EDGE('',*,*,#882,.T.);
#564=ORIENTED_EDGE('',*,*,#883,.T.);
#565=ORIENTED_EDGE('',*,*,#884,.T.);
#566=ORIENTED_EDGE('',*,*,#871,.F.);
#567=ORIENTED_EDGE('',*,*,#885,.T.);
#568=ORIENTED_EDGE('',*,*,#886,.F.);
#569=ORIENTED_EDGE('',*,*,#887,.T.);
#570=ORIENTED_EDGE('',*,*,#873,.F.);
#571=ORIENTED_EDGE('',*,*,#888,.T.);
#572=ORIENTED_EDGE('',*,*,#889,.T.);
#573=ORIENTED_EDGE('',*,*,#890,.T.);
#574=ORIENTED_EDGE('',*,*,#891,.T.);
#575=ORIENTED_EDGE('',*,*,#892,.T.);
#576=ORIENTED_EDGE('',*,*,#893,.T.);
#577=ORIENTED_EDGE('',*,*,#894,.T.);
#578=ORIENTED_EDGE('',*,*,#895,.T.);
#579=ORIENTED_EDGE('',*,*,#896,.T.);
#580=ORIENTED_EDGE('',*,*,#827,.T.);
#581=ORIENTED_EDGE('',*,*,#829,.T.);
#582=ORIENTED_EDGE('',*,*,#831,.T.);
#583=ORIENTED_EDGE('',*,*,#833,.T.);
#584=ORIENTED_EDGE('',*,*,#835,.T.);
#585=ORIENTED_EDGE('',*,*,#837,.T.);
#586=ORIENTED_EDGE('',*,*,#839,.T.);
#587=ORIENTED_EDGE('',*,*,#897,.T.);
#588=ORIENTED_EDGE('',*,*,#878,.T.);
#589=ORIENTED_EDGE('',*,*,#898,.T.);
#590=ORIENTED_EDGE('',*,*,#886,.T.);
#591=ORIENTED_EDGE('',*,*,#899,.T.);
#592=ORIENTED_EDGE('',*,*,#883,.F.);
#593=ORIENTED_EDGE('',*,*,#900,.T.);
#594=ORIENTED_EDGE('',*,*,#881,.F.);
#595=ORIENTED_EDGE('',*,*,#901,.T.);
#596=ORIENTED_EDGE('',*,*,#874,.F.);
#597=ORIENTED_EDGE('',*,*,#887,.F.);
#598=ORIENTED_EDGE('',*,*,#898,.F.);
#599=ORIENTED_EDGE('',*,*,#877,.F.);
#600=ORIENTED_EDGE('',*,*,#876,.F.);
#601=ORIENTED_EDGE('',*,*,#879,.F.);
#602=ORIENTED_EDGE('',*,*,#901,.F.);
#603=ORIENTED_EDGE('',*,*,#880,.F.);
#604=ORIENTED_EDGE('',*,*,#872,.F.);
#605=ORIENTED_EDGE('',*,*,#884,.F.);
#606=ORIENTED_EDGE('',*,*,#899,.F.);
#607=ORIENTED_EDGE('',*,*,#888,.F.);
#608=ORIENTED_EDGE('',*,*,#870,.F.);
#609=ORIENTED_EDGE('',*,*,#882,.F.);
#610=ORIENTED_EDGE('',*,*,#900,.F.);
#611=ORIENTED_EDGE('',*,*,#885,.F.);
#612=ORIENTED_EDGE('',*,*,#868,.T.);
#613=ORIENTED_EDGE('',*,*,#897,.F.);
#614=ORIENTED_EDGE('',*,*,#902,.F.);
#615=ORIENTED_EDGE('',*,*,#903,.T.);
#616=ORIENTED_EDGE('',*,*,#904,.T.);
#617=ORIENTED_EDGE('',*,*,#905,.F.);
#618=ORIENTED_EDGE('',*,*,#904,.F.);
#619=ORIENTED_EDGE('',*,*,#906,.T.);
#620=ORIENTED_EDGE('',*,*,#907,.T.);
#621=ORIENTED_EDGE('',*,*,#908,.F.);
#622=ORIENTED_EDGE('',*,*,#907,.F.);
#623=ORIENTED_EDGE('',*,*,#909,.T.);
#624=ORIENTED_EDGE('',*,*,#910,.T.);
#625=ORIENTED_EDGE('',*,*,#911,.F.);
#626=ORIENTED_EDGE('',*,*,#910,.F.);
#627=ORIENTED_EDGE('',*,*,#912,.T.);
#628=ORIENTED_EDGE('',*,*,#913,.T.);
#629=ORIENTED_EDGE('',*,*,#914,.F.);
#630=ORIENTED_EDGE('',*,*,#913,.F.);
#631=ORIENTED_EDGE('',*,*,#915,.T.);
#632=ORIENTED_EDGE('',*,*,#916,.T.);
#633=ORIENTED_EDGE('',*,*,#917,.F.);
#634=ORIENTED_EDGE('',*,*,#916,.F.);
#635=ORIENTED_EDGE('',*,*,#918,.T.);
#636=ORIENTED_EDGE('',*,*,#919,.T.);
#637=ORIENTED_EDGE('',*,*,#920,.F.);
#638=ORIENTED_EDGE('',*,*,#919,.F.);
#639=ORIENTED_EDGE('',*,*,#921,.T.);
#640=ORIENTED_EDGE('',*,*,#922,.T.);
#641=ORIENTED_EDGE('',*,*,#923,.F.);
#642=ORIENTED_EDGE('',*,*,#922,.F.);
#643=ORIENTED_EDGE('',*,*,#924,.T.);
#644=ORIENTED_EDGE('',*,*,#902,.T.);
#645=ORIENTED_EDGE('',*,*,#925,.F.);
#646=ORIENTED_EDGE('',*,*,#843,.F.);
#647=ORIENTED_EDGE('',*,*,#851,.F.);
#648=ORIENTED_EDGE('',*,*,#849,.F.);
#649=ORIENTED_EDGE('',*,*,#846,.F.);
#650=ORIENTED_EDGE('',*,*,#923,.T.);
#651=ORIENTED_EDGE('',*,*,#925,.T.);
#652=ORIENTED_EDGE('',*,*,#905,.T.);
#653=ORIENTED_EDGE('',*,*,#908,.T.);
#654=ORIENTED_EDGE('',*,*,#911,.T.);
#655=ORIENTED_EDGE('',*,*,#914,.T.);
#656=ORIENTED_EDGE('',*,*,#917,.T.);
#657=ORIENTED_EDGE('',*,*,#920,.T.);
#658=ORIENTED_EDGE('',*,*,#926,.F.);
#659=ORIENTED_EDGE('',*,*,#815,.F.);
#660=ORIENTED_EDGE('',*,*,#927,.F.);
#661=ORIENTED_EDGE('',*,*,#903,.F.);
#662=ORIENTED_EDGE('',*,*,#927,.T.);
#663=ORIENTED_EDGE('',*,*,#814,.F.);
#664=ORIENTED_EDGE('',*,*,#928,.F.);
#665=ORIENTED_EDGE('',*,*,#906,.F.);
#666=ORIENTED_EDGE('',*,*,#926,.T.);
#667=ORIENTED_EDGE('',*,*,#924,.F.);
#668=ORIENTED_EDGE('',*,*,#929,.F.);
#669=ORIENTED_EDGE('',*,*,#816,.F.);
#670=ORIENTED_EDGE('',*,*,#928,.T.);
#671=ORIENTED_EDGE('',*,*,#813,.F.);
#672=ORIENTED_EDGE('',*,*,#930,.F.);
#673=ORIENTED_EDGE('',*,*,#909,.F.);
#674=ORIENTED_EDGE('',*,*,#929,.T.);
#675=ORIENTED_EDGE('',*,*,#921,.F.);
#676=ORIENTED_EDGE('',*,*,#931,.F.);
#677=ORIENTED_EDGE('',*,*,#817,.F.);
#678=ORIENTED_EDGE('',*,*,#930,.T.);
#679=ORIENTED_EDGE('',*,*,#812,.F.);
#680=ORIENTED_EDGE('',*,*,#932,.F.);
#681=ORIENTED_EDGE('',*,*,#912,.F.);
#682=ORIENTED_EDGE('',*,*,#931,.T.);
#683=ORIENTED_EDGE('',*,*,#918,.F.);
#684=ORIENTED_EDGE('',*,*,#933,.F.);
#685=ORIENTED_EDGE('',*,*,#810,.F.);
#686=ORIENTED_EDGE('',*,*,#932,.T.);
#687=ORIENTED_EDGE('',*,*,#811,.F.);
#688=ORIENTED_EDGE('',*,*,#933,.T.);
#689=ORIENTED_EDGE('',*,*,#915,.F.);
#690=ORIENTED_EDGE('',*,*,#934,.F.);
#691=ORIENTED_EDGE('',*,*,#894,.F.);
#692=ORIENTED_EDGE('',*,*,#935,.F.);
#693=ORIENTED_EDGE('',*,*,#862,.F.);
#694=ORIENTED_EDGE('',*,*,#935,.T.);
#695=ORIENTED_EDGE('',*,*,#893,.F.);
#696=ORIENTED_EDGE('',*,*,#936,.F.);
#697=ORIENTED_EDGE('',*,*,#864,.F.);
#698=ORIENTED_EDGE('',*,*,#934,.T.);
#699=ORIENTED_EDGE('',*,*,#865,.F.);
#700=ORIENTED_EDGE('',*,*,#937,.F.);
#701=ORIENTED_EDGE('',*,*,#895,.F.);
#702=ORIENTED_EDGE('',*,*,#936,.T.);
#703=ORIENTED_EDGE('',*,*,#892,.F.);
#704=ORIENTED_EDGE('',*,*,#938,.F.);
#705=ORIENTED_EDGE('',*,*,#853,.F.);
#706=ORIENTED_EDGE('',*,*,#937,.T.);
#707=ORIENTED_EDGE('',*,*,#859,.F.);
#708=ORIENTED_EDGE('',*,*,#939,.F.);
#709=ORIENTED_EDGE('',*,*,#896,.F.);
#710=ORIENTED_EDGE('',*,*,#938,.T.);
#711=ORIENTED_EDGE('',*,*,#891,.F.);
#712=ORIENTED_EDGE('',*,*,#940,.F.);
#713=ORIENTED_EDGE('',*,*,#866,.F.);
#714=ORIENTED_EDGE('',*,*,#939,.T.);
#715=ORIENTED_EDGE('',*,*,#867,.F.);
#716=ORIENTED_EDGE('',*,*,#941,.F.);
#717=ORIENTED_EDGE('',*,*,#889,.F.);
#718=ORIENTED_EDGE('',*,*,#940,.T.);
#719=ORIENTED_EDGE('',*,*,#890,.F.);
#720=ORIENTED_EDGE('',*,*,#941,.T.);
#721=ORIENTED_EDGE('',*,*,#856,.F.);
#722=VERTEX_POINT('',#1439);
#723=VERTEX_POINT('',#1440);
#724=VERTEX_POINT('',#1442);
#725=VERTEX_POINT('',#1444);
#726=VERTEX_POINT('',#1446);
#727=VERTEX_POINT('',#1448);
#728=VERTEX_POINT('',#1450);
#729=VERTEX_POINT('',#1452);
#730=VERTEX_POINT('',#1455);
#731=VERTEX_POINT('',#1456);
#732=VERTEX_POINT('',#1458);
#733=VERTEX_POINT('',#1460);
#734=VERTEX_POINT('',#1462);
#735=VERTEX_POINT('',#1464);
#736=VERTEX_POINT('',#1466);
#737=VERTEX_POINT('',#1468);
#738=VERTEX_POINT('',#1472);
#739=VERTEX_POINT('',#1474);
#740=VERTEX_POINT('',#1477);
#741=VERTEX_POINT('',#1479);
#742=VERTEX_POINT('',#1482);
#743=VERTEX_POINT('',#1484);
#744=VERTEX_POINT('',#1487);
#745=VERTEX_POINT('',#1489);
#746=VERTEX_POINT('',#1492);
#747=VERTEX_POINT('',#1494);
#748=VERTEX_POINT('',#1497);
#749=VERTEX_POINT('',#1499);
#750=VERTEX_POINT('',#1502);
#751=VERTEX_POINT('',#1504);
#752=VERTEX_POINT('',#1507);
#753=VERTEX_POINT('',#1508);
#754=VERTEX_POINT('',#1510);
#755=VERTEX_POINT('',#1512);
#756=VERTEX_POINT('',#1516);
#757=VERTEX_POINT('',#1517);
#758=VERTEX_POINT('',#1522);
#759=VERTEX_POINT('',#1523);
#760=VERTEX_POINT('',#1531);
#761=VERTEX_POINT('',#1533);
#762=VERTEX_POINT('',#1537);
#763=VERTEX_POINT('',#1539);
#764=VERTEX_POINT('',#1543);
#765=VERTEX_POINT('',#1545);
#766=VERTEX_POINT('',#1549);
#767=VERTEX_POINT('',#1551);
#768=VERTEX_POINT('',#1563);
#769=VERTEX_POINT('',#1565);
#770=VERTEX_POINT('',#1566);
#771=VERTEX_POINT('',#1568);
#772=VERTEX_POINT('',#1570);
#773=VERTEX_POINT('',#1572);
#774=VERTEX_POINT('',#1574);
#775=VERTEX_POINT('',#1576);
#776=VERTEX_POINT('',#1578);
#777=VERTEX_POINT('',#1582);
#778=VERTEX_POINT('',#1584);
#779=VERTEX_POINT('',#1588);
#780=VERTEX_POINT('',#1590);
#781=VERTEX_POINT('',#1594);
#782=VERTEX_POINT('',#1595);
#783=VERTEX_POINT('',#1600);
#784=VERTEX_POINT('',#1601);
#785=VERTEX_POINT('',#1606);
#786=VERTEX_POINT('',#1607);
#787=VERTEX_POINT('',#1609);
#788=VERTEX_POINT('',#1611);
#789=VERTEX_POINT('',#1613);
#790=VERTEX_POINT('',#1615);
#791=VERTEX_POINT('',#1617);
#792=VERTEX_POINT('',#1619);
#793=VERTEX_POINT('',#1622);
#794=VERTEX_POINT('',#1634);
#795=VERTEX_POINT('',#1635);
#796=VERTEX_POINT('',#1637);
#797=VERTEX_POINT('',#1639);
#798=VERTEX_POINT('',#1643);
#799=VERTEX_POINT('',#1645);
#800=VERTEX_POINT('',#1649);
#801=VERTEX_POINT('',#1651);
#802=VERTEX_POINT('',#1655);
#803=VERTEX_POINT('',#1657);
#804=VERTEX_POINT('',#1661);
#805=VERTEX_POINT('',#1663);
#806=VERTEX_POINT('',#1667);
#807=VERTEX_POINT('',#1669);
#808=VERTEX_POINT('',#1673);
#809=VERTEX_POINT('',#1675);
#810=EDGE_CURVE('',#722,#723,#942,.T.);
#811=EDGE_CURVE('',#723,#724,#322,.T.);
#812=EDGE_CURVE('',#724,#725,#943,.T.);
#813=EDGE_CURVE('',#725,#726,#323,.T.);
#814=EDGE_CURVE('',#726,#727,#944,.T.);
#815=EDGE_CURVE('',#727,#728,#324,.T.);
#816=EDGE_CURVE('',#728,#729,#945,.T.);
#817=EDGE_CURVE('',#729,#722,#325,.T.);
#818=EDGE_CURVE('',#730,#731,#326,.T.);
#819=EDGE_CURVE('',#731,#732,#946,.T.);
#820=EDGE_CURVE('',#732,#733,#327,.T.);
#821=EDGE_CURVE('',#733,#734,#947,.T.);
#822=EDGE_CURVE('',#734,#735,#328,.T.);
#823=EDGE_CURVE('',#735,#736,#948,.T.);
#824=EDGE_CURVE('',#736,#737,#329,.T.);
#825=EDGE_CURVE('',#737,#730,#949,.T.);
#826=EDGE_CURVE('',#738,#738,#950,.T.);
#827=EDGE_CURVE('',#739,#739,#951,.T.);
#828=EDGE_CURVE('',#740,#740,#952,.T.);
#829=EDGE_CURVE('',#741,#741,#953,.T.);
#830=EDGE_CURVE('',#742,#742,#954,.T.);
#831=EDGE_CURVE('',#743,#743,#955,.T.);
#832=EDGE_CURVE('',#744,#744,#956,.T.);
#833=EDGE_CURVE('',#745,#745,#957,.T.);
#834=EDGE_CURVE('',#746,#746,#958,.T.);
#835=EDGE_CURVE('',#747,#747,#959,.T.);
#836=EDGE_CURVE('',#748,#748,#960,.T.);
#837=EDGE_CURVE('',#749,#749,#961,.T.);
#838=EDGE_CURVE('',#750,#750,#962,.T.);
#839=EDGE_CURVE('',#751,#751,#963,.T.);
#840=EDGE_CURVE('',#752,#753,#330,.T.);
#841=EDGE_CURVE('',#752,#754,#331,.T.);
#842=EDGE_CURVE('',#754,#755,#332,.T.);
#843=EDGE_CURVE('',#755,#753,#333,.T.);
#844=EDGE_CURVE('',#756,#757,#334,.T.);
#845=EDGE_CURVE('',#756,#752,#335,.T.);
#846=EDGE_CURVE('',#753,#757,#336,.T.);
#847=EDGE_CURVE('',#758,#759,#337,.T.);
#848=EDGE_CURVE('',#758,#756,#338,.T.);
#849=EDGE_CURVE('',#757,#759,#339,.T.);
#850=EDGE_CURVE('',#754,#758,#340,.T.);
#851=EDGE_CURVE('',#759,#755,#341,.T.);
#852=EDGE_CURVE('',#734,#760,#342,.T.);
#853=EDGE_CURVE('',#760,#761,#343,.T.);
#854=EDGE_CURVE('',#761,#735,#344,.T.);
#855=EDGE_CURVE('',#736,#762,#345,.T.);
#856=EDGE_CURVE('',#762,#763,#346,.T.);
#857=EDGE_CURVE('',#763,#737,#347,.T.);
#858=EDGE_CURVE('',#730,#764,#348,.T.);
#859=EDGE_CURVE('',#764,#765,#349,.T.);
#860=EDGE_CURVE('',#765,#731,#350,.T.);
#861=EDGE_CURVE('',#732,#766,#351,.T.);
#862=EDGE_CURVE('',#766,#767,#352,.T.);
#863=EDGE_CURVE('',#767,#733,#353,.T.);
#864=EDGE_CURVE('',#767,#760,#964,.T.);
#865=EDGE_CURVE('',#765,#766,#965,.T.);
#866=EDGE_CURVE('',#761,#762,#966,.T.);
#867=EDGE_CURVE('',#763,#764,#967,.T.);
#868=EDGE_CURVE('',#768,#768,#968,.T.);
#869=EDGE_CURVE('',#769,#770,#354,.T.);
#870=EDGE_CURVE('',#770,#771,#969,.T.);
#871=EDGE_CURVE('',#771,#772,#355,.T.);
#872=EDGE_CURVE('',#772,#773,#970,.T.);
#873=EDGE_CURVE('',#773,#774,#356,.T.);
#874=EDGE_CURVE('',#774,#775,#971,.T.);
#875=EDGE_CURVE('',#775,#776,#357,.T.);
#876=EDGE_CURVE('',#776,#769,#972,.T.);
#877=EDGE_CURVE('',#775,#777,#358,.T.);
#878=EDGE_CURVE('',#778,#777,#359,.T.);
#879=EDGE_CURVE('',#778,#776,#360,.T.);
#880=EDGE_CURVE('',#769,#779,#361,.T.);
#881=EDGE_CURVE('',#779,#780,#362,.T.);
#882=EDGE_CURVE('',#780,#770,#363,.T.);
#883=EDGE_CURVE('',#781,#782,#364,.T.);
#884=EDGE_CURVE('',#782,#772,#365,.T.);
#885=EDGE_CURVE('',#771,#781,#366,.T.);
#886=EDGE_CURVE('',#783,#784,#367,.T.);
#887=EDGE_CURVE('',#783,#774,#368,.T.);
#888=EDGE_CURVE('',#773,#784,#369,.T.);
#889=EDGE_CURVE('',#785,#786,#973,.T.);
#890=EDGE_CURVE('',#786,#787,#370,.T.);
#891=EDGE_CURVE('',#787,#788,#974,.T.);
#892=EDGE_CURVE('',#788,#789,#371,.T.);
#893=EDGE_CURVE('',#789,#790,#975,.T.);
#894=EDGE_CURVE('',#790,#791,#372,.T.);
#895=EDGE_CURVE('',#791,#792,#976,.T.);
#896=EDGE_CURVE('',#792,#785,#373,.T.);
#897=EDGE_CURVE('',#793,#793,#977,.T.);
#898=EDGE_CURVE('',#777,#783,#978,.T.);
#899=EDGE_CURVE('',#784,#782,#979,.T.);
#900=EDGE_CURVE('',#781,#780,#980,.T.);
#901=EDGE_CURVE('',#779,#778,#981,.T.);
#902=EDGE_CURVE('',#794,#795,#374,.T.);
#903=EDGE_CURVE('',#794,#796,#375,.T.);
#904=EDGE_CURVE('',#796,#797,#376,.T.);
#905=EDGE_CURVE('',#795,#797,#377,.T.);
#906=EDGE_CURVE('',#796,#798,#982,.T.);
#907=EDGE_CURVE('',#798,#799,#378,.T.);
#908=EDGE_CURVE('',#797,#799,#983,.T.);
#909=EDGE_CURVE('',#798,#800,#379,.T.);
#910=EDGE_CURVE('',#800,#801,#380,.T.);
#911=EDGE_CURVE('',#799,#801,#381,.T.);
#912=EDGE_CURVE('',#800,#802,#984,.T.);
#913=EDGE_CURVE('',#802,#803,#382,.T.);
#914=EDGE_CURVE('',#801,#803,#985,.T.);
#915=EDGE_CURVE('',#802,#804,#383,.T.);
#916=EDGE_CURVE('',#804,#805,#384,.T.);
#917=EDGE_CURVE('',#803,#805,#385,.T.);
#918=EDGE_CURVE('',#804,#806,#986,.T.);
#919=EDGE_CURVE('',#806,#807,#386,.T.);
#920=EDGE_CURVE('',#805,#807,#987,.T.);
#921=EDGE_CURVE('',#806,#808,#387,.T.);
#922=EDGE_CURVE('',#808,#809,#388,.T.);
#923=EDGE_CURVE('',#807,#809,#389,.T.);
#924=EDGE_CURVE('',#808,#794,#988,.T.);
#925=EDGE_CURVE('',#809,#795,#989,.T.);
#926=EDGE_CURVE('',#728,#794,#990,.T.);
#927=EDGE_CURVE('',#796,#727,#991,.T.);
#928=EDGE_CURVE('',#798,#726,#992,.T.);
#929=EDGE_CURVE('',#729,#808,#993,.T.);
#930=EDGE_CURVE('',#800,#725,#994,.T.);
#931=EDGE_CURVE('',#722,#806,#995,.T.);
#932=EDGE_CURVE('',#802,#724,#996,.T.);
#933=EDGE_CURVE('',#723,#804,#997,.T.);
#934=EDGE_CURVE('',#791,#766,#998,.T.);
#935=EDGE_CURVE('',#767,#790,#999,.T.);
#936=EDGE_CURVE('',#760,#789,#1000,.T.);
#937=EDGE_CURVE('',#792,#765,#1001,.T.);
#938=EDGE_CURVE('',#761,#788,#1002,.T.);
#939=EDGE_CURVE('',#785,#764,#1003,.T.);
#940=EDGE_CURVE('',#762,#787,#1004,.T.);
#941=EDGE_CURVE('',#786,#763,#1005,.T.);
#942=CIRCLE('',#1007,17.);
#943=CIRCLE('',#1008,17.);
#944=CIRCLE('',#1009,17.);
#945=CIRCLE('',#1010,17.);
#946=CIRCLE('',#1011,10.);
#947=CIRCLE('',#1012,10.);
#948=CIRCLE('',#1013,10.);
#949=CIRCLE('',#1014,10.);
#950=CIRCLE('',#1016,7.2235);
#951=CIRCLE('',#1017,7.2235);
#952=CIRCLE('',#1019,7.2235);
#953=CIRCLE('',#1020,7.2235);
#954=CIRCLE('',#1022,7.2235);
#955=CIRCLE('',#1023,7.2235);
#956=CIRCLE('',#1025,7.2235);
#957=CIRCLE('',#1026,7.2235);
#958=CIRCLE('',#1028,7.2235);
#959=CIRCLE('',#1029,7.2235);
#960=CIRCLE('',#1031,7.2235);
#961=CIRCLE('',#1032,7.2235);
#962=CIRCLE('',#1034,7.2235);
#963=CIRCLE('',#1035,7.2235);
#964=CIRCLE('',#1045,10.);
#965=CIRCLE('',#1047,10.);
#966=CIRCLE('',#1049,10.);
#967=CIRCLE('',#1051,10.);
#968=CIRCLE('',#1053,7.2235);
#969=CIRCLE('',#1054,10.);
#970=CIRCLE('',#1055,10.);
#971=CIRCLE('',#1056,10.);
#972=CIRCLE('',#1057,10.);
#973=CIRCLE('',#1063,7.);
#974=CIRCLE('',#1064,7.);
#975=CIRCLE('',#1065,7.);
#976=CIRCLE('',#1066,7.);
#977=CIRCLE('',#1067,7.2235);
#978=CIRCLE('',#1068,10.);
#979=CIRCLE('',#1069,10.);
#980=CIRCLE('',#1070,10.);
#981=CIRCLE('',#1071,10.);
#982=CIRCLE('',#1079,20.);
#983=CIRCLE('',#1080,20.);
#984=CIRCLE('',#1083,20.);
#985=CIRCLE('',#1084,20.);
#986=CIRCLE('',#1087,20.);
#987=CIRCLE('',#1088,20.);
#988=CIRCLE('',#1091,20.);
#989=CIRCLE('',#1092,20.);
#990=CIRCLE('',#1095,3.);
#991=CIRCLE('',#1096,3.);
#992=CIRCLE('',#1098,3.);
#993=CIRCLE('',#1100,3.);
#994=CIRCLE('',#1102,3.);
#995=CIRCLE('',#1104,3.);
#996=CIRCLE('',#1106,3.);
#997=CIRCLE('',#1108,3.);
#998=CIRCLE('',#1111,3.);
#999=CIRCLE('',#1112,3.);
#1000=CIRCLE('',#1114,3.);
#1001=CIRCLE('',#1116,3.);
#1002=CIRCLE('',#1118,3.);
#1003=CIRCLE('',#1120,3.);
#1004=CIRCLE('',#1122,3.);
#1005=CIRCLE('',#1124,3.);
#1006=AXIS2_PLACEMENT_3D('',#1437,#1127,#1128);
#1007=AXIS2_PLACEMENT_3D('',#1438,#1129,#1130);
#1008=AXIS2_PLACEMENT_3D('',#1443,#1132,#1133);
#1009=AXIS2_PLACEMENT_3D('',#1447,#1135,#1136);
#1010=AXIS2_PLACEMENT_3D('',#1451,#1138,#1139);
#1011=AXIS2_PLACEMENT_3D('',#1457,#1142,#1143);
#1012=AXIS2_PLACEMENT_3D('',#1461,#1145,#1146);
#1013=AXIS2_PLACEMENT_3D('',#1465,#1148,#1149);
#1014=AXIS2_PLACEMENT_3D('',#1469,#1151,#1152);
#1015=AXIS2_PLACEMENT_3D('',#1470,#1153,#1154);
#1016=AXIS2_PLACEMENT_3D('',#1471,#1155,#1156);
#1017=AXIS2_PLACEMENT_3D('',#1473,#1157,#1158);
#1018=AXIS2_PLACEMENT_3D('',#1475,#1159,#1160);
#1019=AXIS2_PLACEMENT_3D('',#1476,#1161,#1162);
#1020=AXIS2_PLACEMENT_3D('',#1478,#1163,#1164);
#1021=AXIS2_PLACEMENT_3D('',#1480,#1165,#1166);
#1022=AXIS2_PLACEMENT_3D('',#1481,#1167,#1168);
#1023=AXIS2_PLACEMENT_3D('',#1483,#1169,#1170);
#1024=AXIS2_PLACEMENT_3D('',#1485,#1171,#1172);
#1025=AXIS2_PLACEMENT_3D('',#1486,#1173,#1174);
#1026=AXIS2_PLACEMENT_3D('',#1488,#1175,#1176);
#1027=AXIS2_PLACEMENT_3D('',#1490,#1177,#1178);
#1028=AXIS2_PLACEMENT_3D('',#1491,#1179,#1180);
#1029=AXIS2_PLACEMENT_3D('',#1493,#1181,#1182);
#1030=AXIS2_PLACEMENT_3D('',#1495,#1183,#1184);
#1031=AXIS2_PLACEMENT_3D('',#1496,#1185,#1186);
#1032=AXIS2_PLACEMENT_3D('',#1498,#1187,#1188);
#1033=AXIS2_PLACEMENT_3D('',#1500,#1189,#1190);
#1034=AXIS2_PLACEMENT_3D('',#1501,#1191,#1192);
#1035=AXIS2_PLACEMENT_3D('',#1503,#1193,#1194);
#1036=AXIS2_PLACEMENT_3D('',#1505,#1195,#1196);
#1037=AXIS2_PLACEMENT_3D('',#1514,#1201,#1202);
#1038=AXIS2_PLACEMENT_3D('',#1520,#1206,#1207);
#1039=AXIS2_PLACEMENT_3D('',#1526,#1211,#1212);
#1040=AXIS2_PLACEMENT_3D('',#1529,#1215,#1216);
#1041=AXIS2_PLACEMENT_3D('',#1535,#1220,#1221);
#1042=AXIS2_PLACEMENT_3D('',#1541,#1225,#1226);
#1043=AXIS2_PLACEMENT_3D('',#1547,#1230,#1231);
#1044=AXIS2_PLACEMENT_3D('',#1553,#1235,#1236);
#1045=AXIS2_PLACEMENT_3D('',#1554,#1237,#1238);
#1046=AXIS2_PLACEMENT_3D('',#1555,#1239,#1240);
#1047=AXIS2_PLACEMENT_3D('',#1556,#1241,#1242);
#1048=AXIS2_PLACEMENT_3D('',#1557,#1243,#1244);
#1049=AXIS2_PLACEMENT_3D('',#1558,#1245,#1246);
#1050=AXIS2_PLACEMENT_3D('',#1559,#1247,#1248);
#1051=AXIS2_PLACEMENT_3D('',#1560,#1249,#1250);
#1052=AXIS2_PLACEMENT_3D('',#1561,#1251,#1252);
#1053=AXIS2_PLACEMENT_3D('',#1562,#1253,#1254);
#1054=AXIS2_PLACEMENT_3D('',#1567,#1256,#1257);
#1055=AXIS2_PLACEMENT_3D('',#1571,#1259,#1260);
#1056=AXIS2_PLACEMENT_3D('',#1575,#1262,#1263);
#1057=AXIS2_PLACEMENT_3D('',#1579,#1265,#1266);
#1058=AXIS2_PLACEMENT_3D('',#1580,#1267,#1268);
#1059=AXIS2_PLACEMENT_3D('',#1586,#1272,#1273);
#1060=AXIS2_PLACEMENT_3D('',#1592,#1277,#1278);
#1061=AXIS2_PLACEMENT_3D('',#1598,#1282,#1283);
#1062=AXIS2_PLACEMENT_3D('',#1604,#1287,#1288);
#1063=AXIS2_PLACEMENT_3D('',#1605,#1289,#1290);
#1064=AXIS2_PLACEMENT_3D('',#1610,#1292,#1293);
#1065=AXIS2_PLACEMENT_3D('',#1614,#1295,#1296);
#1066=AXIS2_PLACEMENT_3D('',#1618,#1298,#1299);
#1067=AXIS2_PLACEMENT_3D('',#1621,#1301,#1302);
#1068=AXIS2_PLACEMENT_3D('',#1623,#1303,#1304);
#1069=AXIS2_PLACEMENT_3D('',#1624,#1305,#1306);
#1070=AXIS2_PLACEMENT_3D('',#1625,#1307,#1308);
#1071=AXIS2_PLACEMENT_3D('',#1626,#1309,#1310);
#1072=AXIS2_PLACEMENT_3D('',#1627,#1311,#1312);
#1073=AXIS2_PLACEMENT_3D('',#1628,#1313,#1314);
#1074=AXIS2_PLACEMENT_3D('',#1629,#1315,#1316);
#1075=AXIS2_PLACEMENT_3D('',#1630,#1317,#1318);
#1076=AXIS2_PLACEMENT_3D('',#1631,#1319,#1320);
#1077=AXIS2_PLACEMENT_3D('',#1632,#1321,#1322);
#1078=AXIS2_PLACEMENT_3D('',#1641,#1327,#1328);
#1079=AXIS2_PLACEMENT_3D('',#1642,#1329,#1330);
#1080=AXIS2_PLACEMENT_3D('',#1646,#1332,#1333);
#1081=AXIS2_PLACEMENT_3D('',#1647,#1334,#1335);
#1082=AXIS2_PLACEMENT_3D('',#1653,#1339,#1340);
#1083=AXIS2_PLACEMENT_3D('',#1654,#1341,#1342);
#1084=AXIS2_PLACEMENT_3D('',#1658,#1344,#1345);
#1085=AXIS2_PLACEMENT_3D('',#1659,#1346,#1347);
#1086=AXIS2_PLACEMENT_3D('',#1665,#1351,#1352);
#1087=AXIS2_PLACEMENT_3D('',#1666,#1353,#1354);
#1088=AXIS2_PLACEMENT_3D('',#1670,#1356,#1357);
#1089=AXIS2_PLACEMENT_3D('',#1671,#1358,#1359);
#1090=AXIS2_PLACEMENT_3D('',#1677,#1363,#1364);
#1091=AXIS2_PLACEMENT_3D('',#1678,#1365,#1366);
#1092=AXIS2_PLACEMENT_3D('',#1679,#1367,#1368);
#1093=AXIS2_PLACEMENT_3D('',#1680,#1369,#1370);
#1094=AXIS2_PLACEMENT_3D('',#1681,#1371,#1372);
#1095=AXIS2_PLACEMENT_3D('',#1682,#1373,#1374);
#1096=AXIS2_PLACEMENT_3D('',#1683,#1375,#1376);
#1097=AXIS2_PLACEMENT_3D('',#1684,#1377,#1378);
#1098=AXIS2_PLACEMENT_3D('',#1685,#1379,#1380);
#1099=AXIS2_PLACEMENT_3D('',#1686,#1381,#1382);
#1100=AXIS2_PLACEMENT_3D('',#1687,#1383,#1384);
#1101=AXIS2_PLACEMENT_3D('',#1688,#1385,#1386);
#1102=AXIS2_PLACEMENT_3D('',#1689,#1387,#1388);
#1103=AXIS2_PLACEMENT_3D('',#1690,#1389,#1390);
#1104=AXIS2_PLACEMENT_3D('',#1691,#1391,#1392);
#1105=AXIS2_PLACEMENT_3D('',#1692,#1393,#1394);
#1106=AXIS2_PLACEMENT_3D('',#1693,#1395,#1396);
#1107=AXIS2_PLACEMENT_3D('',#1694,#1397,#1398);
#1108=AXIS2_PLACEMENT_3D('',#1695,#1399,#1400);
#1109=AXIS2_PLACEMENT_3D('',#1696,#1401,#1402);
#1110=AXIS2_PLACEMENT_3D('',#1697,#1403,#1404);
#1111=AXIS2_PLACEMENT_3D('',#1698,#1405,#1406);
#1112=AXIS2_PLACEMENT_3D('',#1699,#1407,#1408);
#1113=AXIS2_PLACEMENT_3D('',#1700,#1409,#1410);
#1114=AXIS2_PLACEMENT_3D('',#1701,#1411,#1412);
#1115=AXIS2_PLACEMENT_3D('',#1702,#1413,#1414);
#1116=AXIS2_PLACEMENT_3D('',#1703,#1415,#1416);
#1117=AXIS2_PLACEMENT_3D('',#1704,#1417,#1418);
#1118=AXIS2_PLACEMENT_3D('',#1705,#1419,#1420);
#1119=AXIS2_PLACEMENT_3D('',#1706,#1421,#1422);
#1120=AXIS2_PLACEMENT_3D('',#1707,#1423,#1424);
#1121=AXIS2_PLACEMENT_3D('',#1708,#1425,#1426);
#1122=AXIS2_PLACEMENT_3D('',#1709,#1427,#1428);
#1123=AXIS2_PLACEMENT_3D('',#1710,#1429,#1430);
#1124=AXIS2_PLACEMENT_3D('',#1711,#1431,#1432);
#1125=AXIS2_PLACEMENT_3D('',#1712,#1433,#1434);
#1126=AXIS2_PLACEMENT_3D('',#1713,#1435,#1436);
#1127=DIRECTION('',(0.,0.,1.));
#1128=DIRECTION('',(1.,0.,0.));
#1129=DIRECTION('',(0.,0.,1.));
#1130=DIRECTION('',(1.,0.,0.));
#1131=DIRECTION('',(0.,-1.,0.));
#1132=DIRECTION('',(0.,0.,1.));
#1133=DIRECTION('',(1.,0.,0.));
#1134=DIRECTION('',(1.,0.,0.));
#1135=DIRECTION('',(0.,0.,1.));
#1136=DIRECTION('',(0.999999999999999,0.,0.));
#1137=DIRECTION('',(0.,1.,0.));
#1138=DIRECTION('',(0.,0.,1.));
#1139=DIRECTION('',(0.999999999999999,0.,0.));
#1140=DIRECTION('',(-1.,0.,0.));
#1141=DIRECTION('',(1.,0.,0.));
#1142=DIRECTION('',(0.,0.,-1.));
#1143=DIRECTION('',(1.,0.,0.));
#1144=DIRECTION('',(0.,-1.,0.));
#1145=DIRECTION('',(0.,0.,-1.));
#1146=DIRECTION('',(1.,0.,0.));
#1147=DIRECTION('',(-1.,0.,0.));
#1148=DIRECTION('',(0.,0.,-1.));
#1149=DIRECTION('',(1.,0.,0.));
#1150=DIRECTION('',(0.,1.,0.));
#1151=DIRECTION('',(0.,0.,-1.));
#1152=DIRECTION('',(1.,0.,0.));
#1153=DIRECTION('',(0.,0.,1.));
#1154=DIRECTION('',(1.,0.,0.));
#1155=DIRECTION('',(0.,0.,-1.));
#1156=DIRECTION('',(-0.999999999999999,0.,0.));
#1157=DIRECTION('',(0.,0.,-1.));
#1158=DIRECTION('',(-0.999999999999999,0.,0.));
#1159=DIRECTION('',(0.,0.,-1.));
#1160=DIRECTION('',(-0.999999999999999,0.,0.));
#1161=DIRECTION('',(0.,0.,-1.));
#1162=DIRECTION('',(-0.999999999999999,0.,0.));
#1163=DIRECTION('',(0.,0.,-1.));
#1164=DIRECTION('',(-0.999999999999999,0.,0.));
#1165=DIRECTION('',(0.,0.,-1.));
#1166=DIRECTION('',(-0.999999999999999,0.,0.));
#1167=DIRECTION('',(0.,0.,-1.));
#1168=DIRECTION('',(-0.999999999999999,0.,0.));
#1169=DIRECTION('',(0.,0.,-1.));
#1170=DIRECTION('',(-0.999999999999999,0.,0.));
#1171=DIRECTION('',(0.,0.,-1.));
#1172=DIRECTION('',(-0.999999999999999,0.,0.));
#1173=DIRECTION('',(0.,0.,-1.));
#1174=DIRECTION('',(-0.999999999999999,0.,0.));
#1175=DIRECTION('',(0.,0.,-1.));
#1176=DIRECTION('',(-0.999999999999999,0.,0.));
#1177=DIRECTION('',(0.,0.,-1.));
#1178=DIRECTION('',(-0.999999999999999,0.,0.));
#1179=DIRECTION('',(0.,0.,-1.));
#1180=DIRECTION('',(-0.999999999999999,0.,0.));
#1181=DIRECTION('',(0.,0.,-1.));
#1182=DIRECTION('',(-0.999999999999999,0.,0.));
#1183=DIRECTION('',(0.,0.,-1.));
#1184=DIRECTION('',(-0.999999999999999,0.,0.));
#1185=DIRECTION('',(0.,0.,-1.));
#1186=DIRECTION('',(-0.999999999999999,0.,0.));
#1187=DIRECTION('',(0.,0.,-1.));
#1188=DIRECTION('',(-0.999999999999999,0.,0.));
#1189=DIRECTION('',(0.,0.,-1.));
#1190=DIRECTION('',(-0.999999999999999,0.,0.));
#1191=DIRECTION('',(0.,0.,-1.));
#1192=DIRECTION('',(-1.,0.,0.));
#1193=DIRECTION('',(0.,0.,-1.));
#1194=DIRECTION('',(-1.,0.,0.));
#1195=DIRECTION('',(0.,0.,-1.));
#1196=DIRECTION('',(-1.,0.,0.));
#1197=DIRECTION('',(0.,0.,1.));
#1198=DIRECTION('',(1.,0.,0.));
#1199=DIRECTION('',(0.,0.,1.));
#1200=DIRECTION('',(-1.,0.,0.));
#1201=DIRECTION('',(0.,-1.,0.));
#1202=DIRECTION('',(0.,0.,-1.));
#1203=DIRECTION('',(0.,0.,1.));
#1204=DIRECTION('',(0.,-1.,0.));
#1205=DIRECTION('',(0.,1.,0.));
#1206=DIRECTION('',(-1.,0.,0.));
#1207=DIRECTION('',(0.,0.,1.));
#1208=DIRECTION('',(0.,0.,1.));
#1209=DIRECTION('',(-1.,0.,0.));
#1210=DIRECTION('',(1.,0.,0.));
#1211=DIRECTION('',(0.,1.,0.));
#1212=DIRECTION('',(0.,0.,1.));
#1213=DIRECTION('',(0.,1.,0.));
#1214=DIRECTION('',(0.,-1.,0.));
#1215=DIRECTION('',(1.,0.,0.));
#1216=DIRECTION('',(0.,0.,-1.));
#1217=DIRECTION('',(0.,0.,-1.));
#1218=DIRECTION('',(-1.,0.,0.));
#1219=DIRECTION('',(0.,0.,1.));
#1220=DIRECTION('',(0.,-1.,0.));
#1221=DIRECTION('',(0.,0.,-1.));
#1222=DIRECTION('',(0.,0.,-1.));
#1223=DIRECTION('',(0.,1.,0.));
#1224=DIRECTION('',(0.,0.,1.));
#1225=DIRECTION('',(-1.,0.,0.));
#1226=DIRECTION('',(0.,0.,1.));
#1227=DIRECTION('',(0.,0.,-1.));
#1228=DIRECTION('',(1.,0.,0.));
#1229=DIRECTION('',(0.,0.,1.));
#1230=DIRECTION('',(0.,1.,0.));
#1231=DIRECTION('',(0.,0.,1.));
#1232=DIRECTION('',(0.,0.,-1.));
#1233=DIRECTION('',(0.,-1.,0.));
#1234=DIRECTION('',(0.,0.,1.));
#1235=DIRECTION('',(1.,0.,0.));
#1236=DIRECTION('',(0.,0.,-1.));
#1237=DIRECTION('',(0.,0.,-1.));
#1238=DIRECTION('',(-1.,0.,0.));
#1239=DIRECTION('',(0.,0.,-1.));
#1240=DIRECTION('',(-1.,0.,0.));
#1241=DIRECTION('',(0.,0.,-1.));
#1242=DIRECTION('',(-1.,0.,0.));
#1243=DIRECTION('',(0.,0.,-1.));
#1244=DIRECTION('',(-1.,0.,0.));
#1245=DIRECTION('',(0.,0.,-1.));
#1246=DIRECTION('',(-1.,0.,0.));
#1247=DIRECTION('',(0.,0.,-1.));
#1248=DIRECTION('',(-1.,0.,0.));
#1249=DIRECTION('',(0.,0.,-1.));
#1250=DIRECTION('',(-1.,0.,0.));
#1251=DIRECTION('',(0.,0.,-1.));
#1252=DIRECTION('',(-1.,0.,0.));
#1253=DIRECTION('',(0.,0.,-1.));
#1254=DIRECTION('',(-1.,0.,0.));
#1255=DIRECTION('',(-1.,0.,0.));
#1256=DIRECTION('',(0.,0.,1.));
#1257=DIRECTION('',(-1.,0.,0.));
#1258=DIRECTION('',(0.,-1.,0.));
#1259=DIRECTION('',(0.,0.,1.));
#1260=DIRECTION('',(-1.,0.,0.));
#1261=DIRECTION('',(1.,0.,0.));
#1262=DIRECTION('',(0.,0.,1.));
#1263=DIRECTION('',(-1.,0.,0.));
#1264=DIRECTION('',(0.,1.,0.));
#1265=DIRECTION('',(0.,0.,1.));
#1266=DIRECTION('',(-1.,0.,0.));
#1267=DIRECTION('',(0.,0.,-1.));
#1268=DIRECTION('',(-1.,0.,0.));
#1269=DIRECTION('',(0.,0.,1.));
#1270=DIRECTION('',(0.,-1.,0.));
#1271=DIRECTION('',(0.,0.,-1.));
#1272=DIRECTION('',(1.,0.,0.));
#1273=DIRECTION('',(0.,0.,-1.));
#1274=DIRECTION('',(0.,0.,1.));
#1275=DIRECTION('',(-1.,0.,0.));
#1276=DIRECTION('',(0.,0.,-1.));
#1277=DIRECTION('',(0.,1.,0.));
#1278=DIRECTION('',(0.,0.,1.));
#1279=DIRECTION('',(0.,-1.,0.));
#1280=DIRECTION('',(0.,0.,-1.));
#1281=DIRECTION('',(0.,0.,1.));
#1282=DIRECTION('',(-1.,0.,0.));
#1283=DIRECTION('',(0.,0.,1.));
#1284=DIRECTION('',(-1.,0.,0.));
#1285=DIRECTION('',(0.,0.,-1.));
#1286=DIRECTION('',(0.,0.,1.));
#1287=DIRECTION('',(0.,-1.,0.));
#1288=DIRECTION('',(0.,0.,-1.));
#1289=DIRECTION('',(0.,0.,1.));
#1290=DIRECTION('',(-1.,0.,0.));
#1291=DIRECTION('',(0.,-1.,0.));
#1292=DIRECTION('',(0.,0.,1.));
#1293=DIRECTION('',(-1.,0.,0.));
#1294=DIRECTION('',(1.,0.,0.));
#1295=DIRECTION('',(0.,0.,1.));
#1296=DIRECTION('',(-1.,0.,0.));
#1297=DIRECTION('',(0.,1.,0.));
#1298=DIRECTION('',(0.,0.,1.));
#1299=DIRECTION('',(-1.,0.,0.));
#1300=DIRECTION('',(-1.,0.,0.));
#1301=DIRECTION('',(0.,0.,-1.));
#1302=DIRECTION('',(-1.,0.,0.));
#1303=DIRECTION('',(0.,0.,-1.));
#1304=DIRECTION('',(-1.,0.,0.));
#1305=DIRECTION('',(0.,0.,-1.));
#1306=DIRECTION('',(-1.,0.,0.));
#1307=DIRECTION('',(0.,0.,-1.));
#1308=DIRECTION('',(-1.,0.,0.));
#1309=DIRECTION('',(0.,0.,-1.));
#1310=DIRECTION('',(-1.,0.,0.));
#1311=DIRECTION('',(0.,0.,-1.));
#1312=DIRECTION('',(-1.,0.,0.));
#1313=DIRECTION('',(0.,0.,-1.));
#1314=DIRECTION('',(-1.,0.,0.));
#1315=DIRECTION('',(0.,0.,-1.));
#1316=DIRECTION('',(-1.,0.,0.));
#1317=DIRECTION('',(0.,0.,-1.));
#1318=DIRECTION('',(-1.,0.,0.));
#1319=DIRECTION('',(0.,0.,-1.));
#1320=DIRECTION('',(-1.,0.,0.));
#1321=DIRECTION('',(0.,0.,-1.));
#1322=DIRECTION('',(-1.,0.,0.));
#1323=DIRECTION('',(0.,0.,1.));
#1324=DIRECTION('',(0.,-1.,0.));
#1325=DIRECTION('',(0.,0.,1.));
#1326=DIRECTION('',(0.,-1.,0.));
#1327=DIRECTION('',(-1.,0.,0.));
#1328=DIRECTION('',(0.,-1.,0.));
#1329=DIRECTION('',(0.,0.,-1.));
#1330=DIRECTION('',(0.999999999999999,0.,0.));
#1331=DIRECTION('',(0.,0.,1.));
#1332=DIRECTION('',(0.,0.,-1.));
#1333=DIRECTION('',(0.999999999999999,0.,0.));
#1334=DIRECTION('',(0.,0.,1.));
#1335=DIRECTION('',(0.999999999999999,0.,0.));
#1336=DIRECTION('',(-1.,0.,0.));
#1337=DIRECTION('',(0.,0.,1.));
#1338=DIRECTION('',(-1.,0.,0.));
#1339=DIRECTION('',(0.,1.,0.));
#1340=DIRECTION('',(-1.,0.,0.));
#1341=DIRECTION('',(0.,0.,-1.));
#1342=DIRECTION('',(1.,0.,0.));
#1343=DIRECTION('',(0.,0.,1.));
#1344=DIRECTION('',(0.,0.,-1.));
#1345=DIRECTION('',(1.,0.,0.));
#1346=DIRECTION('',(0.,0.,1.));
#1347=DIRECTION('',(1.,0.,0.));
#1348=DIRECTION('',(0.,1.,0.));
#1349=DIRECTION('',(0.,0.,1.));
#1350=DIRECTION('',(0.,1.,0.));
#1351=DIRECTION('',(1.,0.,0.));
#1352=DIRECTION('',(0.,1.,0.));
#1353=DIRECTION('',(0.,0.,-1.));
#1354=DIRECTION('',(1.,0.,0.));
#1355=DIRECTION('',(0.,0.,1.));
#1356=DIRECTION('',(0.,0.,-1.));
#1357=DIRECTION('',(1.,0.,0.));
#1358=DIRECTION('',(0.,0.,1.));
#1359=DIRECTION('',(1.,0.,0.));
#1360=DIRECTION('',(1.,0.,0.));
#1361=DIRECTION('',(0.,0.,1.));
#1362=DIRECTION('',(1.,0.,0.));
#1363=DIRECTION('',(0.,-1.,0.));
#1364=DIRECTION('',(1.,0.,0.));
#1365=DIRECTION('',(0.,0.,-1.));
#1366=DIRECTION('',(0.999999999999999,0.,0.));
#1367=DIRECTION('',(0.,0.,-1.));
#1368=DIRECTION('',(0.999999999999999,0.,0.));
#1369=DIRECTION('',(0.,0.,1.));
#1370=DIRECTION('',(0.999999999999999,0.,0.));
#1371=DIRECTION('',(0.,0.,1.));
#1372=DIRECTION('',(1.,0.,0.));
#1373=DIRECTION('',(0.,-1.,0.));
#1374=DIRECTION('',(0.,0.,-1.));
#1375=DIRECTION('',(0.,1.,0.));
#1376=DIRECTION('',(0.,0.,1.));
#1377=DIRECTION('',(0.,1.,0.));
#1378=DIRECTION('',(0.,0.,1.));
#1379=DIRECTION('',(1.,0.,0.));
#1380=DIRECTION('',(0.,0.,-1.));
#1381=DIRECTION('',(0.,0.,1.));
#1382=DIRECTION('',(0.999999999999999,0.,0.));
#1383=DIRECTION('',(1.,0.,0.));
#1384=DIRECTION('',(0.,0.,-1.));
#1385=DIRECTION('',(0.,0.,1.));
#1386=DIRECTION('',(0.999999999999999,0.,0.));
#1387=DIRECTION('',(1.,0.,0.));
#1388=DIRECTION('',(0.,0.,-1.));
#1389=DIRECTION('',(1.,0.,0.));
#1390=DIRECTION('',(0.,0.,-1.));
#1391=DIRECTION('',(1.,0.,0.));
#1392=DIRECTION('',(0.,0.,-1.));
#1393=DIRECTION('',(-1.,0.,0.));
#1394=DIRECTION('',(0.,0.,1.));
#1395=DIRECTION('',(0.,-1.,0.));
#1396=DIRECTION('',(0.,0.,-1.));
#1397=DIRECTION('',(0.,0.,1.));
#1398=DIRECTION('',(1.,0.,0.));
#1399=DIRECTION('',(0.,1.,0.));
#1400=DIRECTION('',(0.,0.,1.));
#1401=DIRECTION('',(0.,0.,1.));
#1402=DIRECTION('',(1.,0.,0.));
#1403=DIRECTION('',(0.,-1.,0.));
#1404=DIRECTION('',(0.,0.,-1.));
#1405=DIRECTION('',(0.,-1.,0.));
#1406=DIRECTION('',(0.,0.,-1.));
#1407=DIRECTION('',(0.,1.,0.));
#1408=DIRECTION('',(0.,0.,1.));
#1409=DIRECTION('',(0.,-1.,0.));
#1410=DIRECTION('',(0.,0.,-1.));
#1411=DIRECTION('',(1.,0.,0.));
#1412=DIRECTION('',(0.,0.,-1.));
#1413=DIRECTION('',(0.,0.,-1.));
#1414=DIRECTION('',(-1.,0.,0.));
#1415=DIRECTION('',(1.,0.,0.));
#1416=DIRECTION('',(0.,0.,-1.));
#1417=DIRECTION('',(0.,0.,-1.));
#1418=DIRECTION('',(-1.,0.,0.));
#1419=DIRECTION('',(1.,0.,0.));
#1420=DIRECTION('',(0.,0.,-1.));
#1421=DIRECTION('',(-1.,0.,0.));
#1422=DIRECTION('',(0.,0.,1.));
#1423=DIRECTION('',(1.,0.,0.));
#1424=DIRECTION('',(0.,0.,-1.));
#1425=DIRECTION('',(-1.,0.,0.));
#1426=DIRECTION('',(0.,0.,1.));
#1427=DIRECTION('',(0.,-1.,0.));
#1428=DIRECTION('',(0.,0.,-1.));
#1429=DIRECTION('',(0.,0.,-1.));
#1430=DIRECTION('',(-1.,0.,0.));
#1431=DIRECTION('',(0.,1.,0.));
#1432=DIRECTION('',(0.,0.,1.));
#1433=DIRECTION('',(0.,0.,-1.));
#1434=DIRECTION('',(-1.,0.,0.));
#1435=DIRECTION('',(0.,-1.,0.));
#1436=DIRECTION('',(0.,0.,-1.));
#1437=CARTESIAN_POINT('',(0.,0.,0.));
#1438=CARTESIAN_POINT('',(30.,120.,30.));
#1439=CARTESIAN_POINT('',(30.,137.,30.));
#1440=CARTESIAN_POINT('',(13.,120.,30.));
#1441=CARTESIAN_POINT('',(13.,30.,30.));
#1442=CARTESIAN_POINT('',(13.,30.,30.));
#1443=CARTESIAN_POINT('',(30.,30.,30.));
#1444=CARTESIAN_POINT('',(30.,13.,30.));
#1445=CARTESIAN_POINT('',(220.,13.,30.));
#1446=CARTESIAN_POINT('',(220.,13.,30.));
#1447=CARTESIAN_POINT('',(220.,30.,30.));
#1448=CARTESIAN_POINT('',(237.,30.,30.));
#1449=CARTESIAN_POINT('',(237.,120.,30.));
#1450=CARTESIAN_POINT('',(237.,120.,30.));
#1451=CARTESIAN_POINT('',(220.,120.,30.));
#1452=CARTESIAN_POINT('',(220.,137.,30.));
#1453=CARTESIAN_POINT('',(30.,137.,30.));
#1454=CARTESIAN_POINT('',(125.,130.,30.));
#1455=CARTESIAN_POINT('',(30.,130.,30.));
#1456=CARTESIAN_POINT('',(220.,130.,30.));
#1457=CARTESIAN_POINT('',(220.,120.,30.));
#1458=CARTESIAN_POINT('',(230.,120.,30.));
#1459=CARTESIAN_POINT('',(230.,75.,30.));
#1460=CARTESIAN_POINT('',(230.,30.,30.));
#1461=CARTESIAN_POINT('',(220.,30.,30.));
#1462=CARTESIAN_POINT('',(220.,20.,30.));
#1463=CARTESIAN_POINT('',(125.,20.,30.));
#1464=CARTESIAN_POINT('',(30.,20.,30.));
#1465=CARTESIAN_POINT('',(30.,30.,30.));
#1466=CARTESIAN_POINT('',(20.,30.,30.));
#1467=CARTESIAN_POINT('',(20.,75.,30.));
#1468=CARTESIAN_POINT('',(20.,120.,30.));
#1469=CARTESIAN_POINT('',(30.,120.,30.));
#1470=CARTESIAN_POINT('',(125.,75.,30.));
#1471=CARTESIAN_POINT('',(180.,110.,0.));
#1472=CARTESIAN_POINT('',(172.7765,110.,0.));
#1473=CARTESIAN_POINT('',(180.,110.,10.));
#1474=CARTESIAN_POINT('',(172.7765,110.,10.));
#1475=CARTESIAN_POINT('',(180.,110.,10.));
#1476=CARTESIAN_POINT('',(160.,110.,0.));
#1477=CARTESIAN_POINT('',(152.7765,110.,0.));
#1478=CARTESIAN_POINT('',(160.,110.,10.));
#1479=CARTESIAN_POINT('',(152.7765,110.,10.));
#1480=CARTESIAN_POINT('',(160.,110.,10.));
#1481=CARTESIAN_POINT('',(140.,110.,0.));
#1482=CARTESIAN_POINT('',(132.7765,110.,0.));
#1483=CARTESIAN_POINT('',(140.,110.,10.));
#1484=CARTESIAN_POINT('',(132.7765,110.,10.));
#1485=CARTESIAN_POINT('',(140.,110.,10.));
#1486=CARTESIAN_POINT('',(120.,110.,0.));
#1487=CARTESIAN_POINT('',(112.7765,110.,0.));
#1488=CARTESIAN_POINT('',(120.,110.,10.));
#1489=CARTESIAN_POINT('',(112.7765,110.,10.));
#1490=CARTESIAN_POINT('',(120.,110.,10.));
#1491=CARTESIAN_POINT('',(100.,110.,0.));
#1492=CARTESIAN_POINT('',(92.7765,110.,0.));
#1493=CARTESIAN_POINT('',(100.,110.,10.));
#1494=CARTESIAN_POINT('',(92.7765,110.,10.));
#1495=CARTESIAN_POINT('',(100.,110.,10.));
#1496=CARTESIAN_POINT('',(80.,110.,0.));
#1497=CARTESIAN_POINT('',(72.7765,110.,0.));
#1498=CARTESIAN_POINT('',(80.,110.,10.));
#1499=CARTESIAN_POINT('',(72.7765,110.,10.));
#1500=CARTESIAN_POINT('',(80.,110.,10.));
#1501=CARTESIAN_POINT('',(60.,110.,0.));
#1502=CARTESIAN_POINT('',(52.7765,110.,0.));
#1503=CARTESIAN_POINT('',(60.,110.,10.));
#1504=CARTESIAN_POINT('',(52.7765,110.,10.));
#1505=CARTESIAN_POINT('',(60.,110.,10.));
#1506=CARTESIAN_POINT('',(0.,0.,0.));
#1507=CARTESIAN_POINT('',(0.,0.,0.));
#1508=CARTESIAN_POINT('',(0.,0.,50.));
#1509=CARTESIAN_POINT('',(125.,0.,0.));
#1510=CARTESIAN_POINT('',(250.,0.,0.));
#1511=CARTESIAN_POINT('',(250.,0.,0.));
#1512=CARTESIAN_POINT('',(250.,0.,50.));
#1513=CARTESIAN_POINT('',(125.,0.,50.));
#1514=CARTESIAN_POINT('',(125.,0.,0.));
#1515=CARTESIAN_POINT('',(0.,150.,0.));
#1516=CARTESIAN_POINT('',(0.,150.,0.));
#1517=CARTESIAN_POINT('',(0.,150.,50.));
#1518=CARTESIAN_POINT('',(0.,75.,0.));
#1519=CARTESIAN_POINT('',(0.,75.,50.));
#1520=CARTESIAN_POINT('',(0.,75.,0.));
#1521=CARTESIAN_POINT('',(250.,150.,0.));
#1522=CARTESIAN_POINT('',(250.,150.,0.));
#1523=CARTESIAN_POINT('',(250.,150.,50.));
#1524=CARTESIAN_POINT('',(125.,150.,0.));
#1525=CARTESIAN_POINT('',(125.,150.,50.));
#1526=CARTESIAN_POINT('',(125.,150.,0.));
#1527=CARTESIAN_POINT('',(250.,75.,0.));
#1528=CARTESIAN_POINT('',(250.,75.,50.));
#1529=CARTESIAN_POINT('',(250.,75.,0.));
#1530=CARTESIAN_POINT('',(220.,20.,20.));
#1531=CARTESIAN_POINT('',(220.,20.,13.));
#1532=CARTESIAN_POINT('',(30.,20.,13.));
#1533=CARTESIAN_POINT('',(30.,20.,13.));
#1534=CARTESIAN_POINT('',(30.,20.,30.));
#1535=CARTESIAN_POINT('',(125.,20.,0.));
#1536=CARTESIAN_POINT('',(20.,30.,20.));
#1537=CARTESIAN_POINT('',(20.,30.,13.));
#1538=CARTESIAN_POINT('',(20.,120.,13.));
#1539=CARTESIAN_POINT('',(20.,120.,13.));
#1540=CARTESIAN_POINT('',(20.,120.,30.));
#1541=CARTESIAN_POINT('',(20.,75.,0.));
#1542=CARTESIAN_POINT('',(30.,130.,20.));
#1543=CARTESIAN_POINT('',(30.,130.,13.));
#1544=CARTESIAN_POINT('',(220.,130.,13.));
#1545=CARTESIAN_POINT('',(220.,130.,13.));
#1546=CARTESIAN_POINT('',(220.,130.,30.));
#1547=CARTESIAN_POINT('',(125.,130.,0.));
#1548=CARTESIAN_POINT('',(230.,120.,20.));
#1549=CARTESIAN_POINT('',(230.,120.,13.));
#1550=CARTESIAN_POINT('',(230.,30.,13.));
#1551=CARTESIAN_POINT('',(230.,30.,13.));
#1552=CARTESIAN_POINT('',(230.,30.,30.));
#1553=CARTESIAN_POINT('',(230.,75.,0.));
#1554=CARTESIAN_POINT('',(220.,30.,13.));
#1555=CARTESIAN_POINT('',(220.,30.,0.));
#1556=CARTESIAN_POINT('',(220.,120.,13.));
#1557=CARTESIAN_POINT('',(220.,120.,0.));
#1558=CARTESIAN_POINT('',(30.,30.,13.));
#1559=CARTESIAN_POINT('',(30.,30.,0.));
#1560=CARTESIAN_POINT('',(30.,120.,13.));
#1561=CARTESIAN_POINT('',(30.,120.,0.));
#1562=CARTESIAN_POINT('',(40.,110.,0.));
#1563=CARTESIAN_POINT('',(32.7765,110.,0.));
#1564=CARTESIAN_POINT('',(125.,100.,0.));
#1565=CARTESIAN_POINT('',(190.,100.,0.));
#1566=CARTESIAN_POINT('',(60.,100.,0.));
#1567=CARTESIAN_POINT('',(60.,90.,0.));
#1568=CARTESIAN_POINT('',(50.,90.,0.));
#1569=CARTESIAN_POINT('',(50.,75.,0.));
#1570=CARTESIAN_POINT('',(50.,60.,0.));
#1571=CARTESIAN_POINT('',(60.,60.,0.));
#1572=CARTESIAN_POINT('',(60.,50.,0.));
#1573=CARTESIAN_POINT('',(125.,50.,0.));
#1574=CARTESIAN_POINT('',(190.,50.,0.));
#1575=CARTESIAN_POINT('',(190.,60.,0.));
#1576=CARTESIAN_POINT('',(200.,60.,0.));
#1577=CARTESIAN_POINT('',(200.,75.,0.));
#1578=CARTESIAN_POINT('',(200.,90.,0.));
#1579=CARTESIAN_POINT('',(190.,90.,0.));
#1580=CARTESIAN_POINT('',(125.,75.,0.));
#1581=CARTESIAN_POINT('',(200.,60.,10.));
#1582=CARTESIAN_POINT('',(200.,60.,10.));
#1583=CARTESIAN_POINT('',(200.,75.,10.));
#1584=CARTESIAN_POINT('',(200.,90.,10.));
#1585=CARTESIAN_POINT('',(200.,90.,0.));
#1586=CARTESIAN_POINT('',(200.,75.,0.));
#1587=CARTESIAN_POINT('',(190.,100.,10.));
#1588=CARTESIAN_POINT('',(190.,100.,10.));
#1589=CARTESIAN_POINT('',(125.,100.,10.));
#1590=CARTESIAN_POINT('',(60.,100.,10.));
#1591=CARTESIAN_POINT('',(60.,100.,0.));
#1592=CARTESIAN_POINT('',(125.,100.,0.));
#1593=CARTESIAN_POINT('',(50.,75.,10.));
#1594=CARTESIAN_POINT('',(50.,90.,10.));
#1595=CARTESIAN_POINT('',(50.,60.,10.));
#1596=CARTESIAN_POINT('',(50.,60.,0.));
#1597=CARTESIAN_POINT('',(50.,90.,10.));
#1598=CARTESIAN_POINT('',(50.,75.,0.));
#1599=CARTESIAN_POINT('',(125.,50.,10.));
#1600=CARTESIAN_POINT('',(190.,50.,10.));
#1601=CARTESIAN_POINT('',(60.,50.,10.));
#1602=CARTESIAN_POINT('',(190.,50.,0.));
#1603=CARTESIAN_POINT('',(60.,50.,10.));
#1604=CARTESIAN_POINT('',(125.,50.,0.));
#1605=CARTESIAN_POINT('',(30.,120.,10.));
#1606=CARTESIAN_POINT('',(30.,127.,10.));
#1607=CARTESIAN_POINT('',(23.,120.,10.));
#1608=CARTESIAN_POINT('',(23.,30.,10.));
#1609=CARTESIAN_POINT('',(23.,30.,10.));
#1610=CARTESIAN_POINT('',(30.,30.,10.));
#1611=CARTESIAN_POINT('',(30.,23.,10.));
#1612=CARTESIAN_POINT('',(220.,23.,10.));
#1613=CARTESIAN_POINT('',(220.,23.,10.));
#1614=CARTESIAN_POINT('',(220.,30.,10.));
#1615=CARTESIAN_POINT('',(227.,30.,10.));
#1616=CARTESIAN_POINT('',(227.,120.,10.));
#1617=CARTESIAN_POINT('',(227.,120.,10.));
#1618=CARTESIAN_POINT('',(220.,120.,10.));
#1619=CARTESIAN_POINT('',(220.,127.,10.));
#1620=CARTESIAN_POINT('',(30.,127.,10.));
#1621=CARTESIAN_POINT('',(40.,110.,10.));
#1622=CARTESIAN_POINT('',(32.7765,110.,10.));
#1623=CARTESIAN_POINT('',(190.,60.,10.));
#1624=CARTESIAN_POINT('',(60.,60.,10.));
#1625=CARTESIAN_POINT('',(60.,90.,10.));
#1626=CARTESIAN_POINT('',(190.,90.,10.));
#1627=CARTESIAN_POINT('',(125.,75.,10.));
#1628=CARTESIAN_POINT('',(190.,60.,0.));
#1629=CARTESIAN_POINT('',(190.,90.,0.));
#1630=CARTESIAN_POINT('',(60.,60.,0.));
#1631=CARTESIAN_POINT('',(60.,90.,0.));
#1632=CARTESIAN_POINT('',(40.,110.,10.));
#1633=CARTESIAN_POINT('',(240.,120.,30.));
#1634=CARTESIAN_POINT('',(240.,120.,33.));
#1635=CARTESIAN_POINT('',(240.,120.,50.));
#1636=CARTESIAN_POINT('',(240.,30.,33.));
#1637=CARTESIAN_POINT('',(240.,30.,33.));
#1638=CARTESIAN_POINT('',(240.,30.,30.));
#1639=CARTESIAN_POINT('',(240.,30.,50.));
#1640=CARTESIAN_POINT('',(240.,75.,50.));
#1641=CARTESIAN_POINT('',(240.,75.,30.));
#1642=CARTESIAN_POINT('',(220.,30.,33.));
#1643=CARTESIAN_POINT('',(220.,10.,33.));
#1644=CARTESIAN_POINT('',(220.,10.,30.));
#1645=CARTESIAN_POINT('',(220.,10.,50.));
#1646=CARTESIAN_POINT('',(220.,30.,50.));
#1647=CARTESIAN_POINT('',(220.,30.,30.));
#1648=CARTESIAN_POINT('',(30.,10.,33.));
#1649=CARTESIAN_POINT('',(30.,10.,33.));
#1650=CARTESIAN_POINT('',(30.,10.,30.));
#1651=CARTESIAN_POINT('',(30.,10.,50.));
#1652=CARTESIAN_POINT('',(125.,9.99999999999999,50.));
#1653=CARTESIAN_POINT('',(125.,10.,30.));
#1654=CARTESIAN_POINT('',(30.,30.,33.));
#1655=CARTESIAN_POINT('',(10.,30.,33.));
#1656=CARTESIAN_POINT('',(10.,30.,30.));
#1657=CARTESIAN_POINT('',(10.,30.,50.));
#1658=CARTESIAN_POINT('',(30.,30.,50.));
#1659=CARTESIAN_POINT('',(30.,30.,30.));
#1660=CARTESIAN_POINT('',(10.,120.,33.));
#1661=CARTESIAN_POINT('',(10.,120.,33.));
#1662=CARTESIAN_POINT('',(10.,120.,30.));
#1663=CARTESIAN_POINT('',(10.,120.,50.));
#1664=CARTESIAN_POINT('',(9.99999999999999,75.,50.));
#1665=CARTESIAN_POINT('',(10.,75.,30.));
#1666=CARTESIAN_POINT('',(30.,120.,33.));
#1667=CARTESIAN_POINT('',(30.,140.,33.));
#1668=CARTESIAN_POINT('',(30.,140.,30.));
#1669=CARTESIAN_POINT('',(30.,140.,50.));
#1670=CARTESIAN_POINT('',(30.,120.,50.));
#1671=CARTESIAN_POINT('',(30.,120.,30.));
#1672=CARTESIAN_POINT('',(220.,140.,33.));
#1673=CARTESIAN_POINT('',(220.,140.,33.));
#1674=CARTESIAN_POINT('',(220.,140.,30.));
#1675=CARTESIAN_POINT('',(220.,140.,50.));
#1676=CARTESIAN_POINT('',(125.,140.,50.));
#1677=CARTESIAN_POINT('',(125.,140.,30.));
#1678=CARTESIAN_POINT('',(220.,120.,33.));
#1679=CARTESIAN_POINT('',(220.,120.,50.));
#1680=CARTESIAN_POINT('',(220.,120.,30.));
#1681=CARTESIAN_POINT('',(125.,75.,50.));
#1682=CARTESIAN_POINT('',(237.,120.,33.));
#1683=CARTESIAN_POINT('',(237.,30.,33.));
#1684=CARTESIAN_POINT('',(237.,75.,33.));
#1685=CARTESIAN_POINT('',(220.,13.,33.));
#1686=CARTESIAN_POINT('',(220.,30.,33.));
#1687=CARTESIAN_POINT('',(220.,137.,33.));
#1688=CARTESIAN_POINT('',(220.,120.,33.));
#1689=CARTESIAN_POINT('',(30.,13.,33.));
#1690=CARTESIAN_POINT('',(125.,13.,33.));
#1691=CARTESIAN_POINT('',(30.,137.,33.));
#1692=CARTESIAN_POINT('',(125.,137.,33.));
#1693=CARTESIAN_POINT('',(13.,30.,33.));
#1694=CARTESIAN_POINT('',(30.,30.,33.));
#1695=CARTESIAN_POINT('',(13.,120.,33.));
#1696=CARTESIAN_POINT('',(30.,120.,33.));
#1697=CARTESIAN_POINT('',(13.,75.,33.));
#1698=CARTESIAN_POINT('',(227.,120.,13.));
#1699=CARTESIAN_POINT('',(227.,30.,13.));
#1700=CARTESIAN_POINT('',(227.,75.,13.));
#1701=CARTESIAN_POINT('',(220.,23.,13.));
#1702=CARTESIAN_POINT('',(220.,30.,13.));
#1703=CARTESIAN_POINT('',(220.,127.,13.));
#1704=CARTESIAN_POINT('',(220.,120.,13.));
#1705=CARTESIAN_POINT('',(30.,23.,13.));
#1706=CARTESIAN_POINT('',(125.,23.,13.));
#1707=CARTESIAN_POINT('',(30.,127.,13.));
#1708=CARTESIAN_POINT('',(125.,127.,13.));
#1709=CARTESIAN_POINT('',(23.,30.,13.));
#1710=CARTESIAN_POINT('',(30.,30.,13.));
#1711=CARTESIAN_POINT('',(23.,120.,13.));
#1712=CARTESIAN_POINT('',(30.,120.,13.));
#1713=CARTESIAN_POINT('',(23.,75.,13.));
#1714=MECHANICAL_DESIGN_GEOMETRIC_PRESENTATION_REPRESENTATION('',(#32),
#1715);
#1715=(
GEOMETRIC_REPRESENTATION_CONTEXT(3)
GLOBAL_UNCERTAINTY_ASSIGNED_CONTEXT((#1716))
GLOBAL_UNIT_ASSIGNED_CONTEXT((#1722,#1718,#1717))
REPRESENTATION_CONTEXT('009 - MORE_POCKETS_RADIUS',
'TOP_LEVEL_ASSEMBLY_PART')
);
#1716=UNCERTAINTY_MEASURE_WITH_UNIT(LENGTH_MEASURE(2.E-5),#1722,
'DISTANCE_ACCURACY_VALUE','Maximum Tolerance applied to model');
#1717=(
NAMED_UNIT(*)
SI_UNIT($,.STERADIAN.)
SOLID_ANGLE_UNIT()
);
#1718=(
CONVERSION_BASED_UNIT('DEGREE',#1720)
NAMED_UNIT(#1719)
PLANE_ANGLE_UNIT()
);
#1719=DIMENSIONAL_EXPONENTS(0.,0.,0.,0.,0.,0.,0.);
#1720=PLANE_ANGLE_MEASURE_WITH_UNIT(PLANE_ANGLE_MEASURE(0.0174532925),#1721);
#1721=(
NAMED_UNIT(*)
PLANE_ANGLE_UNIT()
SI_UNIT($,.RADIAN.)
);
#1722=(
LENGTH_UNIT()
NAMED_UNIT(*)
SI_UNIT(.MILLI.,.METRE.)
);
ENDSEC;
END-ISO-10303-21;
